<?xml version="1.0" encoding="utf-8"?>
<!-- Generator: Adobe Illustrator 27.2.0, SVG Export Plug-In . SVG Version: 6.00 Build 0)  -->
<svg version="1.1" id="Calque_1" xmlns="http://www.w3.org/2000/svg" xmlns:xlink="http://www.w3.org/1999/xlink" x="0px" y="0px"
	 viewBox="0 0 48 48" style="enable-background:new 0 0 48 48;" xml:space="preserve">
<style type="text/css">
	.st0{fill-rule:evenodd;clip-rule:evenodd;fill:#BD1823;}
	.st1{fill:#FFFFFF;}
	.st2{fill:#9B9A9A;}
	.st3{fill:#1C779C;}
	.st4{fill:#A46A25;}
	.st5{fill:url(#SVGID_1_);}
	.st6{fill:url(#SVGID_00000129898552507850338040000002865383983285361848_);}
	.st7{fill:url(#SVGID_00000115507961890156733270000017500549514460881034_);}
</style>
<path class="st0" d="M11.31,22.41c0-2.03,0-3.76,0-5.19C7.53,20.99,3.73,24.78,0,28.5c3.67,3.65,7.48,7.43,11.37,11.3
	c0-1.69,0-3.39,0-5.54c4.15,0,8.03,0,12.07,0h0.27V22.41H11.31z"/>
<rect x="23.46" y="12.31" class="st1" width="22.72" height="30.02"/>
<path class="st2" d="M44.52,13.73v-0.85c0-0.91-0.83-1.65-1.85-1.65h-4.17V7.92c0-2.03-1.64-3.67-3.67-3.67
	c-2.03,0-3.67,1.64-3.67,3.67v3.31h-4.17c-1.03,0-1.86,0.74-1.86,1.65v0.85H44.52z M34.82,5.92c0.82,0,1.49,0.67,1.49,1.49
	c0,0.82-0.67,1.49-1.49,1.49c-0.82,0-1.49-0.67-1.49-1.49C33.33,6.59,34,5.92,34.82,5.92z"/>
<path class="st3" d="M43.73,20.84c0,0.93-0.75,1.68-1.68,1.68H34.2c-0.93,0-1.68-0.75-1.68-1.68l0,0c0-0.93,0.75-1.68,1.68-1.68
	h7.86C42.98,19.16,43.73,19.91,43.73,20.84L43.73,20.84z"/>
<path class="st3" d="M43.73,28.79c0,0.93-0.75,1.68-1.68,1.68H34.2c-0.93,0-1.68-0.75-1.68-1.68l0,0c0-0.93,0.75-1.68,1.68-1.68
	h7.86C42.98,27.11,43.73,27.87,43.73,28.79L43.73,28.79z"/>
<path class="st3" d="M43.73,36.47c0,0.93-0.75,1.68-1.68,1.68H34.2c-0.93,0-1.68-0.75-1.68-1.68l0,0c0-0.93,0.75-1.68,1.68-1.68
	h7.86C42.98,34.79,43.73,35.54,43.73,36.47L43.73,36.47z"/>
<path class="st4" d="M45.99,12.31v1.82v13.29v14.51H23.66V27.42V14.13v-1.82c-1.11,0-2.01,0.82-2.01,1.82v27.79
	c0,1.01,0.9,1.82,2.01,1.82h22.33c1.11,0,2.01-0.82,2.01-1.82V14.13C48,13.13,47.1,12.31,45.99,12.31z"/>
<linearGradient id="SVGID_1_" gradientUnits="userSpaceOnUse" x1="27.297" y1="19.2773" x2="29.1637" y2="21.144">
	<stop  offset="0" style="stop-color:#009D00"/>
	<stop  offset="0.3012" style="stop-color:#009700"/>
	<stop  offset="0.7063" style="stop-color:#008600"/>
	<stop  offset="1" style="stop-color:#007500"/>
</linearGradient>
<path class="st5" d="M30.37,19.29L30.37,19.29c0.18,0.18,0.18,0.47,0,0.65L27.9,22.4c-0.15,0.15-0.39,0.15-0.54,0l-1.28-1.28
	c-0.18-0.18-0.18-0.47,0-0.65h0c0.18-0.18,0.47-0.18,0.65,0l0.9,0.9l2.09-2.09C29.9,19.11,30.19,19.11,30.37,19.29z"/>
<linearGradient id="SVGID_00000176001997264564519080000008164529855564776862_" gradientUnits="userSpaceOnUse" x1="27.297" y1="27.2329" x2="29.1637" y2="29.0997">
	<stop  offset="0" style="stop-color:#009D00"/>
	<stop  offset="0.3012" style="stop-color:#009700"/>
	<stop  offset="0.7063" style="stop-color:#008600"/>
	<stop  offset="1" style="stop-color:#007500"/>
</linearGradient>
<path style="fill:url(#SVGID_00000176001997264564519080000008164529855564776862_);" d="M30.37,27.25L30.37,27.25
	c0.18,0.18,0.18,0.47,0,0.65l-2.47,2.47c-0.15,0.15-0.39,0.15-0.54,0l-1.28-1.28c-0.18-0.18-0.18-0.47,0-0.65h0
	c0.18-0.18,0.47-0.18,0.65,0l0.9,0.9l2.09-2.09C29.9,27.07,30.19,27.07,30.37,27.25z"/>
<linearGradient id="SVGID_00000140714154880419162890000018128643075658090670_" gradientUnits="userSpaceOnUse" x1="27.297" y1="35.1886" x2="29.1637" y2="37.0553">
	<stop  offset="0" style="stop-color:#009D00"/>
	<stop  offset="0.3012" style="stop-color:#009700"/>
	<stop  offset="0.7063" style="stop-color:#008600"/>
	<stop  offset="1" style="stop-color:#007500"/>
</linearGradient>
<path style="fill:url(#SVGID_00000140714154880419162890000018128643075658090670_);" d="M30.37,35.2L30.37,35.2
	c0.18,0.18,0.18,0.47,0,0.65l-2.47,2.47c-0.15,0.15-0.39,0.15-0.54,0l-1.28-1.28c-0.18-0.18-0.18-0.47,0-0.65h0
	c0.18-0.18,0.47-0.18,0.65,0l0.9,0.9l2.09-2.09C29.9,35.03,30.19,35.03,30.37,35.2z"/>
</svg>
