<?xml version="1.0" encoding="utf-8"?>
<!-- Generator: Adobe Illustrator 27.2.0, SVG Export Plug-In . SVG Version: 6.00 Build 0)  -->
<svg version="1.1" id="Calque_1" xmlns="http://www.w3.org/2000/svg" xmlns:xlink="http://www.w3.org/1999/xlink" x="0px" y="0px"
	 viewBox="0 0 48 48" style="enable-background:new 0 0 48 48;" xml:space="preserve">
<style type="text/css">
	.st0{fill:#FFFFFF;}
	.st1{fill:#1D1E1C;}
	.st2{fill:#E10B17;}
</style>
<g>
	<g>
		<g>
			<path class="st0" d="M7.71,31.5c-0.35,0-0.63-0.27-0.63-0.61V17.11c0-0.33,0.28-0.61,0.63-0.61h32.58c0.35,0,0.63,0.27,0.63,0.61
				v13.79c0,0.33-0.28,0.61-0.63,0.61H7.71z"/>
			<path class="st1" d="M40.29,17c0.07,0,0.13,0.05,0.13,0.11v13.79c0,0.06-0.06,0.11-0.13,0.11H7.71c-0.07,0-0.13-0.05-0.13-0.11
				V17.11c0-0.06,0.06-0.11,0.13-0.11H40.29 M40.29,16H7.71c-0.62,0-1.13,0.5-1.13,1.11v13.79c0,0.61,0.5,1.11,1.13,1.11h32.58
				c0.62,0,1.13-0.5,1.13-1.11V17.11C41.41,16.5,40.91,16,40.29,16L40.29,16z"/>
		</g>
		<g>
			<rect x="8.85" y="17.92" class="st1" width="3.23" height="12.16"/>
			<rect x="12.93" y="17.92" class="st1" width="1.04" height="12.16"/>
			<rect x="14.68" y="17.92" class="st1" width="2.1" height="12.16"/>
			<rect x="26.1" y="17.92" class="st1" width="2.1" height="12.16"/>
			<rect x="23.42" y="17.92" class="st1" width="0.73" height="12.16"/>
			<rect x="24.76" y="17.92" class="st1" width="0.73" height="12.16"/>
			<rect x="37.08" y="17.92" class="st1" width="0.73" height="12.16"/>
			<rect x="38.42" y="17.92" class="st1" width="0.73" height="12.16"/>
			<rect x="33.18" y="17.92" class="st1" width="0.73" height="12.16"/>
			<rect x="20.51" y="17.92" class="st1" width="2.28" height="12.16"/>
			<rect x="30.39" y="17.92" class="st1" width="2.28" height="12.16"/>
			<rect x="34.36" y="17.92" class="st1" width="2.28" height="12.16"/>
			<rect x="17.5" y="17.92" class="st1" width="0.51" height="12.16"/>
			<rect x="18.68" y="17.92" class="st1" width="1.18" height="12.16"/>
			<rect x="28.66" y="17.92" class="st1" width="1.18" height="12.16"/>
		</g>
	</g>
	<path class="st2" d="M48,24c0,0.59-0.49,1.08-1.1,1.08H1.1C0.49,25.08,0,24.6,0,24l0,0c0-0.6,0.49-1.08,1.1-1.08H46.9
		C47.51,22.92,48,23.41,48,24L48,24z"/>
</g>
</svg>
