<?xml version="1.0" encoding="utf-8"?>
<!-- Generator: Adobe Illustrator 27.2.0, SVG Export Plug-In . SVG Version: 6.00 Build 0)  -->
<svg version="1.1" id="Calque_1" xmlns="http://www.w3.org/2000/svg" xmlns:xlink="http://www.w3.org/1999/xlink" x="0px" y="0px"
	 viewBox="0 0 48 48" style="enable-background:new 0 0 48 48;" xml:space="preserve">
<style type="text/css">
	.st0{fill:#FFFFFF;}
	.st1{fill:#585856;}
	.st2{fill:url(#SVGID_1_);}
</style>
<g>
	<g>
		<g>
			<path class="st0" d="M35.81,6.26c-9.45-1.44-14.17-1.44-23.63,0c-0.59,0.09-1.03,0.58-0.96,1.09c1.2,9.98,0.56,22.24-0.25,30.83
				c0,0,3.67,1.8,13.02,1.8c9.35,0,13.02-1.8,13.02-1.8c-0.81-8.6-1.45-20.86-0.24-30.83C36.84,6.85,36.41,6.35,35.81,6.26z"/>
			<path class="st1" d="M38.87,8.09c0.24-1.61-1.14-3.3-3.15-3.64c-1.82-0.31-3.43-0.54-4.97-0.73C30.24,1.62,27.44,0,24,0
				c-3.45,0-6.25,1.62-6.76,3.73c-1.53,0.19-3.15,0.42-4.97,0.73c-2,0.34-3.39,2.02-3.14,3.64c1.68,11.27,1.68,16.9,0,28.17
				c-0.24,1.61,1.15,3.3,3.14,3.64c2.48,0.42,4.62,0.72,6.61,0.92v5.4c0,0.99,0.99,1.79,2.21,1.79c1.22,0,2.21-0.8,2.21-1.79v-5.14
				c0.87,0.01,1.74,0,2.61-0.03v2.24c0,0.71,0.71,1.29,1.6,1.29c0.88,0,1.59-0.58,1.59-1.29v-2.46c1.99-0.2,4.13-0.5,6.61-0.92
				c2-0.34,3.39-2.02,3.15-3.64C37.18,24.99,37.18,19.37,38.87,8.09z M24,0.87c0.57,0,1.04,0.77,1.04,1.73
				c0,0.95-0.47,1.73-1.04,1.73c-0.58,0-1.04-0.77-1.04-1.73C22.96,1.64,23.42,0.87,24,0.87z M36.4,36.69
				c0.06,0.49-0.36,0.97-0.94,1.05c-9.17,1.4-13.75,1.4-22.92,0c-0.57-0.09-1-0.56-0.94-1.05c1.4-11.61,1.4-17.42,0-29.03
				c-0.06-0.49,0.37-0.97,0.94-1.05c9.17-1.4,13.75-1.4,22.92,0c0.57,0.08,1,0.57,0.94,1.05C34.99,19.28,34.99,25.08,36.4,36.69z"/>
		</g>
	</g>
</g>
<g>
	<linearGradient id="SVGID_1_" gradientUnits="userSpaceOnUse" x1="1.5169" y1="1.5169" x2="46.4831" y2="46.4831">
		<stop  offset="0" style="stop-color:#D71800"/>
		<stop  offset="0.2614" style="stop-color:#D11700"/>
		<stop  offset="0.6136" style="stop-color:#C01500"/>
		<stop  offset="1" style="stop-color:#A51200"/>
	</linearGradient>
	<path class="st2" d="M46.48,39.16L31.32,24L46.48,8.84c2.02-2.02,2.02-5.3,0-7.32s-5.3-2.02-7.32,0L24,16.68L8.84,1.52
		c-2.02-2.02-5.3-2.02-7.32,0s-2.02,5.3,0,7.32L16.68,24L1.52,39.16c-2.02,2.02-2.02,5.3,0,7.32s5.3,2.02,7.32,0L24,31.32
		l15.16,15.16c2.02,2.02,5.3,2.02,7.32,0S48.51,41.18,46.48,39.16z"/>
</g>
</svg>
