<?xml version="1.0" encoding="utf-8"?>
<!-- Generator: Adobe Illustrator 27.2.0, SVG Export Plug-In . SVG Version: 6.00 Build 0)  -->
<svg version="1.1" id="Calque_1" xmlns="http://www.w3.org/2000/svg" xmlns:xlink="http://www.w3.org/1999/xlink" x="0px" y="0px"
	 viewBox="0 0 48 48" style="enable-background:new 0 0 48 48;" xml:space="preserve">
<style type="text/css">
	.st0{fill-rule:evenodd;clip-rule:evenodd;fill:#BD1823;}
	.st1{fill:#FFFFFF;}
	.st2{fill:#585856;}
	.st3{fill:#BD1823;}
</style>
<g>
	<path class="st0" d="M11.49,16.45c0-2.06,0-3.83,0-5.29C7.65,15.01,3.79,18.87,0,22.65c3.73,3.72,7.6,7.56,11.56,11.5
		c0-1.72,0-3.45,0-5.64c4.22,0,8.16,0,12.27,0h0.27V16.45H11.49z"/>
	<g>
		<g>
			<path class="st1" d="M45.07,7.19c-8.97-1.36-13.45-1.36-22.43,0c-0.56,0.09-0.98,0.55-0.92,1.03c1.14,9.46,0.53,21.08-0.23,29.23
				c0,0,3.48,1.71,12.36,1.71s12.36-1.71,12.36-1.71c-0.76-8.15-1.37-19.77-0.23-29.23C46.05,7.74,45.64,7.27,45.07,7.19z"/>
			<path class="st2" d="M47.97,8.92c0.23-1.53-1.08-3.13-2.98-3.45c-1.73-0.29-3.26-0.51-4.71-0.69c-0.49-2-3.14-3.54-6.41-3.54
				c-3.27,0-5.93,1.54-6.42,3.54c-1.45,0.18-2.99,0.4-4.71,0.69c-1.9,0.32-3.22,1.92-2.98,3.45c1.6,10.68,1.6,16.02,0,26.7
				c-0.23,1.53,1.09,3.13,2.98,3.45c2.36,0.4,4.39,0.68,6.28,0.87v5.11c0,0.93,0.94,1.69,2.1,1.69c1.16,0,2.1-0.76,2.1-1.69v-4.87
				c0.82,0.01,1.65,0,2.48-0.03v2.13c0,0.67,0.68,1.22,1.52,1.22c0.84,0,1.51-0.55,1.51-1.22v-2.33c1.89-0.19,3.92-0.47,6.28-0.87
				c1.9-0.32,3.22-1.92,2.98-3.45C46.38,24.94,46.38,19.61,47.97,8.92z M33.86,2.07c0.54,0,0.98,0.73,0.98,1.64
				s-0.44,1.64-0.98,1.64c-0.55,0-0.99-0.73-0.99-1.64S33.31,2.07,33.86,2.07z M45.63,36.03c0.06,0.46-0.34,0.92-0.89,1
				c-8.71,1.33-13.05,1.33-21.75,0c-0.54-0.08-0.95-0.54-0.89-1c1.33-11,1.33-16.51,0-27.51c-0.06-0.46,0.35-0.92,0.89-1
				c8.71-1.32,13.05-1.32,21.75,0c0.55,0.08,0.95,0.54,0.89,1C44.3,19.52,44.3,25.02,45.63,36.03z"/>
		</g>
		<g>
			<path class="st1" d="M40.29,24.67c-1.2-3.73-5.89-10.16-6.43-10.89c-0.54,0.73-5.23,7.17-6.43,10.89
				c-0.33,0.81-0.5,1.69-0.5,2.61c0,3.84,3.11,6.96,6.94,6.96c3.83,0,6.94-3.11,6.94-6.96C40.8,26.35,40.62,25.47,40.29,24.67z"/>
			<path class="st3" d="M40.61,24.7c-1.26-3.91-6.18-10.66-6.75-11.43c-0.57,0.77-5.49,7.52-6.75,11.43
				c-0.34,0.84-0.53,1.77-0.53,2.73c0,4.03,3.26,7.3,7.28,7.3s7.28-3.27,7.28-7.3C41.14,26.46,40.95,25.54,40.61,24.7z M32.02,32.39
				c-0.8,0.1-2.36-0.4-3.19-2.58c-1.03-2.68,0.65-6.69,1.74-8.45c-1.13,3.95,0.02,7.51,1.96,8.91
				C33.61,31.03,32.97,32.27,32.02,32.39z"/>
		</g>
	</g>
</g>
</svg>
