<?xml version="1.0" encoding="utf-8"?>
<!-- Generator: Adobe Illustrator 27.2.0, SVG Export Plug-In . SVG Version: 6.00 Build 0)  -->
<svg version="1.1" id="Calque_1" xmlns="http://www.w3.org/2000/svg" xmlns:xlink="http://www.w3.org/1999/xlink" x="0px" y="0px"
	 viewBox="0 0 48 48" style="enable-background:new 0 0 48 48;" xml:space="preserve">
<style type="text/css">
	.st0{fill:#FFFFFF;}
	.st1{fill:#585856;}
	.st2{fill:#BD1823;}
	.st3{fill:#F19001;}
	.st4{fill:#1D1E1C;}
	.st5{fill:#1C779C;}
</style>
<g>
	<g>
		<path class="st0" d="M28.4,4.96c-7.53-1.14-11.28-1.14-18.81,0C9.13,5.03,8.78,5.42,8.83,5.82c0.96,7.9,0.45,17.6-0.19,24.41
			c0,0,2.92,1.42,10.37,1.42c7.45,0,10.37-1.42,10.37-1.42c-0.64-6.81-1.15-16.51-0.19-24.41C29.22,5.42,28.88,5.03,28.4,4.96z"/>
		<path class="st1" d="M30.84,6.41c0.19-1.28-0.91-2.61-2.5-2.88c-1.45-0.25-2.73-0.43-3.95-0.58C23.97,1.28,21.74,0,19,0
			c-2.75,0-4.97,1.28-5.38,2.95c-1.22,0.15-2.5,0.33-3.95,0.58c-1.59,0.27-2.7,1.6-2.5,2.88c1.34,8.92,1.34,13.38,0,22.3
			c-0.19,1.28,0.91,2.61,2.5,2.88c1.98,0.33,3.68,0.57,5.26,0.73v4.27c0,0.78,0.79,1.41,1.76,1.41c0.97,0,1.76-0.63,1.76-1.41v-4.07
			c0.69,0.01,1.39,0,2.08-0.03v1.77c0,0.56,0.57,1.02,1.27,1.02c0.7,0,1.27-0.46,1.27-1.02v-1.95c1.59-0.16,3.29-0.39,5.26-0.73
			c1.59-0.27,2.7-1.6,2.5-2.88C29.5,19.79,29.5,15.33,30.84,6.41z M19,0.69c0.46,0,0.83,0.61,0.83,1.37c0,0.76-0.37,1.37-0.83,1.37
			c-0.46,0-0.83-0.61-0.83-1.37C18.17,1.3,18.54,0.69,19,0.69z M28.87,29.05c0.05,0.39-0.29,0.76-0.75,0.83
			c-7.3,1.11-10.94,1.11-18.24,0c-0.46-0.07-0.79-0.45-0.75-0.83c1.12-9.19,1.12-13.79,0-22.98C9.08,5.68,9.42,5.3,9.88,5.23
			c7.3-1.11,10.94-1.11,18.24,0c0.46,0.07,0.8,0.45,0.75,0.83C27.75,15.26,27.75,19.85,28.87,29.05z"/>
	</g>
	<g>
		<path class="st0" d="M24.39,19.56c-1.01-3.11-4.94-8.49-5.39-9.1c-0.46,0.61-4.39,5.98-5.4,9.1c-0.27,0.67-0.42,1.41-0.42,2.18
			c0,3.21,2.61,5.81,5.82,5.81c3.21,0,5.82-2.6,5.82-5.81C24.82,20.96,24.67,20.23,24.39,19.56z"/>
		<path class="st2" d="M24.66,19.58c-1.06-3.27-5.18-8.9-5.66-9.55c-0.48,0.64-4.6,6.28-5.66,9.55c-0.29,0.71-0.45,1.48-0.45,2.28
			c0,3.37,2.73,6.09,6.11,6.09c3.37,0,6.1-2.73,6.1-6.09C25.1,21.06,24.95,20.29,24.66,19.58z M17.46,26
			c-0.67,0.08-1.98-0.33-2.68-2.16c-0.86-2.24,0.55-5.59,1.46-7.05c-0.95,3.3,0.02,6.27,1.65,7.44C18.79,24.87,18.26,25.91,17.46,26
			z"/>
	</g>
</g>
<g>
	<path class="st0" d="M46.52,36c0,5.81-4.71,10.52-10.52,10.52S25.48,41.81,25.48,36c0-5.81,4.71-10.52,10.52-10.52
		S46.52,30.19,46.52,36z"/>
	<path class="st3" d="M36,24c-6.63,0-12,5.37-12,12c0,6.63,5.37,12,12,12c6.62,0,12-5.37,12-12C48,29.37,42.63,24,36,24z M36,45.54
		c-5.27,0-9.54-4.27-9.54-9.54c0-5.27,4.27-9.54,9.54-9.54s9.53,4.27,9.53,9.54C45.54,41.27,41.27,45.54,36,45.54z"/>
	<path class="st4" d="M37.13,36c0,0.62-0.51,1.13-1.13,1.13c-0.62,0-1.13-0.51-1.13-1.13c0-0.62,0.51-1.13,1.13-1.13
		C36.62,34.87,37.13,35.38,37.13,36z"/>
	<path class="st5" d="M37.13,36c0,0.62-0.51,1.13-1.13,1.13l0,0c-0.62,0-1.13-0.5-1.13-1.13v-6.45c0-0.62,0.5-1.13,1.13-1.13l0,0
		c0.62,0,1.13,0.5,1.13,1.13V36z"/>
	<path class="st5" d="M39.98,38.38l-1.94-1.94L36.8,35.2c-0.44-0.44-1.15-0.44-1.6,0c-0.44,0.44-0.44,1.16,0,1.6l1.24,1.24
		l1.94,1.94c0.44,0.44,1.16,0.44,1.6,0C40.42,39.54,40.42,38.82,39.98,38.38z"/>
</g>
</svg>
