<?xml version="1.0" encoding="utf-8"?>
<!-- Generator: Adobe Illustrator 27.1.0, SVG Export Plug-In . SVG Version: 6.00 Build 0)  -->
<svg version="1.1" id="Calque_1" xmlns="http://www.w3.org/2000/svg" xmlns:xlink="http://www.w3.org/1999/xlink" x="0px" y="0px"
	 viewBox="0 0 48 48" style="enable-background:new 0 0 48 48;" xml:space="preserve">
<style type="text/css">
	.st0{fill:none;stroke:#585858;stroke-width:1.2095;stroke-miterlimit:10;}
	.st1{fill:#1C779C;}
	.st2{fill:#FFFFFF;}
	.st3{fill:#585858;}
	.st4{fill:#AC0800;}
	.st5{fill:#C6C6C6;}
</style>
<path class="st0" d="M23.7,20.7c-0.2,5-2.8,5-7,5.1"/>
<rect x="32.3" y="2" class="st1" width="1.8" height="29.8"/>
<path class="st1" d="M41.6,4.5c-0.8,0-1.5-0.4-2.2-1.1l-0.2-0.2c-0.9-0.9-1-1.1-5.9-1.1s-5.1,0.2-5.9,1.1L27,3.4c-0.9,0.9-2,1.3-3,1
	c-0.8-0.3-1.4-1.1-1.5-1.9C22.5,1.4,23,0.5,23.9,0l0.6,1c-0.5,0.3-0.8,0.8-0.8,1.3c0,0.4,0.3,0.8,0.7,0.9c0.5,0.2,1.1-0.1,1.7-0.7
	l0.2-0.2c1.2-1.2,1.6-1.5,6.8-1.5s5.6,0.2,6.8,1.5l0.2,0.2c0.6,0.6,1.2,0.9,1.7,0.7c0.4-0.1,0.7-0.5,0.7-0.9c0-0.5-0.2-0.9-0.8-1.3
	l0.6-1c0.9,0.5,1.4,1.4,1.3,2.4c-0.1,0.9-0.7,1.7-1.5,1.9C42.1,4.4,41.9,4.5,41.6,4.5z"/>
<path class="st2" d="M29.3,5.3c-3.6-0.5-5.4-0.5-9,0c-0.2,0-0.4,0.2-0.4,0.4c0.5,3.8,0.5,6,0.2,9.2h9.3c-0.3-3.3-0.2-5.5,0.2-9.2
	C29.7,5.5,29.5,5.3,29.3,5.3z"/>
<path class="st3" d="M30.4,6c0.1-0.6-0.4-1.2-1.2-1.4c-0.7-0.1-1.3-0.2-1.9-0.3c-0.2-0.8-1.3-1.4-2.6-1.4c-0.2,0-0.5,0-0.7,0.1
	c0.1,0.1,0.2,0.2,0.4,0.3c0.1,0,0.1,0,0.2,0c0,0,0.1,0,0.1,0c0.2,0,0.4,0.3,0.4,0.7c0,0.4-0.2,0.7-0.4,0.7c-0.1,0-0.1,0-0.2-0.1
	c-0.2,0-0.3,0-0.5-0.1c-0.5-0.2-0.9-0.5-1.1-0.9c-0.4,0.2-0.6,0.6-0.7,0.9c-0.6,0.1-1.2,0.2-1.9,0.3c-0.8,0.1-1.3,0.8-1.2,1.4
	c0.6,4.3,0.6,6.4,0,10.7c-0.1,0.6,0.4,1.2,1.2,1.4c0.9,0.2,1.8,0.3,2.5,0.3v2c0,0.4,0.4,0.7,0.8,0.7c0.5,0,0.8-0.3,0.8-0.7v-1.9
	c0.3,0,0.7,0,1,0v0.8c0,0.3,0.3,0.5,0.6,0.5c0.3,0,0.6-0.2,0.6-0.5v-0.9c0.8-0.1,1.6-0.2,2.5-0.3c0.8-0.1,1.3-0.8,1.2-1.4
	C29.8,12.4,29.8,10.2,30.4,6z M29.5,16.8c0,0.2-0.1,0.4-0.4,0.4c-3.5,0.5-5.2,0.5-8.7,0c-0.2,0-0.4-0.2-0.4-0.4
	c0.5-4.4,0.5-6.6,0-11c0-0.2,0.1-0.4,0.4-0.4c3.5-0.5,5.2-0.5,8.7,0c0.2,0,0.4,0.2,0.4,0.4C29,10.2,29,12.4,29.5,16.8z"/>
<g>
	<path class="st2" d="M27.3,12.5c-0.5-1.5-2.3-4-2.5-4.3c-0.2,0.3-2.1,2.8-2.5,4.3c-0.1,0.3-0.2,0.7-0.2,1c0,1.5,1.2,2.7,2.7,2.7
		c1.5,0,2.7-1.2,2.7-2.7C27.5,13.2,27.5,12.8,27.3,12.5z"/>
	<path class="st4" d="M27.5,12.5C27,11,25,8.3,24.8,8c-0.2,0.3-2.2,3-2.7,4.5c-0.1,0.3-0.2,0.7-0.2,1.1c0,1.6,1.3,2.9,2.9,2.9
		c1.6,0,2.9-1.3,2.9-2.9C27.7,13.2,27.6,12.9,27.5,12.5z M24.1,15.6c-0.3,0-0.9-0.2-1.3-1c-0.4-1.1,0.3-2.6,0.7-3.3
		c-0.4,1.6,0,3,0.8,3.5C24.7,15,24.4,15.5,24.1,15.6z"/>
</g>
<g>
	<path class="st1" d="M3.1,13.5c0,2.2,1.8,4,4,4c2.2,0,4-1.8,4-4c0-2.2-1.8-3.9-4-3.9C4.9,9.6,3.1,11.3,3.1,13.5z"/>
	<polygon points="4.7,36.8 43.3,36.8 45.8,36.8 45.8,39.7 45.8,48 43.3,48 43.3,39.7 4.7,39.7 4.7,48 2.2,48 2.2,39.7 2.2,36.8 	"/>
	<path class="st5" d="M2.4,20.8c0.2-0.1,0.5-0.2,0.9,0l9.8,9.8h12.1v-4.9l15.9,0c2.6,0,4.8,2.2,4.8,4.8v4.6H2.2v-2.5v-2.1v-9.4
		C2.2,21.1,2.3,20.9,2.4,20.8z"/>
	<path class="st1" d="M11.8,20l5.8,5.6h6.2v3.6h-9.6L4.9,20C9.1,16.8,11.8,20,11.8,20z"/>
</g>
</svg>
