<?xml version="1.0" encoding="utf-8"?>
<!-- Generator: Adobe Illustrator 27.2.0, SVG Export Plug-In . SVG Version: 6.00 Build 0)  -->
<svg version="1.1" id="Calque_1" xmlns="http://www.w3.org/2000/svg" xmlns:xlink="http://www.w3.org/1999/xlink" x="0px" y="0px"
	 viewBox="0 0 48 48" style="enable-background:new 0 0 48 48;" xml:space="preserve">
<style type="text/css">
	.st0{fill:#FFFFFF;}
	.st1{fill:#585856;}
	.st2{fill:#BD1823;}
	.st3{fill:url(#SVGID_1_);}
</style>
<g>
	<g>
		<g>
			<path class="st0" d="M31.8,13.66c-6.24-0.95-9.36-0.95-15.6,0c-0.39,0.06-0.68,0.38-0.64,0.72c0.8,6.56,0.37,14.62-0.16,20.27
				c0,0,2.42,1.18,8.6,1.18s8.6-1.18,8.6-1.18c-0.53-5.65-0.95-13.71-0.16-20.27C32.48,14.04,32.19,13.72,31.8,13.66z"/>
			<path class="st1" d="M33.81,14.86c0.16-1.06-0.75-2.17-2.07-2.39c-1.2-0.2-2.26-0.35-3.28-0.48c-0.34-1.39-2.19-2.45-4.46-2.45
				c-2.28,0-4.12,1.07-4.46,2.45c-1.01,0.12-2.08,0.28-3.28,0.48c-1.32,0.22-2.24,1.33-2.07,2.39c1.11,7.41,1.11,11.11,0,18.52
				c-0.16,1.06,0.75,2.17,2.07,2.39c1.64,0.28,3.05,0.47,4.37,0.6v3.55c0,0.65,0.65,1.18,1.46,1.18c0.81,0,1.46-0.53,1.46-1.18
				v-3.38c0.57,0.01,1.15,0,1.72-0.02V38c0,0.47,0.47,0.85,1.05,0.85c0.58,0,1.05-0.38,1.05-0.85v-1.62
				c1.32-0.13,2.73-0.33,4.36-0.6c1.32-0.22,2.24-1.33,2.07-2.39C32.7,25.97,32.7,22.27,33.81,14.86z M24,10.11
				c0.38,0,0.68,0.51,0.68,1.14s-0.31,1.14-0.68,1.14c-0.38,0-0.69-0.51-0.69-1.14S23.62,10.11,24,10.11z M32.18,33.67
				c0.04,0.32-0.24,0.64-0.62,0.69c-6.05,0.92-9.07,0.92-15.13,0c-0.38-0.06-0.66-0.37-0.62-0.69c0.93-7.63,0.93-11.45,0-19.08
				c-0.04-0.32,0.24-0.64,0.62-0.69c6.05-0.92,9.07-0.92,15.13,0c0.38,0.06,0.66,0.37,0.62,0.69
				C31.26,22.21,31.26,26.03,32.18,33.67z"/>
		</g>
		<g>
			<path class="st0" d="M28.47,25.78c-0.84-2.58-4.1-7.05-4.47-7.56c-0.38,0.51-3.64,4.97-4.47,7.56c-0.23,0.56-0.35,1.17-0.35,1.81
				c0,2.66,2.16,4.83,4.83,4.83c2.66,0,4.82-2.16,4.82-4.83C28.82,26.95,28.7,26.34,28.47,25.78z"/>
			<path class="st2" d="M28.69,25.81c-0.88-2.71-4.3-7.39-4.69-7.93c-0.4,0.53-3.81,5.22-4.69,7.93c-0.24,0.59-0.37,1.22-0.37,1.9
				c0,2.8,2.27,5.06,5.06,5.06s5.06-2.27,5.06-5.06C29.06,27.03,28.93,26.39,28.69,25.81z M22.72,31.14
				c-0.55,0.07-1.64-0.28-2.22-1.79c-0.71-1.86,0.46-4.64,1.21-5.86c-0.79,2.74,0.02,5.21,1.37,6.18
				C23.82,30.2,23.38,31.06,22.72,31.14z"/>
		</g>
	</g>
</g>
<linearGradient id="SVGID_1_" gradientUnits="userSpaceOnUse" x1="-151.7676" y1="-147.6666" x2="-185.7089" y2="-113.7253" gradientTransform="matrix(0 -1 1 0 154.6941 -144.7364)">
	<stop  offset="0" style="stop-color:#D71800"/>
	<stop  offset="0.2614" style="stop-color:#D11700"/>
	<stop  offset="0.6136" style="stop-color:#C01500"/>
	<stop  offset="1" style="stop-color:#A51200"/>
</linearGradient>
<path class="st3" d="M9.18,5.13C7.66,6.31,6.3,7.68,5.12,9.19C1.91,13.26,0,18.41,0,24c0,13.26,10.74,24,24,24
	c5.59,0,10.74-1.91,14.81-5.12c1.51-1.18,2.88-2.54,4.06-4.06C46.08,34.74,48,29.6,48,24C48,10.75,37.25,0,24,0
	C18.4,0,13.26,1.92,9.18,5.13z M24,40.12C15.1,40.12,7.88,32.9,7.88,24c0-3.41,1.06-6.58,2.87-9.18l22.43,22.43
	C30.57,39.06,27.41,40.12,24,40.12z M40.12,24c0,3.41-1.07,6.58-2.88,9.19L14.82,10.76c2.61-1.81,5.77-2.87,9.18-2.87
	C32.9,7.89,40.12,15.1,40.12,24z"/>
</svg>
