<?xml version="1.0" encoding="utf-8"?>
<!-- Generator: Adobe Illustrator 27.2.0, SVG Export Plug-In . SVG Version: 6.00 Build 0)  -->
<svg version="1.1" id="Calque_1" xmlns="http://www.w3.org/2000/svg" xmlns:xlink="http://www.w3.org/1999/xlink" x="0px" y="0px"
	 viewBox="0 0 48 48" style="enable-background:new 0 0 48 48;" xml:space="preserve">
<style type="text/css">
	.st0{fill-rule:evenodd;clip-rule:evenodd;fill:#92C01F;}
	.st1{fill:#FFFFFF;}
	.st2{fill:#585856;}
	.st3{fill:#BD1823;}
	.st4{fill:#E10B17;}
</style>
<g>
	<path class="st0" d="M20.05,26.68c0,1.13,0,2.1,0,2.9c2.12-2.11,4.25-4.23,6.34-6.31c-2.06-2.04-4.19-4.16-6.38-6.32
		c0,0.95,0,1.9,0,3.1c-2.33,0-4.5,0-6.77,0h-0.15v6.63H20.05z"/>
	<g>
		<g>
			<path class="st1" d="M13.99,14.76c-4.95-0.75-7.42-0.75-12.37,0c-0.31,0.05-0.54,0.3-0.5,0.57c0.63,5.2,0.29,11.58-0.13,16.06
				c0,0,1.92,0.94,6.82,0.94c4.9,0,6.82-0.94,6.82-0.94c-0.42-4.48-0.76-10.86-0.13-16.06C14.53,15.06,14.3,14.81,13.99,14.76z"/>
			<path class="st2" d="M15.59,15.72c0.13-0.84-0.6-1.72-1.64-1.9c-0.95-0.16-1.8-0.28-2.6-0.38c-0.27-1.1-1.73-1.94-3.54-1.94
				c-1.81,0-3.27,0.84-3.54,1.94c-0.8,0.1-1.65,0.22-2.6,0.38c-1.05,0.18-1.77,1.05-1.65,1.9c0.88,5.87,0.88,8.8,0,14.67
				c-0.13,0.84,0.6,1.72,1.65,1.89c1.3,0.22,2.42,0.38,3.46,0.48v2.81c0,0.51,0.52,0.93,1.16,0.93c0.64,0,1.16-0.42,1.16-0.93v-2.68
				c0.45,0,0.91,0,1.37-0.02v1.17c0,0.37,0.37,0.67,0.84,0.67c0.46,0,0.83-0.3,0.83-0.67v-1.28c1.04-0.1,2.17-0.26,3.46-0.48
				c1.05-0.18,1.77-1.05,1.64-1.89C14.71,24.52,14.71,21.59,15.59,15.72z M7.8,11.95c0.3,0,0.54,0.4,0.54,0.9
				c0,0.5-0.24,0.9-0.54,0.9c-0.3,0-0.55-0.4-0.55-0.9C7.26,12.35,7.5,11.95,7.8,11.95z M14.29,30.61c0.03,0.26-0.19,0.51-0.49,0.55
				c-4.8,0.73-7.2,0.73-12,0c-0.3-0.05-0.52-0.29-0.49-0.55c0.73-6.05,0.73-9.07,0-15.12c-0.03-0.26,0.19-0.5,0.49-0.55
				c4.8-0.73,7.2-0.73,12,0c0.3,0.05,0.52,0.29,0.49,0.55C13.56,21.54,13.56,24.56,14.29,30.61z"/>
		</g>
		<g>
			<path class="st1" d="M11.35,24.37c-0.66-2.05-3.25-5.59-3.55-5.99c-0.3,0.4-2.89,3.94-3.55,5.98c-0.18,0.45-0.28,0.93-0.28,1.43
				c0,2.11,1.71,3.82,3.83,3.82c2.11,0,3.83-1.71,3.83-3.82C11.63,25.29,11.53,24.81,11.35,24.37z"/>
			<path class="st3" d="M11.53,24.38c-0.7-2.15-3.41-5.86-3.72-6.28c-0.32,0.42-3.03,4.13-3.73,6.28c-0.19,0.47-0.29,0.97-0.29,1.5
				c0,2.21,1.8,4.01,4.02,4.01c2.22,0,4.01-1.8,4.01-4.01C11.82,25.35,11.71,24.85,11.53,24.38z M6.79,28.61
				c-0.44,0.05-1.3-0.22-1.76-1.42c-0.57-1.48,0.36-3.68,0.96-4.64C5.36,24.72,6,26.68,7.07,27.44C7.66,27.86,7.31,28.54,6.79,28.61
				z"/>
		</g>
	</g>
	<g>
		<g>
			<path class="st4" d="M42.14,30.13v-4.31c0-2.01-1.64-3.65-3.65-3.65c-2.02,0-3.65,1.63-3.65,3.65v4.31H42.14z"/>
		</g>
		<polygon class="st2" points="42.83,30.13 38.49,30.13 34.15,30.13 32.91,31.86 38.49,31.86 44.08,31.86 		"/>
		<path class="st4" d="M39.32,20.08c0,0.46-0.37,0.83-0.83,0.83l0,0c-0.46,0-0.82-0.37-0.82-0.83v-3.11c0-0.45,0.37-0.82,0.82-0.82
			l0,0c0.46,0,0.83,0.37,0.83,0.82V20.08z"/>
		<path class="st4" d="M43.09,22.37c-0.32,0.32-0.84,0.32-1.17,0l0,0c-0.32-0.32-0.32-0.85,0-1.17l2.2-2.2
			c0.32-0.32,0.84-0.32,1.17,0l0,0c0.32,0.32,0.32,0.84,0,1.16L43.09,22.37z"/>
		<path class="st4" d="M44.06,26.46c-0.46,0-0.83-0.37-0.83-0.83l0,0c0-0.45,0.37-0.82,0.83-0.82h3.12c0.46,0,0.83,0.37,0.83,0.82
			l0,0c0,0.46-0.37,0.83-0.83,0.83H44.06z"/>
		<path class="st4" d="M33.89,22.36c0.32,0.32,0.84,0.32,1.17,0l0,0c0.32-0.32,0.32-0.84,0-1.16l-2.2-2.2
			c-0.32-0.32-0.84-0.32-1.17,0l0,0c-0.32,0.32-0.32,0.84,0,1.17L33.89,22.36z"/>
		<path class="st4" d="M32.93,26.46c0.46,0,0.83-0.37,0.83-0.82l0,0c0-0.46-0.37-0.82-0.83-0.82h-3.12c-0.46,0-0.83,0.37-0.83,0.82
			l0,0c0,0.46,0.37,0.82,0.83,0.82H32.93z"/>
	</g>
</g>
</svg>
