<?xml version="1.0" encoding="utf-8"?>
<!-- Generator: Adobe Illustrator 27.2.0, SVG Export Plug-In . SVG Version: 6.00 Build 0)  -->
<svg version="1.1" id="Calque_1" xmlns="http://www.w3.org/2000/svg" xmlns:xlink="http://www.w3.org/1999/xlink" x="0px" y="0px"
	 viewBox="0 0 48 48" style="enable-background:new 0 0 48 48;" xml:space="preserve">
<style type="text/css">
	.st0{fill:#FFFFFF;}
	.st1{fill:#585856;}
	.st2{fill:#BD1823;}
	.st3{fill:#1C779C;}
</style>
<g>
	<g>
		<g>
			<path class="st0" d="M28.37,4.96c-7.49-1.14-11.23-1.14-18.73,0C9.17,5.03,8.82,5.42,8.87,5.82c0.95,7.9,0.44,17.6-0.2,24.41
				c0,0,2.91,1.43,10.32,1.43c7.42,0,10.32-1.43,10.32-1.43c-0.64-6.81-1.15-16.51-0.19-24.41C29.18,5.42,28.84,5.03,28.37,4.96z"/>
			<path class="st1" d="M30.79,6.41c0.19-1.28-0.9-2.61-2.49-2.88c-1.44-0.24-2.72-0.43-3.94-0.58C23.95,1.28,21.73,0,19,0
				c-2.73,0-4.95,1.28-5.36,2.95C12.42,3.1,11.15,3.29,9.7,3.53C8.12,3.8,7.02,5.13,7.21,6.41c1.33,8.92,1.33,13.38,0,22.3
				c-0.2,1.28,0.91,2.61,2.49,2.88c1.97,0.33,3.66,0.57,5.24,0.73v4.27c0,0.78,0.78,1.41,1.75,1.41c0.97,0,1.75-0.63,1.75-1.41
				v-4.07c0.69,0.01,1.38,0,2.07-0.03v1.78c0,0.56,0.57,1.02,1.27,1.02c0.7,0,1.26-0.46,1.26-1.02v-1.95
				c1.58-0.16,3.28-0.39,5.24-0.73c1.59-0.27,2.69-1.6,2.49-2.88C29.45,19.79,29.45,15.33,30.79,6.41z M19,0.69
				c0.46,0,0.82,0.61,0.82,1.37S19.46,3.42,19,3.42c-0.46,0-0.83-0.61-0.83-1.37S18.54,0.69,19,0.69z M28.83,29.05
				c0.05,0.39-0.29,0.77-0.75,0.83c-7.27,1.11-10.9,1.11-18.17,0c-0.45-0.07-0.79-0.45-0.75-0.83c1.11-9.19,1.11-13.79,0-22.98
				C9.12,5.68,9.46,5.3,9.92,5.23c7.27-1.1,10.9-1.1,18.17,0c0.46,0.07,0.79,0.45,0.75,0.83C27.71,15.26,27.71,19.85,28.83,29.05z"
				/>
		</g>
		<g>
			<path class="st0" d="M24.37,19.56c-1-3.11-4.92-8.49-5.37-9.1c-0.45,0.61-4.37,5.99-5.37,9.1c-0.27,0.67-0.42,1.41-0.42,2.18
				c0,3.21,2.59,5.81,5.8,5.81c3.2,0,5.79-2.6,5.79-5.81C24.79,20.96,24.64,20.23,24.37,19.56z"/>
			<path class="st2" d="M24.64,19.58c-1.05-3.27-5.16-8.91-5.64-9.55c-0.48,0.64-4.58,6.28-5.64,9.54
				c-0.29,0.71-0.44,1.48-0.44,2.28c0,3.37,2.72,6.09,6.08,6.09c3.36,0,6.08-2.73,6.08-6.09C25.08,21.06,24.92,20.29,24.64,19.58z
				 M17.46,26c-0.66,0.08-1.97-0.33-2.67-2.16c-0.86-2.24,0.55-5.58,1.46-7.05c-0.95,3.3,0.02,6.27,1.64,7.44
				C18.79,24.87,18.26,25.91,17.46,26z"/>
		</g>
	</g>
</g>
<g>
	<path class="st3" d="M32.43,33.79c-0.75,0.29-5.87,2.47-6.53,8.65c-0.06,1.86,1,2.25,1,2.25l0,0c0,0,0.43,0.41,1.12,0.57
		c0.14,0.45,0.38,0.8,0.67,1.1v0c0,0,0.5,1.35,5.57,1.6c0.07,0.01,0.15,0.03,0.22,0.04h1.26c0.16,0,0.32,0,0.48,0h1.45
		c0.13-0.02,0.25-0.04,0.38-0.06c5.21-0.35,5.76-1.98,5.76-1.98v0c0.14-0.2,0.25-0.43,0.33-0.69c2.37-0.47,2.18-3.3,1.47-5.47
		c-0.99-3.02-3.49-5.1-6.13-6.03c1.25-1.01,2.05-2.54,2.05-4.26c0-3.04-2.51-5.51-5.61-5.51c-3.09,0-5.61,2.46-5.61,5.51
		C30.34,31.24,31.16,32.78,32.43,33.79"/>
</g>
</svg>
