<?xml version="1.0" encoding="utf-8"?>
<!-- Generator: Adobe Illustrator 27.2.0, SVG Export Plug-In . SVG Version: 6.00 Build 0)  -->
<svg version="1.1" id="Calque_1" xmlns="http://www.w3.org/2000/svg" xmlns:xlink="http://www.w3.org/1999/xlink" x="0px" y="0px"
	 viewBox="0 0 48 48" style="enable-background:new 0 0 48 48;" xml:space="preserve">
<style type="text/css">
	.st0{fill:#FFFFFF;}
	.st1{fill:#585856;}
	.st2{fill:#BD1823;}
	.st3{fill-rule:evenodd;clip-rule:evenodd;fill:#92C01F;}
</style>
<g>
	<g>
		<g>
			<path class="st0" d="M45.44,9.22c-7.85-1.2-11.77-1.2-19.62,0c-0.49,0.07-0.85,0.49-0.8,0.91c1,8.31,0.47,18.53-0.2,25.69
				c0,0,3.05,1.5,10.82,1.5c7.77,0,10.82-1.5,10.82-1.5c-0.67-7.17-1.2-17.38-0.2-25.69C46.29,9.71,45.93,9.29,45.44,9.22z"/>
			<path class="st1" d="M47.98,10.75c0.2-1.35-0.95-2.75-2.61-3.03c-1.51-0.26-2.85-0.45-4.13-0.61C40.81,5.35,38.49,4,35.63,4
				c-2.86,0-5.19,1.35-5.62,3.11c-1.27,0.16-2.61,0.35-4.12,0.61C24.23,8,23.08,9.4,23.28,10.75c1.4,9.39,1.4,14.08,0,23.47
				c-0.2,1.35,0.95,2.75,2.61,3.03c2.06,0.35,3.84,0.6,5.49,0.77v4.5c0,0.82,0.82,1.49,1.84,1.49c1.01,0,1.83-0.67,1.83-1.49v-4.29
				c0.72,0.01,1.45,0,2.17-0.03v1.87c0,0.59,0.59,1.07,1.33,1.07c0.73,0,1.32-0.48,1.32-1.07v-2.05c1.66-0.17,3.43-0.42,5.49-0.77
				c1.66-0.28,2.81-1.69,2.61-3.03C46.58,24.83,46.58,20.14,47.98,10.75z M35.63,4.72c0.48,0,0.86,0.64,0.86,1.44
				c0,0.8-0.38,1.44-0.86,1.44c-0.48,0-0.87-0.64-0.87-1.44C34.76,5.37,35.15,4.72,35.63,4.72z M45.92,34.58
				c0.05,0.41-0.3,0.81-0.78,0.88c-7.62,1.17-11.42,1.17-19.03,0c-0.47-0.07-0.83-0.47-0.78-0.88c1.17-9.67,1.17-14.51,0-24.19
				c-0.05-0.41,0.3-0.81,0.78-0.88c7.62-1.16,11.42-1.16,19.03,0c0.48,0.07,0.83,0.47,0.78,0.88C44.76,20.06,44.76,24.9,45.92,34.58
				z"/>
		</g>
		<g>
			<path class="st0" d="M41.26,24.59c-1.05-3.28-5.16-8.93-5.63-9.58c-0.47,0.64-4.58,6.3-5.63,9.58c-0.29,0.71-0.44,1.48-0.44,2.29
				c0,3.38,2.72,6.12,6.07,6.12c3.35,0,6.07-2.74,6.07-6.12C41.7,26.07,41.54,25.29,41.26,24.59z"/>
			<path class="st2" d="M41.53,24.62c-1.1-3.44-5.41-9.37-5.91-10.05c-0.5,0.68-4.8,6.61-5.91,10.05c-0.3,0.74-0.47,1.55-0.47,2.4
				c0,3.54,2.85,6.42,6.37,6.42c3.52,0,6.37-2.87,6.37-6.42C42,26.17,41.83,25.36,41.53,24.62z M34.02,31.37
				c-0.7,0.09-2.06-0.35-2.79-2.27c-0.9-2.36,0.57-5.88,1.53-7.43c-0.99,3.48,0.02,6.6,1.72,7.83
				C35.41,30.18,34.85,31.27,34.02,31.37z"/>
		</g>
	</g>
	<path class="st3" d="M11.03,28.28c0,1.81,0,3.36,0,4.65c3.36-3.38,6.74-6.77,10.06-10.1c-3.27-3.27-6.65-6.65-10.11-10.11
		c0,1.52,0,3.03,0,4.96c-3.69,0-7.14,0-10.73,0H0v10.6H11.03z"/>
</g>
</svg>
