<?xml version="1.0" encoding="utf-8"?>
<!-- Generator: Adobe Illustrator 27.2.0, SVG Export Plug-In . SVG Version: 6.00 Build 0)  -->
<svg version="1.1" id="Calque_1" xmlns="http://www.w3.org/2000/svg" xmlns:xlink="http://www.w3.org/1999/xlink" x="0px" y="0px"
	 viewBox="0 0 48 48" style="enable-background:new 0 0 48 48;" xml:space="preserve">
<style type="text/css">
	.st0{fill:#FFFFFF;}
	.st1{fill:#585856;}
	.st2{fill:#BD1823;}
	.st3{fill-rule:evenodd;clip-rule:evenodd;fill:#BD1823;}
</style>
<g>
	<g>
		<g>
			<path class="st0" d="M22.21,9.22c-7.86-1.2-11.78-1.2-19.64,0c-0.49,0.07-0.85,0.49-0.8,0.91c1,8.31,0.47,18.53-0.2,25.69
				c0,0,3.05,1.5,10.83,1.5s10.83-1.5,10.83-1.5c-0.67-7.17-1.2-17.38-0.2-25.69C23.06,9.71,22.7,9.29,22.21,9.22z"/>
			<path class="st1" d="M24.74,10.75C24.95,9.4,23.8,8,22.13,7.71C20.62,7.46,19.28,7.27,18,7.11C17.57,5.35,15.25,4,12.38,4
				C9.52,4,7.19,5.35,6.76,7.11C5.49,7.27,4.15,7.46,2.64,7.71C0.97,8-0.18,9.4,0.02,10.75c1.4,9.39,1.4,14.08,0,23.47
				c-0.2,1.35,0.95,2.75,2.61,3.03c2.06,0.35,3.84,0.6,5.5,0.77v4.5c0,0.82,0.82,1.49,1.84,1.49c1.02,0,1.84-0.67,1.84-1.49v-4.29
				c0.72,0.01,1.45,0,2.17-0.03v1.87c0,0.59,0.59,1.07,1.33,1.07c0.73,0,1.33-0.48,1.33-1.07v-2.05c1.66-0.17,3.44-0.42,5.5-0.77
				c1.66-0.28,2.82-1.69,2.61-3.03C23.35,24.83,23.35,20.14,24.74,10.75z M12.38,4.72c0.48,0,0.86,0.64,0.86,1.44
				c0,0.8-0.39,1.44-0.86,1.44c-0.48,0-0.87-0.64-0.87-1.44C11.52,5.37,11.91,4.72,12.38,4.72z M22.69,34.58
				c0.05,0.41-0.3,0.81-0.78,0.88c-7.62,1.17-11.43,1.17-19.05,0c-0.48-0.07-0.83-0.47-0.78-0.88c1.17-9.67,1.17-14.51,0-24.19
				C2.03,9.98,2.38,9.58,2.86,9.51c7.62-1.16,11.43-1.16,19.05,0c0.48,0.07,0.83,0.47,0.78,0.88C21.52,20.06,21.52,24.9,22.69,34.58
				z"/>
		</g>
		<g>
			<path class="st0" d="M18.02,24.59c-1.05-3.28-5.16-8.93-5.63-9.58c-0.48,0.64-4.58,6.3-5.64,9.58c-0.29,0.71-0.44,1.48-0.44,2.29
				c0,3.38,2.72,6.12,6.08,6.12c3.35,0,6.08-2.74,6.08-6.12C18.46,26.07,18.3,25.29,18.02,24.59z"/>
			<path class="st2" d="M18.3,24.62c-1.11-3.44-5.41-9.37-5.91-10.05c-0.5,0.68-4.8,6.61-5.91,10.05c-0.3,0.74-0.47,1.55-0.47,2.4
				c0,3.54,2.86,6.42,6.38,6.42s6.37-2.87,6.37-6.42C18.76,26.17,18.59,25.36,18.3,24.62z M10.77,31.37
				c-0.7,0.09-2.07-0.35-2.79-2.27c-0.9-2.36,0.57-5.88,1.53-7.43c-0.99,3.48,0.02,6.6,1.72,7.83
				C12.16,30.18,11.61,31.27,10.77,31.37z"/>
		</g>
	</g>
	<path class="st3" d="M36.96,17.36c0-1.82,0-3.36,0-4.65c-3.36,3.38-6.75,6.77-10.07,10.1c3.27,3.27,6.65,6.65,10.12,10.11
		c0-1.52,0-3.03,0-4.96c3.69,0,7.15,0,10.74,0H48v-10.6H36.96z"/>
</g>
</svg>
