<?xml version="1.0" encoding="utf-8"?>
<!-- Generator: Adobe Illustrator 27.2.0, SVG Export Plug-In . SVG Version: 6.00 Build 0)  -->
<svg version="1.1" id="Calque_1" xmlns="http://www.w3.org/2000/svg" xmlns:xlink="http://www.w3.org/1999/xlink" x="0px" y="0px"
	 viewBox="0 0 48 48" style="enable-background:new 0 0 48 48;" xml:space="preserve">
<style type="text/css">
	.st0{fill-rule:evenodd;clip-rule:evenodd;fill:#1C779C;}
	.st1{fill:#FFFFFF;}
	.st2{fill:#585856;}
	.st3{fill:#BD1823;}
</style>
<g>
	<path class="st0" d="M11.63,16.37c0-2.09,0-3.87,0-5.35C7.74,14.91,3.83,18.81,0,22.64c3.78,3.76,7.69,7.65,11.69,11.63
		c0-1.74,0-3.49,0-5.71c4.27,0,8.26,0,12.41,0h0.28V16.37H11.63z"/>
	<g>
		<g>
			<path class="st1" d="M45.04,7c-9.08-1.38-13.61-1.38-22.69,0c-0.57,0.09-0.99,0.56-0.93,1.04c1.16,9.56,0.54,21.31-0.23,29.55
				c0,0,3.52,1.72,12.51,1.72c8.98,0,12.51-1.72,12.51-1.72c-0.77-8.24-1.39-19.99-0.23-29.55C46.03,7.56,45.61,7.09,45.04,7z"/>
			<path class="st2" d="M47.97,8.76c0.23-1.55-1.1-3.16-3.02-3.49c-1.75-0.3-3.29-0.52-4.77-0.7C39.69,2.56,37.01,1,33.69,1
				c-3.31,0-6,1.56-6.49,3.57c-1.47,0.18-3.02,0.4-4.77,0.7c-1.92,0.32-3.25,1.94-3.02,3.49c1.62,10.8,1.62,16.19,0,26.99
				c-0.23,1.55,1.1,3.16,3.02,3.49c2.38,0.4,4.44,0.69,6.35,0.88v5.17c0,0.94,0.95,1.71,2.12,1.71c1.17,0,2.12-0.77,2.12-1.71v-4.93
				c0.83,0.01,1.67,0,2.51-0.03v2.15c0,0.68,0.69,1.23,1.53,1.23c0.85,0,1.53-0.55,1.53-1.23v-2.36c1.91-0.19,3.97-0.48,6.35-0.88
				c1.92-0.33,3.25-1.94,3.02-3.49C46.36,24.95,46.36,19.56,47.97,8.76z M33.69,1.83c0.55,0,1,0.74,1,1.65c0,0.91-0.45,1.65-1,1.65
				c-0.55,0-1-0.74-1-1.65C32.69,2.57,33.14,1.83,33.69,1.83z M45.6,36.16c0.06,0.47-0.35,0.93-0.9,1.01
				c-8.81,1.34-13.2,1.34-22.01,0c-0.55-0.08-0.96-0.54-0.9-1.01c1.35-11.12,1.35-16.69,0-27.82c-0.06-0.47,0.35-0.93,0.9-1.01
				C31.5,6,35.89,6,44.7,7.34c0.55,0.08,0.96,0.54,0.9,1.01C44.25,19.47,44.25,25.03,45.6,36.16z"/>
		</g>
		<g>
			<path class="st1" d="M40.2,24.67c-1.22-3.77-5.96-10.27-6.51-11.02c-0.55,0.74-5.29,7.25-6.51,11.01
				c-0.33,0.81-0.51,1.7-0.51,2.64c0,3.88,3.14,7.03,7.02,7.03c3.88,0,7.02-3.15,7.02-7.03C40.71,26.38,40.53,25.49,40.2,24.67z"/>
			<path class="st3" d="M40.52,24.71c-1.28-3.95-6.25-10.78-6.83-11.56c-0.58,0.78-5.55,7.6-6.83,11.55
				c-0.35,0.85-0.54,1.79-0.54,2.76c0,4.07,3.3,7.38,7.37,7.38c4.07,0,7.36-3.3,7.36-7.38C41.06,26.49,40.87,25.56,40.52,24.71z
				 M31.83,32.48c-0.8,0.1-2.39-0.41-3.23-2.61c-1.04-2.71,0.66-6.76,1.76-8.54c-1.14,4,0.02,7.6,1.99,9
				C33.44,31.11,32.8,32.36,31.83,32.48z"/>
		</g>
	</g>
</g>
</svg>
