<?xml version="1.0" encoding="utf-8"?>
<!-- Generator: Adobe Illustrator 27.2.0, SVG Export Plug-In . SVG Version: 6.00 Build 0)  -->
<svg version="1.1" id="Calque_1" xmlns="http://www.w3.org/2000/svg" xmlns:xlink="http://www.w3.org/1999/xlink" x="0px" y="0px"
	 viewBox="0 0 48 48" style="enable-background:new 0 0 48 48;" xml:space="preserve">
<style type="text/css">
	.st0{fill:#FFFFFF;}
	.st1{fill:#3D3D3C;}
	.st2{fill:#B52134;}
	.st3{fill:#9B9A9A;}
	.st4{fill:#1D1E1C;}
</style>
<g>
	<g>
		<path class="st0" d="M2.03,38.25C1.46,38.25,1,37.78,1,37.21V10.79c0-0.57,0.46-1.04,1.03-1.04h37.98c0.57,0,1.03,0.47,1.03,1.04
			v26.42c0,0.57-0.46,1.04-1.03,1.04H2.03z"/>
		<path class="st1" d="M40.02,10.75c0.01,0,0.03,0.01,0.03,0.04v26.42c0,0.03-0.02,0.04-0.03,0.04H2.03C2.02,37.25,2,37.24,2,37.21
			V10.79c0-0.03,0.02-0.04,0.03-0.04H40.02 M40.02,8.75H2.03C0.91,8.75,0,9.66,0,10.79v26.42c0,1.13,0.91,2.04,2.03,2.04h37.98
			c1.12,0,2.03-0.91,2.03-2.04V10.79C42.05,9.66,41.14,8.75,40.02,8.75L40.02,8.75z"/>
	</g>
	<path class="st2" d="M33.77,15.29c-2.17,0-3.93,1.77-3.93,3.95c0,0.89,0.31,1.71,0.8,2.37l-2.27,2.66l0.26,0.22l-2.72,3.14
		c-0.34-0.17-0.73-0.27-1.14-0.27c-0.45,0-0.87,0.12-1.24,0.32l-2.67-2.82c0.25-0.4,0.39-0.86,0.39-1.36c0-1.42-1.15-2.57-2.56-2.57
		c-1.41,0-2.56,1.15-2.56,2.57c0,0.25,0.04,0.49,0.1,0.73L9.78,28.1c-0.46-0.46-1.09-0.74-1.8-0.74c-1.41,0-2.56,1.15-2.56,2.57
		c0,1.42,1.15,2.57,2.56,2.57c1.41,0,2.56-1.15,2.56-2.57c0-0.25-0.04-0.49-0.11-0.73l6.45-3.87c0.46,0.46,1.09,0.74,1.8,0.74
		c0.45,0,0.87-0.12,1.24-0.32l2.67,2.82c-0.25,0.4-0.39,0.86-0.39,1.36c0,1.42,1.15,2.57,2.56,2.57c1.41,0,2.56-1.15,2.56-2.57
		c0-0.54-0.17-1.04-0.45-1.46l2.73-3.15l0.36,0.31l2.34-2.74c0.45,0.18,0.95,0.29,1.47,0.29c2.17,0,3.93-1.77,3.93-3.95
		C37.7,17.06,35.94,15.29,33.77,15.29z"/>
	<g>
		<path class="st3" d="M26.05,19.24c0,4.29,3.46,7.76,7.73,7.76c1.35,0,2.62-0.35,3.72-0.96l6.73,6.76c0.86,0.86,2.25,0.86,3.11,0
			c0.86-0.86,0.86-2.26,0-3.12L40.6,22.9c0.58-1.09,0.91-2.33,0.91-3.66c0-4.28-3.46-7.76-7.73-7.76
			C29.52,11.48,26.05,14.96,26.05,19.24z M28.41,19.24c0-2.98,2.4-5.39,5.37-5.39c2.97,0,5.37,2.41,5.37,5.39
			c0,2.98-2.4,5.39-5.37,5.39C30.82,24.63,28.41,22.22,28.41,19.24z"/>
		<path class="st4" d="M40.65,22.94l6.71,6.73c0.86,0.86,0.86,2.26,0,3.12c-0.86,0.86-2.25,0.86-3.11,0l-6.69-6.71
			C38.86,25.36,39.94,24.26,40.65,22.94z"/>
	</g>
</g>
</svg>
