<?xml version="1.0" encoding="utf-8"?>
<!-- Generator: Adobe Illustrator 27.2.0, SVG Export Plug-In . SVG Version: 6.00 Build 0)  -->
<svg version="1.1" id="Calque_1" xmlns="http://www.w3.org/2000/svg" xmlns:xlink="http://www.w3.org/1999/xlink" x="0px" y="0px"
	 viewBox="0 0 48 48" style="enable-background:new 0 0 48 48;" xml:space="preserve">
<style type="text/css">
	.st0{fill:#FFFFFF;}
	.st1{fill:#3D3D3C;}
	.st2{fill:#B52134;}
</style>
<g>
	<g>
		<path class="st0" d="M2.32,40C1.59,40,1,39.43,1,38.72V9.27C1,8.57,1.59,8,2.32,8h43.36C46.41,8,47,8.57,47,9.27v29.45
			c0,0.7-0.59,1.28-1.32,1.28H2.32z"/>
		<path class="st1" d="M45.68,9C45.85,9,46,9.13,46,9.28v29.45c0,0.15-0.15,0.28-0.32,0.28H2.32C2.15,39,2,38.87,2,38.72V9.28
			C2,9.13,2.15,9,2.32,9H45.68 M45.68,7H2.32C1.04,7,0,8.02,0,9.28v29.45C0,39.98,1.04,41,2.32,41h43.36c1.28,0,2.32-1.02,2.32-2.28
			V9.28C48,8.02,46.96,7,45.68,7L45.68,7z"/>
	</g>
	<path class="st2" d="M38.75,15.93c-1.61,0-2.93,1.29-2.93,2.86c0,0.6,0.19,1.16,0.51,1.62l-6.76,7.63c-0.39-0.19-0.83-0.3-1.3-0.3
		c-0.52,0-1,0.13-1.42,0.36l-3.05-3.14c0.28-0.44,0.44-0.96,0.44-1.52c0-1.58-1.31-2.87-2.92-2.87c-1.61,0-2.92,1.29-2.92,2.87
		c0,0.28,0.04,0.55,0.12,0.81l-7.36,4.32c-0.53-0.51-1.25-0.83-2.05-0.83c-1.61,0-2.92,1.29-2.92,2.86c0,1.58,1.31,2.87,2.92,2.87
		c1.61,0,2.92-1.29,2.92-2.87c0-0.28-0.04-0.55-0.12-0.81l7.36-4.32c0.52,0.51,1.25,0.83,2.05,0.83c0.51,0,1-0.13,1.42-0.36
		l3.04,3.14c-0.28,0.44-0.44,0.96-0.44,1.52c0,1.58,1.31,2.87,2.92,2.87c1.61,0,2.92-1.29,2.92-2.87c0-0.61-0.19-1.16-0.52-1.63
		l6.76-7.63c0.39,0.19,0.84,0.3,1.31,0.3c1.61,0,2.92-1.29,2.92-2.87C41.67,17.21,40.35,15.93,38.75,15.93z"/>
</g>
</svg>
