<?xml version="1.0" encoding="utf-8"?>
<!-- Generator: Adobe Illustrator 27.2.0, SVG Export Plug-In . SVG Version: 6.00 Build 0)  -->
<svg version="1.1" id="Calque_1" xmlns="http://www.w3.org/2000/svg" xmlns:xlink="http://www.w3.org/1999/xlink" x="0px" y="0px"
	 viewBox="0 0 48 48" style="enable-background:new 0 0 48 48;" xml:space="preserve">
<style type="text/css">
	.st0{fill:#FFFFFF;}
	.st1{fill:#585856;}
	.st2{fill:#BD1823;}
	.st3{fill:#C6C6C6;}
	.st4{fill:#1C779C;}
	.st5{fill:#926036;}
	.st6{fill:url(#SVGID_1_);}
	.st7{fill:url(#SVGID_00000027603910429341321110000007836767366706218160_);}
	.st8{fill:url(#SVGID_00000148648471551450205960000017389595651056130478_);}
</style>
<g>
	<g>
		<path class="st0" d="M28.42,4.96c-7.54-1.14-11.3-1.14-18.83,0C9.11,5.03,8.76,5.42,8.81,5.82c0.96,7.9,0.45,17.6-0.2,24.41
			c0,0,2.92,1.42,10.38,1.42c7.46,0,10.38-1.42,10.38-1.42c-0.64-6.81-1.15-16.51-0.19-24.41C29.24,5.42,28.89,5.03,28.42,4.96z"/>
		<path class="st1" d="M30.85,6.41c0.2-1.28-0.91-2.61-2.51-2.88c-1.45-0.25-2.73-0.43-3.96-0.58C23.98,1.29,21.75,0,19,0
			c-2.75,0-4.98,1.29-5.39,2.95C12.39,3.1,11.1,3.29,9.65,3.53c-1.59,0.27-2.7,1.6-2.51,2.88c1.34,8.92,1.34,13.38,0,22.3
			c-0.2,1.28,0.91,2.61,2.51,2.88c1.98,0.33,3.68,0.57,5.27,0.73v4.27c0,0.78,0.79,1.41,1.76,1.41c0.97,0,1.76-0.63,1.76-1.41v-4.07
			c0.69,0.01,1.39,0,2.08-0.03v1.77c0,0.56,0.57,1.02,1.27,1.02c0.7,0,1.27-0.46,1.27-1.02v-1.95c1.59-0.16,3.3-0.39,5.27-0.73
			c1.6-0.27,2.7-1.6,2.51-2.88C29.51,19.79,29.51,15.33,30.85,6.41z M19,0.69c0.46,0,0.83,0.61,0.83,1.37S19.46,3.42,19,3.42
			c-0.46,0-0.83-0.61-0.83-1.37S18.54,0.69,19,0.69z M28.88,29.05c0.05,0.39-0.29,0.76-0.75,0.84c-7.31,1.11-10.96,1.11-18.27,0
			c-0.46-0.07-0.8-0.45-0.75-0.84c1.12-9.19,1.12-13.79,0-22.98C9.07,5.68,9.41,5.3,9.87,5.23c7.31-1.11,10.96-1.11,18.27,0
			c0.46,0.07,0.8,0.45,0.75,0.84C27.76,15.26,27.76,19.86,28.88,29.05z"/>
	</g>
	<path class="st0" d="M24.4,19.56c-1.01-3.11-4.95-8.49-5.4-9.1c-0.46,0.62-4.39,5.99-5.4,9.1c-0.27,0.67-0.42,1.41-0.42,2.18
		c0,3.21,2.61,5.81,5.83,5.81c3.22,0,5.83-2.6,5.83-5.81C24.83,20.96,24.68,20.23,24.4,19.56z"/>
	<path class="st2" d="M24.67,19.59c-1.06-3.27-5.19-8.9-5.67-9.55c-0.48,0.65-4.61,6.28-5.67,9.55c-0.29,0.71-0.45,1.48-0.45,2.29
		c0,3.36,2.74,6.09,6.11,6.09c3.38,0,6.11-2.73,6.11-6.09C25.11,21.06,24.95,20.29,24.67,19.59z M17.45,26.01
		c-0.67,0.08-1.98-0.34-2.68-2.16c-0.86-2.24,0.55-5.59,1.46-7.06c-0.95,3.3,0.02,6.27,1.65,7.44
		C18.79,24.88,18.26,25.91,17.45,26.01z"/>
</g>
<g>
	<rect x="29.1" y="28.9" class="st0" width="13.8" height="18.25"/>
	<path class="st3" d="M41.9,29.75v-0.5c0-0.55-0.5-1-1.15-1H38.2v-2C38.25,25,37.25,24,36,24s-2.25,1-2.25,2.25v2H31.2
		c-0.6,0-1.15,0.45-1.15,1v0.5H41.9z M36,25c0.5,0,0.9,0.4,0.9,0.9s-0.4,0.9-0.9,0.9s-0.9-0.4-0.9-0.9S35.5,25,36,25z"/>
	<path class="st4" d="M41.4,34.1c0,0.55-0.45,1-1,1h-4.8c-0.55,0-1-0.45-1-1l0,0c0-0.55,0.45-1,1-1h4.8
		C40.95,33.05,41.4,33.5,41.4,34.1L41.4,34.1z"/>
	<path class="st4" d="M41.4,38.9c0,0.55-0.45,1-1,1h-4.8c-0.55,0-1-0.45-1-1l0,0c0-0.55,0.45-1,1-1h4.8
		C40.95,37.9,41.4,38.35,41.4,38.9L41.4,38.9z"/>
	<path class="st4" d="M41.4,43.6c0,0.55-0.45,1-1,1h-4.8c-0.55,0-1-0.45-1-1l0,0c0-0.55,0.45-1,1-1h4.8
		C40.95,42.55,41.4,43,41.4,43.6L41.4,43.6z"/>
	<path class="st5" d="M42.8,28.9V30v8.05v8.8H29.2V38.1V30v-1.1c-0.65,0-1.2,0.5-1.2,1.1v16.9c0,0.6,0.55,1.1,1.2,1.1h13.6
		c0.7,0,1.2-0.5,1.2-1.1V30C44,29.4,43.45,28.9,42.8,28.9z"/>
	
		<linearGradient id="SVGID_1_" gradientUnits="userSpaceOnUse" x1="31.4949" y1="16.8301" x2="32.6062" y2="15.7188" gradientTransform="matrix(1 0 0 -1 0 50)">
		<stop  offset="0" style="stop-color:#009D00"/>
		<stop  offset="0.3012" style="stop-color:#009700"/>
		<stop  offset="0.7063" style="stop-color:#008600"/>
		<stop  offset="1" style="stop-color:#007500"/>
	</linearGradient>
	<path class="st6" d="M33.33,33.18L33.33,33.18c0.1,0.1,0.1,0.28,0,0.39l-1.47,1.47c-0.09,0.09-0.23,0.09-0.32,0l-0.76-0.76
		c-0.1-0.1-0.1-0.28,0-0.39l0,0c0.11-0.1,0.28-0.1,0.39,0l0.53,0.53l1.24-1.24C33.04,33.07,33.22,33.07,33.33,33.18z"/>
	
		<linearGradient id="SVGID_00000148634393063228731530000006298240224943380380_" gradientUnits="userSpaceOnUse" x1="31.4975" y1="12.0225" x2="32.6089" y2="10.9111" gradientTransform="matrix(1 0 0 -1 0 50)">
		<stop  offset="0" style="stop-color:#009D00"/>
		<stop  offset="0.3012" style="stop-color:#009700"/>
		<stop  offset="0.7063" style="stop-color:#008600"/>
		<stop  offset="1" style="stop-color:#007500"/>
	</linearGradient>
	<path style="fill:url(#SVGID_00000148634393063228731530000006298240224943380380_);" d="M33.33,37.99L33.33,37.99
		c0.1,0.1,0.1,0.28,0,0.38l-1.47,1.47c-0.09,0.09-0.23,0.09-0.32,0l-0.76-0.76c-0.1-0.11-0.1-0.28,0-0.39l0,0
		c0.11-0.1,0.28-0.1,0.39,0l0.53,0.53l1.24-1.24C33.04,37.88,33.22,37.88,33.33,37.99z"/>
	
		<linearGradient id="SVGID_00000160179689179281838980000002420091869579021228_" gradientUnits="userSpaceOnUse" x1="31.4951" y1="7.3299" x2="32.6064" y2="6.2185" gradientTransform="matrix(1 0 0 -1 0 50)">
		<stop  offset="0" style="stop-color:#009D00"/>
		<stop  offset="0.3012" style="stop-color:#009700"/>
		<stop  offset="0.7063" style="stop-color:#008600"/>
		<stop  offset="1" style="stop-color:#007500"/>
	</linearGradient>
	<path style="fill:url(#SVGID_00000160179689179281838980000002420091869579021228_);" d="M33.33,42.68L33.33,42.68
		c0.1,0.1,0.1,0.28,0,0.39l-1.47,1.47c-0.09,0.09-0.23,0.09-0.32,0l-0.76-0.76c-0.1-0.11-0.1-0.28,0-0.39l0,0
		c0.11-0.1,0.28-0.1,0.39,0l0.53,0.53l1.24-1.24C33.04,42.57,33.22,42.57,33.33,42.68z"/>
</g>
</svg>
