<?xml version="1.0" encoding="utf-8"?>
<!-- Generator: Adobe Illustrator 27.2.0, SVG Export Plug-In . SVG Version: 6.00 Build 0)  -->
<svg version="1.1" id="Calque_1" xmlns="http://www.w3.org/2000/svg" xmlns:xlink="http://www.w3.org/1999/xlink" x="0px" y="0px"
	 viewBox="0 0 48 48" style="enable-background:new 0 0 48 48;" xml:space="preserve">
<style type="text/css">
	.st0{fill:#1C779C;}
</style>
<g>
	<path class="st0" d="M24.7,41.81c-9.82,0-17.81-7.99-17.81-17.81c0-9.82,7.99-17.81,17.81-17.81S42.51,14.18,42.51,24
		C42.51,33.82,34.52,41.81,24.7,41.81z M24.7,9.06c-8.24,0-14.94,6.7-14.94,14.94c0,8.24,6.7,14.95,14.94,14.95
		c8.24,0,14.94-6.7,14.94-14.95C39.64,15.76,32.94,9.06,24.7,9.06z"/>
	<g>
		<path class="st0" d="M13.85,24c0,1.02-0.82,1.84-1.83,1.84H1.84C0.82,25.84,0,25.02,0,24l0,0c0-1.01,0.82-1.83,1.84-1.83h10.18
			C13.03,22.16,13.85,22.99,13.85,24L13.85,24z"/>
		<path class="st0" d="M48,24c0,1.02-0.82,1.84-1.84,1.84H35.98c-1.01,0-1.84-0.82-1.84-1.84l0,0c0-1.01,0.82-1.83,1.84-1.83h10.18
			C47.18,22.16,48,22.99,48,24L48,24z"/>
		<path class="st0" d="M24,13.86c-1.02,0-1.84-0.82-1.84-1.84V1.83C22.16,0.82,22.98,0,24,0l0,0c1.02,0,1.84,0.82,1.84,1.83v10.18
			C25.84,13.03,25.02,13.86,24,13.86L24,13.86z"/>
		<path class="st0" d="M24,48c-1.02,0-1.84-0.82-1.84-1.83V35.98c0-1.01,0.82-1.84,1.84-1.84l0,0c1.02,0,1.84,0.82,1.84,1.84v10.18
			C25.84,47.18,25.02,48,24,48L24,48z"/>
	</g>
	<path class="st0" d="M21.51,31.25l9.74-9.74c1.25-1.25,1.2-3.33-0.11-4.65c-1.32-1.32-3.4-1.37-4.65-0.12l-9.74,9.74
		c-1.25,1.25-1.2,3.33,0.11,4.65C18.18,32.45,20.26,32.51,21.51,31.25z M22.74,21.49l4.19-4.18c0.99-0.99,2.63-0.95,3.67,0.09
		c1.04,1.04,1.08,2.69,0.09,3.67l-4.18,4.18L22.74,21.49z"/>
</g>
</svg>
