<?xml version="1.0" encoding="utf-8"?>
<!-- Generator: Adobe Illustrator 26.5.0, SVG Export Plug-In . SVG Version: 6.00 Build 0)  -->
<svg version="1.1" id="Calque_1" xmlns="http://www.w3.org/2000/svg" xmlns:xlink="http://www.w3.org/1999/xlink" x="0px" y="0px"
	 viewBox="0 0 48 48" style="enable-background:new 0 0 48 48;" xml:space="preserve">
<style type="text/css">
	.st0{fill:#585858;}
	.st1{fill:#FFFFFF;}
	.st2{fill:#C6C6C6;}
</style>
<g>
	<g>
		<path class="st0" d="M45.7,37.7c0,0.6-0.5,1.1-1.1,1.1h-35c-0.6,0-1.1-0.5-1.1-1.1V15.5c0-0.6,0.5-1.1,1.1-1.1h35
			c0.6,0,1.1,0.5,1.1,1.1V37.7z"/>
		<path class="st0" d="M44.6,41.1h-35c-1.9,0-3.4-1.5-3.4-3.4V15.5c0-1.9,1.5-3.4,3.4-3.4h35c1.9,0,3.4,1.5,3.4,3.4v22.3
			C48,39.6,46.5,41.1,44.6,41.1z M10.8,36.5h32.5V16.7H10.8V36.5z"/>
	</g>
	<path class="st1" d="M27.1,29.5l17.4-15.1H9.7L27.1,29.5z M22.4,27.8l4.7,3.9l4.6-3.9l12.8,11H9.7L22.4,27.8z M8.5,37.6V15.6
		l12.8,11L8.5,37.6z M45.7,37.6V15.6l-12.8,11L45.7,37.6z"/>
</g>
<g>
	<g>
		<path class="st2" d="M39.5,32.5c0,0.6-0.5,1.1-1.1,1.1h-35c-0.6,0-1.1-0.5-1.1-1.1V10.3c0-0.6,0.5-1.1,1.1-1.1h35
			c0.6,0,1.1,0.5,1.1,1.1V32.5z"/>
		<path class="st2" d="M38.4,35.9h-35c-1.9,0-3.4-1.5-3.4-3.4V10.3c0-1.9,1.5-3.4,3.4-3.4h35c1.9,0,3.4,1.5,3.4,3.4v22.3
			C41.8,34.4,40.3,35.9,38.4,35.9z M4.7,31.3h32.5V11.5H4.7V31.3z"/>
	</g>
	<path class="st1" d="M20.9,24.3L38.3,9.2H3.5L20.9,24.3z M16.2,22.6l4.7,3.9l4.6-3.9l12.8,11H3.5L16.2,22.6z M2.3,32.4V10.4
		l12.8,11L2.3,32.4z M39.5,32.4V10.4l-12.8,11L39.5,32.4z"/>
</g>
</svg>
