<?xml version="1.0" encoding="utf-8"?>
<!-- Generator: Adobe Illustrator 25.3.1, SVG Export Plug-In . SVG Version: 6.00 Build 0)  -->
<svg version="1.1" id="Calque_1" xmlns="http://www.w3.org/2000/svg" xmlns:xlink="http://www.w3.org/1999/xlink" x="0px" y="0px"
	 viewBox="0 0 48 48" style="enable-background:new 0 0 48 48;" xml:space="preserve">
<style type="text/css">
	.st0{fill:#C7C6C6;}
</style>
<path class="st0" d="M45.9,17.5c-0.1,0-0.1,0-0.2,0L31,17.1l-5-13c-0.3-0.9-1.1-1.5-2-1.5c-1,0-1.8,0.6-2,1.5l-5,13L2.3,17.5
	c-0.1,0-0.1,0-0.2,0c-1.2,0-2.1,0.9-2.1,2.1c0,0.7,0.4,1.4,1,1.7l11.7,8.2L8.5,42.4c-0.2,0.3-0.2,0.6-0.2,0.9c0,1.1,0.9,2.1,2.1,2.1
	c0.5,0,1-0.2,1.3-0.4L24,37.1L36.3,45c0.4,0.3,0.8,0.4,1.3,0.4c1.2,0,2.1-0.9,2.1-2.1c0-0.3-0.1-0.7-0.2-0.9l-4.2-12.9L47,21.2
	c0.6-0.4,1-1,1-1.7C48,18.4,47.1,17.5,45.9,17.5z"/>
</svg>
