<?xml version="1.0" encoding="utf-8"?>
<!-- Generator: Adobe Illustrator 25.3.1, SVG Export Plug-In . SVG Version: 6.00 Build 0)  -->
<svg version="1.1" id="Calque_1" xmlns="http://www.w3.org/2000/svg" xmlns:xlink="http://www.w3.org/1999/xlink" x="0px" y="0px"
	 viewBox="0 0 48 48" style="enable-background:new 0 0 48 48;" xml:space="preserve">
<style type="text/css">
	.st0{fill:#FFFFFF;}
	.st1{fill:#39AD47;}
</style>
<g>
	<path class="st0" d="M47.1,24c0,12.8-10.3,23.1-23.1,23.1C11.2,47.1,0.9,36.8,0.9,24C0.9,11.2,11.2,0.9,24,0.9
		C36.8,0.9,47.1,11.2,47.1,24z"/>
	<path class="st1" d="M24,48C10.8,48,0,37.2,0,24S10.8,0,24,0s24,10.8,24,24S37.2,48,24,48z M24,1.8C11.8,1.8,1.8,11.8,1.8,24
		c0,12.2,10,22.2,22.2,22.2c12.2,0,22.2-10,22.2-22.2C46.2,11.8,36.2,1.8,24,1.8z"/>
</g>
<polygon class="st1" points="38.7,18.6 29.4,18.6 29.4,9.3 18.6,9.3 18.6,18.6 9.3,18.6 9.3,29.4 18.6,29.4 18.6,38.7 29.4,38.7 
	29.4,29.4 38.7,29.4 "/>
</svg>
