<?xml version="1.0" encoding="utf-8"?>
<!-- Generator: Adobe Illustrator 27.0.0, SVG Export Plug-In . SVG Version: 6.00 Build 0)  -->
<svg version="1.1" id="Calque_1" xmlns="http://www.w3.org/2000/svg" xmlns:xlink="http://www.w3.org/1999/xlink" x="0px" y="0px"
	 viewBox="0 0 48 48" style="enable-background:new 0 0 48 48;" xml:space="preserve">
<style type="text/css">
	.st0{clip-path:url(#SVGID_00000093141025604657426780000016808587486115625919_);}
	.st1{fill:#EF8208;}
	.st2{fill:#EACF0F;}
	.st3{fill:#C99D66;}
</style>
<g id="Groupe_55" transform="translate(0 0)">
	<g>
		<defs>
			<rect id="SVGID_1_" width="48" height="48"/>
		</defs>
		<clipPath id="SVGID_00000182525127174016547960000013226414398680720032_">
			<use xlink:href="#SVGID_1_"  style="overflow:visible;"/>
		</clipPath>
		
			<g id="Groupe_54" transform="translate(0 0)" style="clip-path:url(#SVGID_00000182525127174016547960000013226414398680720032_);">
			<path id="Tracé_29" class="st1" d="M8,36L43.7,0.4c0.6-0.5,1.4-0.5,2,0l2,2c0.5,0.5,0.5,1.4,0,2L12,40L8,36z"/>
			<path id="Tracé_30" class="st2" d="M17.7,48c-0.7,0-1.4-0.3-2-0.8L0.8,32.3c-1.1-1.1-1.1-2.8,0-3.9C1,28.2,1.1,28.1,1.3,28
				l13.4-8.5l1.9-1.9c2.7-2.7,7.1-2.7,9.8,0c0,0,0,0,0,0l3.9,3.9c2.7,2.7,2.7,7.1,0,9.8l-1.9,1.9L20,46.7c-0.4,0.7-1.2,1.2-2,1.3
				C17.9,48,17.8,48,17.7,48"/>
			<path id="Tracé_31" class="st3" d="M16.5,33.7l-6.6,7.6l2,2l6.8-7.7c0.4-0.6,0.3-1.5-0.3-1.9C17.7,33.2,17,33.3,16.5,33.7
				L16.5,33.7z"/>
			<path id="Tracé_32" class="st3" d="M4.5,36l2,2l9.6-8.2c0.5-0.6,0.5-1.5-0.1-2c-0.5-0.4-1.2-0.5-1.7-0.1L4.5,36z"/>
			<path id="Tracé_33" class="st1" d="M27.4,33.8c-0.4,0-0.7-0.1-1-0.4L14.6,21.6c-0.5-0.5-0.5-1.4,0-2l0,0l2-2
				c2.7-2.7,7.1-2.7,9.8,0c0,0,0,0,0,0l3.9,3.9c2.7,2.7,2.7,7.1,0,9.8l-2,2C28.1,33.6,27.8,33.8,27.4,33.8"/>
		</g>
	</g>
</g>
</svg>
