<?xml version="1.0" encoding="utf-8"?>
<!-- Generator: Adobe Illustrator 25.3.1, SVG Export Plug-In . SVG Version: 6.00 Build 0)  -->
<svg version="1.1" id="Calque_1" xmlns="http://www.w3.org/2000/svg" xmlns:xlink="http://www.w3.org/1999/xlink" x="0px" y="0px"
	 viewBox="0 0 48 48" style="enable-background:new 0 0 48 48;" xml:space="preserve">
<style type="text/css">
	.st0{fill:#FFFFFF;}
	.st1{fill:#426E81;}
	.st2{fill:#878787;}
</style>
<g>
	<path class="st0" d="M40.6,9.6h-0.9c-3.1,0-5.6-2.5-5.6-5.6V3H10C8.6,3,7.4,4.2,7.4,5.6v36.7c0,1.4,1.2,2.6,2.6,2.6h28
		c1.4,0,2.6-1.2,2.6-2.6V36l0-14.3V9.6z M37.6,37.6c0,1.4-1.1,2.5-2.5,2.5c0,0,0,0,0,0H12.9c-1.4,0-2.5-1.1-2.5-2.5c0,0,0,0,0,0
		c0-1.4,1.1-2.5,2.5-2.5c0,0,0,0,0,0h22.1C36.4,35.1,37.6,36.2,37.6,37.6C37.6,37.6,37.6,37.6,37.6,37.6z M37.6,29.1
		c0,1.4-1.1,2.5-2.5,2.5c0,0,0,0,0,0H12.9c-1.4,0-2.5-1.1-2.5-2.5c0,0,0,0,0,0c0-1.4,1.1-2.5,2.5-2.5c0,0,0,0,0,0h22.1
		C36.4,26.6,37.6,27.8,37.6,29.1C37.6,29.1,37.6,29.1,37.6,29.1z M37.6,20.6c0,1.4-1.1,2.5-2.5,2.5c0,0,0,0,0,0H12.9
		c-1.4,0-2.5-1.1-2.5-2.5c0,0,0,0,0,0c0-1.4,1.1-2.5,2.5-2.5h22.1C36.4,18.1,37.6,19.3,37.6,20.6C37.6,20.6,37.6,20.6,37.6,20.6z
		 M37.6,12.1c0,1.4-1.1,2.5-2.5,2.5c0,0,0,0,0,0H12.9c-1.4,0-2.5-1.1-2.5-2.5c0,0,0,0,0,0c0-1.4,1.1-2.5,2.5-2.5c0,0,0,0,0,0h22.1
		C36.4,9.7,37.6,10.8,37.6,12.1C37.6,12.1,37.6,12.1,37.6,12.1z"/>
	<path class="st1" d="M35.1,9.7H12.9c0,0,0,0,0,0c-1.4,0-2.5,1.1-2.5,2.5c0,0,0,0,0,0c0,1.4,1.1,2.5,2.5,2.5h22.1c0,0,0,0,0,0
		c1.4,0,2.5-1.1,2.5-2.5c0,0,0,0,0,0C37.6,10.8,36.4,9.7,35.1,9.7z"/>
	<path class="st1" d="M35.1,18.1H12.9c-1.4,0-2.5,1.1-2.5,2.5c0,0,0,0,0,0c0,1.4,1.1,2.5,2.5,2.5h22.1c0,0,0,0,0,0
		c1.4,0,2.5-1.1,2.5-2.5c0,0,0,0,0,0C37.6,19.3,36.4,18.1,35.1,18.1z"/>
	<path class="st1" d="M35.1,26.6H12.9c0,0,0,0,0,0c-1.4,0-2.5,1.1-2.5,2.5c0,0,0,0,0,0c0,1.4,1.1,2.5,2.5,2.5h22.1c0,0,0,0,0,0
		c1.4,0,2.5-1.1,2.5-2.5c0,0,0,0,0,0C37.6,27.8,36.4,26.6,35.1,26.6z"/>
	<path class="st1" d="M35.1,35.1H12.9c0,0,0,0,0,0c-1.4,0-2.5,1.1-2.5,2.5c0,0,0,0,0,0c0,1.4,1.1,2.5,2.5,2.5h22.1c0,0,0,0,0,0
		c1.4,0,2.5-1.1,2.5-2.5c0,0,0,0,0,0C37.6,36.2,36.4,35.1,35.1,35.1z"/>
	<path class="st2" d="M34.1,0H10C6.9,0,4.4,2.5,4.4,5.6v36.7c0,3.1,2.5,5.6,5.6,5.6h28c3.1,0,5.6-2.5,5.6-5.6V9.6L34.1,0z
		 M40.6,42.4c0,1.4-1.2,2.6-2.6,2.6H10c-1.4,0-2.6-1.2-2.6-2.6V5.6C7.4,4.2,8.6,3,10,3h24.1v0.9c0,3.1,2.5,5.6,5.6,5.6h0.9v12.1
		l0,14.3V42.4z"/>
</g>
</svg>
