<?xml version="1.0" encoding="utf-8"?>
<!-- Generator: Adobe Illustrator 27.2.0, SVG Export Plug-In . SVG Version: 6.00 Build 0)  -->
<svg version="1.1" id="Calque_1" xmlns="http://www.w3.org/2000/svg" xmlns:xlink="http://www.w3.org/1999/xlink" x="0px" y="0px"
	 viewBox="0 0 48 48" style="enable-background:new 0 0 48 48;" xml:space="preserve">
<style type="text/css">
	.st0{fill:#FFFFFF;}
	.st1{fill:#436E80;}
	.st2{fill:#868686;}
	.st3{fill:#BD1823;}
</style>
<g>
	<g>
		<g>
			<g>
				<path class="st0" d="M30.29,7.62h-0.71c-2.44,0-4.41-1.98-4.41-4.44V2.38H6.19c-1.1,0-2.05,0.95-2.05,2.06v29.11
					c0,1.11,0.95,2.06,2.05,2.06h22.05c1.1,0,2.05-0.95,2.05-2.06v-5V17.22V7.62z M27.93,29.83c0,1.11-0.87,1.98-1.97,1.98l0,0H8.48
					c-1.1,0-1.97-0.87-1.97-1.98l0,0c0-1.11,0.87-1.98,1.97-1.98l0,0h17.41C26.99,27.85,27.93,28.72,27.93,29.83L27.93,29.83z
					 M27.93,23.09c0,1.11-0.87,1.98-1.97,1.98l0,0H8.48c-1.1,0-1.97-0.87-1.97-1.98l0,0c0-1.11,0.87-1.98,1.97-1.98l0,0h17.41
					C26.99,21.1,27.93,22.05,27.93,23.09L27.93,23.09z M27.93,16.34c0,1.11-0.87,1.98-1.97,1.98l0,0H8.48
					c-1.1,0-1.97-0.87-1.97-1.98l0,0c0-1.11,0.87-1.98,1.97-1.98h17.41C26.99,14.36,27.93,15.31,27.93,16.34L27.93,16.34z
					 M27.93,9.6c0,1.11-0.87,1.98-1.97,1.98l0,0H8.48c-1.1,0-1.97-0.87-1.97-1.98l0,0c0-1.11,0.87-1.98,1.97-1.98l0,0h17.41
					C26.99,7.7,27.93,8.57,27.93,9.6L27.93,9.6z"/>
				<path class="st1" d="M25.96,7.7H8.48l0,0c-1.1,0-1.97,0.87-1.97,1.98l0,0c0,1.11,0.87,1.98,1.97,1.98h17.41l0,0
					c1.1,0,1.97-0.87,1.97-1.98l0,0C27.93,8.57,26.99,7.7,25.96,7.7z"/>
				<path class="st1" d="M25.96,14.36H8.48c-1.1,0-1.97,0.87-1.97,1.98l0,0c0,1.11,0.87,1.98,1.97,1.98h17.41l0,0
					c1.1,0,1.97-0.87,1.97-1.98l0,0C27.93,15.31,26.99,14.36,25.96,14.36z"/>
				<path class="st1" d="M25.96,21.1H8.48l0,0c-1.1,0-1.97,0.87-1.97,1.98l0,0c0,1.11,0.87,1.98,1.97,1.98h17.41l0,0
					c1.1,0,1.97-0.87,1.97-1.98l0,0C27.93,22.05,26.99,21.1,25.96,21.1z"/>
				<path class="st1" d="M25.96,27.85H8.48l0,0c-1.1,0-1.97,0.87-1.97,1.98l0,0c0,1.11,0.87,1.98,1.97,1.98h17.41l0,0
					c1.1,0,1.97-0.87,1.97-1.98l0,0C27.93,28.72,26.99,27.85,25.96,27.85z"/>
				<path class="st2" d="M25.17,0H6.19C3.75,0,1.78,1.98,1.78,4.44v29.11c0,2.46,1.97,4.44,4.41,4.44h22.05
					c2.44,0,4.41-1.98,4.41-4.44V7.62L25.17,0z M30.29,33.64c0,1.11-0.95,2.06-2.05,2.06H6.19c-1.1,0-2.05-0.95-2.05-2.06V4.44
					c0-1.11,0.95-2.06,2.05-2.06h18.98v0.71c0,2.46,1.97,4.44,4.41,4.44h0.71v9.6v11.34V33.64z"/>
			</g>
		</g>
	</g>
	<path class="st3" d="M46.22,36c0,6.63-5.37,12-12,12c-6.63,0-12-5.37-12-12c0-6.63,5.37-12,12-12C40.85,24,46.22,29.37,46.22,36z"
		/>
	<g>
		<path class="st0" d="M33.48,38.04l-1.21-7.06c-0.02-0.12-0.03-0.24-0.03-0.36c0-1.01,0.66-1.52,1.99-1.52
			c1.32,0,1.98,0.5,1.98,1.51c0,0.14-0.01,0.26-0.03,0.37l-1.22,7.06H33.48z M34.22,39.5c1.16,0,1.74,0.58,1.74,1.74
			c0,1.16-0.58,1.74-1.74,1.74c-1.16,0-1.74-0.58-1.74-1.74C32.48,40.08,33.06,39.5,34.22,39.5z"/>
	</g>
</g>
</svg>
