<?xml version="1.0" encoding="utf-8"?>
<!-- Generator: Adobe Illustrator 27.2.0, SVG Export Plug-In . SVG Version: 6.00 Build 0)  -->
<svg version="1.1" id="Calque_1" xmlns="http://www.w3.org/2000/svg" xmlns:xlink="http://www.w3.org/1999/xlink" x="0px" y="0px"
	 viewBox="0 0 48 48" style="enable-background:new 0 0 48 48;" xml:space="preserve">
<style type="text/css">
	.st0{fill:#FFFFFF;}
	.st1{fill:#585856;}
	.st2{fill:#585758;}
	.st3{fill:#1C779C;}
</style>
<g>
	<g>
		<g>
			<g>
				<g>
					<g>
						<path id="path26_00000083047205329878140170000015751205513923112350_" class="st0" d="M5.4,46.2V6.8c0-1,0.8-1.8,1.8-1.8h16
							L37,18.6v27.5c0,1-0.8,1.8-1.8,1.8H7.2C6.2,48,5.4,47.2,5.4,46.2z"/>
						<path id="path26_00000082333864126292018900000002892157130395161779_" class="st1" d="M22.7,6.1l13,13v27.1
							c0,0.4-0.3,0.7-0.7,0.7H7.2c-0.4,0-0.7-0.3-0.7-0.7V6.8c0-0.4,0.3-0.7,0.7-0.7H22.7 M23.2,5h-16c-1,0-1.8,0.8-1.8,1.8v39.4
							c0,1,0.8,1.8,1.8,1.8h27.9c1,0,1.8-0.8,1.8-1.8V18.6L23.2,5L23.2,5z"/>
					</g>
					<path id="path32_00000107557441268744328350000007612508546240595647_" class="st2" d="M23.2,5L37,18.6H25.1
						c-1,0-1.8-0.8-1.8-1.8V5z"/>
				</g>
				<g>
					<path class="st3" d="M32.6,43c-0.7,0.4-1.9,0.8-3.2,0.8c-2,0-3.8-0.8-5-2.3c-0.5-0.7-1-1.6-1.1-2.6H22v-1.4h1.1
						c0-0.1,0-0.2,0-0.3c0-0.2,0-0.4,0-0.6H22V35h1.4c0.3-1.1,0.8-2,1.4-2.8c1.2-1.3,2.8-2.1,4.7-2.1c1.2,0,2.3,0.3,3.1,0.6L32,33.1
						c-0.5-0.2-1.4-0.5-2.3-0.5c-1,0-1.9,0.3-2.5,1.1c-0.3,0.3-0.5,0.8-0.6,1.3h5.1v1.4h-5.4c0,0.2,0,0.4,0,0.6c0,0.1,0,0.2,0,0.3
						h5.4v1.4h-5.1c0.1,0.6,0.4,1.1,0.7,1.4c0.7,0.7,1.6,1,2.6,1c0.9,0,1.9-0.3,2.3-0.5L32.6,43z"/>
				</g>
			</g>
			<g>
				<g>
					<g>
						<path id="path26_00000070112822232044735160000004590968679524742311_" class="st0" d="M8.3,43.7V4.3c0-1,0.8-1.8,1.8-1.8h16
							l13.7,13.7v27.5c0,1-0.8,1.8-1.8,1.8H10.1C9.1,45.5,8.3,44.7,8.3,43.7z"/>
						<path id="path26_00000032625355511173240870000014101661480408021173_" class="st1" d="M25.6,3.7l13,13v27.1
							c0,0.4-0.3,0.7-0.7,0.7H10.1c-0.4,0-0.7-0.3-0.7-0.7V4.3c0-0.4,0.3-0.7,0.7-0.7L25.6,3.7 M26.1,2.5h-16c-1,0-1.8,0.8-1.8,1.8
							v39.4c0,1,0.8,1.8,1.8,1.8H38c1,0,1.8-0.8,1.8-1.8V16.2L26.1,2.5L26.1,2.5z"/>
					</g>
					<path id="path32_00000158748686050299591970000004320678764440008109_" class="st2" d="M26.1,2.5l13.7,13.7H28
						c-1,0-1.8-0.8-1.8-1.8V2.5z"/>
				</g>
				<g>
					<path class="st3" d="M35.5,40.6c-0.7,0.4-1.9,0.8-3.2,0.8c-2,0-3.8-0.8-5-2.3c-0.5-0.7-1-1.6-1.1-2.6h-1.3V35H26
						c0-0.1,0-0.2,0-0.3c0-0.2,0-0.4,0-0.6h-1.1v-1.4h1.4c0.3-1.1,0.8-2,1.4-2.8c1.2-1.3,2.8-2.1,4.7-2.1c1.2,0,2.3,0.3,3.1,0.6
						l-0.6,2.3c-0.5-0.2-1.4-0.5-2.3-0.5c-1,0-1.9,0.3-2.5,1.1c-0.3,0.3-0.5,0.8-0.6,1.3h5.1V34h-5.4c0,0.2,0,0.4,0,0.6
						c0,0.1,0,0.2,0,0.3h5.4v1.4h-5.1c0.1,0.6,0.4,1.1,0.7,1.4c0.7,0.7,1.6,1,2.6,1c0.9,0,1.9-0.3,2.3-0.5L35.5,40.6z"/>
				</g>
			</g>
		</g>
	</g>
	<g>
		<g>
			<g>
				<path id="path26_00000140003883671519607970000010614390792372880792_" class="st0" d="M11.3,41.2V1.8c0-1,0.8-1.8,1.8-1.8H29
					l13.6,13.6v27.5c0,1-0.8,1.8-1.8,1.8H13.1C12.1,43,11.3,42.2,11.3,41.2z"/>
				<path id="path26_00000121962558371099808600000012404176656776000691_" class="st1" d="M28.5,1.2l12.9,13v27
					c0,0.4-0.3,0.7-0.7,0.7H13.1c-0.4,0-0.7-0.3-0.7-0.7V1.8c0-0.4,0.3-0.7,0.7-0.7H28.5 M29,0H13.1c-1,0-1.8,0.8-1.8,1.8v39.4
					c0,1,0.8,1.8,1.8,1.8h27.7c1,0,1.8-0.8,1.8-1.8V13.6L29,0L29,0z"/>
			</g>
			<path id="path32_00000070094586398141593270000001382630533638777487_" class="st2" d="M29,0l13.6,13.6H30.8
				c-1,0-1.8-0.8-1.8-1.8L29,0L29,0z"/>
		</g>
		<g>
			<path class="st3" d="M32.2,33.8c-0.7,0.4-1.9,0.8-3.2,0.8c-2,0-3.8-0.8-4.9-2.3c-0.5-0.7-1-1.6-1.1-2.6h-1.3v-1.4h1.1
				c0-0.1,0-0.2,0-0.3c0-0.2,0-0.4,0-0.6h-1.1v-1.4H23c0.3-1.1,0.7-2,1.4-2.8c1.2-1.3,2.8-2.1,4.7-2.1c1.2,0,2.3,0.3,3,0.6l-0.6,2.3
				c-0.5-0.2-1.4-0.5-2.2-0.5c-1,0-1.9,0.3-2.5,1.1c-0.3,0.3-0.5,0.8-0.6,1.3h5v1.4h-5.3c0,0.2,0,0.4,0,0.6c0,0.1,0,0.2,0,0.3h5.4
				v1.4h-5.1c0.1,0.6,0.4,1.1,0.7,1.4c0.6,0.7,1.6,1,2.6,1c0.9,0,1.9-0.3,2.3-0.5L32.2,33.8z"/>
		</g>
	</g>
</g>
</svg>
