<?xml version="1.0" encoding="utf-8"?>
<svg version="1.1" id="Calque_1" xmlns="http://www.w3.org/2000/svg" xmlns:xlink="http://www.w3.org/1999/xlink" x="0px" y="0px"
	 viewBox="0 0 48 48" style="enable-background:new 0 0 48 48;" xml:space="preserve">
<style type="text/css">
	.st0{fill:#B71540;}
</style>
<g>
	<path class="st0" d="M46.3,15.8C34.9,34,22.9,45.6,13.1,45.6c-8,0-11.8-5.2-11.8-13.2c0-14.6,13-30.1,27.1-30.1
		c3.9,0,6.1,2,6.1,5.7c0,5.7-9.3,15.5-18.9,14.8c-2.5,5.2-4.3,10.7-4.3,14.8c0,2.5,0.9,4.3,3.2,4.3c8.7,0,20.7-12.5,30.5-30.1
		C46.3,12.4,47.4,14,46.3,15.8z M17.2,19.7c7.7-0.5,14.1-8.4,14.1-11.6c0-1.1-0.5-1.6-1.6-1.6C26.3,6.5,21,12.4,17.2,19.7z"/>
</g>
</svg>
