<?xml version="1.0" encoding="utf-8"?>
<!-- Generator: Adobe Illustrator 27.2.0, SVG Export Plug-In . SVG Version: 6.00 Build 0)  -->
<svg version="1.1" id="Calque_1" xmlns="http://www.w3.org/2000/svg" xmlns:xlink="http://www.w3.org/1999/xlink" x="0px" y="0px"
	 viewBox="0 0 48 48" style="enable-background:new 0 0 48 48;" xml:space="preserve">
<style type="text/css">
	.st0{fill:#030403;stroke:#000000;stroke-width:5.946247e-02;stroke-miterlimit:10;}
	.st1{fill:#598D36;}
	.st2{fill:#FFFFFF;}
	.st3{fill:#D6B844;}
	.st4{fill:#353535;}
	.st5{fill:#5A5A5A;}
</style>
<g>
	<g>
		<circle class="st0" cx="19" cy="19" r="19"/>
		<g>
			<path class="st1" d="M25.7,9.1c-0.3,0.7-0.6,1.5-0.9,2.2c0.4,0.2,0.8,0.4,1.3,0.7c0,0,0,0.1,0.1,0.1c0.1,0.5,0.4,0.8,0.8,1.1
				c0.4,0.2,0.5,0.5,0.6,0.9c0.1,0.3,0.1,0.6,0.1,0.9c0.9-0.5,1.8-1,2.7-1.5c0.4,0.7,0.3,1.3,0,1.9c-0.3,0.5-0.7,1-1.1,1.3
				c-0.9,0.7-1.9,1.2-3,1.5c-0.8,0.3-1.6,0.5-2.4,0.7c-0.7,0.2-1.5,0.2-2.2,0.3c-1.2,0.1-2.5,0.2-3.7,0.2c-1,0-2-0.1-2.9-0.3
				c-0.9-0.2-1.8-0.4-2.7-0.6c-1.3-0.4-2.5-0.9-3.6-1.8C8.4,16.4,8,16,7.8,15.5c-0.4-0.7-0.4-1.3,0.1-2C8,13.3,8.2,13,8.4,12.7
				c0.2-0.3,0.4-0.7,0.5-1C9,11.4,9.2,11.1,9.5,11c0.2-0.1,0.5-0.2,0.7-0.3c0.8-0.3,1.5-0.8,2-1.4c0.6-0.7,1.4-0.8,2.2-0.9
				c0.4,0,0.8,0,1.2-0.1c0.6,0,1.1-0.3,1.6-0.6c0.3-0.2,0.6-0.3,0.9-0.3c0.2,0,0.5-0.1,0.7-0.1c0.3-0.1,0.6,0,0.9,0.1
				c0.4,0.1,0.8,0.3,1.2,0.4c0.3,0.1,0.5,0.1,0.8,0.1c0.6,0,1.2,0.1,1.7,0.1c0.5,0,0.9,0.2,1.3,0.5C25,8.7,25.4,8.9,25.7,9.1z"/>
			<path class="st2" d="M7.7,10.6c-0.1,0.3-0.2,0.6-0.4,0.8c-0.1,0.2-0.2,0.4-0.3,0.7c-0.3,0.5-0.7,0.9-0.9,1.4
				c-0.5,1.1-0.2,2.1,0.5,3.1c0.7,0.9,1.5,1.6,2.5,2.1c1.7,0.9,3.5,1.5,5.4,1.8c2,0.4,4.1,0.5,6.1,0.3c2.3-0.1,4.5-0.5,6.7-1.4
				c1.1-0.4,2.2-1,3.1-1.7c0.8-0.7,1.5-1.4,1.7-2.4c0.2-0.8,0.1-1.6-0.3-2.3c0,0,0-0.1-0.1-0.1c0.3-0.2,0.5-0.4,0.8-0.6
				c0.6,0.3,1,0.8,1.2,1.4c0.1,0.3,0.2,0.7,0.3,1c0,0.8,0,1.7-0.1,2.5c0,0.1,0,0.2-0.1,0.3c-0.2,0.3-0.2,0.7-0.3,1
				c-0.1,0.6-0.2,1.2-0.3,1.8c-0.6,0.7-1.3,1.1-2.1,1.6c-2.1,1.2-4.4,2-6.8,2.6c-2.4,0.5-4.8,0.7-7.3,0.5c-3.5-0.3-6.9-1.1-10-2.9
				c-0.9-0.5-1.8-1.1-2.6-2c-0.1-0.7-0.1-1.4-0.2-2.1c0-0.2-0.1-0.3-0.2-0.5c-0.2-0.3-0.3-0.6-0.3-1c0-0.6,0-1.2,0-1.9
				c0-0.7,0.3-1.2,0.7-1.7C5.4,11.9,6.4,11.2,7.7,10.6C7.6,10.6,7.7,10.6,7.7,10.6z"/>
			<path class="st2" d="M31.7,24.6c-0.6,1.1-1.3,2-2.2,2.9c-1.9,1.8-4.2,2.9-6.8,3.4c-1.7,0.3-3.5,0.4-5.3,0.2
				c-1.5-0.1-2.9-0.3-4.3-0.8c-2.2-0.7-4.2-1.9-5.7-3.7c-0.6-0.7-1.1-1.5-1.5-2.3c0,0,0.1,0,0.1-0.1c1.1,1,2.4,1.7,3.8,2.3
				c1.8,0.8,3.8,1.2,5.7,1.5c1.9,0.3,3.8,0.3,5.7,0.1c2.7-0.2,5.4-0.8,7.8-2C30,25.7,30.8,25.2,31.7,24.6
				C31.6,24.5,31.6,24.6,31.7,24.6z"/>
			<path class="st3" d="M33,9.6c-0.2,0.4-0.4,0.8-0.8,1c-1.1,0.9-2.4,1.6-3.6,2.3c0,0,0,0-0.1,0c0-0.1-0.1-0.1-0.1-0.2
				c-0.1-0.3-0.4-0.6-0.7-0.8c-0.1-0.1-0.3-0.2-0.3-0.3c-0.1-0.5-0.4-0.8-0.9-0.9c0.5-1.4,1-2.7,1.8-3.9c0.4-0.1,0.7,0,1,0.2
				c1.1,0.4,2.2,1.1,3.1,1.8C32.7,9,32.9,9.2,33,9.6z"/>
		</g>
	</g>
	<g>
		<rect x="26" y="28.1" class="st4" width="20" height="17.7"/>
		<g>
			<path class="st5" d="M46,31H26c-1.1,0-2-0.9-2-2v-2c0-1.1,0.9-2,2-2h20c1.1,0,2,0.9,2,2v2C48,30.1,47.1,31,46,31z"/>
			<path class="st5" d="M46,39H26c-1.1,0-2-0.9-2-2v-2c0-1.1,0.9-2,2-2h20c1.1,0,2,0.9,2,2v2C48,38.1,47.1,39,46,39z"/>
			<path class="st5" d="M46,47H26c-1.1,0-2-0.9-2-2v-2c0-1.1,0.9-2,2-2h20c1.1,0,2,0.9,2,2v2C48,46.1,47.1,47,46,47z"/>
		</g>
		<circle class="st1" cx="45" cy="28" r="1.8"/>
		<circle class="st3" cx="40" cy="28" r="1.8"/>
		<circle class="st1" cx="45" cy="36" r="1.8"/>
		<circle class="st3" cx="40" cy="36" r="1.8"/>
		<circle class="st1" cx="45" cy="44" r="1.8"/>
		<circle class="st3" cx="40" cy="44" r="1.8"/>
	</g>
</g>
</svg>
