<?xml version="1.0" encoding="utf-8"?>
<!-- Generator: Adobe Illustrator 25.3.1, SVG Export Plug-In . SVG Version: 6.00 Build 0)  -->
<svg version="1.1" id="Calque_1" xmlns="http://www.w3.org/2000/svg" xmlns:xlink="http://www.w3.org/1999/xlink" x="0px" y="0px"
	 viewBox="0 0 48 48" style="enable-background:new 0 0 48 48;" xml:space="preserve">
<style type="text/css">
	.st0{fill:#1C789D;}
</style>
<g>
	<path class="st0" d="M13.4,7.7c0,0.8-0.6,1.4-1.4,1.4l0,0c-0.8,0-1.4-0.6-1.4-1.4V1.4c0-0.8,0.6-1.4,1.4-1.4l0,0
		c0.8,0,1.4,0.6,1.4,1.4V7.7z"/>
	<path class="st0" d="M25.4,7.7c0,0.8-0.6,1.4-1.4,1.4l0,0c-0.8,0-1.4-0.6-1.4-1.4V1.4C22.6,0.6,23.2,0,24,0l0,0
		c0.8,0,1.4,0.6,1.4,1.4V7.7z"/>
	<path class="st0" d="M37.3,7.7c0,0.8-0.6,1.4-1.4,1.4l0,0c-0.8,0-1.4-0.6-1.4-1.4V1.4c0-0.8,0.6-1.4,1.4-1.4l0,0
		c0.8,0,1.4,0.6,1.4,1.4V7.7z"/>
	<path class="st0" d="M43.3,4.6h-4.9V8c0,1.4-1.1,2.5-2.5,2.5c-1.4,0-2.5-1.1-2.5-2.5V4.6h-7V8c0,1.4-1.1,2.5-2.5,2.5
		c-1.4,0-2.5-1.1-2.5-2.5V4.6h-7V8c0,1.4-1.1,2.5-2.5,2.5c-1.4,0-2.5-1.1-2.5-2.5V4.6H4.7c-2.5,0-4.6,2.1-4.6,4.6v34.2
		c0,2.5,2.1,4.6,4.6,4.6h38.6c2.5,0,4.6-2.1,4.6-4.6V9.2C47.9,6.6,45.8,4.6,43.3,4.6z M45.9,41.9c0,2.3-1.9,4.1-4.2,4.1H6.3
		c-2.3,0-4.2-1.8-4.2-4.1V16.7h43.8V41.9z"/>
	<path class="st0" d="M22.8,24.9c0,0.2-0.2,0.4-0.4,0.4h-7c-0.2,0-0.4-0.2-0.4-0.4v-4.6c0-0.2,0.2-0.4,0.4-0.4h7
		c0.2,0,0.4,0.2,0.4,0.4V24.9z"/>
	<path class="st0" d="M32.9,24.9c0,0.2-0.2,0.4-0.4,0.4h-7c-0.2,0-0.4-0.2-0.4-0.4v-4.6c0-0.2,0.2-0.4,0.4-0.4h7
		c0.2,0,0.4,0.2,0.4,0.4V24.9z"/>
	<path class="st0" d="M42.9,24.9c0,0.2-0.2,0.4-0.4,0.4h-7c-0.2,0-0.4-0.2-0.4-0.4v-4.6c0-0.2,0.2-0.4,0.4-0.4h7
		c0.2,0,0.4,0.2,0.4,0.4V24.9z"/>
	<path class="st0" d="M12.8,33.7c0,0.2-0.2,0.4-0.4,0.4h-7c-0.2,0-0.4-0.2-0.4-0.4v-4.6c0-0.2,0.2-0.4,0.4-0.4h7
		c0.2,0,0.4,0.2,0.4,0.4V33.7z"/>
	<path class="st0" d="M22.8,33.7c0,0.2-0.2,0.4-0.4,0.4h-7c-0.2,0-0.4-0.2-0.4-0.4v-4.6c0-0.2,0.2-0.4,0.4-0.4h7
		c0.2,0,0.4,0.2,0.4,0.4V33.7z"/>
	<path class="st0" d="M32.9,33.7c0,0.2-0.2,0.4-0.4,0.4h-7c-0.2,0-0.4-0.2-0.4-0.4v-4.6c0-0.2,0.2-0.4,0.4-0.4h7
		c0.2,0,0.4,0.2,0.4,0.4V33.7z"/>
	<path class="st0" d="M42.9,33.7c0,0.2-0.2,0.4-0.4,0.4h-7c-0.2,0-0.4-0.2-0.4-0.4v-4.6c0-0.2,0.2-0.4,0.4-0.4h7
		c0.2,0,0.4,0.2,0.4,0.4V33.7z"/>
	<path class="st0" d="M32.9,42.4c0,0.2-0.2,0.4-0.4,0.4h-7c-0.2,0-0.4-0.2-0.4-0.4v-4.6c0-0.2,0.2-0.4,0.4-0.4h7
		c0.2,0,0.4,0.2,0.4,0.4V42.4z"/>
	<path class="st0" d="M42.9,42.4c0,0.2-0.2,0.4-0.4,0.4h-7c-0.2,0-0.4-0.2-0.4-0.4v-4.6c0-0.2,0.2-0.4,0.4-0.4h7
		c0.2,0,0.4,0.2,0.4,0.4V42.4z"/>
	<path class="st0" d="M12.8,42.4c0,0.2-0.2,0.4-0.4,0.4h-7c-0.2,0-0.4-0.2-0.4-0.4v-4.6c0-0.2,0.2-0.4,0.4-0.4h7
		c0.2,0,0.4,0.2,0.4,0.4V42.4z"/>
	<path class="st0" d="M22.8,42.4c0,0.2-0.2,0.4-0.4,0.4h-7c-0.2,0-0.4-0.2-0.4-0.4v-4.6c0-0.2,0.2-0.4,0.4-0.4h7
		c0.2,0,0.4,0.2,0.4,0.4V42.4z"/>
</g>
</svg>
