<?xml version="1.0" encoding="utf-8"?>
<!-- Generator: Adobe Illustrator 25.3.1, SVG Export Plug-In . SVG Version: 6.00 Build 0)  -->
<svg version="1.1" id="Calque_1" xmlns="http://www.w3.org/2000/svg" xmlns:xlink="http://www.w3.org/1999/xlink" x="0px" y="0px"
	 viewBox="0 0 48 48" style="enable-background:new 0 0 48 48;" xml:space="preserve">
<style type="text/css">
	.st0{fill:#1C789D;}
</style>
<g>
	<path class="st0" d="M20.9,47.9c1.3,0,3.2-1.3,3.2-1.3c3.7-2.5,8.7-5.9,8-7.5c-1.1-2.4-6.5,4-5.2-1.3l1.4-5.7l3.1-12.6
		c0.6-2.2-0.8-4.5-3.1-5.1L28,14.4c-0.3-0.1-0.5-0.1-0.8-0.1l0-0.1c0,0-0.1,0-0.2,0.1c-1.3,0-3.2,1.2-3.2,1.2
		c-3.7,2.6-8.7,5.9-7.9,7.5c1.1,2.4,6.6-4,5.3,1.3l-1.4,5.7l-3.1,12.6c-0.6,2.2,0.6,4.5,2.9,5l0.4,0.1c0.3,0.1,0.5,0.1,0.8,0.1V48
		C20.7,48,20.8,48,20.9,47.9z"/>
	<path class="st0" d="M27.7,0.2c-3.1-0.8-6.3,1.1-7.1,4.3c-0.8,3.1,1.1,6.3,4.3,7.1c3.1,0.8,6.3-1.1,7.1-4.3
		C32.8,4.1,30.9,1,27.7,0.2z"/>
</g>
</svg>
