<?xml version="1.0" encoding="utf-8"?>
<!-- Generator: Adobe Illustrator 25.3.1, SVG Export Plug-In . SVG Version: 6.00 Build 0)  -->
<svg version="1.1" id="Calque_1" xmlns="http://www.w3.org/2000/svg" xmlns:xlink="http://www.w3.org/1999/xlink" x="0px" y="0px"
	 viewBox="0 0 48 48" style="enable-background:new 0 0 48 48;" xml:space="preserve">
<style type="text/css">
	.st0{fill:#1C779C;}
</style>
<g>
	<g id="patient">
		<path class="st0" d="M46.7,15.3c0,2.9-2.3,5.2-5.2,5.2s-5.2-2.3-5.2-5.2s2.3-5.2,5.2-5.2S46.7,12.5,46.7,15.3z"/>
		<path class="st0" d="M35.3,23.9l-3.7,3.6v8.7h0.5L44.3,24C38.8,19.7,35.3,23.9,35.3,23.9z"/>
	</g>
	<path id="chaise" class="st0" d="M47.6,24c-0.2-0.1-0.6-0.3-1.2,0.1L33.5,37h-1.9v5.9H35l13-18.5C48,24.4,47.8,24.1,47.6,24z"/>
	<path id="tete" class="st0" d="M10,13.3c0,0-1.3-3.9,0.4-6.8s4.4-3.8,5.9-4.3c1.4-0.5,4-0.7,5.6-0.2s1.8,0.6,2.6,2.3
		c0.9,0.2,2.9,1.8,2.9,3.2c0.1,1.4,0.3,3.4-0.4,5.8c0.5-0.2,0.9,0.1,1,0.6c0.1,0.6,0.2,1.2-0.3,2s-0.8,1.3-2,1.5
		c0,0-0.5,1.8-1.6,3.3s-1.9,2.5-3.3,3.2s-2.1,0.6-2.5,0.6c-0.7,0-2.5-0.4-3.5-1.4S12.9,21,12.4,20s-1.1-2.5-1.1-2.5
		s-0.7,0.3-1.4-0.6C9.2,15.8,8.9,15,9,14C9.2,12.9,10,13.3,10,13.3z"/>
	<g id="corps">
		<path class="st0" d="M36.5,39.5c-0.3-2.7-1-6-1.6-8.3s-1-2.7-2.3-3.7s-3.5-1.5-4.5-1.8c0.2,1.3-0.2,3.9-0.3,4.4
			c0.5,0.2,1.3,0.7,1.9,1.5c0.6,0.7,0.7,1.6,0.7,1.6s-0.2,3.9-0.3,5.8c-0.1,1.9-0.7,2.7-1.2,3.4c-0.5,0.6-1.1,0.7-1.8,0.7
			c-0.1,0.1-0.3,0.1-0.4,0.1c-0.5,0-0.9-0.4-0.9-0.9s0.4-0.9,0.9-0.9c0.2,0,0.4,0.1,0.5,0.2c0.2,0,0.4-0.1,0.7-0.3
			c0.5-0.5,0.6-1.3,0.7-1.8c0-0.5,0.5-5.1,0.3-6s-1-2.1-2.8-2.1s-2.5,1.7-2.8,2.2c-0.2,0.6-1.5,4.1-1.7,5.2
			c-0.2,0.9,0.1,1.5,0.5,1.7h0.1c0.5,0,0.9,0.4,0.9,0.9s-0.4,0.9-0.9,0.9c-0.3,0-0.5-0.1-0.7-0.3c-0.4-0.2-0.9-0.6-1.2-1
			c-0.4-0.6-0.2-2.2-0.1-3c0.2-0.8,1.3-3.6,1.8-5c0.5-1.4,1.2-2.2,2-2.6s1.4-0.4,2.3-0.6c0.6-1.6,0.2-4.3,0.2-4.3s-1.7-0.6-2.7-0.9
			c-0.8,3.4-3.6,7.9-3.6,7.9l-0.7-3.7l0.5-1.1l-1.6-1.4l-1.6,1.3l0.5,1.1c0,0-0.5,2.1-0.7,3.7C15.2,31,13,24.6,13,24.6
			s-0.9,0.2-1.9,0.7c-0.8,1.3-1.3,5.5-1.1,8.1c0.2,2.2,1,4.2,1.2,4.7h0.1c1.2,0,2.2,1,2.2,2.2s-1,2.2-2.2,2.2s-2.2-1-2.2-2.2
			c0-0.7,0.3-1.2,0.7-1.6c-0.2-0.5-0.7-2.1-1.1-4.2c-0.5-2.6-0.1-4.8,0-6.2c0.1-1.4,0.5-2,0.6-2.6c-2.9,0.5-5.3,2.1-5.8,2.5
			S1.8,31,1.1,35.1C0.5,39,0,46.3,0,46.3h37.1C37.1,46.3,36.8,42.2,36.5,39.5z"/>
	</g>
</g>
</svg>
