<?xml version="1.0" encoding="utf-8"?>
<!-- Generator: Adobe Illustrator 25.4.1, SVG Export Plug-In . SVG Version: 6.00 Build 0)  -->
<svg version="1.1" id="Calque_1" xmlns="http://www.w3.org/2000/svg" xmlns:xlink="http://www.w3.org/1999/xlink" x="0px" y="0px"
	 viewBox="0 0 48 48" style="enable-background:new 0 0 48 48;" xml:space="preserve">
<style type="text/css">
	.st0{clip-path:url(#SVGID_00000175294661441810763720000007571779862155325318_);}
	.st1{fill:#585858;}
	.st2{fill:#575756;}
	.st3{fill:#EF8208;}
	.st4{fill:#FFFFFF;}
	.st5{fill:#C6C6C6;}
	.st6{fill:#9C9B9B;}
	.st7{fill:#BE1622;}
	.st8{clip-path:url(#SVGID_00000072248443008156371830000008809275058733743295_);}
	.st9{fill:#1C779C;}
	.st10{fill:#AC0800;}
</style>
<g>
	<defs>
		<rect id="SVGID_1_" width="21.6" height="54.9"/>
	</defs>
	<clipPath id="SVGID_00000067951584343562807670000017402526360878597528_">
		<use xlink:href="#SVGID_1_"  style="overflow:visible;"/>
	</clipPath>
	<g style="clip-path:url(#SVGID_00000067951584343562807670000017402526360878597528_);">
		<g>
			<path class="st1" d="M11.9,6.8c0,0.7-0.6,1.2-1.2,1.2l0,0c-0.7,0-1.2-0.5-1.2-1.2V1.2C9.5,0.5,10,0,10.7,0l0,0
				c0.7,0,1.2,0.6,1.2,1.2V6.8z"/>
			<path class="st2" d="M33.3,6.9c0,0.7-0.6,1.2-1.2,1.2l0,0c-0.7,0-1.2-0.6-1.2-1.2V1.2c0-0.7,0.5-1.2,1.2-1.2l0,0
				c0.7,0,1.2,0.5,1.2,1.2V6.9z"/>
			<path class="st3" d="M38.6,4.1h-4.4v3.1c0,1.2-1,2.2-2.2,2.2c-1.2,0-2.2-1-2.2-2.2V4.1h-6.3v3.1c0,1.2-1,2.2-2.2,2.2
				c-1.2,0-2.2-1-2.2-2.2V4.1h-6.3v3.1c0,1.2-1,2.2-2.2,2.2c-1.2,0-2.2-1-2.2-2.2V4.1H4.1C1.8,4.1,0,5.9,0,8.2v30.6
				c0,2.3,1.8,4.1,4.1,4.1h34.5c2.3,0,4.1-1.8,4.1-4.1V8.2C42.7,5.9,40.9,4.1,38.6,4.1z"/>
			<path class="st4" d="M1.8,14.9v22.5c0,2,1.7,3.6,3.8,3.6h31.7c2.1,0,3.8-1.6,3.8-3.6V14.9H1.8z"/>
			<path class="st5" d="M20.3,22.3c0,0.2-0.1,0.3-0.3,0.3h-6.3c-0.2,0-0.3-0.1-0.3-0.3v-4.1c0-0.2,0.1-0.3,0.3-0.3H20
				c0.2,0,0.3,0.1,0.3,0.3V22.3z"/>
			<path class="st6" d="M29.3,22.3c0,0.2-0.1,0.3-0.3,0.3h-6.3c-0.2,0-0.3-0.1-0.3-0.3v-4.1c0-0.2,0.1-0.3,0.3-0.3H29
				c0.2,0,0.3,0.1,0.3,0.3V22.3z"/>
			<path class="st6" d="M38.3,22.3c0,0.2-0.1,0.3-0.3,0.3h-6.3c-0.2,0-0.3-0.1-0.3-0.3v-4.1c0-0.2,0.1-0.3,0.3-0.3H38
				c0.2,0,0.3,0.1,0.3,0.3V22.3z"/>
			<path class="st5" d="M11.4,30.1c0,0.2-0.1,0.3-0.3,0.3H4.8c-0.2,0-0.3-0.1-0.3-0.3V26c0-0.2,0.1-0.3,0.3-0.3H11
				c0.2,0,0.3,0.1,0.3,0.3V30.1z"/>
			<path class="st5" d="M20.3,30.1c0,0.2-0.1,0.3-0.3,0.3h-6.3c-0.2,0-0.3-0.1-0.3-0.3V26c0-0.2,0.1-0.3,0.3-0.3H20
				c0.2,0,0.3,0.1,0.3,0.3V30.1z"/>
			<path class="st7" d="M29.3,30.1c0,0.2-0.1,0.3-0.3,0.3h-6.3c-0.2,0-0.3-0.1-0.3-0.3V26c0-0.2,0.1-0.3,0.3-0.3H29
				c0.2,0,0.3,0.1,0.3,0.3V30.1z"/>
			<path class="st6" d="M38.3,30.1c0,0.2-0.1,0.3-0.3,0.3h-6.3c-0.2,0-0.3-0.1-0.3-0.3V26c0-0.2,0.1-0.3,0.3-0.3H38
				c0.2,0,0.3,0.1,0.3,0.3V30.1z"/>
			<path class="st6" d="M29.3,37.9c0,0.2-0.1,0.3-0.3,0.3h-6.3c-0.2,0-0.3-0.1-0.3-0.3v-4.1c0-0.2,0.1-0.3,0.3-0.3H29
				c0.2,0,0.3,0.1,0.3,0.3V37.9z"/>
			<path class="st6" d="M38.3,37.9c0,0.2-0.1,0.3-0.3,0.3h-6.3c-0.2,0-0.3-0.1-0.3-0.3v-4.1c0-0.2,0.1-0.3,0.3-0.3H38
				c0.2,0,0.3,0.1,0.3,0.3V37.9z"/>
			<path class="st5" d="M11.4,37.9c0,0.2-0.1,0.3-0.3,0.3H4.8c-0.2,0-0.3-0.1-0.3-0.3v-4.1c0-0.2,0.1-0.3,0.3-0.3H11
				c0.2,0,0.3,0.1,0.3,0.3V37.9z"/>
			<path class="st5" d="M20.3,37.9c0,0.2-0.1,0.3-0.3,0.3h-6.3c-0.2,0-0.3-0.1-0.3-0.3v-4.1c0-0.2,0.1-0.3,0.3-0.3H20
				c0.2,0,0.3,0.1,0.3,0.3V37.9z"/>
		</g>
	</g>
</g>
<g>
	<defs>
		<rect id="SVGID_00000097474862912772264400000000685078173803711130_" x="28.5" y="-11.6" width="19.5" height="59.6"/>
	</defs>
	<clipPath id="SVGID_00000133507474650485125780000009854821237584624315_">
		<use xlink:href="#SVGID_00000097474862912772264400000000685078173803711130_"  style="overflow:visible;"/>
	</clipPath>
	<g style="clip-path:url(#SVGID_00000133507474650485125780000009854821237584624315_);">
		<g>
			<path class="st2" d="M16.9,11.9c0,0.7-0.6,1.2-1.2,1.2l0,0c-0.7,0-1.2-0.5-1.2-1.2V6.3c0-0.7,0.6-1.2,1.2-1.2l0,0
				c0.7,0,1.2,0.6,1.2,1.2V11.9z"/>
			<path class="st2" d="M27.6,12c0,0.7-0.5,1.2-1.2,1.2l0,0c-0.7,0-1.2-0.6-1.2-1.2V6.3c0-0.7,0.5-1.2,1.2-1.2l0,0
				c0.7,0,1.2,0.5,1.2,1.2V12z"/>
			<path class="st1" d="M38.3,12c0,0.7-0.6,1.2-1.2,1.2l0,0c-0.7,0-1.2-0.6-1.2-1.2V6.3c0-0.7,0.5-1.2,1.2-1.2l0,0
				c0.7,0,1.2,0.5,1.2,1.2V12z"/>
			<path class="st9" d="M43.6,9.2h-4.4v3.1c0,1.2-1,2.2-2.2,2.2c-1.2,0-2.2-1-2.2-2.2V9.2h-6.3v3.1c0,1.2-1,2.2-2.2,2.2
				c-1.2,0-2.2-1-2.2-2.2V9.2h-6.3v3.1c0,1.2-1,2.2-2.2,2.2c-1.2,0-2.2-1-2.2-2.2V9.2H9.1C6.8,9.2,5,11,5,13.3v30.6
				C5,46.2,6.8,48,9.1,48h34.5c2.3,0,4.1-1.8,4.1-4.1V13.3C47.7,11,45.9,9.2,43.6,9.2z"/>
			<path class="st4" d="M6.8,20v22.5c0,2,1.7,3.6,3.8,3.6h31.7c2.1,0,3.8-1.6,3.8-3.6V20H6.8z"/>
			<path class="st6" d="M25.3,27.4c0,0.2-0.1,0.3-0.3,0.3h-6.3c-0.2,0-0.3-0.1-0.3-0.3v-4.1c0-0.2,0.1-0.3,0.3-0.3H25
				c0.2,0,0.3,0.1,0.3,0.3V27.4z"/>
			<path class="st5" d="M34.3,27.4c0,0.2-0.1,0.3-0.3,0.3h-6.3c-0.2,0-0.3-0.1-0.3-0.3v-4.1c0-0.2,0.1-0.3,0.3-0.3H34
				c0.2,0,0.3,0.1,0.3,0.3V27.4z"/>
			<path class="st5" d="M43.3,27.4c0,0.2-0.1,0.3-0.3,0.3h-6.3c-0.2,0-0.3-0.1-0.3-0.3v-4.1c0-0.2,0.1-0.3,0.3-0.3H43
				c0.2,0,0.3,0.1,0.3,0.3V27.4z"/>
			<path class="st6" d="M16.4,35.2c0,0.2-0.1,0.3-0.3,0.3H9.8c-0.2,0-0.3-0.1-0.3-0.3v-4.1c0-0.2,0.1-0.3,0.3-0.3H16
				c0.2,0,0.3,0.1,0.3,0.3V35.2z"/>
			<path class="st6" d="M25.3,35.2c0,0.2-0.1,0.3-0.3,0.3h-6.3c-0.2,0-0.3-0.1-0.3-0.3v-4.1c0-0.2,0.1-0.3,0.3-0.3H25
				c0.2,0,0.3,0.1,0.3,0.3V35.2z"/>
			<path class="st10" d="M34.3,35.2c0,0.2-0.1,0.3-0.3,0.3h-6.3c-0.2,0-0.3-0.1-0.3-0.3v-4.1c0-0.2,0.1-0.3,0.3-0.3H34
				c0.2,0,0.3,0.1,0.3,0.3V35.2z"/>
			<path class="st5" d="M43.3,35.2c0,0.2-0.1,0.3-0.3,0.3h-6.3c-0.2,0-0.3-0.1-0.3-0.3v-4.1c0-0.2,0.1-0.3,0.3-0.3H43
				c0.2,0,0.3,0.1,0.3,0.3V35.2z"/>
			<path class="st5" d="M34.3,43c0,0.2-0.1,0.3-0.3,0.3h-6.3c-0.2,0-0.3-0.1-0.3-0.3v-4.1c0-0.2,0.1-0.3,0.3-0.3H34
				c0.2,0,0.3,0.1,0.3,0.3V43z"/>
			<path class="st5" d="M43.3,43c0,0.2-0.1,0.3-0.3,0.3h-6.3c-0.2,0-0.3-0.1-0.3-0.3v-4.1c0-0.2,0.1-0.3,0.3-0.3H43
				c0.2,0,0.3,0.1,0.3,0.3V43z"/>
			<path class="st6" d="M16.4,43c0,0.2-0.1,0.3-0.3,0.3H9.8c-0.2,0-0.3-0.1-0.3-0.3v-4.1c0-0.2,0.1-0.3,0.3-0.3H16
				c0.2,0,0.3,0.1,0.3,0.3V43z"/>
			<path class="st6" d="M25.3,43c0,0.2-0.1,0.3-0.3,0.3h-6.3c-0.2,0-0.3-0.1-0.3-0.3v-4.1c0-0.2,0.1-0.3,0.3-0.3H25
				c0.2,0,0.3,0.1,0.3,0.3V43z"/>
		</g>
	</g>
</g>
<path class="st1" d="M23.8,48H22c-1.7,0-3.1-1.4-3.1-3.1V4.1h2.8c1.1,0,2,0.9,2,2V48z"/>
</svg>
