<?xml version="1.0" encoding="utf-8"?>
<!-- Generator: Adobe Illustrator 27.3.1, SVG Export Plug-In . SVG Version: 6.00 Build 0)  -->
<svg version="1.1" id="Calque_1" xmlns="http://www.w3.org/2000/svg" xmlns:xlink="http://www.w3.org/1999/xlink" x="0px" y="0px"
	 viewBox="0 0 48 48" style="enable-background:new 0 0 48 48;" xml:space="preserve">
<style type="text/css">
	.st0{fill:#585856;}
	.st1{fill:#F19001;}
	.st2{fill:#FFFFFF;}
	.st3{fill:#9B9A9A;}
	.st4{fill:#BD1823;}
	.st5{fill:url(#SVGID_1_);}
	.st6{fill:url(#SVGID_00000046314423208950711400000017262755875170511761_);}
</style>
<g>
	<g>
		<g>
			<path class="st0" d="M10.6,6.1c0,0.6-0.5,1.1-1.1,1.1l0,0c-0.6,0-1.1-0.5-1.1-1.1v-5C8.4,0.5,8.9,0,9.5,0l0,0
				c0.6,0,1.1,0.5,1.1,1.1L10.6,6.1L10.6,6.1z"/>
			<path class="st0" d="M20.1,6.1c0,0.6-0.5,1.1-1.1,1.1l0,0c-0.6,0-1.1-0.5-1.1-1.1v-5C17.9,0.5,18.4,0,19,0l0,0
				c0.6,0,1.1,0.5,1.1,1.1V6.1z"/>
			<path class="st0" d="M29.6,6.1c0,0.6-0.5,1.1-1.1,1.1l0,0c-0.6,0-1.1-0.5-1.1-1.1v-5c0-0.6,0.5-1.1,1.1-1.1l0,0
				c0.6,0,1.1,0.5,1.1,1.1V6.1z"/>
			<path class="st1" d="M34.3,3.6h-3.9v2.7c0,1.1-0.9,2-2,2s-2-0.9-2-1.9V3.6h-5.6v2.7c0,1.1-0.9,2-2,2c-1.1,0-2-0.9-2-1.9V3.6h-5.6
				v2.7c0,1.1-0.9,1.9-1.9,1.9S7.5,7.4,7.5,6.3V3.6H3.7C1.6,3.6,0,5.2,0,7.3v27.1c0,2,1.6,3.7,3.7,3.7h30.7c2,0,3.7-1.6,3.7-3.6V7.3
				C38,5.2,36.4,3.6,34.3,3.6z"/>
			<path class="st2" d="M1.6,13.2v20c0,1.8,1.5,3.2,3.3,3.2h28.1c1.8,0,3.4-1.4,3.4-3.2v-20H1.6z"/>
			<path class="st3" d="M18.1,19.8c0,0.2-0.1,0.3-0.3,0.3h-5.6c-0.2,0-0.3-0.1-0.3-0.3v-3.7c0-0.2,0.1-0.3,0.3-0.3h5.6
				c0.2,0,0.3,0.1,0.3,0.3V19.8z"/>
			<path class="st3" d="M26.1,19.8c0,0.2-0.1,0.3-0.3,0.3h-5.6c-0.2,0-0.3-0.1-0.3-0.3v-3.7c0-0.2,0.1-0.3,0.3-0.3h5.6
				c0.2,0,0.3,0.1,0.3,0.3L26.1,19.8z"/>
			<path class="st3" d="M34,19.8c0,0.2-0.1,0.3-0.3,0.3h-5.6c-0.2,0-0.3-0.1-0.3-0.3v-3.7c0-0.2,0.1-0.3,0.3-0.3h5.6
				c0.2,0,0.3,0.1,0.3,0.3V19.8z"/>
			<path class="st3" d="M10.1,26.7c0,0.2-0.1,0.3-0.3,0.3H4.2C4.1,27,4,26.8,4,26.7V23c0-0.2,0.1-0.3,0.3-0.3h5.6
				c0.2,0,0.3,0.1,0.3,0.3L10.1,26.7L10.1,26.7z"/>
			<path class="st3" d="M18.1,26.7c0,0.2-0.1,0.3-0.3,0.3h-5.6c-0.2,0-0.3-0.1-0.3-0.3V23c0-0.2,0.1-0.3,0.3-0.3h5.6
				c0.2,0,0.3,0.1,0.3,0.3V26.7z"/>
			<path class="st4" d="M26.1,26.7c0,0.2-0.1,0.3-0.3,0.3h-5.6c-0.2,0-0.3-0.1-0.3-0.3V23c0-0.2,0.1-0.3,0.3-0.3h5.6
				c0.2,0,0.3,0.1,0.3,0.3L26.1,26.7z"/>
			<path class="st3" d="M34,26.7c0,0.2-0.1,0.3-0.3,0.3h-5.6c-0.2,0-0.3-0.1-0.3-0.3V23c0-0.2,0.1-0.3,0.3-0.3h5.6
				c0.2,0,0.3,0.1,0.3,0.3V26.7z"/>
			<path class="st3" d="M26.1,33.6c0,0.2-0.1,0.3-0.3,0.3h-5.6c-0.2,0-0.3-0.1-0.3-0.3v-3.7c0-0.2,0.1-0.3,0.3-0.3h5.6
				c0.2,0,0.3,0.1,0.3,0.3L26.1,33.6z"/>
			<path class="st3" d="M34,33.6c0,0.2-0.1,0.3-0.3,0.3h-5.6c-0.2,0-0.3-0.1-0.3-0.3v-3.7c0-0.2,0.1-0.3,0.3-0.3h5.6
				c0.2,0,0.3,0.1,0.3,0.3V33.6z"/>
			<path class="st3" d="M10.1,33.6c0,0.2-0.1,0.3-0.3,0.3H4.2c-0.2,0-0.3-0.1-0.3-0.3v-3.7c0-0.2,0.1-0.3,0.3-0.3h5.6
				c0.2,0,0.3,0.1,0.3,0.3L10.1,33.6L10.1,33.6z"/>
			<path class="st3" d="M18.1,33.6c0,0.2-0.1,0.3-0.3,0.3h-5.6c-0.2,0-0.3-0.1-0.3-0.3v-3.7c0-0.2,0.1-0.3,0.3-0.3h5.6
				c0.2,0,0.3,0.1,0.3,0.3V33.6z"/>
		</g>
	</g>
	<g>
		<g>
			<g>
				<linearGradient id="SVGID_1_" gradientUnits="userSpaceOnUse" x1="29.0658" y1="23.4575" x2="43.0679" y2="31.5416">
					<stop  offset="0" style="stop-color:#6E7489"/>
					<stop  offset="0.5523" style="stop-color:#656B89"/>
					<stop  offset="1" style="stop-color:#5A6089"/>
				</linearGradient>
				<path class="st5" d="M43.6,26h-4.5v-0.4c0-0.9-0.7-1.6-1.6-1.6H36h-1.6c-0.9,0-1.6,0.7-1.6,1.6V26h-4.5c-0.8,0-1.4,0.6-1.4,1.4
					v0.7c0,0.2,0.2,0.4,0.4,0.4h17.2c0.2,0,0.4-0.2,0.4-0.4v-0.7C45,26.6,44.4,26,43.6,26z"/>
			</g>
		</g>
		
			<linearGradient id="SVGID_00000180340726468431561180000003986627498356516272_" gradientUnits="userSpaceOnUse" x1="28.1801" y1="29.3325" x2="43.8199" y2="44.9722">
			<stop  offset="0" style="stop-color:#6E7489"/>
			<stop  offset="0.5523" style="stop-color:#656B89"/>
			<stop  offset="1" style="stop-color:#5A6089"/>
		</linearGradient>
		<path style="fill:url(#SVGID_00000180340726468431561180000003986627498356516272_);" d="M44.5,30.4c0-0.5-0.4-0.9-0.9-0.9h0H36
			h-7.6l0,0c-0.5,0-0.9,0.4-0.9,0.9v0.3c0,0.2,0.1,0.4,0.2,0.5l0.8,1.1c0.1,0.1,0.2,0.3,0.2,0.5L30,46.1c0.1,1.1,1,1.9,2.1,1.9H36
			h3.9c1.1,0,2-0.8,2.1-1.9l1.3-13.4c0-0.2,0.1-0.3,0.2-0.5l0.8-1.1c0.1-0.2,0.2-0.3,0.2-0.5V30.4z"/>
		<path class="st2" d="M36,31.8L36,31.8c0.4,0,0.8,0.3,0.8,0.8v12.4c0,0.4-0.3,0.8-0.8,0.8l0,0c-0.4,0-0.8-0.3-0.8-0.8V32.6
			C35.2,32.2,35.6,31.8,36,31.8z"/>
		<path class="st2" d="M40.5,31.8L40.5,31.8c0.4,0,0.7,0.4,0.7,0.8L40.1,45c0,0.4-0.4,0.7-0.8,0.7h0c-0.4,0-0.7-0.4-0.7-0.8
			l1.1-12.3C39.7,32.1,40.1,31.8,40.5,31.8z"/>
		<path class="st2" d="M31.5,31.8L31.5,31.8c0.4,0,0.8,0.3,0.8,0.7l1.1,12.3c0,0.4-0.3,0.8-0.7,0.8h0c-0.4,0-0.8-0.3-0.8-0.7
			l-1.1-12.3C30.8,32.2,31.1,31.9,31.5,31.8z"/>
	</g>
</g>
</svg>
