<?xml version="1.0" encoding="utf-8"?>
<!-- Generator: Adobe Illustrator 27.3.1, SVG Export Plug-In . SVG Version: 6.00 Build 0)  -->
<svg version="1.1" id="Calque_1" xmlns="http://www.w3.org/2000/svg" xmlns:xlink="http://www.w3.org/1999/xlink" x="0px" y="0px"
	 viewBox="0 0 48 48" style="enable-background:new 0 0 48 48;" xml:space="preserve">
<style type="text/css">
	.st0{fill:#585856;}
	.st1{fill:#F19001;}
	.st2{fill:#FFFFFF;}
	.st3{fill:#9B9A9A;}
	.st4{fill:#BD1823;}
	.st5{fill:#1C779C;}
</style>
<g>
	<g>
		<g>
			<path class="st0" d="M10.6,6.1c0,0.6-0.5,1.1-1.1,1.1l0,0c-0.6,0-1.1-0.5-1.1-1.1v-5C8.4,0.5,8.9,0,9.5,0l0,0
				c0.6,0,1.1,0.5,1.1,1.1L10.6,6.1L10.6,6.1z"/>
			<path class="st0" d="M20.1,6.1c0,0.6-0.5,1.1-1.1,1.1l0,0c-0.6,0-1.1-0.5-1.1-1.1v-5C17.9,0.5,18.4,0,19,0l0,0
				c0.6,0,1.1,0.5,1.1,1.1V6.1z"/>
			<path class="st0" d="M29.6,6.1c0,0.6-0.5,1.1-1.1,1.1l0,0c-0.6,0-1.1-0.5-1.1-1.1v-5c0-0.6,0.5-1.1,1.1-1.1l0,0
				c0.6,0,1.1,0.5,1.1,1.1V6.1z"/>
			<path class="st1" d="M34.3,3.6h-3.9v2.7c0,1.1-0.9,2-2,2s-2-0.9-2-1.9V3.6h-5.6v2.7c0,1.1-0.9,2-2,2c-1.1,0-2-0.9-2-1.9V3.6h-5.6
				v2.7c0,1.1-0.9,1.9-1.9,1.9S7.5,7.4,7.5,6.3V3.6H3.7C1.6,3.6,0,5.2,0,7.3v27.1c0,2,1.6,3.7,3.7,3.7h30.7c2,0,3.7-1.6,3.7-3.6V7.3
				C38,5.2,36.4,3.6,34.3,3.6z"/>
			<path class="st2" d="M1.6,13.2v20c0,1.8,1.5,3.2,3.3,3.2h28.1c1.8,0,3.4-1.4,3.4-3.2v-20H1.6z"/>
			<path class="st3" d="M18.1,19.8c0,0.2-0.1,0.3-0.3,0.3h-5.6c-0.2,0-0.3-0.1-0.3-0.3v-3.7c0-0.2,0.1-0.3,0.3-0.3h5.6
				c0.2,0,0.3,0.1,0.3,0.3V19.8z"/>
			<path class="st3" d="M26.1,19.8c0,0.2-0.1,0.3-0.3,0.3h-5.6c-0.2,0-0.3-0.1-0.3-0.3v-3.7c0-0.2,0.1-0.3,0.3-0.3h5.6
				c0.2,0,0.3,0.1,0.3,0.3L26.1,19.8z"/>
			<path class="st3" d="M34,19.8c0,0.2-0.1,0.3-0.3,0.3h-5.6c-0.2,0-0.3-0.1-0.3-0.3v-3.7c0-0.2,0.1-0.3,0.3-0.3h5.6
				c0.2,0,0.3,0.1,0.3,0.3V19.8z"/>
			<path class="st3" d="M10.1,26.7c0,0.2-0.1,0.3-0.3,0.3H4.2C4.1,27,4,26.8,4,26.7V23c0-0.2,0.1-0.3,0.3-0.3h5.6
				c0.2,0,0.3,0.1,0.3,0.3L10.1,26.7L10.1,26.7z"/>
			<path class="st3" d="M18.1,26.7c0,0.2-0.1,0.3-0.3,0.3h-5.6c-0.2,0-0.3-0.1-0.3-0.3V23c0-0.2,0.1-0.3,0.3-0.3h5.6
				c0.2,0,0.3,0.1,0.3,0.3V26.7z"/>
			<path class="st4" d="M26.1,26.7c0,0.2-0.1,0.3-0.3,0.3h-5.6c-0.2,0-0.3-0.1-0.3-0.3V23c0-0.2,0.1-0.3,0.3-0.3h5.6
				c0.2,0,0.3,0.1,0.3,0.3L26.1,26.7z"/>
			<path class="st3" d="M34,26.7c0,0.2-0.1,0.3-0.3,0.3h-5.6c-0.2,0-0.3-0.1-0.3-0.3V23c0-0.2,0.1-0.3,0.3-0.3h5.6
				c0.2,0,0.3,0.1,0.3,0.3V26.7z"/>
			<path class="st3" d="M26.1,33.6c0,0.2-0.1,0.3-0.3,0.3h-5.6c-0.2,0-0.3-0.1-0.3-0.3v-3.7c0-0.2,0.1-0.3,0.3-0.3h5.6
				c0.2,0,0.3,0.1,0.3,0.3L26.1,33.6z"/>
			<path class="st3" d="M34,33.6c0,0.2-0.1,0.3-0.3,0.3h-5.6c-0.2,0-0.3-0.1-0.3-0.3v-3.7c0-0.2,0.1-0.3,0.3-0.3h5.6
				c0.2,0,0.3,0.1,0.3,0.3V33.6z"/>
			<path class="st3" d="M10.1,33.6c0,0.2-0.1,0.3-0.3,0.3H4.2c-0.2,0-0.3-0.1-0.3-0.3v-3.7c0-0.2,0.1-0.3,0.3-0.3h5.6
				c0.2,0,0.3,0.1,0.3,0.3L10.1,33.6L10.1,33.6z"/>
			<path class="st3" d="M18.1,33.6c0,0.2-0.1,0.3-0.3,0.3h-5.6c-0.2,0-0.3-0.1-0.3-0.3v-3.7c0-0.2,0.1-0.3,0.3-0.3h5.6
				c0.2,0,0.3,0.1,0.3,0.3V33.6z"/>
		</g>
	</g>
	<g>
		<g id="_x32__audio_simple_repeat_2_00000105428822090089723990000001739754573606378915_">
			<g>
				<path class="st5" d="M45.5,38.9c0.3-1,0.5-2,0.5-3.1c0-5.8-4.7-10.5-10.4-10.6v3.4c3.9,0.1,7,3.3,7,7.2c0,0.5-0.1,1.1-0.2,1.6
					l-3.2-1.6l2.2,6.6l6.6-2.2L45.5,38.9z"/>
				<path class="st5" d="M29.4,36.2c0-0.5,0.1-1.1,0.2-1.6l3.2,1.6l-2.2-6.6L24,31.8l2.5,1.2c-0.3,1-0.5,2-0.5,3.1
					c0,5.8,4.7,10.5,10.4,10.5v-3.4C32.5,43.3,29.4,40.1,29.4,36.2z"/>
			</g>
		</g>
	</g>
</g>
</svg>
