<?xml version="1.0" encoding="utf-8"?>
<!-- Generator: Adobe Illustrator 25.3.1, SVG Export Plug-In . SVG Version: 6.00 Build 0)  -->
<svg version="1.1" id="Calque_1" xmlns="http://www.w3.org/2000/svg" xmlns:xlink="http://www.w3.org/1999/xlink" x="0px" y="0px"
	 viewBox="0 0 48 48" style="enable-background:new 0 0 48 48;" xml:space="preserve">
<style type="text/css">
	.st0{fill:#000100;}
</style>
<g>
	<path class="st0" d="M32.8,2.4c-3.6-2.3-8.2-2.9-12.3-1.9c-4.4,1.1-7.8,4.7-10.2,8.5c-0.8,1.2,1.1,2.3,1.9,1.1
		c1.9-3.1,4.7-6.1,8.2-7.3c3.2-1,7.2-0.7,10.2,0.9c4.7,2.5,7.9,7.3,7.9,12.7c0,7.4-6.6,11.8-10.7,17.1c-2.9,3.8-3.5,9.7-8.3,11.7
		c-1.8,0.8-4.1,1-5.9,0.2c-2.6-1.2-3.3-4.1-3.4-6.7c-0.1-1.4-2.3-1.4-2.2,0c0.3,5.3,3.3,9.9,9.1,9.3c2.1-0.2,4.2-1,5.8-2.3
		c2.4-1.9,3.3-4.9,4.6-7.6c3.7-7.4,12.3-11.7,13.1-20.6C41.2,11.3,37.9,5.6,32.8,2.4z"/>
	<path class="st0" d="M12.1,30.9c-2.5,4,1.8,8.8,6,5.9c1.6-1.2,1.2-3.1,2.2-4.5c1.1-1.5,4-1.9,5.6-2.8c4.5-2.4,5.5-8.5,2.7-12.7
		c-2.3-3.5-6.4-4.9-10.2-3.9c0.7-1.6,1.9-2.9,3.4-3.6c4.1-1.9,9,1.8,9.2,6.1c0,1.4,2.2,1.4,2.2,0C32.9,7.1,22,3.5,17.3,10.5
		c-1.7,2.5-2,5.3-1.2,8.3c0.3,1.2,0.9,2.7,2.2,2.9c0.8,0.1,1.6-0.7,2.3,0.1c1.2,1.4-1,2-1.9,2.2c-1.4,0.3-0.8,2.4,0.6,2.1
		c1.4-0.3,3.1-0.8,3.6-2.3c0.4-1.1,0.1-2.5-0.6-3.4c-0.9-1.1-2-1.3-3.3-1c-0.2,0-0.3,0.1-0.3,0.1c0,0,0,0,0,0
		c-0.3-0.3-0.3-0.8-0.4-1.2c-0.2-0.8-0.4-1.7-0.4-2.6c0-0.1,0-0.1,0-0.2c3.3-1.6,7.4-0.3,9.2,3c1.1,2,1.3,5.1,0.1,7.1
		c-0.8,1.3-2,2-3.3,2.6c-1.9,0.8-4.3,1.2-5.4,3.1c-0.6,1-0.6,2.2-1.1,3.1c-0.4,0.7-0.7,1-1.5,1.1C13.4,35.8,13,33.5,14,32
		C14.7,30.8,12.8,29.7,12.1,30.9z"/>
</g>
<path class="st0" d="M2.3,33.4c-0.8,0-1.6-0.4-2-1.2c-0.6-1.1-0.1-2.5,1-3L44.7,6.5c1.1-0.6,2.5-0.1,3,1c0.6,1.1,0.1,2.5-1,3
	L3.3,33.1C3,33.3,2.6,33.4,2.3,33.4z"/>
</svg>
