<?xml version="1.0" encoding="utf-8"?>
<!-- Generator: Adobe Illustrator 27.2.0, SVG Export Plug-In . SVG Version: 6.00 Build 0)  -->
<svg version="1.1" id="Calque_1" xmlns="http://www.w3.org/2000/svg" xmlns:xlink="http://www.w3.org/1999/xlink" x="0px" y="0px"
	 viewBox="0 0 48 48" style="enable-background:new 0 0 48 48;" xml:space="preserve">
<style type="text/css">
	.st0{fill:#FFFFFF;}
</style>
<g>
	<path class="st0" d="M30.62,17.38c5.6,5.61,5.52,14.6,0.03,20.12c-0.01,0.01-0.02,0.02-0.03,0.03l-6.3,6.3
		c-5.56,5.56-14.6,5.56-20.15,0c-5.56-5.56-5.56-14.6,0-20.15l3.48-3.48c0.92-0.92,2.51-0.31,2.56,0.99
		c0.06,1.66,0.36,3.33,0.91,4.94c0.19,0.55,0.05,1.15-0.35,1.56l-1.23,1.23c-2.63,2.63-2.71,6.91-0.11,9.56
		c2.63,2.68,6.95,2.7,9.59,0.05l6.3-6.3c2.64-2.64,2.63-6.91,0-9.55c-0.35-0.35-0.7-0.62-0.97-0.8c-0.39-0.27-0.63-0.71-0.65-1.18
		c-0.04-0.99,0.31-2.01,1.1-2.79l1.97-1.97c0.52-0.52,1.33-0.58,1.93-0.16C29.38,16.25,30.03,16.79,30.62,17.38L30.62,17.38z
		 M43.83,4.17c-5.56-5.56-14.6-5.56-20.15,0l-6.3,6.3c-0.01,0.01-0.02,0.02-0.03,0.03c-5.49,5.52-5.57,14.51,0.03,20.12
		c0.59,0.59,1.24,1.13,1.92,1.61c0.6,0.42,1.41,0.36,1.93-0.16l1.97-1.97c0.78-0.78,1.13-1.8,1.1-2.79
		c-0.02-0.47-0.26-0.91-0.65-1.18c-0.27-0.19-0.62-0.46-0.97-0.8c-2.63-2.63-2.64-6.9,0-9.55l6.3-6.3c2.65-2.65,6.97-2.63,9.59,0.05
		c2.6,2.65,2.52,6.93-0.11,9.56l-1.23,1.23c-0.41,0.41-0.54,1.01-0.35,1.56c0.55,1.61,0.85,3.28,0.91,4.94
		c0.05,1.3,1.64,1.92,2.56,0.99l3.48-3.48C49.39,18.76,49.39,9.72,43.83,4.17L43.83,4.17z"/>
</g>
</svg>
