<?xml version="1.0" encoding="utf-8"?>
<!-- Generator: Adobe Illustrator 24.0.2, SVG Export Plug-In . SVG Version: 6.00 Build 0)  -->
<svg version="1.1" id="Calque_1" xmlns="http://www.w3.org/2000/svg" xmlns:xlink="http://www.w3.org/1999/xlink" x="0px" y="0px"
	 viewBox="0 0 48 48" style="enable-background:new 0 0 48 48;" xml:space="preserve">
<g>
	<path d="M46.3,7.8c0,2.7-2.2,4.9-4.9,4.9H21.7c-2.7,0-4.9-2.2-4.9-4.9l0,0c0-2.7,2.2-4.9,4.9-4.9h19.8C44.2,2.9,46.3,5.1,46.3,7.8
		L46.3,7.8z"/>
	<path d="M46.3,24c0,2.7-2.2,4.9-4.9,4.9H21.7c-2.7,0-4.9-2.2-4.9-4.9l0,0c0-2.7,2.2-4.9,4.9-4.9h19.8C44.2,19.1,46.3,21.3,46.3,24
		L46.3,24z"/>
	<path d="M46.3,40.2c0,2.7-2.2,4.9-4.9,4.9H21.7c-2.7,0-4.9-2.2-4.9-4.9l0,0c0-2.7,2.2-4.9,4.9-4.9h19.8
		C44.2,35.3,46.3,37.5,46.3,40.2L46.3,40.2z"/>
	<path d="M11.4,7.8c0,2.7-2.2,4.9-4.9,4.9c-2.7,0-4.9-2.2-4.9-4.9c0-2.7,2.2-4.9,4.9-4.9C9.2,2.9,11.4,5.1,11.4,7.8z"/>
	<path d="M11.4,24c0,2.7-2.2,4.9-4.9,4.9c-2.7,0-4.9-2.2-4.9-4.9c0-2.7,2.2-4.9,4.9-4.9C9.2,19.1,11.4,21.3,11.4,24z"/>
	<path d="M11.4,40.2c0,2.7-2.2,4.9-4.9,4.9c-2.7,0-4.9-2.2-4.9-4.9c0-2.7,2.2-4.9,4.9-4.9C9.2,35.3,11.4,37.5,11.4,40.2z"/>
</g>
</svg>
