<?xml version="1.0" encoding="utf-8"?>
<!-- Generator: Adobe Illustrator 27.2.0, SVG Export Plug-In . SVG Version: 6.00 Build 0)  -->
<svg version="1.1" id="Calque_1" xmlns="http://www.w3.org/2000/svg" xmlns:xlink="http://www.w3.org/1999/xlink" x="0px" y="0px"
	 viewBox="0 0 48 48" style="enable-background:new 0 0 48 48;" xml:space="preserve">
<style type="text/css">
	.st0{opacity:0.25;fill:#010101;}
</style>
<g>
	<polygon class="st0" points="14.27,34.61 10.04,38.92 26.87,38.92 22.63,34.61 	"/>
	<path class="st0" d="M29.15,29.65H3.53V8.99h29.77v2.84h3.53V8c0-1.23-1.01-2.25-2.24-2.25H2.24C1.01,5.75,0,6.76,0,8v23.3
		c0,1.23,1.01,2.25,2.24,2.25h26.91V29.65z"/>
	<g>
		<g>
			<path d="M45.04,10.61H31.22c-1.63,0-2.96,1.33-2.96,2.97v25.7c0,1.63,1.33,2.97,2.96,2.97h13.82c1.63,0,2.96-1.33,2.96-2.97
				v-25.7C48,11.95,46.67,10.61,45.04,10.61L45.04,10.61z M45.39,36.49H30.87V14.57h14.52V36.49z M46.03,35.63"/>
		</g>
	</g>
</g>
</svg>
