<?xml version="1.0" encoding="utf-8"?>
<!-- Generator: Adobe Illustrator 27.2.0, SVG Export Plug-In . SVG Version: 6.00 Build 0)  -->
<svg version="1.1" id="Calque_1" xmlns="http://www.w3.org/2000/svg" xmlns:xlink="http://www.w3.org/1999/xlink" x="0px" y="0px"
	 viewBox="0 0 48 48" style="enable-background:new 0 0 48 48;" xml:space="preserve">
<style type="text/css">
	.st0{opacity:0.25;}
</style>
<g>
	<path class="st0" d="M45.04,10.05h-9.89c0.08,1.36,0.16,2.71,0.24,4.02h10v22.31H30.87v-6.32h-2.61v9.16
		c0,1.66,1.33,3.02,2.96,3.02h13.82c1.63,0,2.96-1.36,2.96-3.02V13.07C48,11.41,46.67,10.05,45.04,10.05z"/>
	<g>
		<g>
			<path d="M34.6,5.75H2.24C1.01,5.75,0,6.78,0,8.04v23.72c0,1.25,1.01,2.29,2.24,2.29H34.6c1.23,0,2.24-1.03,2.24-2.29V8.04
				C36.84,6.78,35.83,5.75,34.6,5.75z M33.31,30.07H3.53V9.05h29.77V30.07z"/>
			<polygon points="14.27,35.12 10.04,39.51 26.87,39.51 22.63,35.12 			"/>
		</g>
	</g>
</g>
</svg>
