<?xml version="1.0" encoding="utf-8"?>
<!-- Generator: Adobe Illustrator 27.2.0, SVG Export Plug-In . SVG Version: 6.00 Build 0)  -->
<svg version="1.1" id="Calque_1" xmlns="http://www.w3.org/2000/svg" xmlns:xlink="http://www.w3.org/1999/xlink" x="0px" y="0px"
	 viewBox="0 0 48 48" style="enable-background:new 0 0 48 48;" xml:space="preserve">
<style type="text/css">
	.st0{fill:#FFFFFF;}
	.st1{fill:#C6C5C5;}
	.st2{fill:#595959;}
	.st3{fill:#EE810B;}
	.st4{fill:#E42529;}
</style>
<g>
	<path class="st0" d="M36.93,19c0,9.9-8.03,17.93-17.93,17.93S1.07,28.9,1.07,19S9.1,1.07,19,1.07C28.9,0.98,36.93,9.1,36.93,19z"/>
	<path class="st1" d="M29.88,29.97c2.85-2.77,4.55-6.69,4.55-10.97c0-8.56-6.96-15.43-15.43-15.43v15.16c0,0,0,0.09-0.09,0.18
		L29.88,29.97z"/>
	<g>
		<path class="st2" d="M20.69,19c0,0.98-0.8,1.69-1.69,1.69l0,0c-0.98,0-1.69-0.8-1.69-1.69V9.19c0-0.98,0.8-1.69,1.69-1.69l0,0
			c0.98,0,1.69,0.8,1.69,1.69V19z"/>
		<path class="st2" d="M25.07,22.57l-2.94-2.94l-1.87-1.87c-0.71-0.71-1.78-0.71-2.41,0c-0.71,0.71-0.71,1.78,0,2.41l1.87,1.87
			l2.94,2.94c0.71,0.71,1.78,0.71,2.41,0C25.69,24.35,25.69,23.28,25.07,22.57z"/>
		<path class="st3" d="M19,0C8.47,0,0,8.47,0,19c0,10.44,8.47,19,19,19c10.44,0,19-8.47,19-19S29.44,0,19,0z M19,34.08
			C10.7,34.08,3.92,27.3,3.92,19S10.62,3.92,19,3.92S34.08,10.7,34.08,19S27.3,34.08,19,34.08z"/>
	</g>
</g>
<g>
	<g>
		<path class="st4" d="M25.98,46.5h20.04c0.9,0,1.5-0.3,1.8-0.8s0.2-1.19-0.2-1.99L37.6,26.69c-0.4-0.7-1-1.19-1.6-1.19
			s-1.2,0.4-1.6,1.19L24.38,43.71c-0.4,0.7-0.5,1.39-0.2,1.99C24.48,46.2,25.08,46.5,25.98,46.5z"/>
	</g>
	<g>
		<path class="st0" d="M35.4,39.93l-1-5.67c0-0.1,0-0.2,0-0.3c0-0.8,0.5-1.19,1.6-1.19s1.6,0.4,1.6,1.19c0,0.1,0,0.2,0,0.3l-1,5.67
			H35.4z M36,41.13c0.9,0,1.4,0.5,1.4,1.39c0,0.9-0.5,1.39-1.4,1.39s-1.4-0.5-1.4-1.39C34.6,41.52,35.1,41.13,36,41.13z"/>
	</g>
</g>
</svg>
