<?xml version="1.0" encoding="utf-8"?>
<!-- Generator: Adobe Illustrator 25.3.1, SVG Export Plug-In . SVG Version: 6.00 Build 0)  -->
<svg version="1.1" id="Calque_1" xmlns="http://www.w3.org/2000/svg" xmlns:xlink="http://www.w3.org/1999/xlink" x="0px" y="0px"
	 viewBox="0 0 48 48" style="enable-background:new 0 0 48 48;" xml:space="preserve">
<style type="text/css">
	.st0{fill:#1C789D;}
</style>
<g>
	<g id="Layer_1_64_">
		<g>
			<path class="st0" d="M43,43.8h-0.6c-0.8-8.5-5.7-15.1-9.6-19.8c3.8-4.7,8.9-11.3,9.6-19.8H43c1.3,0,2.1-1.1,2.1-2.1
				C45.1,0.8,44.1,0,43,0H4.8C3.5,0,2.7,1.1,2.7,2.1c0,1.3,1.1,2.1,2.1,2.1h0.6C6.3,12.7,11.2,19.3,15,24
				c-3.8,4.7-8.9,11.3-9.6,19.8H4.8c-1.3,0-2.1,1.1-2.1,2.1c0,1.3,1.1,2.1,2.1,2.1h2.8h32.9h2.8c1.3,0,2.1-1.1,2.1-2.1
				C45.1,44.8,44.3,43.8,43,43.8z M9.7,43.8c0.8-7.6,5.7-13.6,9.6-18.1l0.2-0.2c0.6-0.8,0.6-1.9,0-2.8l-0.2-0.2
				c-3.8-4.5-8.7-10.4-9.6-18.1h28.2c-0.8,7.6-5.7,13.6-9.6,18.1l-0.2,0.2c-0.6,0.8-0.6,1.9,0,2.8l0.2,0.2
				c3.8,4.5,8.7,10.4,9.6,18.1H9.7z"/>
			<g>
				<path class="st0" d="M31.5,39.3c-3,0-11.3,0-14.9,0c0-1.5,3.4-8.9,7.4-8.9S31.5,38,31.5,39.3z"/>
				<path class="st0" d="M32,39.8H16.2v-0.5c0-1.5,3.4-9.4,7.9-9.4c4.4,0,7.9,8,7.9,9.4V39.8z M17.3,38.8H31c-0.6-2-3.6-7.9-6.8-7.9
					C20.8,30.9,17.8,36.8,17.3,38.8z"/>
			</g>
			<g>
				<path class="st0" d="M18.8,11.5c2.1,0,8.3,0,10.8,0c0,1.1-2.5,6.4-5.5,6.4C21.1,18.1,18.8,12.5,18.8,11.5z"/>
				<path class="st0" d="M23.9,18.3c-0.8,0-1.7-0.4-2.6-1.2c-1.8-1.6-3.1-4.7-3.1-5.7V11h11.8v0.5c0,1.3-2.7,6.9-6,6.9
					C24,18.3,24,18.3,23.9,18.3z M19.4,12c0.3,1.1,1.3,3.2,2.6,4.5c0.7,0.7,1.4,1,2,0.9c2.3,0,4.4-3.8,4.9-5.4H19.4z"/>
			</g>
		</g>
	</g>
</g>
</svg>
