<?xml version="1.0" encoding="utf-8"?>
<!-- Generator: Adobe Illustrator 25.3.1, SVG Export Plug-In . SVG Version: 6.00 Build 0)  -->
<svg version="1.1" id="Calque_1" xmlns="http://www.w3.org/2000/svg" xmlns:xlink="http://www.w3.org/1999/xlink" x="0px" y="0px"
	 viewBox="0 0 48 48" style="enable-background:new 0 0 48 48;" xml:space="preserve">
<style type="text/css">
	.st0{fill:#FFFFFF;}
	.st1{fill:#595959;}
	.st2{fill:#1C789D;}
	.st3{fill:#AC1917;}
	.st4{fill:#C7C6C6;}
	.st5{fill:#EF820A;}
</style>
<g>
	<path class="st0" d="M42.5,29.6C42.5,20.4,35,13,25.8,13c-9.2,0-16.6,7.4-16.6,16.6c0,9.2,7.4,16.6,16.6,16.6
		C35,46.3,42.5,38.8,42.5,29.6z"/>
	<rect x="20.7" y="6.1" class="st1" width="10.2" height="7"/>
	<rect x="17.4" class="st2" width="16.8" height="6.4"/>
	<rect x="8.4" y="13.5" transform="matrix(0.6919 -0.722 0.722 0.6919 -8.4967 13.6224)" class="st1" width="6.6" height="6.6"/>
	<rect x="3.6" y="11.6" transform="matrix(0.6919 -0.722 0.722 0.6919 -7.2238 10.2443)" class="st3" width="9.6" height="4.1"/>
	<path class="st4" d="M25.8,13.3v15.9H9.7c0,0.1,0,0.2,0,0.3c0,8.9,7.2,16.2,16.2,16.2c8.9,0,16.2-7.2,16.2-16.2
		S34.8,13.3,25.8,13.3z"/>
	<path class="st5" d="M25.8,10.9c-10.2,0-18.6,8.3-18.6,18.6C7.3,39.7,15.6,48,25.8,48c10.2,0,18.6-8.3,18.6-18.6
		C44.4,19.2,36.1,10.9,25.8,10.9z M25.8,44.2c-8.1,0-14.8-6.6-14.8-14.7s6.6-14.7,14.8-14.7c8.1,0,14.8,6.6,14.8,14.7
		S34,44.2,25.8,44.2z"/>
	<path class="st1" d="M36.7,25.3c0,0-11.6,2.5-11.6,2.5c-0.9,0.4-1.3,1.3-1,2.2c0,0,0,0,0,0c0,0,0,0,0,0c0.3,0.9,1.3,1.3,2.2,1
		C26.4,31.1,36.7,25.3,36.7,25.3z"/>
</g>
</svg>
