<?xml version="1.0" encoding="utf-8"?>
<!-- Generator: Adobe Illustrator 25.3.1, SVG Export Plug-In . SVG Version: 6.00 Build 0)  -->
<svg version="1.1" id="Calque_1" xmlns="http://www.w3.org/2000/svg" xmlns:xlink="http://www.w3.org/1999/xlink" x="0px" y="0px"
	 viewBox="0 0 48 48" style="enable-background:new 0 0 48 48;" xml:space="preserve">
<style type="text/css">
	.st0{fill:#FFFFFF;}
	.st1{fill:#1E1E1C;}
	.st2{fill:#C7C6C6;}
	.st3{fill:#595959;}
	.st4{fill:#EF820A;}
</style>
<path class="st0" d="M45,24c0,11.6-9.4,21-21,21C12.4,45,3,35.6,3,24C3,12.4,12.4,3,24,3C35.6,3,45,12.4,45,24z"/>
<path class="st1" d="M26.3,24c0,1.2-1,2.3-2.3,2.3c-1.2,0-2.3-1-2.3-2.3c0-1.2,1-2.3,2.3-2.3C25.2,21.7,26.3,22.8,26.3,24z"/>
<path class="st2" d="M38.3,38.4c3.7-3.7,6-8.8,6-14.4c0-11.2-9.1-20.3-20.3-20.3v19.9c0,0,0,0.1-0.1,0.2L38.3,38.4z"/>
<path class="st3" d="M26.3,24c0,1.2-1,2.3-2.3,2.3l0,0c-1.2,0-2.3-1-2.3-2.3V11.1c0-1.2,1-2.3,2.3-2.3l0,0c1.2,0,2.3,1,2.3,2.3V24z"
	/>
<path class="st3" d="M32,28.8l-3.9-3.9l-2.5-2.5c-0.9-0.9-2.3-0.9-3.2,0c-0.9,0.9-0.9,2.3,0,3.2l2.5,2.5l3.9,3.9
	c0.9,0.9,2.3,0.9,3.2,0C32.8,31.1,32.8,29.6,32,28.8z"/>
<path class="st4" d="M24,0C10.7,0,0,10.7,0,24c0,13.3,10.7,24,24,24c13.2,0,24-10.7,24-24C48,10.7,37.3,0,24,0z M24,43.1
	C13.5,43.1,4.9,34.5,4.9,24S13.5,4.9,24,4.9S43.1,13.5,43.1,24S34.5,43.1,24,43.1z"/>
</svg>
