<?xml version="1.0" encoding="utf-8"?>
<!-- Generator: Adobe Illustrator 25.0.1, SVG Export Plug-In . SVG Version: 6.00 Build 0)  -->
<svg version="1.1" id="Calque_1" xmlns="http://www.w3.org/2000/svg" xmlns:xlink="http://www.w3.org/1999/xlink" x="0px" y="0px"
	 viewBox="0 0 48 48" style="enable-background:new 0 0 48 48;" xml:space="preserve">
<style type="text/css">
	.st0{fill:#3AAA35;}
	.st1{fill:#FFFFFF;}
</style>
<g>
	<path class="st0" d="M48,24c0,13.3-10.7,24-24,24C10.7,48,0,37.3,0,24C0,10.7,10.7,0,24,0C37.3,0,48,10.7,48,24z"/>
	<path class="st1" d="M39.4,16.3l-3.6-3.6c-0.5-0.5-1.3-0.5-1.8,0L21.4,25.3L14,17.9c-0.5-0.5-1.3-0.5-1.8,0l-3.6,3.6
		c-0.5,0.5-0.5,1.3,0,1.8l11.9,11.9c0.3,0.3,0.6,0.4,0.9,0.4c0.3,0,0.7-0.1,0.9-0.4l17.1-17.1C39.9,17.7,39.9,16.9,39.4,16.3z"/>
</g>
</svg>
