<?xml version="1.0" encoding="utf-8"?>
<!-- Generator: Adobe Illustrator 25.4.1, SVG Export Plug-In . SVG Version: 6.00 Build 0)  -->
<svg version="1.1" id="Calque_1" xmlns="http://www.w3.org/2000/svg" xmlns:xlink="http://www.w3.org/1999/xlink" x="0px" y="0px"
	 viewBox="0 0 48 48" style="enable-background:new 0 0 48 48;" xml:space="preserve">
<style type="text/css">
	.st0{fill:#4F6792;}
</style>
<path id="Tracé_6856" class="st0" d="M0,28.4c0.5-4.6,3.5-8.6,7.9-10.4c-1.6-1.2-2.5-3.1-2.5-5.1c0-3.7,3.1-6.6,6.7-6.6
	c0,0,0,0,0,0c3.7,0,6.7,2.9,6.7,6.6c0,2-0.9,3.9-2.5,5.1c1.3,0.5,2.5,1.1,3.6,2c-5.8,2.8-9.7,8.4-10.4,14.8V35
	c-5.7-0.4-6.2-1.9-6.2-1.9l0,0c-0.4-0.4-0.6-0.8-0.8-1.3c-0.5-0.1-1-0.4-1.4-0.7C1.2,31.1-0.1,30.6,0,28.4 M23.6,20.2
	c-6.4,2.6-10.9,8.5-11.6,15.4c-0.1,3.3,1.8,4,1.8,4l0,0c0.6,0.5,1.3,0.8,2,1c0.2,0.7,0.6,1.4,1.2,1.9l0,0c0,0,0.9,2.4,9.9,2.8
	l0.4,0.1H33c0.2,0,0.4-0.1,0.7-0.1c9.3-0.6,10.3-3.5,10.3-3.5l0,0c0.3-0.4,0.5-0.8,0.6-1.2c4.2-0.8,3.9-5.9,2.6-9.7
	c-1.8-5.1-5.8-9-10.9-10.7c2.3-1.8,3.6-4.6,3.7-7.6c0-5.5-4.5-10-10-10s-10,4.5-10,10C19.9,15.5,21.3,18.3,23.6,20.2"/>
</svg>
