<?xml version="1.0" encoding="utf-8"?>
<!-- Generator: Adobe Illustrator 25.0.1, SVG Export Plug-In . SVG Version: 6.00 Build 0)  -->
<svg version="1.1" id="Calque_1" xmlns="http://www.w3.org/2000/svg" xmlns:xlink="http://www.w3.org/1999/xlink" x="0px" y="0px"
	 viewBox="0 0 48 48" style="enable-background:new 0 0 48 48;" xml:space="preserve">
<style type="text/css">
	.st0{fill:#70706F;}
	.st1{fill:#FFFFFF;}
</style>
<g>
	<path class="st0" d="M48,24c0,13.3-10.7,24-24,24C10.7,48,0,37.3,0,24C0,10.7,10.7,0,24,0C37.3,0,48,10.7,48,24z"/>
	<path class="st1" d="M30.2,24l5.7-5.7c0.6-0.6,0.6-1.5,0-2l-4.2-4.2c-0.6-0.6-1.5-0.6-2,0L24,17.8l-5.7-5.7c-0.6-0.6-1.5-0.6-2,0
		l-4.2,4.2c-0.6,0.6-0.6,1.5,0,2l5.7,5.7l-5.7,5.7c-0.6,0.6-0.6,1.5,0,2l4.2,4.2c0.6,0.6,1.5,0.6,2,0l5.7-5.7l5.7,5.7
		c0.6,0.6,1.5,0.6,2,0l4.2-4.2c0.6-0.6,0.6-1.5,0-2L30.2,24z"/>
</g>
</svg>
