<?xml version="1.0" encoding="utf-8"?>
<!-- Generator: Adobe Illustrator 25.4.1, SVG Export Plug-In . SVG Version: 6.00 Build 0)  -->
<svg version="1.1" id="Calque_1" xmlns="http://www.w3.org/2000/svg" xmlns:xlink="http://www.w3.org/1999/xlink" x="0px" y="0px"
	 viewBox="0 0 48 48" style="enable-background:new 0 0 48 48;" xml:space="preserve">
<style type="text/css">
	.st0{fill:#4F6792;}
</style>
<path id="Tracé_6856" class="st0" d="M0,28.4 M16.9,19.7c-7.2,2.9-12.2,9.5-13,17.2c-0.1,3.7,2,4.5,2,4.5l0,0
	c0.6,0.6,1.4,1,2.2,1.1c0.3,0.8,0.7,1.6,1.3,2.2l0,0c0,0,1,2.7,11.1,3.2L21,48h6.4c0.3,0,0.5-0.1,0.8-0.1
	c10.4-0.7,11.5-3.9,11.5-3.9l0,0c0.3-0.4,0.5-0.9,0.7-1.4c4.7-0.9,4.4-6.6,2.9-10.9c-2-5.7-6.5-10.1-12.2-12
	c2.6-2.1,4.1-5.2,4.1-8.5C35.1,5,30.1,0,23.9,0S12.7,5,12.7,11.2C12.7,14.5,14.2,17.7,16.9,19.7"/>
</svg>
