<?xml version="1.0" encoding="utf-8"?>
<!-- Generator: Adobe Illustrator 27.2.0, SVG Export Plug-In . SVG Version: 6.00 Build 0)  -->
<svg version="1.1" id="Calque_1" xmlns="http://www.w3.org/2000/svg" xmlns:xlink="http://www.w3.org/1999/xlink" x="0px" y="0px"
	 viewBox="0 0 48 48" style="enable-background:new 0 0 48 48;" xml:space="preserve">
<style type="text/css">
	.st0{fill:#FFFFFF;}
</style>
<g>
	<path class="st0" d="M34.25,4.38c-5.66-5.66-14.84-5.66-20.51,0c-5.66,5.66-5.66,14.84,0,20.51c5.67,5.66,14.84,5.66,20.51,0
		C39.92,19.22,39.92,10.04,34.25,4.38z M30.28,20.91c-3.47,3.47-9.09,3.47-12.56,0c-3.47-3.47-3.47-9.09,0-12.56
		c3.47-3.47,9.09-3.47,12.56,0C33.75,11.82,33.75,17.45,30.28,20.91z"/>
	<path class="st0" d="M26.65,45.21c0,1.47-1.19,2.65-2.66,2.65l0,0c-1.47,0-2.65-1.19-2.65-2.65V26.99c0-1.47,1.19-2.65,2.65-2.65
		l0,0c1.47,0,2.66,1.19,2.66,2.65V45.21z"/>
	<path class="st0" d="M14.89,38.76c-1.47,0-2.65-1.19-2.65-2.65l0,0c0-1.47,1.19-2.65,2.65-2.65h18.22c1.47,0,2.66,1.19,2.66,2.65
		l0,0c0,1.47-1.19,2.65-2.66,2.65H14.89z"/>
</g>
</svg>
