<?xml version="1.0" encoding="utf-8"?>
<!-- Generator: Adobe Illustrator 27.2.0, SVG Export Plug-In . SVG Version: 6.00 Build 0)  -->
<svg version="1.1" id="Calque_1" xmlns="http://www.w3.org/2000/svg" xmlns:xlink="http://www.w3.org/1999/xlink" x="0px" y="0px"
	 viewBox="0 0 48 48" style="enable-background:new 0 0 48 48;" xml:space="preserve">
<style type="text/css">
	.st0{fill:#2172B7;}
</style>
<g>
	<path class="st0" d="M48,2.6v14.45c0,1.32-1.08,2.41-2.41,2.41h-1.21c-1.32,0-2.41-1.08-2.41-2.41l0-11.03H30.95
		c-1.33,0-2.41-1.08-2.41-2.41V2.41c0-1.32,1.09-2.41,2.41-2.41L45.4,0c0.71,0,1.35,0.32,1.79,0.81C47.68,1.25,48,1.89,48,2.6z"/>
	<path class="st0" d="M5.45,42.55c7.27,7.27,19.06,7.27,26.34,0c7.27-7.27,7.27-19.06,0-26.33c-7.27-7.27-19.06-7.27-26.33,0
		C-1.82,23.48-1.82,35.27,5.45,42.55z M26.69,21.31c4.45,4.45,4.45,11.68,0,16.13c-4.45,4.46-11.68,4.46-16.13,0
		c-4.46-4.45-4.46-11.68,0-16.13C15.01,16.86,22.23,16.86,26.69,21.31z"/>
	
		<rect x="24.92" y="9.11" transform="matrix(0.7071 -0.7071 0.7071 0.7071 1.3375 28.6738)" class="st0" width="20.72" height="7.22"/>
</g>
</svg>
