<?xml version="1.0" encoding="utf-8"?>
<!-- Generator: Adobe Illustrator 27.2.0, SVG Export Plug-In . SVG Version: 6.00 Build 0)  -->
<svg version="1.1" id="Calque_1" xmlns="http://www.w3.org/2000/svg" xmlns:xlink="http://www.w3.org/1999/xlink" x="0px" y="0px"
	 viewBox="0 0 48 48" style="enable-background:new 0 0 48 48;" xml:space="preserve">
<style type="text/css">
	.st0{fill:#FFFFFF;}
</style>
<g>
	<path class="st0" d="M24.64,15.85c-4.21-4.19-11.03-4.19-15.24,0c-4.21,4.19-4.21,10.98,0,15.16c4.21,4.19,11.03,4.19,15.24,0
		C28.85,26.82,28.85,20.03,24.64,15.85z M21.69,28.07c-2.58,2.57-6.76,2.57-9.34,0c-2.58-2.57-2.58-6.72,0-9.29
		c2.58-2.57,6.76-2.57,9.33,0C24.27,21.35,24.27,25.51,21.69,28.07z"/>
	<path class="st0" d="M19,46.04c0,1.08-0.88,1.96-1.97,1.96l0,0c-1.09,0-1.97-0.88-1.97-1.96V32.56c0-1.08,0.88-1.96,1.97-1.96l0,0
		c1.09,0,1.97,0.88,1.97,1.96V46.04z"/>
	<path class="st0" d="M10.25,41.26c-1.09,0-1.97-0.88-1.97-1.96l0,0c0-1.08,0.88-1.96,1.97-1.96h13.54c1.09,0,1.97,0.88,1.97,1.96
		l0,0c0,1.08-0.88,1.96-1.97,1.96H10.25z"/>
	<path class="st0" d="M41.75,1.5v8.32c0,0.76-0.63,1.39-1.39,1.39h-0.7c-0.77,0-1.39-0.62-1.39-1.39l0-6.35h-6.38
		c-0.77,0-1.39-0.62-1.39-1.39V1.39c0-0.76,0.63-1.39,1.39-1.39l8.36,0c0.41,0,0.78,0.18,1.03,0.47C41.56,0.72,41.75,1.09,41.75,1.5
		z"/>
	<path class="st0" d="M17.13,24.5c4.21,4.19,11.03,4.19,15.24,0c4.21-4.19,4.21-10.97,0-15.16c-4.21-4.19-11.03-4.19-15.24,0
		C12.92,13.52,12.92,20.31,17.13,24.5z M29.42,12.27c2.58,2.57,2.58,6.72,0,9.29c-2.58,2.57-6.76,2.57-9.33,0
		c-2.58-2.57-2.58-6.72,0-9.29C22.66,9.71,26.84,9.71,29.42,12.27z"/>
	<polygon class="st0" points="40.1,4.58 31.63,13.01 28.67,10.07 37.15,1.64 	"/>
	<path class="st0" d="M12.75,13.59v4.87c2.23-1.9,5.41-2.1,7.82-0.57v-4.58C18.03,12.43,15.23,12.53,12.75,13.59z"/>
</g>
</svg>
