<?xml version="1.0" encoding="utf-8"?>
<!-- Generator: Adobe Illustrator 27.2.0, SVG Export Plug-In . SVG Version: 6.00 Build 0)  -->
<svg version="1.1" id="Calque_1" xmlns="http://www.w3.org/2000/svg" xmlns:xlink="http://www.w3.org/1999/xlink" x="0px" y="0px"
	 viewBox="0 0 48 48" style="enable-background:new 0 0 48 48;" xml:space="preserve">
<style type="text/css">
	.st0{fill:#A3195C;}
</style>
<g>
	<path class="st0" d="M34.25,4.27c-5.66-5.69-14.84-5.69-20.51,0c-5.66,5.69-5.66,14.93,0,20.62c5.67,5.7,14.84,5.69,20.51,0
		C39.92,19.2,39.92,9.96,34.25,4.27z M30.28,20.9c-3.47,3.49-9.09,3.49-12.56,0c-3.47-3.49-3.47-9.14,0-12.63
		c3.47-3.49,9.09-3.49,12.56,0C33.75,11.75,33.75,17.41,30.28,20.9z"/>
	<path class="st0" d="M26.65,45.33C26.65,46.8,25.46,48,24,48l0,0c-1.47,0-2.65-1.2-2.65-2.67V27.01c0-1.47,1.19-2.67,2.65-2.67l0,0
		c1.47,0,2.66,1.2,2.66,2.67V45.33z"/>
	<path class="st0" d="M14.89,38.84c-1.47,0-2.65-1.2-2.65-2.67l0,0c0-1.47,1.19-2.67,2.65-2.67h18.22c1.47,0,2.66,1.2,2.66,2.67l0,0
		c0,1.47-1.19,2.67-2.66,2.67H14.89z"/>
</g>
</svg>
