<?xml version="1.0" encoding="utf-8"?>
<!-- Generator: Adobe Illustrator 22.0.0, SVG Export Plug-In . SVG Version: 6.00 Build 0)  -->
<svg version="1.1" id="Calque_1" xmlns="http://www.w3.org/2000/svg" xmlns:xlink="http://www.w3.org/1999/xlink" x="0px" y="0px"
	 viewBox="0 0 398.7 400" style="enable-background:new 0 0 398.7 400;" xml:space="preserve">
<style type="text/css">
	.st0{fill:#FFFFFF;}
	.st1{fill:none;}
</style>
<g>
	<path class="st0" d="M200,69c-59.4,0-102.2,44.2-109,91.8c-4.2,31.7,6,62.6,27.3,85.9c18.7,20,29,46.7,29,74.2l-0.1,43.4
		c0,17.5,14.5,31.7,32.4,31.7h41.8c17.9,0,32.4-14.2,32.4-31.7l0.1-43.4c0-28.3,9.4-54.2,27.3-72.6c19.6-20,29.8-45.8,29.8-72.6
		C310.8,116.6,260.5,69,200,69L200,69z M237.4,364.3c0,8.3-6.8,15-15.4,15h-41.8c-8.6,0-15.4-6.6-15.4-15v-19.2h72.4L237.4,364.3
		L237.4,364.3z M269.1,236.7c-21.3,21.7-32.4,51.7-32.4,84.2v7.5h-72.4V321c0-30.9-12.8-61.7-34.1-85c-18.7-20-26.4-45.8-23-72.6
		c6-40,43.2-77.6,92.9-77.6c52,0,93.8,40.9,93.8,90.1C293.8,198.3,285.3,220,269.1,236.7L269.1,236.7z M269.1,236.7"/>
	<rect x="191.4" y="4" class="st0" width="17" height="40"/>
	<path class="st0" d="M303.3,81.1L315.2,93L344.4,65l-12-11.9L303.3,81.1z M303.3,81.1"/>
	<rect x="354.2" y="184.2" class="st0" width="41.8" height="16.7"/>
	<rect x="4" y="4" class="st1" width="392" height="392"/>
	<rect x="4" y="184.2" class="st0" width="41.8" height="16.7"/>
	<path class="st0" d="M67.3,53l-12,11.9L84.5,93L96.4,81L67.3,53z M67.3,53"/>
</g>
<g>
	<path class="st0" d="M251.1,220.9h-16.5c-1.8,0-3.4-0.4-4.5-1.3c-1.2-0.9-2-2-2.6-3.4l-7-19.7h-41.1l-7,19.7
		c-0.5,1.2-1.3,2.3-2.5,3.2c-1.2,1-2.7,1.5-4.5,1.5h-16.7l40.3-103.1h21.8L251.1,220.9z M215.3,181.8l-11.2-31.5
		c-0.7-1.7-1.4-3.6-2.1-5.8c-0.7-2.2-1.4-4.6-2.1-7.2c-0.7,2.7-1.4,5.1-2.1,7.4c-0.7,2.2-1.4,4.2-2.1,5.9l-11.1,31.4H215.3z"/>
</g>
</svg>
