<?xml version="1.0" encoding="utf-8"?>
<!-- Generator: Adobe Illustrator 27.2.0, SVG Export Plug-In . SVG Version: 6.00 Build 0)  -->
<svg version="1.1" id="Calque_1" xmlns="http://www.w3.org/2000/svg" xmlns:xlink="http://www.w3.org/1999/xlink" x="0px" y="0px"
	 viewBox="0 0 48 48" style="enable-background:new 0 0 48 48;" xml:space="preserve">
<style type="text/css">
	.st0{fill:#595959;}
	.st1{fill:url(#SVGID_1_);}
</style>
<g>
	<path class="st0" d="M48,24C48,10.7,37.3,0,24,0S0,10.7,0,24c0,13.2,10.7,23.9,23.9,24l0,0l0,0c0,0,0,0,0.1,0l0,0
		c1.3,0,2.3-1.1,2.3-2.4c0-1.3-1-2.3-2.3-2.4l0,0C13.4,43.2,4.8,34.6,4.8,24S13.4,4.8,24,4.8S43.2,13.4,43.2,24
		c0,4-1.2,7.7-3.3,10.8l-3.2-2.2h-0.1c-0.7,0.2-1.3,1.1-1.2,1.8l0.3,9.5c0,0.8,0.6,1.2,1.3,0.9l9-3.1c0.7-0.2,1.3-1.1,1.2-1.8v-0.1
		l-3.4-2.4C46.5,33.7,48,29,48,24z"/>
</g>
<g>
	<linearGradient id="SVGID_1_" gradientUnits="userSpaceOnUse" x1="14.632" y1="14.632" x2="33.368" y2="33.368">
		<stop  offset="0" style="stop-color:#D71800"/>
		<stop  offset="0.2614" style="stop-color:#D11700"/>
		<stop  offset="0.6136" style="stop-color:#C01500"/>
		<stop  offset="1" style="stop-color:#A51200"/>
	</linearGradient>
	<path class="st1" d="M33.37,30.32L27.05,24l6.32-6.32c0.84-0.84,0.84-2.21,0-3.05c-0.84-0.84-2.21-0.84-3.05,0L24,20.95l-6.32-6.32
		c-0.84-0.84-2.21-0.84-3.05,0s-0.84,2.21,0,3.05L20.95,24l-6.32,6.32c-0.84,0.84-0.84,2.21,0,3.05c0.84,0.84,2.21,0.84,3.05,0
		L24,27.05l6.32,6.32c0.84,0.84,2.21,0.84,3.05,0C34.21,32.53,34.21,31.16,33.37,30.32z"/>
</g>
</svg>
