<?xml version="1.0" encoding="utf-8"?>
<!-- Generator: Adobe Illustrator 25.3.1, SVG Export Plug-In . SVG Version: 6.00 Build 0)  -->
<svg version="1.1" id="Calque_1" xmlns="http://www.w3.org/2000/svg" xmlns:xlink="http://www.w3.org/1999/xlink" x="0px" y="0px"
	 viewBox="0 0 48 48" style="enable-background:new 0 0 48 48;" xml:space="preserve">
<style type="text/css">
	.st0{fill:#585858;}
</style>
<g>
	<path class="st0" d="M48,24C48,10.7,37.3,0,24,0S0,10.7,0,24c0,13.2,10.7,23.9,23.9,24l0,0l0,0c0,0,0,0,0.1,0l0,0
		c1.3,0,2.3-1.1,2.3-2.4c0-1.3-1-2.3-2.3-2.4l0,0C13.4,43.2,4.8,34.6,4.8,24S13.4,4.8,24,4.8S43.2,13.4,43.2,24
		c0,4-1.2,7.7-3.3,10.8l-3.2-2.2h-0.1c-0.7,0.2-1.3,1.1-1.2,1.8l0.3,9.5c0,0.8,0.6,1.2,1.3,0.9l9-3.1c0.7-0.2,1.3-1.1,1.2-1.8v-0.1
		l-3.5-2.4C46.5,33.7,48,29,48,24z"/>
	<g>
		<path class="st0" d="M28.9,27.2c-0.1-2.1-0.3-4.8-0.2-7.1h-0.1c-0.4,2.3-1,5-1.4,6.6l-1.9,7.7h-3l-1.8-7.6c-0.4-1.7-1-4.4-1.3-6.8
			h-0.1c-0.1,2.3-0.2,5.1-0.3,7.2l-0.4,7.5h-3.6l1.6-21.6h4.4l1.7,7.8c0.6,2.7,1.2,5.1,1.5,7.6h0.1c0.3-2.4,0.8-4.8,1.4-7.6l1.7-7.8
			h4.4l1.3,21.6h-3.8L28.9,27.2z"/>
	</g>
</g>
</svg>
