<?xml version="1.0" encoding="utf-8"?>
<!-- Generator: Adobe Illustrator 27.2.0, SVG Export Plug-In . SVG Version: 6.00 Build 0)  -->
<svg version="1.1" id="Calque_1" xmlns="http://www.w3.org/2000/svg" xmlns:xlink="http://www.w3.org/1999/xlink" x="0px" y="0px"
	 viewBox="0 0 48 48" style="enable-background:new 0 0 48 48;" xml:space="preserve">
<style type="text/css">
	.st0{fill-rule:evenodd;clip-rule:evenodd;fill:#FFFFFF;}
	.st1{fill-rule:evenodd;clip-rule:evenodd;fill:#96BE1F;}
</style>
<g>
	<rect x="19.67" y="5.21" class="st0" width="17.39" height="37.58"/>
	<path class="st1" d="M14.25,29.38c0,1.79,0,3.32,0,4.58c3.33-3.32,6.69-6.67,9.98-9.95c-3.24-3.22-6.6-6.55-10.03-9.96
		c0,1.49,0,2.99,0,4.89c-3.67,0-7.09,0-10.66,0H3.3v10.44C3.3,29.38,14.25,29.38,14.25,29.38z"/>
	<path class="st1" d="M44.7,10.27c0-4.34-0.02-4.31-4.19-5.76c-4.22-1.47-8.43-3-12.64-4.51c-0.1,0-0.2,0-0.3,0v48
		c0.1,0,0.2,0,0.3,0c4.21-1.5,8.42-3.04,12.64-4.51c4.17-1.45,4.19-1.42,4.19-5.76C44.69,33.15,44.69,14.85,44.7,10.27z
		 M30.81,26.05c-0.74,0-1.34-0.92-1.34-2.05s0.6-2.05,1.34-2.05s1.34,0.92,1.34,2.05C32.15,25.13,31.55,26.05,30.81,26.05z"/>
	<polygon class="st1" points="20.6,14.46 20.6,6.28 27.57,6.28 27.57,3.88 20.6,3.88 20.6,3.87 18.2,3.87 18.2,16.25 18.21,16.25 
		18.21,31.75 18.21,34.91 18.21,44.13 20.6,44.13 20.6,44.12 27.57,44.12 27.57,41.72 20.6,41.72 20.6,31.75 20.6,31.75 20.6,16.25 
			"/>
</g>
</svg>
