<?xml version="1.0" encoding="utf-8"?>
<!-- Generator: Adobe Illustrator 27.2.0, SVG Export Plug-In . SVG Version: 6.00 Build 0)  -->
<svg version="1.1" id="Calque_1" xmlns="http://www.w3.org/2000/svg" xmlns:xlink="http://www.w3.org/1999/xlink" x="0px" y="0px"
	 viewBox="0 0 48 48" style="enable-background:new 0 0 48 48;" xml:space="preserve">
<style type="text/css">
	.st0{fill:url(#SVGID_1_);}
</style>
<g>
	<linearGradient id="SVGID_1_" gradientUnits="userSpaceOnUse" x1="1.5169" y1="1.5169" x2="46.4831" y2="46.4831">
		<stop  offset="0" style="stop-color:#D71800"/>
		<stop  offset="0.2614" style="stop-color:#D11700"/>
		<stop  offset="0.6136" style="stop-color:#C01500"/>
		<stop  offset="1" style="stop-color:#A51200"/>
	</linearGradient>
	<path class="st0" d="M46.48,39.16L31.32,24L46.48,8.84c2.02-2.02,2.02-5.3,0-7.32s-5.3-2.02-7.32,0L24,16.68L8.84,1.52
		c-2.02-2.02-5.3-2.02-7.32,0s-2.02,5.3,0,7.32L16.68,24L1.52,39.16c-2.02,2.02-2.02,5.3,0,7.32s5.3,2.02,7.32,0L24,31.32
		l15.16,15.16c2.02,2.02,5.3,2.02,7.32,0S48.51,41.18,46.48,39.16z"/>
</g>
</svg>
