<?xml version="1.0" encoding="utf-8"?>
<!-- Generator: Adobe Illustrator 27.2.0, SVG Export Plug-In . SVG Version: 6.00 Build 0)  -->
<svg version="1.1" id="Calque_1" xmlns="http://www.w3.org/2000/svg" xmlns:xlink="http://www.w3.org/1999/xlink" x="0px" y="0px"
	 viewBox="0 0 48 48" style="enable-background:new 0 0 48 48;" xml:space="preserve">
<style type="text/css">
	.st0{fill:url(#SVGID_1_);}
	.st1{fill:url(#SVGID_00000148638664790149208680000004046100833288668084_);}
	.st2{fill:url(#SVGID_00000165217274661455299620000012019672172090887085_);}
	.st3{fill:#FFFFFF;}
	.st4{fill:#3C3C3B;}
	.st5{fill:#1D1E1C;}
	.st6{fill:#F19001;}
</style>
<g>
	<linearGradient id="SVGID_1_" gradientUnits="userSpaceOnUse" x1="0" y1="19" x2="38" y2="19">
		<stop  offset="0" style="stop-color:#1C779C"/>
		<stop  offset="0.4548" style="stop-color:#1C6F9C"/>
		<stop  offset="1" style="stop-color:#1C5E9C"/>
	</linearGradient>
	<path class="st0" d="M37.42,16.71C33.8,10.06,26.74,5.94,19,5.94S4.2,10.06,0.58,16.71c-0.77,1.41-0.77,3.17,0,4.58
		C4.2,27.94,11.26,32.06,19,32.06s14.8-4.13,18.42-10.77C38.19,19.88,38.19,18.12,37.42,16.71z"/>
	
		<linearGradient id="SVGID_00000106857289966418623120000004574438710932521631_" gradientUnits="userSpaceOnUse" x1="11.4429" y1="11.4428" x2="26.5573" y2="26.5572">
		<stop  offset="0" style="stop-color:#FFFFFF"/>
		<stop  offset="0.5338" style="stop-color:#F7F7F7"/>
		<stop  offset="1" style="stop-color:#EBEBEB"/>
	</linearGradient>
	<circle style="fill:url(#SVGID_00000106857289966418623120000004574438710932521631_);" cx="19" cy="19" r="10.69"/>
	
		<linearGradient id="SVGID_00000034806574346046273320000007899389225509740712_" gradientUnits="userSpaceOnUse" x1="14.313" y1="15.1154" x2="22.8847" y2="23.6871">
		<stop  offset="0" style="stop-color:#1C779C"/>
		<stop  offset="0.4548" style="stop-color:#1C6F9C"/>
		<stop  offset="1" style="stop-color:#1C5E9C"/>
	</linearGradient>
	<path style="fill:url(#SVGID_00000034806574346046273320000007899389225509740712_);" d="M21.25,19.1
		c-1.16-0.25-2.11-1.19-2.35-2.35c-0.27-1.28,0.23-2.46,1.14-3.16c0.23-0.18,0.13-0.55-0.15-0.59c-0.84-0.13-1.75-0.08-2.67,0.21
		c-2.17,0.66-3.82,2.54-4.18,4.78c-0.67,4.14,2.85,7.66,6.99,6.99c2.24-0.36,4.11-2.02,4.77-4.19c0.28-0.93,0.33-1.83,0.21-2.67
		c-0.04-0.28-0.41-0.38-0.59-0.15C23.71,18.87,22.53,19.38,21.25,19.1z"/>
</g>
<g>
	<ellipse class="st3" cx="36.3" cy="36.29" rx="10.49" ry="10.49"/>
	<path class="st4" d="M36.3,24.59c-6.47,0-11.7,5.24-11.7,11.71S29.84,48,36.3,48S48,42.76,48,36.29S42.76,24.59,36.3,24.59z
		 M36.3,45.6c-5.14,0-9.3-4.17-9.3-9.31s4.17-9.31,9.3-9.31s9.3,4.17,9.3,9.31S41.44,45.6,36.3,45.6z"/>
	<path class="st5" d="M37.4,36.29c0,0.61-0.49,1.1-1.1,1.1s-1.1-0.49-1.1-1.1c0-0.6,0.49-1.1,1.1-1.1
		C36.9,35.19,37.4,35.69,37.4,36.29z"/>
	<path class="st5" d="M37.4,36.29c0,0.6-0.49,1.1-1.1,1.1l0,0c-0.61,0-1.1-0.49-1.1-1.1V30c0-0.6,0.49-1.1,1.1-1.1l0,0
		c0.6,0,1.1,0.49,1.1,1.1V36.29z"/>
	<path class="st5" d="M40.18,38.62l-1.9-1.9l-1.21-1.21c-0.43-0.43-1.13-0.43-1.56,0c-0.43,0.43-0.43,1.13,0,1.56l1.21,1.21l1.9,1.9
		c0.43,0.43,1.13,0.43,1.56,0C40.6,39.75,40.6,39.05,40.18,38.62z"/>
	<path class="st6" d="M30.35,39.54l-5.75,4.87l0.01,0.05c0.06,0.48,0.48,0.98,0.95,1.12l5.81,1.74c0.46,0.14,0.8-0.14,0.74-0.62
		l-0.74-6.02c-0.06-0.48-0.49-0.99-0.95-1.12L30.35,39.54z"/>
	<g>
		<path class="st6" d="M28.78,41.77c-1.11-1.54-1.79-3.42-1.79-5.47c0-5.14,4.17-9.3,9.3-9.31v-2.4c-6.46,0-11.7,5.24-11.7,11.71
			c0,2.74,0.95,5.25,2.53,7.25L28.78,41.77z"/>
		<path class="st6" d="M27.08,44.45l-0.43-0.53C24.92,41.72,24,39.09,24,36.3c0-6.78,5.51-12.29,12.3-12.3h0.59v3.58H36.3
			c-4.81,0-8.71,3.91-8.71,8.71c0,1.85,0.58,3.62,1.67,5.12l0.29,0.39L27.08,44.45z M35.7,25.19c-5.86,0.31-10.52,5.17-10.52,11.1
			c0,2.29,0.68,4.47,1.99,6.33l0.86-0.92c-1.06-1.62-1.62-3.48-1.62-5.41c0-5.25,4.12-9.57,9.3-9.88V25.19z"/>
	</g>
</g>
</svg>
