<?xml version="1.0" encoding="utf-8"?>
<!-- Generator: Adobe Illustrator 25.3.1, SVG Export Plug-In . SVG Version: 6.00 Build 0)  -->
<svg version="1.1" id="Calque_1" xmlns="http://www.w3.org/2000/svg" xmlns:xlink="http://www.w3.org/1999/xlink" x="0px" y="0px"
	 viewBox="0 0 48 48" style="enable-background:new 0 0 48 48;" xml:space="preserve">
<style type="text/css">
	.st0{fill:#595959;}
	.st1{fill:#FFFFFF;}
	.st2{fill:#C7C6C6;}
</style>
<g>
	<path class="st0" d="M35.8,22.2c0,6-4.9,10.9-11,10.9s-11-4.9-11-10.9c0-6,4.9-10.9,11-10.9S35.8,16.2,35.8,22.2z"/>
	<g>
		<path class="st1" d="M21.1,17.5v9.3c0,0.4,0.1,0.7,0.4,0.8c0.2,0.1,0.6,0.1,0.9-0.1l8-4.6c0.3-0.2,0.5-0.5,0.5-0.7
			c0-0.3-0.2-0.5-0.5-0.7l-8-4.6c-0.3-0.2-0.7-0.2-0.9-0.1C21.2,16.8,21.1,17.1,21.1,17.5z"/>
	</g>
</g>
<g>
	<polygon class="st0" points="13.6,40.7 11.5,42.8 11.5,43.9 36.5,43.9 36.5,42.8 34.4,40.7 	"/>
	<path class="st2" d="M0,4.1v35.5h48V4.1H0z M44.9,36.6H3.1V7.3h41.7V36.6z"/>
</g>
</svg>
