<?xml version="1.0" encoding="utf-8"?>
<!-- Generator: Adobe Illustrator 25.4.1, SVG Export Plug-In . SVG Version: 6.00 Build 0)  -->
<svg version="1.1" id="Calque_1" xmlns="http://www.w3.org/2000/svg" xmlns:xlink="http://www.w3.org/1999/xlink" x="0px" y="0px"
	 viewBox="0 0 48 48" style="enable-background:new 0 0 48 48;" xml:space="preserve">
<style type="text/css">
	.st0{fill:#1C779C;}
</style>
<g>
	<path class="st0" d="M18.48,29.41c-4.37-4.43-4.35-11.57,0.06-15.98l4.38-4.38l1.36-1.36l4.38-4.38c4.43-4.43,11.6-4.43,16.03,0
		c4.43,4.43,4.43,11.61,0,16.04l-8.77,8.77l-1.8-6.22l6.59-6.59c2.18-2.22,2.18-5.78-0.03-7.99c-2.21-2.21-5.8-2.21-8.01,0
		l-4.38,4.38l-1.36,1.36l-4.38,4.38c-2.22,2.22-2.22,5.8,0,8.02l-0.01,0.01c0.01,0.01,0.02,0.02,0.03,0.04c1.1,1.1,1.1,2.89,0,4
		c-1.1,1.1-2.9,1.1-4,0C18.53,29.47,18.51,29.44,18.48,29.41z"/>
	<path class="st0" d="M29.52,18.59c4.37,4.43,4.35,11.57-0.06,15.98l-4.38,4.38l-1.36,1.36l-4.38,4.38c-4.43,4.43-11.6,4.43-16.04,0
		c-4.43-4.43-4.43-11.6,0-16.03l8.77-8.77l1.8,6.22L7.3,32.68c-2.18,2.22-2.18,5.78,0.03,7.99c2.22,2.22,5.81,2.22,8.02,0.01
		l4.38-4.38l1.36-1.36l4.38-4.38c2.21-2.21,2.21-5.8,0-8.02l0.01-0.01c-0.01-0.01-0.02-0.02-0.03-0.03c-1.1-1.1-1.1-2.89,0-4
		c1.1-1.1,2.9-1.1,4,0C29.47,18.53,29.49,18.56,29.52,18.59z"/>
</g>
</svg>
