<?xml version="1.0" encoding="utf-8"?>
<!-- Generator: Adobe Illustrator 24.0.2, SVG Export Plug-In . SVG Version: 6.00 Build 0)  -->
<svg version="1.1" id="Calque_1" xmlns="http://www.w3.org/2000/svg" xmlns:xlink="http://www.w3.org/1999/xlink" x="0px" y="0px"
	 viewBox="0 0 48 48" style="enable-background:new 0 0 48 48;" xml:space="preserve">
<style type="text/css">
	.st0{fill:#F29100;}
	.st1{fill:#1D1D1B;}
</style>
<g id="Calque_2_1_">
	<g id="Planche_icones">
		<path class="st0" d="M25.4,11.5l-6.1-2.6l0.9-6.1c0.1-0.4-0.1-0.7-0.4-1c-0.3-0.2-0.7-0.2-1.1,0l-5.3,3.5L8,1.8
			C7.7,1.6,7.3,1.6,7,1.8C6.7,2,6.5,2.4,6.5,2.8l0.9,6.1l-6.1,2.6c-0.4,0.2-0.6,0.5-0.6,0.9c0,0.4,0.2,0.7,0.6,0.9l6.1,2.6l-0.9,6.1
			c-0.1,0.5,0.3,1,0.8,1.1c0.2,0,0.5,0,0.7-0.2l5.3-3.5l5.3,3.5c0.2,0.1,0.3,0.2,0.5,0.2l0,0c0.5,0,1-0.4,1-0.9c0,0,0,0,0,0
			c0-0.1,0-0.3-0.1-0.4l-0.8-5.8l6.2-2.6c0.4-0.2,0.6-0.5,0.6-0.9C26,12,25.8,11.6,25.4,11.5z"/>
		<path class="st1" d="M46.2,40L38,31.8l0,0L24.8,18.6l-1,0.4l1.1,7.8C25,27,25,27.2,25,27.5c0,0.5-0.2,1-0.6,1.3l8.2,8.2l0,0
			l8.2,8.2c1.5,1.5,3.8,1.5,5.3,0C47.7,43.8,47.7,41.4,46.2,40L46.2,40z"/>
	</g>
</g>
</svg>
