<?xml version="1.0" encoding="utf-8"?>
<!-- Generator: Adobe Illustrator 27.2.0, SVG Export Plug-In . SVG Version: 6.00 Build 0)  -->
<svg version="1.1" id="Calque_1" xmlns="http://www.w3.org/2000/svg" xmlns:xlink="http://www.w3.org/1999/xlink" x="0px" y="0px"
	 viewBox="0 0 48 48" style="enable-background:new 0 0 48 48;" xml:space="preserve">
<style type="text/css">
	.st0{fill:#1C779C;}
</style>
<path class="st0" d="M24,20.57c4.23,0,8.18-0.38,11.85-1.15c3.68-0.77,6.57-1.9,8.7-3.4v4.55c0,1.23-0.92,2.37-2.76,3.43
	c-1.84,1.05-4.33,1.89-7.49,2.5c-3.16,0.62-6.59,0.92-10.3,0.92c-3.71,0-7.14-0.31-10.3-0.92c-3.16-0.62-5.65-1.45-7.49-2.5
	c-1.84-1.05-2.76-2.2-2.76-3.43v-4.55c2.12,1.5,5.02,2.63,8.7,3.4C15.82,20.19,19.77,20.57,24,20.57z M24,41.14
	c4.23,0,8.18-0.38,11.85-1.15c3.68-0.77,6.57-1.9,8.7-3.4v4.55c0,1.23-0.92,2.37-2.76,3.43c-1.84,1.05-4.33,1.89-7.49,2.5
	C31.15,47.69,27.71,48,24,48c-3.71,0-7.14-0.31-10.3-0.92c-3.16-0.62-5.65-1.45-7.49-2.5c-1.84-1.05-2.76-2.2-2.76-3.43v-4.55
	c2.12,1.5,5.02,2.63,8.7,3.4C15.82,40.76,19.77,41.14,24,41.14z M24,30.86c4.23,0,8.18-0.38,11.85-1.15c3.68-0.77,6.57-1.9,8.7-3.4
	v4.55c0,1.23-0.92,2.37-2.76,3.43c-1.84,1.05-4.33,1.89-7.49,2.5c-3.16,0.62-6.59,0.92-10.3,0.92c-3.71,0-7.14-0.31-10.3-0.92
	c-3.16-0.62-5.65-1.45-7.49-2.5c-1.84-1.05-2.76-2.19-2.76-3.43V26.3c2.12,1.5,5.02,2.63,8.7,3.4C15.82,30.47,19.77,30.86,24,30.86z
	 M24,0c3.71,0,7.15,0.31,10.3,0.92c3.16,0.62,5.65,1.45,7.49,2.5c1.84,1.05,2.76,2.2,2.76,3.43v3.43c0,1.23-0.92,2.37-2.76,3.43
	c-1.84,1.05-4.33,1.89-7.49,2.5c-3.16,0.62-6.59,0.92-10.3,0.92c-3.71,0-7.14-0.31-10.3-0.92c-3.16-0.62-5.65-1.45-7.49-2.5
	c-1.84-1.05-2.76-2.2-2.76-3.43V6.86c0-1.23,0.92-2.38,2.76-3.43c1.84-1.05,4.33-1.89,7.49-2.5C16.86,0.31,20.29,0,24,0z"/>
</svg>
