<?xml version="1.0" encoding="utf-8"?>
<!-- Generator: Adobe Illustrator 25.3.1, SVG Export Plug-In . SVG Version: 6.00 Build 0)  -->
<svg version="1.1" id="Calque_1" xmlns="http://www.w3.org/2000/svg" xmlns:xlink="http://www.w3.org/1999/xlink" x="0px" y="0px"
	 viewBox="0 0 48 48" style="enable-background:new 0 0 48 48;" xml:space="preserve">
<style type="text/css">
	.st0{fill:#3DAC48;}
	.st1{fill:#FFFFFF;}
</style>
<g>
	<path class="st0" d="M48,24c0,13.3-10.7,24-24,24C10.7,48,0,37.3,0,24C0,10.7,10.7,0,24,0C37.3,0,48,10.7,48,24z"/>
	<g>
		<path class="st1" d="M15.9,13.8v20.4c0,0.9,0.3,1.5,0.8,1.8c0.5,0.3,1.2,0.2,2-0.2l17.4-10.2c0.8-0.4,1.2-1,1.2-1.6
			c0-0.6-0.4-1.2-1.2-1.7L18.7,12.2c-0.8-0.4-1.5-0.5-2-0.2C16.2,12.2,15.9,12.9,15.9,13.8z"/>
	</g>
</g>
</svg>
