<?xml version="1.0" encoding="utf-8"?>
<!-- Generator: Adobe Illustrator 27.2.0, SVG Export Plug-In . SVG Version: 6.00 Build 0)  -->
<svg version="1.1" id="Calque_1" xmlns="http://www.w3.org/2000/svg" xmlns:xlink="http://www.w3.org/1999/xlink" x="0px" y="0px"
	 viewBox="0 0 48 48" style="enable-background:new 0 0 48 48;" xml:space="preserve">
<style type="text/css">
	.st0{fill:#FFFFFF;}
	.st1{fill:#1C779C;}
	.st2{fill:#BB865D;}
	.st3{fill:#2172B7;}
	.st4{fill:#1D1D20;}
	.st5{fill:#D8D8D8;}
	.st6{fill:#F5B377;}
	.st7{fill:#683E14;}
	.st8{fill:#010101;}
	.st9{fill-rule:evenodd;clip-rule:evenodd;fill:#706F6E;}
	.st10{fill-rule:evenodd;clip-rule:evenodd;fill:#1D1E1C;}
	.st11{fill-rule:evenodd;clip-rule:evenodd;fill:#D8D8D8;}
	.st12{fill:#37A6DE;}
</style>
<g>
	<g>
		<g>
			<path class="st0" d="M42.84,38.31c0,1.63-1.31,2.94-2.93,2.94H2.93C1.31,41.25,0,39.93,0,38.31V14.7c0-1.63,1.31-2.94,2.93-2.94
				h36.98c1.62,0,2.93,1.32,2.93,2.94V38.31z"/>
			<path class="st1" d="M39.91,12.54c1.19,0,2.16,0.97,2.16,2.17v23.6c0,1.2-0.97,2.17-2.16,2.17H2.93c-1.19,0-2.16-0.97-2.16-2.17
				V14.7c0-1.2,0.97-2.17,2.16-2.17H39.91 M39.91,11.76H2.93C1.31,11.76,0,13.08,0,14.7v23.6c0,1.63,1.31,2.94,2.93,2.94h36.98
				c1.62,0,2.93-1.32,2.93-2.94V14.7C42.84,13.08,41.53,11.76,39.91,11.76L39.91,11.76z"/>
		</g>
		<g>
			<rect x="20.8" y="18.13" class="st1" width="17.64" height="2.39"/>
			<rect x="20.8" y="22.92" class="st1" width="17.64" height="2.39"/>
			<rect x="20.8" y="27.7" class="st1" width="17.64" height="2.39"/>
			<rect x="20.8" y="32.48" class="st1" width="17.64" height="2.39"/>
		</g>
		<g>
			<path class="st2" d="M12.86,25.72c-0.35,0.31-1.61,0.31-1.86,0.27c-0.24,0.03-1.51,0.04-1.86-0.27c0.07,0.51,0.18,0.87,0.04,1.66
				c-0.12,0.71,1.48,1.46,1.82,1.6c0.34-0.15,1.94-0.89,1.82-1.6C12.68,26.58,12.78,26.23,12.86,25.72z"/>
			<path class="st3" d="M12.99,26.97c0,0-1.1,1.64-1.99,1.53c-0.89,0.11-1.99-1.53-1.99-1.53c-0.15,0.88,0.37,3.66,1.99,3.77
				C12.61,30.63,13.13,27.85,12.99,26.97z"/>
			<path class="st4" d="M11.37,28.69l0.19-0.39L11,27.8l-0.56,0.5l0.2,0.39c0,0-0.25,1.16-0.49,2.16c0,0,0.33,0.14,0.85,0.37
				c0.52-0.23,0.85-0.37,0.85-0.37C11.62,29.85,11.37,28.69,11.37,28.69z"/>
			<path class="st5" d="M17.15,30.7c-0.15-0.93-0.27-1.73-0.86-2.45c-0.9-1.1-3.35-1.28-3.35-1.28s0.06,2.17-1.94,3.52
				c-1.99-1.35-1.94-3.52-1.94-3.52s-2.46,0.18-3.35,1.28C5.12,28.97,5,29.77,4.85,30.7c-0.23,1.46-0.45,4.07-0.45,4.07h13.19
				C17.59,34.78,17.38,32.17,17.15,30.7z"/>
			<g>
				<path class="st6" d="M7.79,22.79c0,0-0.51-1.5,0.15-2.6c0.66-1.1,1.68-1.46,2.23-1.63c0.55-0.17,1.53-0.27,2.12-0.07
					c0.59,0.21,0.69,0.24,0.98,0.88c0.35,0.09,1.08,0.68,1.11,1.21c0.03,0.53,0.1,1.28-0.14,2.21c0.21-0.09,0.34,0.03,0.37,0.24
					c0.03,0.21,0.07,0.46-0.11,0.76c-0.18,0.3-0.31,0.5-0.74,0.55c0,0-0.2,0.67-0.62,1.25c-0.41,0.58-0.72,0.94-1.23,1.22
					c-0.51,0.28-0.78,0.22-0.93,0.22c-0.27,0-0.95-0.17-1.33-0.54c-0.38-0.37-0.71-0.81-0.92-1.2c-0.21-0.39-0.43-0.96-0.43-0.96
					s-0.25,0.11-0.53-0.24c-0.28-0.36-0.39-0.65-0.34-1.06C7.46,22.63,7.79,22.79,7.79,22.79z"/>
				<path class="st7" d="M14.09,23.13c-0.05,0.07,0.04-1.06,0.04-1.3c0-0.24-0.01-0.55-0.06-0.84c-0.04-0.3-0.15-0.78-0.41-0.51
					c-0.13,0.15-0.22,0.23-0.43,0.37c-0.38,0.24-1.04,0.34-2.18,0.45c-1.14,0.11-2.82,0.12-2.91,0.48
					c-0.09,0.35-0.12,0.91-0.12,1.16c0,0.26-0.06,0.07-0.29-0.24c-0.23-0.31-0.53-1.14-0.39-1.82c0.15-0.68,0.46-1.61,2.03-2.29
					c1.56-0.68,3.35-0.18,3.77,0c0.42,0.18,0.89,0.63,0.91,0.91c0.02,0.2,0.08,0.41,0.26,0.54c0.37,0.27,0.41,0.92,0.3,1.6
					C14.51,22.36,14.26,22.91,14.09,23.13z"/>
			</g>
			<g>
				<path class="st8" d="M14.5,28.77l0,0.05l0.5,0.01v-0.05c0.01-0.25,0.03-0.83-0.21-1.44c-0.22-0.07-0.44-0.13-0.65-0.18
					C14.53,27.79,14.51,28.48,14.5,28.77z"/>
				<g>
					<path class="st9" d="M15.26,29.34c-0.02-0.01-0.03-0.04-0.03-0.06c-0.01-0.23-0.02-0.4-0.17-0.64
						c-0.13-0.2-0.42-0.26-0.62-0.05c-0.13,0.14-0.25,0.31-0.32,0.49c-0.01,0.03-0.04,0.05-0.06,0.06c-0.11,0.06-0.23,0.1-0.34,0.17
						c-0.38,0.24-0.66,0.59-0.91,0.96c-0.38,0.58-0.67,1.2-0.9,1.86c-0.09,0.26-0.08,0.5,0.1,0.72c0.1,0.12,0.22,0.23,0.33,0.35
						c0.03,0.03,0.05,0.06,0.06,0.09c0.1,0.23,0.35,0.36,0.59,0.3c0.23-0.06,0.41-0.28,0.39-0.52c-0.02-0.38-0.41-0.6-0.75-0.43
						c-0.02,0.01-0.04,0.02-0.06,0.01c-0.11-0.06-0.17-0.22-0.13-0.34c0.01-0.04,0.03-0.08,0.04-0.12c0.24-0.66,0.54-1.28,0.97-1.84
						c0.18-0.24,0.39-0.47,0.66-0.61c0.24-0.13,0.48-0.14,0.72,0c0.14,0.09,0.24,0.2,0.33,0.34c0.24,0.37,0.35,0.79,0.44,1.22
						c0.1,0.5,0.14,1,0.15,1.51c0,0.16-0.04,0.26-0.19,0.32c0,0-0.01,0-0.01,0.01c-0.04,0.02-0.06,0.02-0.1-0.01
						c-0.19-0.21-0.52-0.22-0.73-0.01c-0.2,0.2-0.19,0.53,0.01,0.73c0.2,0.2,0.54,0.19,0.73-0.02c0.03-0.03,0.06-0.05,0.1-0.07
						c0.29-0.12,0.57-0.26,0.72-0.57c0.01-0.06,0.02-0.12,0.03-0.19c0-0.18,0-0.36-0.01-0.54c-0.04-0.77-0.14-1.53-0.44-2.25
						C15.73,29.87,15.55,29.57,15.26,29.34z"/>
					<path class="st10" d="M14.55,33.37c0.05-0.29,0.32-0.48,0.61-0.43c0.29,0.05,0.49,0.32,0.44,0.61
						c-0.05,0.29-0.32,0.48-0.61,0.43C14.7,33.93,14.5,33.66,14.55,33.37z"/>
					<path class="st10" d="M12.37,33c0.05-0.29,0.32-0.48,0.61-0.43c0.29,0.05,0.49,0.32,0.44,0.61c-0.05,0.29-0.32,0.48-0.61,0.43
						C12.52,33.56,12.32,33.28,12.37,33z"/>
				</g>
			</g>
			<g>
				<path class="st8" d="M8.72,32.38c-0.56-0.88-1.32-2.72-0.27-5.34c-0.17,0.03-0.37,0.07-0.58,0.12c-1,2.78-0.05,4.75,0.43,5.5
					L8.72,32.38z"/>
				<g>
					<path class="st11" d="M9.23,32.52c0,0.4-0.32,0.72-0.72,0.72c-0.4,0-0.72-0.33-0.72-0.72c0-0.4,0.32-0.72,0.72-0.72
						C8.91,31.8,9.23,32.12,9.23,32.52z"/>
					<g>
						<path class="st10" d="M8.81,32.52c0,0.17-0.14,0.31-0.31,0.31c-0.17,0-0.3-0.14-0.3-0.31c0-0.17,0.14-0.3,0.3-0.3
							C8.67,32.21,8.81,32.35,8.81,32.52z"/>
						<path class="st9" d="M8.51,31.29c-0.67,0-1.22,0.55-1.22,1.23c0,0.68,0.55,1.23,1.22,1.23c0.68,0,1.22-0.55,1.22-1.23
							C9.73,31.84,9.19,31.29,8.51,31.29z M8.51,33.13c-0.33,0-0.6-0.27-0.6-0.61c0-0.34,0.27-0.61,0.6-0.61
							c0.34,0,0.6,0.27,0.6,0.61C9.11,32.86,8.85,33.13,8.51,33.13z"/>
					</g>
				</g>
			</g>
			<path class="st12" d="M9.25,26.58c0,0,0.46,0.95,1.75,1.22c-0.35,0.38-0.49,0.69-0.47,0.92c-0.67-0.27-1.46-1.01-1.51-1.75
				C9.1,26.66,9.25,26.58,9.25,26.58z"/>
			<path class="st12" d="M12.75,26.58c0,0-0.46,0.95-1.75,1.22c0.35,0.38,0.49,0.69,0.47,0.92c0.67-0.27,1.46-1.01,1.51-1.75
				C12.89,26.66,12.75,26.58,12.75,26.58z"/>
		</g>
	</g>
	<g>
		<g>
			<path class="st0" d="M45.16,35.91c0,1.63-1.31,2.95-2.93,2.95H5.25c-1.62,0-2.93-1.32-2.93-2.95v-23.6
				c0-1.63,1.31-2.95,2.93-2.95h36.98c1.62,0,2.93,1.32,2.93,2.95V35.91z"/>
			<path class="st1" d="M42.23,10.14c1.19,0,2.16,0.97,2.16,2.17v23.6c0,1.2-0.97,2.17-2.16,2.17H5.25c-1.19,0-2.16-0.97-2.16-2.17
				v-23.6c0-1.2,0.97-2.17,2.16-2.17H42.23 M42.23,9.37H5.25c-1.62,0-2.93,1.32-2.93,2.95v23.6c0,1.63,1.31,2.95,2.93,2.95h36.98
				c1.62,0,2.93-1.32,2.93-2.95v-23.6C45.16,10.68,43.85,9.37,42.23,9.37L42.23,9.37z"/>
		</g>
		<g>
			<rect x="23.12" y="15.74" class="st1" width="17.64" height="2.39"/>
			<rect x="23.12" y="20.52" class="st1" width="17.64" height="2.39"/>
			<rect x="23.12" y="25.31" class="st1" width="17.64" height="2.39"/>
			<rect x="23.12" y="30.09" class="st1" width="17.64" height="2.39"/>
		</g>
		<g>
			<path class="st2" d="M15.18,23.32c-0.35,0.31-1.61,0.31-1.86,0.27c-0.24,0.03-1.51,0.04-1.86-0.27c0.08,0.51,0.18,0.87,0.04,1.66
				c-0.12,0.71,1.48,1.46,1.82,1.6c0.34-0.15,1.94-0.89,1.82-1.6C15,24.19,15.1,23.84,15.18,23.32z"/>
			<path class="st3" d="M15.31,24.58c0,0-1.1,1.64-1.99,1.53c-0.89,0.11-1.99-1.53-1.99-1.53c-0.15,0.88,0.37,3.66,1.99,3.77
				C14.94,28.23,15.45,25.46,15.31,24.58z"/>
			<path class="st4" d="M13.69,26.3l0.19-0.39l-0.56-0.5l-0.56,0.5l0.2,0.39c0,0-0.25,1.16-0.49,2.16c0,0,0.33,0.14,0.85,0.37
				c0.52-0.23,0.85-0.37,0.85-0.37C13.94,27.46,13.69,26.3,13.69,26.3z"/>
			<path class="st5" d="M19.47,28.31c-0.15-0.94-0.27-1.73-0.86-2.45c-0.89-1.1-3.35-1.28-3.35-1.28s0.06,2.17-1.94,3.52
				c-1.99-1.35-1.94-3.52-1.94-3.52s-2.46,0.18-3.35,1.28c-0.59,0.73-0.71,1.52-0.86,2.45c-0.23,1.46-0.45,4.07-0.45,4.07h13.19
				C19.91,32.38,19.7,29.77,19.47,28.31z"/>
			<g>
				<path class="st6" d="M10.11,20.4c0,0-0.51-1.5,0.15-2.6c0.66-1.1,1.68-1.46,2.23-1.63c0.55-0.17,1.53-0.27,2.12-0.07
					c0.59,0.21,0.69,0.24,0.98,0.88c0.35,0.09,1.08,0.68,1.11,1.21c0.03,0.53,0.1,1.28-0.14,2.21c0.21-0.09,0.34,0.03,0.37,0.24
					c0.03,0.21,0.07,0.47-0.11,0.77c-0.18,0.3-0.32,0.5-0.74,0.55c0,0-0.2,0.67-0.62,1.25c-0.41,0.58-0.72,0.94-1.23,1.22
					c-0.51,0.28-0.78,0.22-0.93,0.22c-0.27,0-0.95-0.17-1.33-0.54c-0.39-0.37-0.71-0.81-0.92-1.2c-0.21-0.39-0.43-0.96-0.43-0.96
					s-0.25,0.11-0.53-0.25c-0.28-0.36-0.39-0.65-0.35-1.06C9.78,20.24,10.11,20.4,10.11,20.4z"/>
				<path class="st7" d="M16.41,20.74c-0.05,0.07,0.04-1.06,0.04-1.3c0-0.24-0.02-0.55-0.06-0.84c-0.04-0.3-0.16-0.78-0.41-0.51
					c-0.13,0.15-0.22,0.23-0.43,0.37c-0.38,0.24-1.04,0.34-2.18,0.45c-1.14,0.11-2.82,0.12-2.91,0.48
					c-0.09,0.35-0.12,0.91-0.12,1.16c0,0.26-0.07,0.07-0.29-0.24c-0.23-0.31-0.53-1.14-0.39-1.82c0.15-0.68,0.46-1.61,2.03-2.29
					c1.56-0.68,3.35-0.18,3.77,0c0.42,0.18,0.89,0.63,0.91,0.91c0.02,0.2,0.08,0.41,0.26,0.54c0.36,0.27,0.41,0.92,0.3,1.6
					C16.83,19.97,16.58,20.51,16.41,20.74z"/>
			</g>
			<g>
				<path class="st8" d="M16.82,26.38l0,0.05l0.5,0.01l0-0.05c0.01-0.25,0.03-0.83-0.21-1.44c-0.22-0.07-0.44-0.13-0.65-0.18
					C16.85,25.39,16.83,26.08,16.82,26.38z"/>
				<g>
					<path class="st9" d="M17.58,26.94c-0.02-0.01-0.03-0.04-0.03-0.06c-0.01-0.23-0.02-0.4-0.18-0.64
						c-0.13-0.2-0.42-0.26-0.62-0.05c-0.13,0.14-0.25,0.31-0.32,0.49c-0.01,0.03-0.04,0.05-0.06,0.06c-0.11,0.06-0.23,0.1-0.34,0.17
						c-0.38,0.24-0.67,0.59-0.91,0.96c-0.39,0.57-0.67,1.2-0.9,1.86c-0.09,0.26-0.08,0.5,0.1,0.72c0.1,0.12,0.22,0.23,0.33,0.35
						c0.02,0.03,0.05,0.06,0.06,0.09c0.1,0.23,0.35,0.36,0.59,0.3c0.23-0.06,0.41-0.28,0.39-0.52c-0.02-0.38-0.41-0.6-0.75-0.43
						c-0.02,0.01-0.04,0.02-0.06,0.01c-0.11-0.06-0.17-0.22-0.13-0.34c0.01-0.04,0.03-0.08,0.04-0.12c0.24-0.66,0.54-1.28,0.97-1.84
						c0.18-0.24,0.39-0.47,0.67-0.61c0.24-0.13,0.48-0.14,0.72,0c0.14,0.08,0.24,0.2,0.33,0.34c0.24,0.37,0.35,0.79,0.44,1.22
						c0.1,0.5,0.14,1,0.15,1.51c0,0.15-0.04,0.26-0.18,0.32c0,0-0.01,0.01-0.01,0.01c-0.04,0.02-0.06,0.02-0.1-0.01
						c-0.19-0.21-0.52-0.22-0.73-0.01c-0.2,0.2-0.19,0.53,0.01,0.73c0.2,0.2,0.54,0.19,0.73-0.02c0.02-0.03,0.06-0.05,0.1-0.07
						c0.29-0.12,0.58-0.26,0.72-0.57c0.01-0.06,0.02-0.12,0.03-0.19c0-0.18,0-0.36-0.01-0.54c-0.04-0.77-0.14-1.53-0.44-2.25
						C18.06,27.48,17.87,27.18,17.58,26.94z"/>
					<path class="st10" d="M16.87,30.97c0.05-0.29,0.32-0.48,0.61-0.43c0.29,0.05,0.48,0.32,0.44,0.61
						c-0.05,0.29-0.32,0.48-0.61,0.43C17.02,31.54,16.82,31.26,16.87,30.97z"/>
					<path class="st10" d="M14.69,30.6c0.05-0.29,0.32-0.48,0.61-0.43c0.29,0.05,0.49,0.32,0.44,0.61
						c-0.05,0.29-0.32,0.48-0.61,0.43C14.84,31.16,14.64,30.89,14.69,30.6z"/>
				</g>
			</g>
			<g>
				<path class="st8" d="M11.04,29.99c-0.56-0.88-1.32-2.72-0.27-5.34c-0.17,0.03-0.37,0.07-0.58,0.12c-1,2.78-0.05,4.75,0.43,5.5
					L11.04,29.99z"/>
				<g>
					<path class="st11" d="M11.55,30.13c0,0.4-0.32,0.72-0.72,0.72c-0.4,0-0.72-0.33-0.72-0.72c0-0.4,0.32-0.72,0.72-0.72
						C11.23,29.41,11.55,29.73,11.55,30.13z"/>
					<g>
						<path class="st10" d="M11.14,30.13c0,0.17-0.14,0.31-0.31,0.31c-0.17,0-0.3-0.14-0.3-0.31c0-0.17,0.14-0.3,0.3-0.3
							C11,29.82,11.14,29.96,11.14,30.13z"/>
						<path class="st9" d="M10.83,28.9c-0.67,0-1.22,0.55-1.22,1.23c0,0.68,0.55,1.23,1.22,1.23c0.68,0,1.22-0.55,1.22-1.23
							C12.06,29.45,11.51,28.9,10.83,28.9z M10.83,30.74c-0.33,0-0.6-0.27-0.6-0.61c0-0.34,0.27-0.61,0.6-0.61
							c0.33,0,0.6,0.27,0.6,0.61C11.44,30.47,11.17,30.74,10.83,30.74z"/>
					</g>
				</g>
			</g>
			<path class="st12" d="M11.57,24.18c0,0,0.46,0.95,1.75,1.22c-0.35,0.38-0.49,0.69-0.47,0.92c-0.67-0.27-1.46-1.01-1.51-1.75
				C11.43,24.26,11.57,24.18,11.57,24.18z"/>
			<path class="st12" d="M15.07,24.18c0,0-0.46,0.95-1.75,1.22c0.35,0.38,0.49,0.69,0.47,0.92c0.67-0.27,1.46-1.01,1.51-1.75
				C15.21,24.26,15.07,24.18,15.07,24.18z"/>
		</g>
	</g>
	<g>
		<g>
			<path class="st0" d="M48,33.3c0,1.63-1.31,2.94-2.93,2.94H8.09c-1.62,0-2.93-1.32-2.93-2.94V9.69c0-1.63,1.31-2.94,2.93-2.94
				h36.98c1.62,0,2.93,1.32,2.93,2.94V33.3z"/>
			<path class="st1" d="M45.07,7.53c1.19,0,2.16,0.97,2.16,2.17v23.6c0,1.2-0.97,2.17-2.16,2.17H8.09c-1.19,0-2.16-0.97-2.16-2.17
				V9.69c0-1.19,0.97-2.17,2.16-2.17H45.07 M45.07,6.75H8.09c-1.62,0-2.93,1.32-2.93,2.94v23.6c0,1.63,1.31,2.94,2.93,2.94h36.98
				c1.62,0,2.93-1.32,2.93-2.94V9.69C48,8.07,46.69,6.75,45.07,6.75L45.07,6.75z"/>
		</g>
		<g>
			<rect x="25.96" y="13.13" class="st1" width="17.64" height="2.39"/>
			<rect x="25.96" y="17.91" class="st1" width="17.64" height="2.39"/>
			<rect x="25.96" y="22.69" class="st1" width="17.64" height="2.39"/>
			<rect x="25.96" y="27.47" class="st1" width="17.64" height="2.39"/>
		</g>
		<g>
			<path class="st2" d="M18.02,20.71c-0.35,0.31-1.62,0.31-1.86,0.27c-0.24,0.03-1.51,0.04-1.86-0.27c0.08,0.51,0.18,0.87,0.04,1.66
				c-0.12,0.71,1.48,1.46,1.82,1.6c0.34-0.15,1.94-0.89,1.82-1.6C17.84,21.57,17.94,21.22,18.02,20.71z"/>
			<path class="st3" d="M18.14,21.96c0,0-1.1,1.64-1.99,1.53c-0.89,0.11-1.99-1.53-1.99-1.53c-0.15,0.88,0.37,3.66,1.99,3.77
				C17.77,25.62,18.29,22.84,18.14,21.96z"/>
			<path class="st4" d="M16.52,23.68l0.2-0.39l-0.57-0.5l-0.56,0.5l0.19,0.39c0,0-0.25,1.16-0.49,2.16c0,0,0.33,0.14,0.85,0.37
				c0.52-0.23,0.85-0.37,0.85-0.37C16.77,24.85,16.52,23.68,16.52,23.68z"/>
			<path class="st5" d="M22.31,25.69c-0.15-0.94-0.27-1.73-0.86-2.45c-0.89-1.1-3.35-1.28-3.35-1.28s0.06,2.17-1.94,3.52
				c-1.99-1.35-1.94-3.52-1.94-3.52s-2.46,0.18-3.35,1.28c-0.59,0.73-0.71,1.52-0.86,2.45c-0.23,1.46-0.45,4.07-0.45,4.07h13.19
				C22.75,29.77,22.54,27.16,22.31,25.69z"/>
			<g>
				<path class="st6" d="M12.95,17.78c0,0-0.51-1.5,0.15-2.6c0.66-1.1,1.68-1.46,2.23-1.63c0.55-0.17,1.53-0.27,2.12-0.07
					c0.59,0.21,0.69,0.24,0.98,0.88c0.35,0.09,1.08,0.68,1.11,1.21c0.03,0.54,0.1,1.28-0.14,2.21c0.21-0.09,0.34,0.03,0.37,0.24
					c0.03,0.21,0.07,0.46-0.11,0.76c-0.18,0.3-0.32,0.5-0.74,0.56c0,0-0.2,0.67-0.62,1.25c-0.41,0.58-0.72,0.94-1.23,1.22
					c-0.51,0.28-0.78,0.22-0.93,0.22c-0.27,0-0.95-0.17-1.34-0.54c-0.39-0.37-0.71-0.81-0.92-1.2c-0.21-0.39-0.42-0.96-0.42-0.96
					s-0.25,0.11-0.53-0.24c-0.28-0.36-0.39-0.65-0.34-1.06C12.61,17.62,12.95,17.78,12.95,17.78z"/>
				<path class="st7" d="M19.25,18.12c-0.05,0.07,0.04-1.06,0.04-1.3c0-0.24-0.02-0.55-0.06-0.84c-0.04-0.3-0.16-0.78-0.4-0.51
					c-0.13,0.15-0.22,0.23-0.44,0.37c-0.38,0.23-1.04,0.34-2.18,0.45c-1.14,0.11-2.82,0.12-2.91,0.48
					c-0.09,0.35-0.12,0.91-0.12,1.16c0,0.26-0.07,0.07-0.29-0.24c-0.23-0.31-0.53-1.14-0.39-1.82c0.15-0.68,0.46-1.61,2.03-2.29
					c1.56-0.68,3.35-0.18,3.77,0c0.42,0.18,0.89,0.63,0.91,0.91c0.02,0.2,0.08,0.41,0.26,0.54c0.36,0.27,0.41,0.92,0.3,1.6
					C19.67,17.35,19.42,17.9,19.25,18.12z"/>
			</g>
			<g>
				<path class="st8" d="M19.66,23.76l0,0.05l0.5,0.01l0-0.05c0.01-0.25,0.03-0.83-0.22-1.44c-0.22-0.07-0.44-0.13-0.65-0.18
					C19.69,22.78,19.67,23.47,19.66,23.76z"/>
				<g>
					<path class="st9" d="M20.42,24.33c-0.02-0.01-0.03-0.04-0.03-0.06c-0.01-0.23-0.02-0.4-0.17-0.64
						c-0.14-0.2-0.42-0.26-0.62-0.05c-0.13,0.14-0.25,0.31-0.32,0.49c-0.01,0.03-0.04,0.05-0.06,0.06c-0.11,0.06-0.23,0.1-0.34,0.17
						c-0.38,0.24-0.67,0.59-0.91,0.96c-0.39,0.58-0.67,1.2-0.9,1.86c-0.09,0.26-0.08,0.5,0.1,0.72c0.1,0.12,0.22,0.23,0.33,0.35
						c0.02,0.03,0.05,0.06,0.06,0.09c0.1,0.23,0.35,0.36,0.59,0.3c0.23-0.06,0.4-0.28,0.39-0.52c-0.02-0.38-0.41-0.6-0.75-0.43
						c-0.02,0.01-0.04,0.02-0.06,0.01c-0.11-0.06-0.17-0.22-0.13-0.33c0.01-0.04,0.03-0.08,0.04-0.12c0.24-0.66,0.54-1.28,0.97-1.84
						c0.18-0.24,0.39-0.47,0.67-0.61c0.24-0.13,0.48-0.14,0.72,0c0.14,0.08,0.24,0.2,0.33,0.34c0.24,0.37,0.35,0.79,0.44,1.22
						c0.1,0.5,0.14,1,0.15,1.51c0,0.16-0.04,0.26-0.18,0.32c-0.01,0-0.01,0.01-0.01,0.01c-0.04,0.02-0.06,0.02-0.1-0.01
						c-0.19-0.21-0.52-0.22-0.73-0.01c-0.2,0.2-0.19,0.53,0.01,0.73c0.2,0.2,0.54,0.19,0.73-0.02c0.02-0.03,0.06-0.05,0.1-0.07
						c0.29-0.12,0.57-0.26,0.72-0.57c0.01-0.06,0.02-0.12,0.03-0.19c0-0.18,0-0.36-0.01-0.54c-0.04-0.77-0.14-1.53-0.44-2.25
						C20.89,24.86,20.7,24.56,20.42,24.33z"/>
					<path class="st10" d="M19.71,28.36c0.05-0.29,0.32-0.48,0.61-0.43c0.29,0.05,0.48,0.32,0.44,0.61
						c-0.05,0.29-0.32,0.48-0.61,0.43C19.86,28.92,19.66,28.65,19.71,28.36z"/>
					<path class="st10" d="M17.53,27.99c0.05-0.29,0.32-0.48,0.61-0.43c0.29,0.05,0.49,0.32,0.43,0.61
						c-0.05,0.29-0.32,0.48-0.61,0.43C17.68,28.55,17.48,28.28,17.53,27.99z"/>
				</g>
			</g>
			<g>
				<path class="st8" d="M13.88,27.37c-0.56-0.88-1.32-2.72-0.27-5.34c-0.17,0.03-0.37,0.07-0.58,0.12c-1,2.78-0.05,4.75,0.43,5.5
					L13.88,27.37z"/>
				<g>
					<path class="st11" d="M14.39,27.51c0,0.4-0.32,0.72-0.72,0.72c-0.4,0-0.72-0.33-0.72-0.72c0-0.4,0.32-0.72,0.72-0.72
						C14.07,26.79,14.39,27.11,14.39,27.51z"/>
					<g>
						<path class="st10" d="M13.97,27.51c0,0.17-0.14,0.31-0.31,0.31c-0.17,0-0.3-0.14-0.3-0.31c0-0.17,0.14-0.3,0.3-0.3
							C13.83,27.2,13.97,27.35,13.97,27.51z"/>
						<path class="st9" d="M13.67,26.28c-0.68,0-1.22,0.55-1.22,1.23c0,0.68,0.55,1.23,1.22,1.23c0.67,0,1.22-0.55,1.22-1.23
							C14.89,26.84,14.34,26.28,13.67,26.28z M13.67,28.12c-0.33,0-0.6-0.27-0.6-0.61c0-0.34,0.27-0.61,0.6-0.61
							c0.33,0,0.6,0.27,0.6,0.61C14.28,27.85,14.01,28.12,13.67,28.12z"/>
					</g>
				</g>
			</g>
			<path class="st12" d="M14.4,21.57c0,0,0.46,0.95,1.75,1.22c-0.35,0.38-0.49,0.69-0.47,0.92c-0.67-0.27-1.46-1.01-1.51-1.75
				C14.26,21.65,14.4,21.57,14.4,21.57z"/>
			<path class="st12" d="M17.91,21.57c0,0-0.46,0.95-1.75,1.22c0.35,0.38,0.49,0.69,0.47,0.92c0.67-0.27,1.46-1.01,1.5-1.75
				C18.05,21.65,17.91,21.57,17.91,21.57z"/>
		</g>
	</g>
</g>
</svg>
