<?xml version="1.0" encoding="utf-8"?>
<!-- Generator: Adobe Illustrator 27.2.0, SVG Export Plug-In . SVG Version: 6.00 Build 0)  -->
<svg version="1.1" id="Calque_1" xmlns="http://www.w3.org/2000/svg" xmlns:xlink="http://www.w3.org/1999/xlink" x="0px" y="0px"
	 viewBox="0 0 48 48" style="enable-background:new 0 0 48 48;" xml:space="preserve">
<style type="text/css">
	.st0{fill:#FFFFFF;}
	.st1{fill:#1C779C;}
	.st2{fill:#BB865D;}
	.st3{fill:#2172B7;}
	.st4{fill:#1D1D20;}
	.st5{fill:#D8D8D8;}
	.st6{fill:#F5B377;}
	.st7{fill:#683E14;}
	.st8{fill:#010101;}
	.st9{fill-rule:evenodd;clip-rule:evenodd;fill:#706F6E;}
	.st10{fill-rule:evenodd;clip-rule:evenodd;fill:#1D1E1C;}
	.st11{fill-rule:evenodd;clip-rule:evenodd;fill:#D8D8D8;}
	.st12{fill:#37A6DE;}
</style>
<g>
	<g>
		<path class="st0" d="M48,37.2c0,1.82-1.47,3.3-3.28,3.3H3.28C1.47,40.5,0,39.02,0,37.2V10.79C0,8.98,1.47,7.5,3.28,7.5h41.43
			c1.81,0,3.28,1.48,3.28,3.29V37.2z"/>
		<path class="st1" d="M44.72,8.37c1.33,0,2.42,1.09,2.42,2.42V37.2c0,1.34-1.08,2.43-2.42,2.43H3.28c-1.33,0-2.42-1.09-2.42-2.43
			V10.79c0-1.34,1.08-2.42,2.42-2.42H44.72 M44.72,7.5H3.28C1.47,7.5,0,8.98,0,10.79V37.2c0,1.82,1.47,3.3,3.28,3.3h41.43
			c1.81,0,3.28-1.48,3.28-3.3V10.79C48,8.98,46.53,7.5,44.72,7.5L44.72,7.5z"/>
	</g>
	<g>
		<rect x="23.3" y="14.63" class="st1" width="19.77" height="2.68"/>
		<rect x="23.3" y="19.98" class="st1" width="19.77" height="2.68"/>
		<rect x="23.3" y="25.34" class="st1" width="19.77" height="2.68"/>
		<rect x="23.3" y="30.69" class="st1" width="19.77" height="2.68"/>
	</g>
	<g>
		<path class="st2" d="M14.4,23.12c-0.39,0.35-1.81,0.34-2.08,0.31c-0.27,0.04-1.69,0.04-2.08-0.31c0.08,0.57,0.2,0.97,0.05,1.86
			c-0.14,0.8,1.66,1.63,2.03,1.8c0.38-0.16,2.17-1,2.04-1.8C14.2,24.09,14.32,23.69,14.4,23.12z"/>
		<path class="st3" d="M14.55,24.52c0,0-1.23,1.84-2.23,1.71c-1,0.13-2.23-1.71-2.23-1.71c-0.16,0.98,0.42,4.09,2.23,4.22
			C14.13,28.61,14.71,25.51,14.55,24.52z"/>
		<path class="st4" d="M12.73,26.45l0.22-0.44l-0.63-0.56l-0.63,0.56l0.22,0.44c0,0-0.28,1.3-0.54,2.42c0,0,0.37,0.16,0.95,0.41
			c0.59-0.26,0.96-0.41,0.96-0.41C13.01,27.75,12.73,26.45,12.73,26.45z"/>
		<path class="st5" d="M19.21,28.7c-0.17-1.05-0.3-1.93-0.97-2.75c-1-1.23-3.76-1.43-3.76-1.43s0.06,2.42-2.17,3.93
			c-2.23-1.51-2.17-3.93-2.17-3.93s-2.76,0.2-3.76,1.43c-0.66,0.81-0.8,1.7-0.96,2.75c-0.26,1.64-0.5,4.56-0.5,4.56h14.78
			C19.71,33.26,19.47,30.34,19.21,28.7z"/>
		<g>
			<path class="st6" d="M8.72,19.85c0,0-0.57-1.68,0.17-2.91c0.74-1.23,1.88-1.64,2.5-1.83c0.61-0.19,1.71-0.3,2.37-0.07
				c0.66,0.23,0.77,0.27,1.1,0.99c0.4,0.1,1.21,0.76,1.25,1.36c0.03,0.6,0.11,1.43-0.16,2.47c0.23-0.1,0.38,0.03,0.41,0.27
				c0.03,0.24,0.08,0.52-0.13,0.86c-0.2,0.33-0.36,0.56-0.83,0.62c0,0-0.23,0.75-0.69,1.39c-0.46,0.65-0.8,1.05-1.38,1.36
				c-0.58,0.31-0.87,0.24-1.04,0.24c-0.3,0-1.06-0.19-1.5-0.6c-0.43-0.41-0.8-0.9-1.03-1.34c-0.23-0.43-0.48-1.08-0.48-1.08
				S9,21.71,8.69,21.3c-0.32-0.4-0.44-0.73-0.39-1.18C8.35,19.66,8.72,19.85,8.72,19.85z"/>
			<path class="st7" d="M15.79,20.23c-0.05,0.07,0.05-1.18,0.05-1.46c0-0.27-0.02-0.61-0.07-0.94c-0.05-0.33-0.17-0.88-0.45-0.57
				c-0.15,0.16-0.25,0.26-0.49,0.41c-0.43,0.26-1.17,0.38-2.44,0.5c-1.28,0.12-3.16,0.14-3.26,0.53C9.04,19.09,9,19.71,9,20
				c0,0.29-0.07,0.08-0.33-0.27c-0.26-0.35-0.59-1.27-0.43-2.03c0.16-0.76,0.52-1.81,2.27-2.56c1.75-0.76,3.75-0.2,4.22,0
				c0.47,0.2,0.99,0.7,1.02,1.02c0.02,0.22,0.09,0.46,0.29,0.61c0.41,0.3,0.46,1.03,0.34,1.79C16.26,19.37,15.97,19.97,15.79,20.23z
				"/>
		</g>
		<g>
			<path class="st8" d="M16.24,26.54l0,0.06l0.56,0.01l0-0.05c0.01-0.28,0.03-0.93-0.24-1.61c-0.25-0.08-0.49-0.15-0.73-0.2
				C16.28,25.44,16.26,26.21,16.24,26.54z"/>
			<g>
				<path class="st9" d="M17.1,27.17c-0.02-0.01-0.03-0.04-0.03-0.07c-0.01-0.25-0.02-0.45-0.2-0.71c-0.15-0.22-0.47-0.29-0.69-0.06
					c-0.14,0.15-0.27,0.34-0.36,0.55c-0.01,0.03-0.04,0.05-0.07,0.07c-0.13,0.07-0.26,0.12-0.38,0.19
					c-0.43,0.27-0.75,0.66-1.02,1.07c-0.43,0.64-0.75,1.35-1.01,2.08c-0.1,0.29-0.08,0.56,0.11,0.8c0.11,0.14,0.25,0.26,0.37,0.39
					c0.03,0.03,0.06,0.07,0.07,0.1c0.11,0.25,0.39,0.4,0.66,0.33c0.26-0.06,0.45-0.31,0.44-0.58c-0.02-0.42-0.46-0.68-0.84-0.48
					c-0.02,0.01-0.05,0.02-0.06,0.01c-0.12-0.06-0.19-0.25-0.14-0.37c0.02-0.04,0.03-0.09,0.05-0.14c0.27-0.74,0.61-1.44,1.08-2.06
					c0.21-0.27,0.44-0.52,0.75-0.68c0.27-0.14,0.54-0.16,0.8,0c0.15,0.09,0.27,0.23,0.37,0.38c0.27,0.42,0.4,0.89,0.5,1.37
					c0.11,0.56,0.15,1.12,0.17,1.69c0,0.17-0.05,0.29-0.21,0.35c-0.01,0-0.01,0.01-0.01,0.01c-0.04,0.03-0.07,0.03-0.11-0.01
					c-0.22-0.24-0.59-0.24-0.82-0.01c-0.22,0.22-0.22,0.6,0.01,0.82c0.23,0.22,0.6,0.21,0.82-0.03c0.03-0.03,0.07-0.06,0.11-0.07
					c0.33-0.14,0.64-0.29,0.8-0.63c0.01-0.07,0.02-0.14,0.04-0.21c0-0.2,0-0.4-0.01-0.6c-0.04-0.86-0.16-1.71-0.49-2.51
					C17.63,27.77,17.42,27.43,17.1,27.17z"/>
				<path class="st10" d="M16.3,31.68c0.06-0.32,0.36-0.54,0.69-0.48c0.32,0.06,0.54,0.36,0.49,0.68c-0.06,0.32-0.36,0.54-0.69,0.48
					C16.47,32.31,16.25,32,16.3,31.68z"/>
				<path class="st10" d="M13.86,31.26c0.05-0.32,0.36-0.54,0.68-0.49c0.32,0.06,0.54,0.36,0.49,0.68
					c-0.05,0.32-0.36,0.54-0.68,0.49C14.03,31.89,13.81,31.59,13.86,31.26z"/>
			</g>
		</g>
		<g>
			<path class="st8" d="M9.77,30.58c-0.63-0.98-1.48-3.04-0.3-5.98c-0.19,0.03-0.42,0.07-0.65,0.13c-1.12,3.11-0.05,5.32,0.49,6.15
				L9.77,30.58z"/>
			<g>
				<path class="st11" d="M10.34,30.73c0,0.45-0.36,0.81-0.81,0.81c-0.45,0-0.81-0.36-0.81-0.81c0-0.45,0.36-0.81,0.81-0.81
					C9.98,29.92,10.34,30.29,10.34,30.73z"/>
				<g>
					<path class="st10" d="M9.87,30.73c0,0.19-0.16,0.35-0.34,0.35c-0.19,0-0.34-0.16-0.34-0.35c0-0.19,0.15-0.34,0.34-0.34
						C9.72,30.39,9.87,30.55,9.87,30.73z"/>
					<path class="st9" d="M9.54,29.36c-0.76,0-1.37,0.62-1.37,1.37c0,0.76,0.61,1.38,1.37,1.38c0.76,0,1.37-0.62,1.37-1.38
						C10.91,29.98,10.29,29.36,9.54,29.36z M9.54,31.41c-0.38,0-0.68-0.3-0.68-0.68c0-0.38,0.3-0.68,0.68-0.68
						c0.38,0,0.68,0.3,0.68,0.68C10.21,31.11,9.91,31.41,9.54,31.41z"/>
				</g>
			</g>
		</g>
		<path class="st12" d="M10.36,24.08c0,0,0.51,1.06,1.96,1.37c-0.39,0.43-0.55,0.78-0.53,1.03c-0.76-0.3-1.64-1.12-1.69-1.96
			C10.2,24.17,10.36,24.08,10.36,24.08z"/>
		<path class="st12" d="M14.28,24.08c0,0-0.51,1.06-1.96,1.37c0.39,0.43,0.55,0.78,0.53,1.03c0.75-0.3,1.64-1.12,1.69-1.96
			C14.44,24.17,14.28,24.08,14.28,24.08z"/>
	</g>
</g>
</svg>
