<?xml version="1.0" encoding="utf-8"?>
<!-- Generator: Adobe Illustrator 27.2.0, SVG Export Plug-In . SVG Version: 6.00 Build 0)  -->
<svg version="1.1" id="Calque_1" xmlns="http://www.w3.org/2000/svg" xmlns:xlink="http://www.w3.org/1999/xlink" x="0px" y="0px"
	 viewBox="0 0 48 48" style="enable-background:new 0 0 48 48;" xml:space="preserve">
<style type="text/css">
	.st0{fill:#1C779C;}
	.st1{fill:#010101;}
	.st2{fill:#D8D8D8;}
</style>
<g>
	<g>
		<path class="st0" d="M0.8,15.7c0,1.9,1.5,3.5,3.4,3.5s3.4-1.5,3.4-3.4c0-1.9-1.5-3.5-3.4-3.5S0.8,13.8,0.8,15.7z"/>
		<polygon class="st1" points="2.2,36 35.8,36 38,36 38,38.5 38,45.8 35.8,45.8 35.8,38.5 2.2,38.5 2.2,45.8 0,45.8 0,38.5 0,36 		
			"/>
		<path class="st2" d="M0.3,22c0.1-0.1,0.4-0.2,0.8,0l8.5,8.5H20v-4.3l13.8,0c2.3,0,4.2,1.9,4.2,4.2v4H0v-2.2v-1.8v-8.2
			C0,22.3,0.1,22.1,0.3,22z"/>
		<path class="st0" d="M8.4,21.4l5.1,4.9h5.4v3.2h-8.3l-8-8.1C6.1,18.5,8.4,21.4,8.4,21.4z"/>
	</g>
</g>
<g id="transfer_5_">
	<g>
		<polygon class="st0" points="48,18 30,18 30,21 24,16.5 30,12 30,15 48,15 		"/>
		<polygon class="st0" points="24,9 42,9 42,12 48,7.5 42,3 42,6 24,6 		"/>
	</g>
</g>
</svg>
