<?xml version="1.0" encoding="utf-8"?>
<!-- Generator: Adobe Illustrator 27.2.0, SVG Export Plug-In . SVG Version: 6.00 Build 0)  -->
<svg version="1.1" id="Calque_1" xmlns="http://www.w3.org/2000/svg" xmlns:xlink="http://www.w3.org/1999/xlink" x="0px" y="0px"
	 viewBox="0 0 48 48" style="enable-background:new 0 0 48 48;" xml:space="preserve">
<style type="text/css">
	.st0{fill:#FFFFFF;}
	.st1{fill:#9C9B99;}
</style>
<g>
	<path class="st0" d="M48,44.74c0,1.8-1.46,3.26-3.26,3.26H3.27C1.46,48,0,46.54,0,44.74V3.27C0,1.46,1.46,0,3.27,0h41.47
		C46.54,0,48,1.46,48,3.27V44.74z"/>
	<path class="st1" d="M44.62,3.39v41.23H3.38V3.39H44.62 M44.74,0H3.27C1.46,0,0,1.46,0,3.27v41.47C0,46.54,1.46,48,3.27,48h41.47
		c1.8,0,3.26-1.46,3.26-3.26V3.27C48,1.46,46.54,0,44.74,0L44.74,0z"/>
</g>
</svg>
