<?xml version="1.0" encoding="utf-8"?>
<!-- Generator: Adobe Illustrator 27.2.0, SVG Export Plug-In . SVG Version: 6.00 Build 0)  -->
<svg version="1.1" id="Calque_1" xmlns="http://www.w3.org/2000/svg" xmlns:xlink="http://www.w3.org/1999/xlink" x="0px" y="0px"
	 viewBox="0 0 48 48" style="enable-background:new 0 0 48 48;" xml:space="preserve">
<style type="text/css">
	.st0{fill:#FFFFFF;}
	.st1{fill:#9C9B99;}
	.st2{fill:#39A935;}
</style>
<g>
	<g>
		<path class="st0" d="M48,44.74c0,1.8-1.46,3.26-3.26,3.26H3.27C1.46,48,0,46.54,0,44.74V3.27C0,1.46,1.46,0,3.27,0h41.47
			C46.54,0,48,1.46,48,3.27V44.74z"/>
		<path class="st1" d="M44.62,3.39v41.23H3.38V3.39H44.62 M44.74,0H3.27C1.46,0,0,1.46,0,3.27v41.47C0,46.54,1.46,48,3.27,48h41.47
			c1.8,0,3.26-1.46,3.26-3.26V3.27C48,1.46,46.54,0,44.74,0L44.74,0z"/>
	</g>
	<path class="st2" d="M41.05,15.54l-4.01-4.01c-0.56-0.56-1.47-0.56-2.04,0L21.13,25.41l-8.15-8.14c-0.56-0.57-1.47-0.57-2.03,0
		l-4.01,4.01c-0.56,0.56-0.56,1.47,0,2.03L20.1,36.48c0.28,0.28,0.66,0.42,1.03,0.42c0.37,0,0.74-0.14,1.02-0.42l18.9-18.9
		C41.61,17.01,41.61,16.1,41.05,15.54z"/>
</g>
</svg>
