<?xml version="1.0" encoding="utf-8"?>
<!-- Generator: Adobe Illustrator 25.3.1, SVG Export Plug-In . SVG Version: 6.00 Build 0)  -->
<svg version="1.1" id="Calque_1" xmlns="http://www.w3.org/2000/svg" xmlns:xlink="http://www.w3.org/1999/xlink" x="0px" y="0px"
	 viewBox="0 0 48 48" style="enable-background:new 0 0 48 48;" xml:space="preserve">
<style type="text/css">
	.st0{fill:#1C789D;}
	.st1{fill:#FFFFFF;}
</style>
<g>
	<g>
		<path class="st0" d="M44.8,0h-4v2h2v3h2V0L44.8,0z M36.8,0h-4v2h4V0L36.8,0z M28.8,0h-4v2h4V0L28.8,0z M20.8,0h-4v2h4V0L20.8,0z
			 M16.7,1.9h-2v4h2V1.9L16.7,1.9z M16.7,9.9h-2v4h2V9.9L16.7,9.9z M16.7,17.9h-2v4h2V17.9L16.7,17.9z M16.7,25.9h-2v4h2V25.9
			L16.7,25.9z M16.7,33.9h-2v2.5h2l0,0l0,0l0,0V33.9L16.7,33.9z M24.2,34.5h-4v2h4V34.5L24.2,34.5z M32.2,34.5h-4v2h4V34.5
			L32.2,34.5z M40.2,34.5h-4v2h4V34.5L40.2,34.5z M44.8,33h-2v3.4h1.4l0,0h-1.4h1.4l0,0h0.6V33L44.8,33z M44.8,25h-2v4h2V25L44.8,25
			z M44.8,17h-2v4h2V17L44.8,17z M44.8,9h-2v4h2V9L44.8,9z"/>
	</g>
	<rect x="2.1" y="11.5" class="st0" width="30.1" height="36.5"/>
	<path class="st1" d="M27.6,23.1h-21c-0.3,0-0.5-0.2-0.5-0.5v-3.3c0-0.3,0.2-0.5,0.5-0.5h21c0.3,0,0.5,0.2,0.5,0.5v3.3
		C28.1,22.9,27.9,23.1,27.6,23.1z"/>
	<path class="st1" d="M27.6,29.3h-21c-0.3,0-0.5-0.2-0.5-0.5v-3.3c0-0.3,0.2-0.5,0.5-0.5h21c0.3,0,0.5,0.2,0.5,0.5v3.3
		C28.1,29.1,27.9,29.3,27.6,29.3z"/>
	<path class="st1" d="M27.6,35.6h-21c-0.3,0-0.5-0.2-0.5-0.5v-3.3c0-0.3,0.2-0.5,0.5-0.5h21c0.3,0,0.5,0.2,0.5,0.5v3.3
		C28.1,35.4,27.9,35.6,27.6,35.6z"/>
	<path class="st1" d="M27.6,41.9h-21c-0.3,0-0.5-0.2-0.5-0.5v-3.3c0-0.3,0.2-0.5,0.5-0.5h21c0.3,0,0.5,0.2,0.5,0.5v3.3
		C28.1,41.7,27.9,41.9,27.6,41.9z"/>
</g>
</svg>
