<?xml version="1.0" encoding="utf-8"?>
<!-- Generator: Adobe Illustrator 25.3.1, SVG Export Plug-In . SVG Version: 6.00 Build 0)  -->
<svg version="1.1" id="Calque_1" xmlns="http://www.w3.org/2000/svg" xmlns:xlink="http://www.w3.org/1999/xlink" x="0px" y="0px"
	 viewBox="0 0 48 48" style="enable-background:new 0 0 48 48;" xml:space="preserve">
<style type="text/css">
	.st0{fill:#1C789D;}
	.st1{fill:#FFFFFF;}
</style>
<path class="st0" d="M18.4,39c2,0.1,11.4,1,18-1.9C42.3,34.6,48,29.7,48,21.4c0-8.2-9-16.9-23.8-16.9S0,13.5,0,21.7
	c0,7.6,5.9,12,7.2,13.1c0.8,0.7,0.3,2.5-0.1,4c-0.4,1.3-2.1,5.6,0.9,4.5C11.6,42,15.4,38.8,18.4,39z"/>
<path class="st1" d="M37.5,14.6c0,0.8-0.6,1.4-1.3,1.4H11.9c-0.7,0-1.3-0.6-1.3-1.4l0,0c0-0.8,0.6-1.4,1.3-1.4h24.3
	C36.9,13.2,37.5,13.9,37.5,14.6L37.5,14.6z"/>
<path class="st1" d="M37.5,28.2c0,0.8-0.6,1.4-1.3,1.4H11.8c-0.7,0-1.3-0.6-1.3-1.4l0,0c0-0.8,0.6-1.4,1.3-1.4h24.3
	C36.9,26.8,37.5,27.5,37.5,28.2L37.5,28.2z"/>
<path class="st1" d="M45,21.4c0,0.8-0.7,1.4-1.5,1.4h-39c-0.8,0-1.5-0.6-1.5-1.4l0,0C3,20.7,3.7,20,4.5,20h39
	C44.3,20,45,20.7,45,21.4L45,21.4z"/>
</svg>
