<?xml version="1.0" encoding="utf-8"?>
<!-- Generator: Adobe Illustrator 25.3.1, SVG Export Plug-In . SVG Version: 6.00 Build 0)  -->
<svg version="1.1" id="Calque_1" xmlns="http://www.w3.org/2000/svg" xmlns:xlink="http://www.w3.org/1999/xlink" x="0px" y="0px"
	 viewBox="0 0 48 48" style="enable-background:new 0 0 48 48;" xml:space="preserve">
<style type="text/css">
	.st0{fill:#1C789D;}
	.st1{fill:#FFFFFF;}
</style>
<g>
	<rect x="2.1" y="11.5" class="st0" width="30.1" height="36.5"/>
	<path class="st1" d="M27.6,23.1h-21c-0.3,0-0.5-0.2-0.5-0.5v-3.3c0-0.3,0.2-0.5,0.5-0.5h21c0.3,0,0.5,0.2,0.5,0.5v3.3
		C28.1,22.9,27.9,23.1,27.6,23.1z"/>
	<path class="st1" d="M27.6,29.3h-21c-0.3,0-0.5-0.2-0.5-0.5v-3.3c0-0.3,0.2-0.5,0.5-0.5h21c0.3,0,0.5,0.2,0.5,0.5v3.3
		C28.1,29.1,27.9,29.3,27.6,29.3z"/>
	<path class="st1" d="M27.6,35.6h-21c-0.3,0-0.5-0.2-0.5-0.5v-3.3c0-0.3,0.2-0.5,0.5-0.5h21c0.3,0,0.5,0.2,0.5,0.5v3.3
		C28.1,35.4,27.9,35.6,27.6,35.6z"/>
	<path class="st1" d="M27.6,41.9h-21c-0.3,0-0.5-0.2-0.5-0.5v-3.3c0-0.3,0.2-0.5,0.5-0.5h21c0.3,0,0.5,0.2,0.5,0.5v3.3
		C28.1,41.7,27.9,41.9,27.6,41.9z"/>
</g>
<g>
	<rect x="14.7" class="st0" width="30.1" height="36.5"/>
	<path class="st1" d="M40.2,11.5h-21c-0.3,0-0.5-0.2-0.5-0.5V7.8c0-0.3,0.2-0.5,0.5-0.5h21c0.3,0,0.5,0.2,0.5,0.5v3.3
		C40.7,11.3,40.5,11.5,40.2,11.5z"/>
	<path class="st1" d="M40.2,17.8h-21c-0.3,0-0.5-0.2-0.5-0.5V14c0-0.3,0.2-0.5,0.5-0.5h21c0.3,0,0.5,0.2,0.5,0.5v3.3
		C40.7,17.6,40.5,17.8,40.2,17.8z"/>
	<path class="st1" d="M40.2,24.1h-21c-0.3,0-0.5-0.2-0.5-0.5v-3.3c0-0.3,0.2-0.5,0.5-0.5h21c0.3,0,0.5,0.2,0.5,0.5v3.3
		C40.7,23.9,40.5,24.1,40.2,24.1z"/>
	<path class="st1" d="M40.2,30.3h-21c-0.3,0-0.5-0.2-0.5-0.5v-3.3c0-0.3,0.2-0.5,0.5-0.5h21c0.3,0,0.5,0.2,0.5,0.5v3.3
		C40.7,30.1,40.5,30.3,40.2,30.3z"/>
</g>
</svg>
