<?xml version="1.0" encoding="utf-8"?>
<!-- Generator: Adobe Illustrator 27.2.0, SVG Export Plug-In . SVG Version: 6.00 Build 0)  -->
<svg version="1.1" id="Calque_1" xmlns="http://www.w3.org/2000/svg" xmlns:xlink="http://www.w3.org/1999/xlink" x="0px" y="0px"
	 viewBox="0 0 48 48" style="enable-background:new 0 0 48 48;" xml:space="preserve">
<style type="text/css">
	.st0{fill:#585758;}
	.st1{fill:#585856;}
	.st2{fill:#FFFFFF;}
	.st3{fill:#9B9A9A;}
</style>
<g>
	<g>
		<g>
			<path class="st0" d="M45.66,37.62c0,0.58-0.48,1.05-1.06,1.05H9.56c-0.59,0-1.06-0.47-1.06-1.05V15.54
				c0-0.58,0.48-1.05,1.06-1.05H44.6c0.58,0,1.06,0.47,1.06,1.05V37.62z"/>
			<path class="st1" d="M44.6,41H9.56c-1.88,0-3.4-1.51-3.4-3.38V15.54c0-1.86,1.53-3.38,3.4-3.38H44.6c1.88,0,3.4,1.51,3.4,3.38
				v22.09C48,39.49,46.47,41,44.6,41z M10.84,36.35h32.48V16.81H10.84V36.35z"/>
		</g>
		<path class="st2" d="M27.08,29.46L44.5,14.48H9.66L27.08,29.46z M22.37,27.8l4.7,3.83l4.63-3.83L44.5,38.68H9.66L22.37,27.8z
			 M8.49,37.53V15.64l12.77,10.94L8.49,37.53z M45.66,37.53V15.64L32.88,26.58L45.66,37.53z"/>
	</g>
	<g>
		<g>
			<path class="st3" d="M39.51,32.46c0,0.58-0.48,1.05-1.06,1.05H3.4c-0.59,0-1.06-0.47-1.06-1.05V10.38c0-0.58,0.48-1.05,1.06-1.05
				h35.04c0.58,0,1.06,0.47,1.06,1.05V32.46z"/>
			<path class="st3" d="M38.45,35.84H3.4c-1.88,0-3.4-1.51-3.4-3.38V10.38C0,8.51,1.53,7,3.4,7h35.04c1.88,0,3.4,1.51,3.4,3.38
				v22.09C41.85,34.32,40.32,35.84,38.45,35.84z M4.68,31.19h32.48V11.65H4.68V31.19z"/>
		</g>
		<path class="st2" d="M20.92,24.3L38.34,9.32H3.5L20.92,24.3z M16.22,22.64l4.7,3.83l4.63-3.83l12.79,10.88H3.5L16.22,22.64z
			 M2.34,32.36V10.48l12.77,10.94L2.34,32.36z M39.51,32.36V10.48L26.73,21.42L39.51,32.36z"/>
	</g>
</g>
</svg>
