<?xml version="1.0" encoding="utf-8"?>
<!-- Generator: Adobe Illustrator 25.3.1, SVG Export Plug-In . SVG Version: 6.00 Build 0)  -->
<svg version="1.1" id="Calque_1" xmlns="http://www.w3.org/2000/svg" xmlns:xlink="http://www.w3.org/1999/xlink" x="0px" y="0px"
	 viewBox="0 0 48 48" style="enable-background:new 0 0 48 48;" xml:space="preserve">
<style type="text/css">
	.st0{fill:#FFFFFF;}
	.st1{fill:#1C789D;}
	.st2{fill:#1E789D;}
	.st3{fill-rule:evenodd;clip-rule:evenodd;fill:#3DAC48;}
</style>
<g>
	<g id="path26_95_">
		<path class="st0" d="M27.5,41.5c-0.1,0-0.3-0.1-0.3-0.3V22.5l8.9-8.9h10.6c0.1,0,0.3,0.1,0.3,0.3v27.3c0,0.1-0.1,0.3-0.3,0.3H27.5
			z"/>
		<path class="st1" d="M46,14.6v25.8H28.2V22.9l8.3-8.3H46 M46.7,12.6H35.7l-9.5,9.5v19.1c0,0.7,0.6,1.3,1.3,1.3h19.3
			c0.7,0,1.3-0.6,1.3-1.3V13.9C48,13.2,47.4,12.6,46.7,12.6L46.7,12.6z"/>
	</g>
	<path id="path32_55_" class="st2" d="M35.7,12.6l-9.5,9.5h8.2c0.7,0,1.3-0.6,1.3-1.3V12.6z"/>
</g>
<g>
	<g id="path26_88_">
		<path class="st0" d="M20.6,34.4c-0.1,0-0.3-0.1-0.3-0.3V15.4l8.9-8.9h10.6c0.1,0,0.3,0.1,0.3,0.3v27.3c0,0.1-0.1,0.3-0.3,0.3H20.6
			z"/>
		<path class="st1" d="M39.1,7.5v25.8H21.3V15.8l8.3-8.3H39.1 M39.8,5.5H28.8L19.3,15v19.1c0,0.7,0.6,1.3,1.3,1.3h19.3
			c0.7,0,1.3-0.6,1.3-1.3V6.8C41.1,6.1,40.5,5.5,39.8,5.5L39.8,5.5z"/>
	</g>
	<path id="path32_54_" class="st2" d="M28.8,5.5L19.3,15h8.2c0.7,0,1.3-0.6,1.3-1.3V5.5z"/>
</g>
<polygon class="st3" points="0,25.2 15.6,12.6 15.6,19 24.8,19 24.8,31.4 15.6,31.4 15.6,37.8 "/>
</svg>
