<?xml version="1.0" encoding="utf-8"?>
<!-- Generator: Adobe Illustrator 25.3.1, SVG Export Plug-In . SVG Version: 6.00 Build 0)  -->
<svg version="1.1" id="Calque_1" xmlns="http://www.w3.org/2000/svg" xmlns:xlink="http://www.w3.org/1999/xlink" x="0px" y="0px"
	 viewBox="0 0 48 48" style="enable-background:new 0 0 48 48;" xml:space="preserve">
<style type="text/css">
	.st0{fill:#FFFFFF;}
	.st1{fill:#1C789D;}
	.st2{fill:#1E789D;}
	.st3{fill-rule:evenodd;clip-rule:evenodd;fill:#3DAC48;}
</style>
<g>
	<g id="path26_99_">
		<path class="st0" d="M1.3,41.5c-0.1,0-0.3-0.1-0.3-0.3V13.9c0-0.1,0.1-0.3,0.3-0.3h10.6l8.9,8.9v18.7c0,0.1-0.1,0.3-0.3,0.3H1.3z"
			/>
		<path class="st1" d="M11.5,14.6l8.3,8.3v17.5H2V14.6H11.5 M12.3,12.6H1.3c-0.7,0-1.3,0.6-1.3,1.3v27.3c0,0.7,0.6,1.3,1.3,1.3h19.3
			c0.7,0,1.3-0.6,1.3-1.3V22.1L12.3,12.6L12.3,12.6z"/>
	</g>
	<path id="path32_57_" class="st2" d="M12.3,12.6l9.5,9.5h-8.2c-0.7,0-1.3-0.6-1.3-1.3V12.6z"/>
</g>
<g>
	<g id="path26_97_">
		<path class="st0" d="M8.2,34.4c-0.1,0-0.3-0.1-0.3-0.3V6.8c0-0.1,0.1-0.3,0.3-0.3h10.6l8.9,8.9v18.7c0,0.1-0.1,0.3-0.3,0.3H8.2z"
			/>
		<path class="st1" d="M18.4,7.5l8.3,8.3v17.5H8.9V7.5H18.4 M19.2,5.5H8.2c-0.7,0-1.3,0.6-1.3,1.3v27.3c0,0.7,0.6,1.3,1.3,1.3h19.3
			c0.7,0,1.3-0.6,1.3-1.3V15L19.2,5.5L19.2,5.5z"/>
	</g>
	<path id="path32_56_" class="st2" d="M19.2,5.5l9.5,9.5h-8.2c-0.7,0-1.3-0.6-1.3-1.3V5.5z"/>
</g>
<polygon class="st3" points="48,25.2 32.4,12.6 32.4,19 23.2,19 23.2,31.4 32.4,31.4 32.4,37.8 "/>
</svg>
