<?xml version="1.0" encoding="utf-8"?>
<!-- Generator: Adobe Illustrator 25.4.1, SVG Export Plug-In . SVG Version: 6.00 Build 0)  -->
<svg version="1.1" id="Capa_1" xmlns="http://www.w3.org/2000/svg" xmlns:xlink="http://www.w3.org/1999/xlink" x="0px" y="0px"
	 viewBox="0 0 48 48" style="enable-background:new 0 0 48 48;" xml:space="preserve">
<style type="text/css">
	.st0{fill:#1C779C;}
</style>
<g>
	<g>
		<path class="st0" d="M41.8,38.3c-0.6-2.9-2.9-5.3-5.8-6c-2-0.5-4-0.3-5.8,0.7L28,27.9l8.6-20.7c0.3-0.6,0.4-1.3,0.4-2
			c0-1.7-0.8-3.3-2.3-4.2l-1.2-0.8C33.3,0,33,0,32.7,0s-0.5,0.3-0.6,0.6L24,18.9L15.9,0.6c-0.1-0.3-0.4-0.5-0.6-0.6
			C15,0,14.7,0,14.4,0.2L13.2,1C11.8,1.9,11,3.5,11,5.2c0,0.7,0.1,1.3,0.4,2L20,27.9L17.8,33c-1.2-0.6-2.4-1-3.8-1c-4.4,0-8,3.6-8,8
			s3.6,8,8,8c4.4,0,8-3.6,8-8c0-3,1-5.1,2-6.6c1,1.4,1.9,3.5,2,6.3c0.1,4.4,3.4,8.1,7.6,8.3c0.1,0,0.3,0,0.4,0c2.3,0,4.5-1,6.1-2.8
			C41.7,43.3,42.4,40.8,41.8,38.3z M14,44c-2.2,0-4-1.8-4-4c0-2.2,1.8-4,4-4s4,1.8,4,4C18,42.2,16.2,44,14,44z M24,30
			c-1.1,0-2-0.9-2-2s0.9-2,2-2c1.1,0,2,0.9,2,2S25.1,30,24,30z M34,44c-2.2,0-4-1.8-4-4c0-2.2,1.8-4,4-4s4,1.8,4,4
			C38,42.2,36.2,44,34,44z"/>
	</g>
</g>
</svg>
