<?xml version="1.0" encoding="utf-8"?>
<!-- Generator: Adobe Illustrator 25.4.1, SVG Export Plug-In . SVG Version: 6.00 Build 0)  -->
<svg version="1.1" id="Calque_1" xmlns="http://www.w3.org/2000/svg" xmlns:xlink="http://www.w3.org/1999/xlink" x="0px" y="0px"
	 viewBox="0 0 48 48" style="enable-background:new 0 0 48 48;" xml:space="preserve">
<style type="text/css">
	.st0{fill:#FFFFFF;}
	.st1{fill:#312782;}
</style>
<g id="path26_50_">
	<path class="st0" d="M8.5,47c-0.57,0-1.04-0.46-1.04-1.04V2.04C7.46,1.46,7.93,1,8.5,1h17.39l14.65,14.65v30.31
		c0,0.57-0.46,1.04-1.04,1.04H8.5z"/>
	<path class="st1" d="M25.47,2l14.07,14.07v29.9c0,0.02-0.02,0.04-0.04,0.04h-31c-0.02,0-0.04-0.02-0.04-0.04V2.04
		C8.46,2.02,8.48,2,8.5,2H25.47 M26.3,0H8.5C7.37,0,6.46,0.91,6.46,2.04v43.93C6.46,47.09,7.37,48,8.5,48h31
		c1.12,0,2.04-0.91,2.04-2.04V15.24L26.3,0L26.3,0z"/>
</g>
<path id="path32_32_" class="st1" d="M26.3,0l15.24,15.24h-13.2c-1.12,0-2.04-0.91-2.04-2.04V0z"/>
<rect x="2.97" y="20.62" class="st1" width="42.06" height="20.61"/>
<g>
	<path class="st0" d="M18.27,36.7c-0.49,0.24-1.59,0.51-3.02,0.51c-4.07,0-6.17-2.53-6.17-5.89c0-4.02,2.87-6.26,6.43-6.26
		c1.38,0,2.43,0.28,2.9,0.52l-0.54,2.11c-0.54-0.23-1.29-0.44-2.24-0.44c-2.12,0-3.76,1.28-3.76,3.9c0,2.36,1.4,3.85,3.77,3.85
		c0.8,0,1.7-0.18,2.22-0.38L18.27,36.7z"/>
	<path class="st0" d="M20.11,34.29c0.72,0.37,1.82,0.73,2.95,0.73c1.22,0,1.87-0.51,1.87-1.28c0-0.73-0.56-1.15-1.97-1.66
		c-1.96-0.68-3.23-1.77-3.23-3.48c0-2.01,1.68-3.55,4.46-3.55c1.33,0,2.31,0.28,3.01,0.59l-0.59,2.15
		c-0.47-0.23-1.31-0.56-2.46-0.56c-1.15,0-1.71,0.52-1.71,1.14c0,0.75,0.66,1.08,2.19,1.66c2.08,0.77,3.06,1.85,3.06,3.51
		c0,1.97-1.52,3.65-4.75,3.65c-1.35,0-2.67-0.35-3.34-0.72L20.11,34.29z"/>
	<path class="st0" d="M32.24,37.03l-3.77-11.78h2.92l1.43,4.98c0.4,1.4,0.77,2.74,1.05,4.21h0.05c0.3-1.42,0.66-2.81,1.07-4.16
		l1.5-5.03h2.83l-3.97,11.78H32.24z"/>
</g>
</svg>
