<?xml version="1.0" encoding="utf-8"?>
<!-- Generator: Adobe Illustrator 27.2.0, SVG Export Plug-In . SVG Version: 6.00 Build 0)  -->
<svg version="1.1" id="Calque_1" xmlns="http://www.w3.org/2000/svg" xmlns:xlink="http://www.w3.org/1999/xlink" x="0px" y="0px"
	 viewBox="0 0 48 48" style="enable-background:new 0 0 48 48;" xml:space="preserve">
<style type="text/css">
	.st0{fill:#010101;}
	.st1{fill:#92C01F;}
</style>
<g>
	<polygon class="st0" points="0,24 21.36,26.36 21.36,24 21.36,21.64 	"/>
	<path class="st1" d="M45.89,15.22l-3.83,3.54c0,0-6.15-0.16-10.2-0.16c-3.13-7.87-8.74-8.03-9.59-8.09
		c-0.85-0.05-1.09,1.34-1.09,1.34v24.32c0,0,0.23,1.39,1.09,1.34c0.86-0.05,6.46-0.21,9.59-8.09c4.05,0,10.2-0.16,10.2-0.16
		l3.83,3.53c0,0,2.11,1.77,2.11-0.8c0-2.02,0-13.94,0-15.96C48,13.45,45.89,15.22,45.89,15.22z"/>
</g>
</svg>
