<?xml version="1.0" encoding="utf-8"?>
<!-- Generator: Adobe Illustrator 27.2.0, SVG Export Plug-In . SVG Version: 6.00 Build 0)  -->
<svg version="1.1" id="Calque_1" xmlns="http://www.w3.org/2000/svg" xmlns:xlink="http://www.w3.org/1999/xlink" x="0px" y="0px"
	 viewBox="0 0 48 48" style="enable-background:new 0 0 48 48;" xml:space="preserve">
<style type="text/css">
	.st0{fill:#20527D;}
	.st1{fill:#75C5C1;}
	.st2{fill:#F08151;}
</style>
<g>
	<g>
		<path class="st0" d="M14.5,21.5c0-1.1,1.1-2.2,2.4-1.9c0.5,0.1,0.8,0.5,1.1,0.9l3.7,7.1l3.6-6.9c0.4-0.8,1.2-1.2,2.1-1.2
			c0.7,0,1.4,0.6,1.4,1.4v12.9c-0.4,0-0.9,0-1.3,0c-0.1,0-0.3,0-0.4,0c-0.6-0.1-1-0.7-1.1-1.3v-8.1l-3.7,7c-0.5,0-1,0-1.5,0l-3.7-7
			c0,0.1,0,0.2,0,0.3c0,2.6,0,5.2,0,7.8c0,0.7-0.5,1.4-1.4,1.4c-0.5,0-0.9,0-1.4,0L14.5,21.5z"/>
		<path class="st0" d="M0,21.6c0-1.2,1-2,1.9-2c1.5,0,3-0.1,4.6,0.1c2.4,0.3,4.7,1.9,5.4,4.5c0.5,1.8,0.5,3.5-0.1,5.3
			c-0.6,1.9-1.9,3.2-3.8,3.9C7.1,33.8,6.2,34,5.2,34H0V21.6z M3.2,22c-0.2,0-0.3,0.2-0.3,0.4v9h2.5c0.4,0,0.7,0,1.1-0.1
			C7.9,31,8.8,30,9.2,28.6c0.3-1,0.3-2,0.1-3c-0.1-0.7-0.4-1.3-0.8-1.9c-0.7-1-1.7-1.4-2.9-1.5L3.2,22z"/>
		<path class="st0" d="M35.3,22c-0.4,0-0.5,0.1-0.5,0.5v4.1h3c1.2,0,1.7-0.7,1.9-1.6c0,0,0.1-0.5,0.1-1c0,0,1.9,0,2.8,0
			c0,0.2,0,0.5,0,0.7c-0.1,1.1-0.5,2.2-1.3,3c-0.9,0.9-2,1.4-3.2,1.4h-3.3v3.4c0,0.4-0.1,0.7-0.4,1c-0.2,0.2-0.5,0.3-0.8,0.3
			c-0.5,0-1.1,0-1.6,0v-12c0-1.3,1-2.3,2.3-2.3c1.3,0,2.6,0,4,0c0,0.8,0,1.6,0,2.4L35.3,22z"/>
	</g>
	<path class="st1" d="M39.8,20.4L39.8,20.4c0.5,0,0.8-0.4,0.8-0.8v-4.8c0-0.5-0.4-0.8-0.8-0.8l0,0c-0.5,0-0.8,0.4-0.8,0.8v4.8
		C38.9,20,39.3,20.4,39.8,20.4z"/>
	<path class="st2" d="M41.6,22.5L41.6,22.5c0,0.5,0.4,0.8,0.8,0.8h4.8c0.5,0,0.8-0.4,0.8-0.8l0,0c0-0.5-0.4-0.8-0.8-0.8h-4.8
		C42,21.7,41.6,22.1,41.6,22.5z"/>
	<path class="st0" d="M41.3,21L41.3,21c0.3,0.3,0.9,0.3,1.2,0l3.3-3.4c0.3-0.3,0.3-0.9,0-1.2l0,0c-0.3-0.3-0.9-0.3-1.2,0l-3.3,3.4
		C41,20.1,41,20.7,41.3,21z"/>
</g>
</svg>
