<?xml version="1.0" encoding="utf-8"?>
<!-- Generator: Adobe Illustrator 27.2.0, SVG Export Plug-In . SVG Version: 6.00 Build 0)  -->
<svg version="1.1" id="Calque_1" xmlns="http://www.w3.org/2000/svg" xmlns:xlink="http://www.w3.org/1999/xlink" x="0px" y="0px"
	 viewBox="0 0 48 48" style="enable-background:new 0 0 48 48;" xml:space="preserve">
<style type="text/css">
	.st0{fill:#28527E;}
</style>
<g>
	<path class="st0" d="M9.2,5.1C7.7,6.3,6.3,7.7,5.1,9.2C1.9,13.3,0,18.4,0,24c0,13.3,10.7,24,24,24c5.6,0,10.7-1.9,14.8-5.1
		c1.5-1.2,2.9-2.5,4.1-4.1C46.1,34.7,48,29.6,48,24C48,10.8,37.2,0,24,0C18.4,0,13.3,1.9,9.2,5.1z M24,40.1
		c-8.9,0-16.1-7.2-16.1-16.1c0-3.4,1.1-6.6,2.9-9.2l22.4,22.4C30.6,39.1,27.4,40.1,24,40.1z M40.1,24c0,3.4-1.1,6.6-2.9,9.2
		L14.8,10.8C17.4,9,20.6,7.9,24,7.9C32.9,7.9,40.1,15.1,40.1,24z"/>
</g>
</svg>
