<?xml version="1.0" encoding="utf-8"?>
<!-- Generator: Adobe Illustrator 27.2.0, SVG Export Plug-In . SVG Version: 6.00 Build 0)  -->
<svg version="1.1" id="Calque_1" xmlns="http://www.w3.org/2000/svg" xmlns:xlink="http://www.w3.org/1999/xlink" x="0px" y="0px"
	 viewBox="0 0 48 48" style="enable-background:new 0 0 48 48;" xml:space="preserve">
<style type="text/css">
	.st0{fill:#A46A25;}
	.st1{fill:#C79B66;}
	.st2{fill:#916036;}
</style>
<g>
	<path class="st0" d="M43.93,8.32L2.42,10.55c-1.42,0.08-2.5,1.35-2.42,2.84l1.35,25.29c0.08,1.49,1.29,2.64,2.71,2.56l41.51-2.23
		c1.42-0.07,2.5-1.34,2.42-2.84l-1.36-25.29C46.56,9.4,45.35,8.25,43.93,8.32z"/>
	<path class="st1" d="M45.42,12.14H19.04l-2.15-5.39H3.96C2.55,6.75,1.4,7.9,1.4,9.31v29.37c0,1.41,1.15,2.56,2.56,2.56h41.46
		c1.42,0,2.56-1.15,2.56-2.56V14.7C47.99,13.29,46.84,12.14,45.42,12.14z"/>
	<path class="st2" d="M21,25.43c-0.63,0.24-4.94,2.07-5.49,7.26c-0.05,1.56,0.84,1.89,0.84,1.89l0,0c0,0,0.36,0.35,0.94,0.48
		c0.12,0.37,0.32,0.67,0.57,0.92l0,0c0,0,0.43,1.13,4.69,1.34c0.06,0.01,0.13,0.02,0.19,0.03h1.06c0.13,0,0.27,0,0.41,0h1.22
		c0.11-0.02,0.21-0.04,0.32-0.05c4.38-0.29,4.84-1.66,4.84-1.66v0c0.12-0.17,0.21-0.36,0.28-0.58c1.99-0.39,1.84-2.77,1.24-4.59
		c-0.83-2.53-2.94-4.28-5.15-5.06c1.05-0.85,1.73-2.13,1.73-3.57c0-2.55-2.11-4.62-4.72-4.62c-2.6,0-4.71,2.07-4.71,4.62
		C19.24,23.29,19.93,24.59,21,25.43"/>
</g>
</svg>
