<?xml version="1.0" encoding="utf-8"?>
<!-- Generator: Adobe Illustrator 27.2.0, SVG Export Plug-In . SVG Version: 6.00 Build 0)  -->
<svg version="1.1" id="Calque_1" xmlns="http://www.w3.org/2000/svg" xmlns:xlink="http://www.w3.org/1999/xlink" x="0px" y="0px"
	 viewBox="0 0 48 48" style="enable-background:new 0 0 48 48;" xml:space="preserve">
<style type="text/css">
	.st0{fill:#F19001;}
	.st1{clip-path:url(#SVGID_00000181774645077085830520000016569006857729037445_);}
	.st2{fill:#FFFFFF;}
	.st3{fill:#426D80;}
	.st4{fill:#868686;}
</style>
<g>
	<g>
		<path class="st0" d="M18.94,5.83c1.22-0.93,2.64-1.71,4.34-2.18c0.86-0.2,1.79-0.33,2.78-0.28c0.49,0.04,1,0.08,1.48,0.23
			l0.74,0.2l0.7,0.29c1.88,0.83,3.16,2.27,4.08,3.64c0.9,1.41,1.5,2.87,1.93,4.32l-5.74,0.96c-0.18-1.21-0.41-2.4-0.79-3.47
			c-0.35-1.09-0.9-2-1.64-2.68c-0.74-0.68-1.86-1.16-3.28-1.27C22.12,5.45,20.57,5.64,18.94,5.83z"/>
		<g>
			<polygon class="st0" points="24.91,11.39 32.87,21.05 38.54,10.24 			"/>
		</g>
	</g>
	<g>
		<defs>
			<path id="SVGID_1_" d="M2,35.19L2.25,1.37L4.61,0l20.38,0.87c0,0,3.03,1.52-0.29,1.37c-4.69-0.22-8.2,4.39-8.2,4.39
				s6.45-0.09,8.21,0.92c2.93,1.69-2,4.18-2,4.18l10.32,12.44l6.38-11.61l6.59,5.6v28.1L31.58,48l-18.77-3.11L2,35.19z"/>
		</defs>
		<clipPath id="SVGID_00000114795995408435805960000012394685733480712377_">
			<use xlink:href="#SVGID_1_"  style="overflow:visible;"/>
		</clipPath>
		<g style="clip-path:url(#SVGID_00000114795995408435805960000012394685733480712377_);">
			<path class="st2" d="M21.72,2.65H6.19c-0.67,0-1.22,0.55-1.22,1.24v25.2c0,0.68,0.54,1.24,1.22,1.24H26.8
				c0.67,0,1.22-0.55,1.22-1.24V8.36L21.72,2.65z"/>
			<path class="st3" d="M24.75,9.1c0,0.87-0.7,1.57-1.57,1.57H9.16c-0.87,0-1.57-0.7-1.57-1.57l0,0c0-0.87,0.7-1.57,1.57-1.57h14.01
				C24.04,7.52,24.75,8.23,24.75,9.1L24.75,9.1z"/>
			<path class="st3" d="M24.75,14.48c0,0.87-0.7,1.57-1.57,1.57H9.16c-0.87,0-1.57-0.7-1.57-1.57l0,0c0-0.87,0.7-1.58,1.57-1.58
				h14.01C24.04,12.9,24.75,13.61,24.75,14.48L24.75,14.48z"/>
			<path class="st3" d="M24.75,19.85c0,0.87-0.7,1.58-1.57,1.58H9.16c-0.87,0-1.57-0.71-1.57-1.58l0,0c0-0.87,0.7-1.57,1.57-1.57
				h14.01C24.04,18.28,24.75,18.99,24.75,19.85L24.75,19.85z"/>
			<path class="st3" d="M24.75,25.24c0,0.87-0.7,1.57-1.57,1.57H9.16c-0.87,0-1.57-0.7-1.57-1.57l0,0c0-0.87,0.7-1.58,1.57-1.58
				h14.01C24.04,23.66,24.75,24.36,24.75,25.24L24.75,25.24z"/>
			<path class="st4" d="M22.54,1.41H7.3c-1.97,0-3.56,1.6-3.56,3.56v23.27c0,1.97,1.6,3.56,3.56,3.56h17.74
				c1.96,0,3.56-1.6,3.56-3.56v-2.29v-1.78v-9.07v-1.1V7.47l0,0L22.54,1.41z M26.69,24.18L26.69,24.18l0,4.06
				c0,0.91-0.74,1.64-1.64,1.64H7.3c-0.91,0-1.64-0.74-1.64-1.64V4.97c0-0.91,0.74-1.64,1.64-1.64h15.25v0.58
				c0,1.96,1.59,3.56,3.56,3.56h0.58v7.64h0V24.18z"/>
			<path class="st2" d="M37.78,15.72H22.26c-0.67,0-1.22,0.55-1.22,1.24v25.2c0,0.68,0.55,1.24,1.22,1.24h20.61
				c0.67,0,1.22-0.55,1.22-1.24V21.42L37.78,15.72z"/>
			<path class="st3" d="M40.81,22.16c0,0.87-0.7,1.57-1.57,1.57H25.22c-0.87,0-1.57-0.7-1.57-1.57l0,0c0-0.87,0.7-1.57,1.57-1.57
				h14.01C40.11,20.59,40.81,21.29,40.81,22.16L40.81,22.16z"/>
			<path class="st3" d="M40.81,27.54c0,0.87-0.7,1.57-1.57,1.57H25.22c-0.87,0-1.57-0.7-1.57-1.57l0,0c0-0.87,0.7-1.58,1.57-1.58
				h14.01C40.11,25.97,40.81,26.67,40.81,27.54L40.81,27.54z"/>
			<path class="st3" d="M40.81,32.92c0,0.87-0.7,1.58-1.57,1.58H25.22c-0.87,0-1.57-0.71-1.57-1.58l0,0c0-0.87,0.7-1.57,1.57-1.57
				h14.01C40.11,31.35,40.81,32.05,40.81,32.92L40.81,32.92z"/>
			<path class="st3" d="M40.81,38.3c0,0.87-0.7,1.57-1.57,1.57H25.22c-0.87,0-1.57-0.7-1.57-1.57l0,0c0-0.87,0.7-1.58,1.57-1.58
				h14.01C40.11,36.73,40.81,37.43,40.81,38.3L40.81,38.3z"/>
			<path class="st4" d="M38.6,14.48H23.36c-1.96,0-3.56,1.6-3.56,3.56v23.27c0,1.97,1.6,3.56,3.56,3.56H41.1
				c1.96,0,3.56-1.6,3.56-3.56v-2.29v-1.78v-9.07v-1.1v-6.55l0,0L38.6,14.48z M42.74,37.24L42.74,37.24l0,4.06
				c0,0.91-0.74,1.64-1.64,1.64H23.36c-0.91,0-1.64-0.74-1.64-1.64V18.04c0-0.91,0.74-1.64,1.64-1.64H38.6v0.58
				c0,1.96,1.6,3.56,3.56,3.56h0.58v7.64h0V37.24z"/>
		</g>
	</g>
</g>
</svg>
