<?xml version="1.0" encoding="utf-8"?>
<!-- Generator: Adobe Illustrator 27.2.0, SVG Export Plug-In . SVG Version: 6.00 Build 0)  -->
<svg version="1.1" id="Calque_1" xmlns="http://www.w3.org/2000/svg" xmlns:xlink="http://www.w3.org/1999/xlink" x="0px" y="0px"
	 viewBox="0 0 48 48" style="enable-background:new 0 0 48 48;" xml:space="preserve">
<style type="text/css">
	.st0{fill:#FFFFFF;}
	.st1{fill-rule:evenodd;clip-rule:evenodd;fill:#39A935;}
	.st2{fill:#1C779C;}
</style>
<g>
	<path class="st0" d="M34.41,33.79c0,0.6-0.52,1.09-1.16,1.09H3.21c-0.64,0-1.16-0.49-1.16-1.09V14.21c0-0.6,0.52-1.09,1.16-1.09
		h30.03c0.64,0,1.16,0.49,1.16,1.09V33.79z"/>
	<polygon class="st1" points="48,24 39.09,16.73 39.09,20.41 33.8,20.41 33.8,27.59 39.09,27.59 39.09,31.27 	"/>
	<path class="st2" d="M33,10.75H3.46C1.55,10.75,0,12.31,0,14.23v19.53c0,1.92,1.55,3.48,3.46,3.48H33c1.91,0,3.46-1.56,3.46-3.48
		V14.23C36.46,12.31,34.91,10.75,33,10.75z M19.3,26.14c-0.59,0.6-1.55,0.6-2.14,0L4.82,13.74h26.81L19.3,26.14z M11.15,23.9
		l-8.18,8.23V15.67L11.15,23.9z M13.06,25.82l4.1,4.13c0.59,0.6,1.55,0.6,2.14,0l4.1-4.13l8.4,8.45H4.66L13.06,25.82z M25.31,23.9
		l8.18-8.23v16.47L25.31,23.9z"/>
</g>
</svg>
