<?xml version="1.0" encoding="utf-8"?>
<!-- Generator: Adobe Illustrator 27.2.0, SVG Export Plug-In . SVG Version: 6.00 Build 0)  -->
<svg version="1.1" id="Calque_1" xmlns="http://www.w3.org/2000/svg" xmlns:xlink="http://www.w3.org/1999/xlink" x="0px" y="0px"
	 viewBox="0 0 48 48" style="enable-background:new 0 0 48 48;" xml:space="preserve">
<style type="text/css">
	.st0{fill:#1C779C;}
</style>
<g>
	<path class="st0" d="M46.82,1.59L0.35,25.23c-0.62,0.33-0.35,1.65,0.32,1.88l12.76,4.43l25.64-20.95L19.84,33.81l22.42,7.92
		c0.49,0.17,1.01-0.15,1.07-0.66L47.99,2.4C48.07,1.76,47.39,1.29,46.82,1.59z"/>
	<path class="st0" d="M17.93,36.38v9.69c0,0.24,0.19,0.43,0.43,0.43h1.34c0.13,0,0.26-0.06,0.34-0.17l5.77-7.17
		c0.18-0.23,0.08-0.57-0.2-0.67l-7.11-2.52C18.23,35.87,17.93,36.08,17.93,36.38z"/>
</g>
</svg>
