<?xml version="1.0" encoding="utf-8"?>
<!-- Generator: Adobe Illustrator 27.2.0, SVG Export Plug-In . SVG Version: 6.00 Build 0)  -->
<svg version="1.1" id="Calque_1" xmlns="http://www.w3.org/2000/svg" xmlns:xlink="http://www.w3.org/1999/xlink" x="0px" y="0px"
	 viewBox="0 0 48 48" style="enable-background:new 0 0 48 48;" xml:space="preserve">
<style type="text/css">
	.st0{fill:#1D1E1C;}
	.st1{fill:#92C01F;}
</style>
<g>
	<path class="st0" d="M8.81,39.19c0.69,0.69,1.48,1.2,2.32,1.56l4.09-3.27l-2.35-2.35l-2.34-2.34l-3.27,4.09
		C7.61,37.72,8.12,38.51,8.81,39.19z"/>
	<path class="st1" d="M28.37,2.16l-0.27,7.3c0,0-6.23,5.91-10.23,9.91C6.94,14.63,1.24,20.01,0.34,20.8
		c-0.9,0.79,0.26,2.41,0.26,2.41L24.8,47.4c0,0,1.61,1.15,2.4,0.26c0.79-0.9,6.17-6.6,1.43-17.52c4-4,9.91-10.23,9.91-10.23
		l7.3-0.27c0,0,3.84-0.32,1.28-2.88C45.11,14.75,33.25,2.89,31.24,0.88C28.68-1.68,28.37,2.16,28.37,2.16z"/>
</g>
</svg>
