<?xml version="1.0" encoding="utf-8"?>
<!-- Generator: Adobe Illustrator 27.2.0, SVG Export Plug-In . SVG Version: 6.00 Build 0)  -->
<svg version="1.1" id="Calque_1" xmlns="http://www.w3.org/2000/svg" xmlns:xlink="http://www.w3.org/1999/xlink" x="0px" y="0px"
	 viewBox="0 0 48 48" style="enable-background:new 0 0 48 48;" xml:space="preserve">
<style type="text/css">
	.st0{fill:#BD1823;}
	.st1{fill:#FFFFFF;}
</style>
<g>
	<ellipse transform="matrix(0.3827 -0.9239 0.9239 0.3827 -7.3575 36.9887)" class="st0" cx="24" cy="24" rx="24" ry="24"/>
	<g>
		<path class="st1" d="M22.27,28.69l-2.84-16.5c-0.05-0.28-0.07-0.55-0.07-0.83c0-2.37,1.55-3.55,4.64-3.55
			c3.09,0,4.64,1.18,4.64,3.53c0,0.32-0.02,0.61-0.07,0.85l-2.84,16.5H22.27z M24,32.08c2.71,0,4.06,1.35,4.06,4.06
			c0,2.71-1.36,4.06-4.06,4.06c-2.71,0-4.06-1.35-4.06-4.06C19.94,33.43,21.29,32.08,24,32.08z"/>
	</g>
</g>
</svg>
