<?xml version="1.0" encoding="utf-8"?>
<!-- Generator: Adobe Illustrator 27.2.0, SVG Export Plug-In . SVG Version: 6.00 Build 0)  -->
<svg version="1.1" id="Calque_1" xmlns="http://www.w3.org/2000/svg" xmlns:xlink="http://www.w3.org/1999/xlink" x="0px" y="0px"
	 viewBox="0 0 48 48" style="enable-background:new 0 0 48 48;" xml:space="preserve">
<style type="text/css">
	.st0{fill:#595959;}
	.st1{fill:url(#SVGID_1_);}
</style>
<g>
	<circle class="st0" cx="2" cy="24" r="2"/>
</g>
<g>
	<circle class="st0" cx="3.67" cy="15.58" r="2"/>
</g>
<g>
	<circle class="st0" cx="8.44" cy="8.44" r="2"/>
</g>
<g>
	<circle class="st0" cx="15.58" cy="3.67" r="2"/>
</g>
<g>
	<circle class="st0" cx="3.67" cy="32.42" r="2"/>
</g>
<g>
	<circle class="st0" cx="8.44" cy="39.56" r="2"/>
</g>
<g>
	<circle class="st0" cx="15.58" cy="44.33" r="2"/>
</g>
<g>
	<circle class="st0" cx="24" cy="46" r="2"/>
</g>
<g>
	<circle class="st0" cx="24" cy="2" r="2"/>
</g>
<g>
	<path class="st0" d="M24,0v4c11.03,0,20,8.97,20,20s-8.97,20-20,20v4c13.25,0,24-10.75,24-24S37.25,0,24,0z"/>
</g>
<g>
	<linearGradient id="SVGID_1_" gradientUnits="userSpaceOnUse" x1="18.2007" y1="14.2886" x2="29.8053" y2="25.8932">
		<stop  offset="0" style="stop-color:#009D00"/>
		<stop  offset="0.3012" style="stop-color:#009700"/>
		<stop  offset="0.7063" style="stop-color:#008600"/>
		<stop  offset="1" style="stop-color:#007500"/>
	</linearGradient>
	<path class="st1" d="M37.29,14.37L37.29,14.37c1.11,1.11,1.11,2.91,0,4.02L21.97,33.73c-0.92,0.92-2.42,0.92-3.34,0l-7.92-7.93
		c-1.11-1.11-1.11-2.91,0-4.02l0,0c1.11-1.11,2.9-1.11,4.01,0l5.58,5.59l12.98-13C34.38,13.26,36.18,13.26,37.29,14.37z"/>
</g>
</svg>
