<?xml version="1.0" encoding="utf-8"?>
<!-- Generator: Adobe Illustrator 27.2.0, SVG Export Plug-In . SVG Version: 6.00 Build 0)  -->
<svg version="1.1" id="Calque_1" xmlns="http://www.w3.org/2000/svg" xmlns:xlink="http://www.w3.org/1999/xlink" x="0px" y="0px"
	 viewBox="0 0 48 48" style="enable-background:new 0 0 48 48;" xml:space="preserve">
<style type="text/css">
	.st0{fill:#426D80;}
	.st1{fill:#F2965A;}
	.st2{fill:#B96225;}
</style>
<g>
	<path class="st0" d="M45.42,37.53L48,35.87l-1.14-5.14l-3.03-0.34l-0.77-0.99l0.35-3.11L38.77,24l-2.15,2.21h-1.24L33.23,24
		l-4.63,2.29l0.35,3.11l-0.77,0.99l-3.03,0.34L24,35.87l2.58,1.66l0.28,1.24l-1.63,2.64l3.21,4.12l2.87-1.03l1.12,0.55l1,2.95h5.14
		l1-2.95l1.12-0.55l2.87,1.03l3.21-4.12l-1.63-2.64L45.42,37.53z M36,41.86c-3.15,0-5.71-2.62-5.71-5.86c0-3.23,2.56-5.86,5.71-5.86
		c3.16,0,5.71,2.62,5.71,5.86C41.71,39.24,39.16,41.86,36,41.86z"/>
	<path class="st0" d="M36,33.19c-1.52,0-2.74,1.26-2.74,2.81c0,1.56,1.22,2.81,2.74,2.81c1.51,0,2.74-1.26,2.74-2.81
		C38.74,34.45,37.51,33.19,36,33.19z"/>
</g>
<g>
	<polygon class="st1" points="14.57,38 23.43,31.24 23.43,16.5 36.27,0 1.73,0 14.57,16.5 	"/>
	<polygon class="st2" points="14.57,16.52 14.57,38 23.43,31.24 23.43,16.52 	"/>
</g>
</svg>
