<?xml version="1.0" encoding="utf-8"?>
<!-- Generator: Adobe Illustrator 27.2.0, SVG Export Plug-In . SVG Version: 6.00 Build 0)  -->
<svg version="1.1" id="Calque_1" xmlns="http://www.w3.org/2000/svg" xmlns:xlink="http://www.w3.org/1999/xlink" x="0px" y="0px"
	 viewBox="0 0 48 48" style="enable-background:new 0 0 48 48;" xml:space="preserve">
<style type="text/css">
	.st0{fill:#9C9B99;}
	.st1{fill:url(#SVGID_1_);}
</style>
<g>
	<polygon class="st0" points="14.53,38 23.47,31.24 23.47,16.5 36.42,0 1.58,0 14.53,16.5 	"/>
</g>
<g>
	<linearGradient id="SVGID_1_" gradientUnits="userSpaceOnUse" x1="24.7584" y1="24.7584" x2="47.2416" y2="47.2416">
		<stop  offset="0" style="stop-color:#D71800"/>
		<stop  offset="0.2614" style="stop-color:#D11700"/>
		<stop  offset="0.6136" style="stop-color:#C01500"/>
		<stop  offset="1" style="stop-color:#A51200"/>
	</linearGradient>
	<path class="st1" d="M47.24,43.58L39.66,36l7.58-7.58c1.01-1.01,1.01-2.65,0-3.66s-2.65-1.01-3.66,0L36,32.34l-7.58-7.58
		c-1.01-1.01-2.65-1.01-3.66,0s-1.01,2.65,0,3.66L32.34,36l-7.58,7.58c-1.01,1.01-1.01,2.65,0,3.66s2.65,1.01,3.66,0L36,39.66
		l7.58,7.58c1.01,1.01,2.65,1.01,3.66,0S48.25,44.59,47.24,43.58z"/>
</g>
</svg>
