<?xml version="1.0" encoding="utf-8"?>
<!-- Generator: Adobe Illustrator 25.3.1, SVG Export Plug-In . SVG Version: 6.00 Build 0)  -->
<svg version="1.1" id="Calque_1" xmlns="http://www.w3.org/2000/svg" xmlns:xlink="http://www.w3.org/1999/xlink" x="0px" y="0px"
	 viewBox="0 0 48 48" style="enable-background:new 0 0 48 48;" xml:space="preserve">
<style type="text/css">
	.st0{fill:#1E789D;}
	.st1{fill:#FFFFFF;}
	.st2{fill:#A9A9AA;}
</style>
<g>
	<rect x="22.6" y="7.3" class="st0" width="2.9" height="33.4"/>
	<rect x="1.5" y="20" class="st1" width="19.6" height="12.1"/>
	<rect x="26.9" y="13.2" class="st1" width="19.6" height="12.1"/>
	<path class="st2" d="M21.1,30.5H3.7c-0.7,0-1.2-0.5-1.2-1.2v-6.9c0-0.7,0.5-1.2,1.2-1.2h17.5v-2.2H2.2c-1.2,0-2.2,1-2.2,2.2v12.2
		c0,1.2,1,2.2,2.2,2.2h18.9V30.5z"/>
	<path class="st2" d="M45.8,12.2H26.9v2.2h17.5c0.7,0,1.2,0.5,1.2,1.2v6.9c0,0.7-0.5,1.2-1.2,1.2H26.9v5.3h18.9c1.2,0,2.2-1,2.2-2.2
		V14.5C48,13.3,47,12.2,45.8,12.2z"/>
</g>
</svg>
