<?xml version="1.0" encoding="utf-8"?>
<!-- Generator: Adobe Illustrator 25.3.1, SVG Export Plug-In . SVG Version: 6.00 Build 0)  -->
<svg version="1.1" id="Calque_1" xmlns="http://www.w3.org/2000/svg" xmlns:xlink="http://www.w3.org/1999/xlink" x="0px" y="0px"
	 viewBox="0 0 48 48" style="enable-background:new 0 0 48 48;" xml:space="preserve">
<style type="text/css">
	.st0{fill:#FFFFFF;}
	.st1{fill:#1C779C;}
</style>
<g>
	<g>
		<path class="st0" d="M14.6,43.2l-5.3-3.6c-1-0.7-1.3-2.1-0.6-3.1L31,2c0.4-0.6,1.1-1,1.8-1c0.4,0,0.8,0.1,1.2,0.4l11.9,8
			c1,0.7,1.3,2.1,0.6,3.1L26.7,43.2H14.6z"/>
		<path class="st1" d="M32.9,2c0.2,0,0.5,0.1,0.6,0.2l11.9,8c0.6,0.4,0.7,1.2,0.3,1.8L26.2,42.2H14.9l-5.1-3.4
			c-0.6-0.4-0.7-1.2-0.3-1.8L31.9,2.6C32.1,2.2,32.5,2,32.9,2 M32.9,0c-1,0-2.1,0.5-2.7,1.5L7.8,35.9c-1,1.5-0.6,3.5,0.9,4.5
			l5.6,3.7h12.9L47.5,13c1-1.5,0.6-3.5-0.9-4.5l-11.9-8C34.1,0.2,33.5,0,32.9,0L32.9,0z"/>
	</g>
	<rect y="47" class="st1" width="27.6" height="1"/>
	<path class="st1" d="M36,29.6l10.8-16.2C47.7,12,47.3,10,46,9.1L34.7,1.4c-1.4-1-3.3-0.6-4.2,0.8L19.7,18.4L36,29.6z"/>
</g>
</svg>
