<?xml version="1.0" encoding="utf-8"?>
<!-- Generator: Adobe Illustrator 27.2.0, SVG Export Plug-In . SVG Version: 6.00 Build 0)  -->
<svg version="1.1" id="Calque_1" xmlns="http://www.w3.org/2000/svg" xmlns:xlink="http://www.w3.org/1999/xlink" x="0px" y="0px"
	 viewBox="0 0 48 48" style="enable-background:new 0 0 48 48;" xml:space="preserve">
<style type="text/css">
	.st0{fill:#FFFFFF;}
	.st1{fill:#3D3D3C;}
	.st2{fill:#B52134;}
</style>
<g>
	<g>
		<path class="st0" d="M2.32,40.25C1.59,40.25,1,39.66,1,38.94V9.06c0-0.72,0.59-1.31,1.32-1.31h43.36c0.73,0,1.32,0.59,1.32,1.31
			v29.88c0,0.72-0.59,1.31-1.32,1.31H2.32z"/>
		<path class="st1" d="M45.68,8.75c0.18,0,0.32,0.14,0.32,0.31v29.88c0,0.17-0.14,0.31-0.32,0.31H2.32C2.14,39.25,2,39.11,2,38.94
			V9.06c0-0.17,0.14-0.31,0.32-0.31H45.68 M45.68,6.75H2.32C1.04,6.75,0,7.78,0,9.06v29.88c0,1.27,1.04,2.31,2.32,2.31h43.36
			c1.28,0,2.32-1.03,2.32-2.31V9.06C48,7.78,46.96,6.75,45.68,6.75L45.68,6.75z"/>
	</g>
	<path class="st2" d="M38.75,15.81c-1.61,0-2.93,1.3-2.93,2.91c0,0.61,0.19,1.18,0.51,1.65l-6.76,7.74c-0.39-0.19-0.83-0.3-1.3-0.3
		c-0.52,0-1,0.13-1.42,0.37l-3.05-3.19c0.28-0.45,0.44-0.97,0.44-1.54c0-1.6-1.31-2.91-2.92-2.91c-1.61,0-2.92,1.3-2.92,2.91
		c0,0.29,0.04,0.56,0.12,0.82l-7.36,4.38c-0.53-0.52-1.25-0.84-2.05-0.84c-1.61,0-2.92,1.3-2.92,2.91c0,1.6,1.31,2.91,2.92,2.91
		c1.61,0,2.92-1.3,2.92-2.91c0-0.29-0.04-0.56-0.12-0.82l7.36-4.38c0.52,0.52,1.25,0.84,2.05,0.84c0.51,0,1-0.13,1.42-0.37
		l3.04,3.19c-0.28,0.45-0.44,0.98-0.44,1.54c0,1.6,1.31,2.91,2.92,2.91c1.61,0,2.92-1.3,2.92-2.91c0-0.61-0.19-1.18-0.52-1.65
		l6.76-7.74c0.39,0.2,0.84,0.3,1.31,0.3c1.61,0,2.92-1.3,2.92-2.91C41.67,17.11,40.35,15.81,38.75,15.81z"/>
</g>
</svg>
