<?xml version="1.0" encoding="utf-8"?>
<!-- Generator: Adobe Illustrator 25.3.1, SVG Export Plug-In . SVG Version: 6.00 Build 0)  -->
<svg version="1.1" id="Calque_1" xmlns="http://www.w3.org/2000/svg" xmlns:xlink="http://www.w3.org/1999/xlink" x="0px" y="0px"
	 viewBox="0 0 48 48" style="enable-background:new 0 0 48 48;" xml:space="preserve">
<style type="text/css">
	.st0{fill:#FFFFFF;}
	.st1{fill:#595959;}
	.st2{fill:#1E1E1C;}
	.st3{fill:#010202;}
	.st4{fill:#EF820A;}
</style>
<g>
	<ellipse transform="matrix(0.7071 -0.7071 0.7071 0.7071 -10.1851 24.5907)" class="st0" cx="24.6" cy="24.6" rx="21" ry="21"/>
	<path class="st1" d="M24.6,1.2C11.7,1.2,1.2,11.7,1.2,24.6C1.2,37.5,11.7,48,24.6,48C37.5,48,48,37.5,48,24.6
		C48,11.7,37.5,1.2,24.6,1.2z M24.6,43.2C14.3,43.2,6,34.9,6,24.6C6,14.3,14.3,6,24.6,6c10.3,0,18.6,8.3,18.6,18.6
		C43.2,34.9,34.9,43.2,24.6,43.2z"/>
	<path class="st2" d="M26.8,24.6c0,1.2-1,2.2-2.2,2.2c-1.2,0-2.2-1-2.2-2.2c0-1.2,1-2.2,2.2-2.2C25.8,22.4,26.8,23.4,26.8,24.6z"/>
	<path class="st3" d="M26.8,24.6c0,1.2-1,2.2-2.2,2.2l0,0c-1.2,0-2.2-1-2.2-2.2V12c0-1.2,1-2.2,2.2-2.2l0,0c1.2,0,2.2,1,2.2,2.2
		V24.6z"/>
	<path class="st3" d="M32.4,29.2l-3.8-3.8L26.1,23c-0.9-0.9-2.3-0.9-3.1,0c-0.9,0.9-0.9,2.3,0,3.1l2.4,2.4l3.8,3.8
		c0.9,0.9,2.3,0.9,3.1,0C33.2,31.5,33.2,30.1,32.4,29.2z"/>
	<path class="st4" d="M12.7,31.1L1.2,40.8l0,0.1c0.1,1,1,2,1.9,2.2l11.6,3.5c0.9,0.3,1.6-0.3,1.5-1.2l-1.5-12c-0.1-1-1-2-1.9-2.2
		L12.7,31.1z"/>
	<g>
		<path class="st4" d="M9.6,35.5C7.3,32.5,6,28.7,6,24.6C6,14.3,14.3,6,24.6,6V1.2C11.7,1.2,1.2,11.7,1.2,24.6
			c0,5.5,1.9,10.5,5.1,14.5L9.6,35.5z"/>
		<path class="st4" d="M6.2,40.9l-0.9-1.1C1.8,35.4,0,30.2,0,24.6C0,11,11,0,24.6,0h1.2v7.2h-1.2C15,7.2,7.2,15,7.2,24.6
			c0,3.7,1.2,7.2,3.3,10.2l0.6,0.8L6.2,40.9z M23.4,2.4C11.7,3,2.4,12.7,2.4,24.6c0,4.6,1.4,8.9,4,12.7l1.7-1.8
			c-2.1-3.2-3.2-7-3.2-10.8C4.8,14.1,13,5.5,23.4,4.8V2.4z"/>
	</g>
</g>
</svg>
