
<svg viewBox="0 0 48 48"  xmlns="http://www.w3.org/2000/svg" xmlns:xlink="http://www.w3.org/1999/xlink">
<style type="text/css">
	.st0{fill:#4B4B4B;}
	.st1{fill:#1C779C;}
</style>
<g id="Calque_2_1_">
	<g id="Planche_icones">
		<g>
			<path class="st0" d="M38.4,12.7h-8.7v4.5h8.7c2.6,0,4.6,2.1,4.6,4.6v16.7c0,2.6-2.1,4.6-4.6,4.6h-29c-2.6,0-4.6-2.1-4.6-4.6V21.9
				c0-2.6,2.1-4.6,4.6-4.6h9v-4.5h-9c-5.1,0-9.2,4.1-9.2,9.2v16.7c0,5.1,4.1,9.2,9.2,9.2h29c5.1,0,9.2-4.1,9.2-9.2V21.9
				C47.6,16.8,43.5,12.7,38.4,12.7z"/>
			<g>
				<path class="st1" d="M24.1,31.6c-1.3,0-2.3-1-2.3-2.3V2.6c0-1.3,1-2.3,2.3-2.3s2.3,1,2.3,2.3v26.8
					C26.3,30.6,25.3,31.6,24.1,31.6z"/>
				<path class="st1" d="M24,34.7c-0.6,0-1.1-0.2-1.5-0.6l-6.7-6.2c-0.9-0.9-1-2.3-0.1-3.2c0.9-0.9,2.3-1,3.2-0.1l5.2,4.8l5.2-4.8
					c0.9-0.9,2.4-0.8,3.2,0.1s0.8,2.4-0.1,3.2l0,0l-6.7,6.3C25.1,34.5,24.5,34.7,24,34.7z"/>
			</g>
		</g>
	</g>
</g>
</svg>
