<?xml version="1.0" encoding="utf-8"?>
<!-- Generator: Adobe Illustrator 27.2.0, SVG Export Plug-In . SVG Version: 6.00 Build 0)  -->
<svg version="1.1" id="Calque_1" xmlns="http://www.w3.org/2000/svg" xmlns:xlink="http://www.w3.org/1999/xlink" x="0px" y="0px"
	 viewBox="0 0 48 48" style="enable-background:new 0 0 48 48;" xml:space="preserve">
<style type="text/css">
	.st0{fill:#CB6F17;}
	.st1{fill:#FFFFFF;}
	.st2{fill:url(#SVGID_1_);}
	.st3{fill:url(#SVGID_00000087404381943436321620000000287162071075275405_);}
	.st4{fill:url(#SVGID_00000114069340898418630660000012825461222228492971_);}
	.st5{fill:url(#SVGID_00000032642566193245701220000002320414019018603143_);}
	.st6{fill:url(#SVGID_00000169515657119461467070000015166505328802595975_);}
	.st7{fill:url(#SVGID_00000041272856210085236850000007109285702695966103_);}
	.st8{fill:url(#SVGID_00000159428448879509887940000000581259565628470938_);}
	.st9{fill:url(#SVGID_00000060726369928994006450000002480961467903953304_);}
</style>
<g id="layer1_00000166658839835319520030000007327264923222935976_" transform="translate(-355.125,-522.48718)">
	<g id="g6228_00000139994153430458061430000011122419268229660842_" transform="translate(2.5,2)">
		<path id="path51_00000182490142529050908460000010894486477419339702_" class="st0" d="M371.6,530.1c10.5,0,19,4.2,19,9.4
			s-8.5,9.4-19,9.4s-19-4.2-19-9.4S361.1,530.1,371.6,530.1"/>
		<g id="g53_00000016045776414635529780000016055901798276262530_" transform="translate(-145.125,520.61318)">
			<g id="g55_00000099623343425521408330000014983683155549644223_">
				<path id="path57_00000073003156132076903530000003799682496450718866_" class="st1" d="M531.5,16.3l-1.5,5.1l-0.2,0.7
					c0,0.1,0,0.1,0,0.2c0,0.1,0,0.1,0.1,0.2c0,0,0.1,0.1,0.1,0.1c0.1,0,0.1,0,0.3-0.1c0.2-0.1,0.4-0.4,0.8-0.9l0.3,0.2
					c-0.3,0.5-0.7,0.9-1.1,1.2c-0.4,0.3-0.7,0.4-1,0.4c-0.2,0-0.4,0-0.5-0.2c-0.1-0.1-0.2-0.3-0.2-0.5c0-0.2,0.1-0.6,0.2-1l0.2-0.6
					c-0.6,0.9-1.3,1.4-1.8,1.8c-0.4,0.2-0.8,0.4-1.2,0.4c-0.4,0-0.7-0.2-0.9-0.4c-0.3-0.3-0.4-0.7-0.4-1.2c0-0.8,0.2-1.6,0.7-2.5
					c0.5-0.9,1.1-1.6,1.8-2.1c0.6-0.4,1.1-0.6,1.6-0.6c0.3,0,0.6,0.1,0.8,0.2c0.2,0.2,0.3,0.4,0.5,0.8l0.3-0.9L531.5,16.3z
					 M528.8,16.7c-0.3,0-0.6,0.1-1,0.4c-0.5,0.4-1,1-1.4,1.9c-0.4,0.8-0.6,1.6-0.6,2.2c0,0.3,0.1,0.6,0.3,0.8
					c0.2,0.2,0.4,0.3,0.6,0.3c0.5,0,1.1-0.4,1.8-1.2c0.9-1.1,1.3-2.2,1.3-3.3c0-0.4-0.1-0.7-0.3-0.9
					C529.3,16.8,529.1,16.7,528.8,16.7z"/>
			</g>
			<g id="g59_00000038410510567955432450000015860274716675225263_">
				<path id="path61_00000023241455068116372050000007766393651657856425_" class="st1" d="M524.9,16.5l-0.1,0.5h-1.1l-0.8,3.2
					c-0.4,1.4-0.7,2.5-1.1,3.3c-0.5,1.1-1.1,1.9-1.7,2.3c-0.5,0.3-0.9,0.5-1.4,0.5c-0.3,0-0.6-0.1-0.8-0.3c-0.2-0.1-0.2-0.3-0.2-0.5
					c0-0.2,0.1-0.3,0.2-0.4c0.1-0.1,0.3-0.2,0.5-0.2c0.1,0,0.3,0,0.3,0.1c0.1,0.1,0.1,0.2,0.1,0.3c0,0.1,0,0.2-0.2,0.3
					c-0.1,0.1-0.1,0.1-0.1,0.2c0,0,0,0.1,0,0.1c0,0,0.1,0,0.2,0c0.2,0,0.4-0.1,0.7-0.2c0.2-0.1,0.4-0.3,0.6-0.6
					c0.2-0.3,0.4-0.6,0.5-1.2c0.1-0.2,0.3-0.9,0.6-2.1l1.3-5h-1.3l0.1-0.5c0.4,0,0.7,0,0.9-0.1c0.2-0.1,0.3-0.2,0.5-0.3
					c0.1-0.2,0.3-0.5,0.5-0.9c0.3-0.6,0.6-1.1,0.8-1.4c0.4-0.4,0.8-0.8,1.2-1c0.4-0.2,0.8-0.3,1.1-0.3c0.4,0,0.7,0.1,0.9,0.3
					c0.2,0.2,0.3,0.4,0.3,0.6c0,0.2-0.1,0.3-0.2,0.4c-0.1,0.1-0.3,0.2-0.4,0.2c-0.2,0-0.3,0-0.4-0.1c-0.1-0.1-0.1-0.2-0.1-0.3
					c0-0.1,0-0.2,0.1-0.3c0.1-0.1,0.1-0.2,0.1-0.2c0-0.1,0-0.1-0.1-0.2c-0.1,0-0.2-0.1-0.3-0.1c-0.3,0-0.6,0.1-0.8,0.3
					c-0.3,0.3-0.6,0.7-0.9,1.2c-0.1,0.3-0.4,1-0.7,2.2L524.9,16.5L524.9,16.5z"/>
			</g>
			<g id="g63_00000177469617187461455760000003480287243346173627_">
				<path id="path65_00000105422808522524891630000015988244531203908255_" class="st1" d="M515.6,16.7l2.6-0.4l-1.1,3.6
					c0.9-1.5,1.7-2.5,2.4-3.1c0.4-0.3,0.7-0.5,1-0.5c0.2,0,0.3,0,0.4,0.1c0.1,0.1,0.1,0.2,0.1,0.4c0,0.3-0.1,0.6-0.3,0.9
					c-0.1,0.2-0.3,0.3-0.5,0.3c-0.1,0-0.2,0-0.3-0.1c-0.1-0.1-0.1-0.2-0.2-0.3c0-0.1,0-0.2-0.1-0.2c0,0-0.1-0.1-0.1-0.1
					c-0.1,0-0.2,0-0.2,0.1c-0.1,0.1-0.3,0.3-0.6,0.6c-0.4,0.5-0.9,1.1-1.3,1.9c-0.2,0.3-0.4,0.7-0.5,1.1c-0.2,0.6-0.3,0.9-0.4,1
					l-0.2,0.9h-1.1l1.4-4.6c0.2-0.5,0.2-0.9,0.2-1.1c0-0.1,0-0.2-0.1-0.2c-0.1-0.1-0.2-0.1-0.4-0.1c-0.1,0-0.3,0-0.6,0.1L515.6,16.7
					z"/>
			</g>
			<g id="g67_00000120545338015762754250000005596239874301083069_">
				<path id="path69_00000140694561100020490720000012529799746705035141_" class="st1" d="M510.3,20.3c0,0.3,0,0.5,0,0.6
					c0,0.4,0.2,0.8,0.5,1.1c0.3,0.3,0.7,0.5,1.1,0.5c0.4,0,0.7-0.1,1-0.2s0.8-0.5,1.5-1l0.2,0.2c-1.2,1.2-2.3,1.8-3.4,1.8
					c-0.7,0-1.3-0.2-1.6-0.7c-0.4-0.5-0.6-1-0.6-1.5c0-0.7,0.2-1.5,0.7-2.3c0.5-0.8,1-1.4,1.7-1.8c0.7-0.4,1.4-0.6,2.1-0.6
					c0.5,0,0.9,0.1,1.2,0.3s0.4,0.5,0.4,0.8c0,0.4-0.2,0.8-0.5,1.2c-0.4,0.5-1.1,0.9-1.9,1.2C512,20,511.2,20.1,510.3,20.3z
					 M510.3,19.9c0.7-0.1,1.3-0.2,1.8-0.4c0.6-0.3,1.1-0.6,1.4-1c0.3-0.4,0.5-0.7,0.5-1.1c0-0.2-0.1-0.4-0.2-0.5
					c-0.1-0.1-0.3-0.2-0.6-0.2c-0.5,0-1,0.3-1.6,0.8C511,18,510.6,18.8,510.3,19.9z"/>
			</g>
			<g id="g71_00000043458769687950749250000011506368257505614520_">
				<path id="path73_00000091731155991538460800000014907353428036044457_" class="st1" d="M507.9,21.4c-0.5,0.6-1,1.1-1.6,1.4
					c-0.5,0.3-1.1,0.4-1.7,0.4c-0.7,0-1.3-0.2-1.7-0.6c-0.4-0.4-0.6-0.9-0.6-1.6c0-0.8,0.2-1.5,0.6-2.2c0.4-0.7,1-1.3,1.7-1.8
					c0.7-0.5,1.4-0.7,2.1-0.7c0.5,0,0.9,0.1,1.2,0.3c0.3,0.2,0.4,0.5,0.4,0.8s-0.1,0.6-0.3,0.8c-0.1,0.2-0.3,0.3-0.5,0.3
					c-0.2,0-0.3,0-0.4-0.1c-0.1-0.1-0.2-0.2-0.2-0.4c0-0.1,0-0.2,0.1-0.3c0-0.1,0.1-0.2,0.2-0.3c0.1-0.1,0.2-0.2,0.2-0.2
					c0,0,0-0.1,0-0.2c0-0.1,0-0.2-0.1-0.3c-0.1-0.1-0.3-0.1-0.6-0.1c-0.5,0-1,0.2-1.4,0.5c-0.5,0.3-0.9,0.8-1.2,1.5
					c-0.4,0.8-0.6,1.5-0.6,2.3c0,0.5,0.1,0.9,0.4,1.2c0.3,0.3,0.7,0.4,1.2,0.4c0.4,0,0.8-0.1,1.1-0.3c0.4-0.2,0.8-0.5,1.3-1
					L507.9,21.4z"/>
			</g>
		</g>
	</g>
</g>
<g>
	<g>
		
			<linearGradient id="SVGID_1_" gradientUnits="userSpaceOnUse" x1="31.0989" y1="24.5274" x2="40.8999" y2="14.7264" gradientTransform="matrix(1 0 0 -1 0 48)">
			<stop  offset="0" style="stop-color:#FFFFFF"/>
			<stop  offset="0.5338" style="stop-color:#F7F7F7"/>
			<stop  offset="1" style="stop-color:#EBEBEB"/>
		</linearGradient>
		<path class="st2" d="M41,32.7H31c-0.5,0-1-0.4-1-1V25c0-0.5,0.4-1,1-1h10c0.5,0,1,0.4,1,1v6.8C42,32.3,41.6,32.7,41,32.7z"/>
		
			<linearGradient id="SVGID_00000050664727346352896910000004838073395992251535_" gradientUnits="userSpaceOnUse" x1="31.0984" y1="24.5268" x2="40.9005" y2="14.7247" gradientTransform="matrix(1 0 0 -1 0 48)">
			<stop  offset="0" style="stop-color:#3D414C"/>
			<stop  offset="0.6355" style="stop-color:#383B45"/>
			<stop  offset="1" style="stop-color:#33363F"/>
		</linearGradient>
		<path style="fill:url(#SVGID_00000050664727346352896910000004838073395992251535_);" d="M40.7,25.3v6.3h-9.5v-6.3H40.7 M41,24H31
			c-0.5,0-1,0.4-1,1v6.8c0,0.5,0.4,1,1,1h10c0.5,0,1-0.4,1-1V25C42,24.4,41.6,24,41,24L41,24z"/>
	</g>
	<g>
		
			<linearGradient id="SVGID_00000049941548682121614710000015155263294741605293_" gradientUnits="userSpaceOnUse" x1="30.8226" y1="10.0911" x2="41.1643" y2="-0.2507" gradientTransform="matrix(1 0 0 -1 0 48)">
			<stop  offset="0" style="stop-color:#FFFFFF"/>
			<stop  offset="0.5338" style="stop-color:#F7F7F7"/>
			<stop  offset="1" style="stop-color:#EBEBEB"/>
		</linearGradient>
		<path style="fill:url(#SVGID_00000049941548682121614710000015155263294741605293_);" d="M41,48H31c-0.5,0-1-0.4-1-1v-7.9
			c0-0.5,0.4-1,1-1h10c0.5,0,1,0.4,1,1V47C42,47.6,41.6,48,41,48z"/>
		
			<linearGradient id="SVGID_00000032639580994710437590000011006754817818127232_" gradientUnits="userSpaceOnUse" x1="30.8242" y1="10.0926" x2="41.1631" y2="-0.2463" gradientTransform="matrix(1 0 0 -1 0 48)">
			<stop  offset="0" style="stop-color:#3D414C"/>
			<stop  offset="0.6355" style="stop-color:#383B45"/>
			<stop  offset="1" style="stop-color:#33363F"/>
		</linearGradient>
		<path style="fill:url(#SVGID_00000032639580994710437590000011006754817818127232_);" d="M40.7,39.4v7.3h-9.5v-7.3H40.7 M41,38.2
			H31c-0.5,0-1,0.4-1,1V47c0,0.5,0.4,1,1,1h10c0.5,0,1-0.4,1-1v-7.9C42,38.6,41.6,38.2,41,38.2L41,38.2z"/>
	</g>
	
		<linearGradient id="SVGID_00000079459093276169187080000017282515463354321299_" gradientUnits="userSpaceOnUse" x1="34.095" y1="8.1371" x2="37.9097" y2="4.3224" gradientTransform="matrix(1 0 0 -1 0 48)">
		<stop  offset="0" style="stop-color:#3D414C"/>
		<stop  offset="0.6355" style="stop-color:#383B45"/>
		<stop  offset="1" style="stop-color:#33363F"/>
	</linearGradient>
	<path style="fill:url(#SVGID_00000079459093276169187080000017282515463354321299_);" d="M32.5,41.9v-0.4c0-0.2,0.1-0.3,0.3-0.3
		h6.4c0.2,0,0.3,0.1,0.3,0.3v0.4c0,0.2-0.1,0.3-0.3,0.3h-6.4C32.6,42.3,32.5,42.1,32.5,41.9z"/>
	
		<linearGradient id="SVGID_00000021833393974188261540000010456401768533282744_" gradientUnits="userSpaceOnUse" x1="34.0877" y1="5.354" x2="37.9182" y2="1.5235" gradientTransform="matrix(1 0 0 -1 0 48)">
		<stop  offset="0" style="stop-color:#3D414C"/>
		<stop  offset="0.6355" style="stop-color:#383B45"/>
		<stop  offset="1" style="stop-color:#33363F"/>
	</linearGradient>
	<path style="fill:url(#SVGID_00000021833393974188261540000010456401768533282744_);" d="M32.5,44.8v-0.4c0-0.2,0.1-0.3,0.3-0.3
		h6.4c0.2,0,0.3,0.1,0.3,0.3v0.4c0,0.2-0.1,0.3-0.3,0.3h-6.4C32.6,45.1,32.5,44.9,32.5,44.8z"/>
	
		<linearGradient id="SVGID_00000174591611964166660920000017445881730395306633_" gradientUnits="userSpaceOnUse" x1="27.3474" y1="19.4021" x2="44.6526" y2="2.0968" gradientTransform="matrix(1 0 0 -1 0 48)">
		<stop  offset="0" style="stop-color:#6E7489"/>
		<stop  offset="0.5523" style="stop-color:#656B89"/>
		<stop  offset="1" style="stop-color:#5A6089"/>
	</linearGradient>
	<path style="fill:url(#SVGID_00000174591611964166660920000017445881730395306633_);" d="M29,44h-2.5c-1.4,0-2.5-1.1-2.5-2.5V33
		c0-1.4,1.1-2.5,2.5-2.5h19.1c1.4,0,2.5,1.1,2.5,2.5v8.6c0,1.4-1.1,2.5-2.5,2.5H43v-3.6V40c0-0.3-0.2-0.5-0.5-0.5H29.5
		c-0.3,0-0.5,0.2-0.5,0.5v0.5V44z"/>
	
		<linearGradient id="SVGID_00000060008184211065508610000016875100141280395685_" gradientUnits="userSpaceOnUse" x1="44.2736" y1="15.1895" x2="45.6879" y2="13.7753" gradientTransform="matrix(1 0 0 -1 0 48)">
		<stop  offset="0" style="stop-color:#FFFFFF"/>
		<stop  offset="0.5338" style="stop-color:#F7F7F7"/>
		<stop  offset="1" style="stop-color:#EBEBEB"/>
	</linearGradient>
	<circle style="fill:url(#SVGID_00000060008184211065508610000016875100141280395685_);" cx="45" cy="33.5" r="1"/>
</g>
</svg>
