<?xml version="1.0" encoding="utf-8"?>
<!-- Generator: Adobe Illustrator 27.2.0, SVG Export Plug-In . SVG Version: 6.00 Build 0)  -->
<svg version="1.1" id="Calque_1" xmlns="http://www.w3.org/2000/svg" xmlns:xlink="http://www.w3.org/1999/xlink" x="0px" y="0px"
	 viewBox="0 0 48 48" style="enable-background:new 0 0 48 48;" xml:space="preserve">
<style type="text/css">
	.st0{fill:url(#SVGID_1_);}
	.st1{fill:url(#SVGID_00000059305348430751648870000011052009830823382658_);}
	.st2{fill:url(#SVGID_00000033337326314298896550000013965573091871380146_);}
</style>
<g>
	<linearGradient id="SVGID_1_" gradientUnits="userSpaceOnUse" x1="20.1888" y1="31.7288" x2="27.8113" y2="39.3512">
		<stop  offset="0" style="stop-color:#FFFFFF"/>
		<stop  offset="0.5338" style="stop-color:#F7F7F7"/>
		<stop  offset="1" style="stop-color:#EBEBEB"/>
	</linearGradient>
	<path class="st0" d="M17,35.9v-0.72c0-0.35,0.29-0.64,0.64-0.64h12.72c0.35,0,0.64,0.29,0.64,0.64v0.72c0,0.35-0.29,0.64-0.64,0.64
		H17.64C17.29,36.54,17,36.25,17,35.9z"/>
	
		<linearGradient id="SVGID_00000030445683601107067250000006517263570012748479_" gradientUnits="userSpaceOnUse" x1="20.1712" y1="37.2912" x2="27.8288" y2="44.9487">
		<stop  offset="0" style="stop-color:#FFFFFF"/>
		<stop  offset="0.5338" style="stop-color:#F7F7F7"/>
		<stop  offset="1" style="stop-color:#EBEBEB"/>
	</linearGradient>
	<path style="fill:url(#SVGID_00000030445683601107067250000006517263570012748479_);" d="M17,41.53v-0.82
		c0-0.33,0.26-0.59,0.59-0.59h12.82c0.33,0,0.59,0.26,0.59,0.59v0.82c0,0.33-0.26,0.59-0.59,0.59H17.59
		C17.26,42.12,17,41.86,17,41.53z"/>
	
		<linearGradient id="SVGID_00000067196507019812768080000012581537869269467798_" gradientUnits="userSpaceOnUse" x1="6.0087" y1="7.1375" x2="41.9944" y2="43.1231">
		<stop  offset="0" style="stop-color:#FFFFFF"/>
		<stop  offset="0.5338" style="stop-color:#F7F7F7"/>
		<stop  offset="1" style="stop-color:#EBEBEB"/>
	</linearGradient>
	<path style="fill:url(#SVGID_00000067196507019812768080000012581537869269467798_);" d="M43.06,13H36V1.96
		C36,0.88,35.12,0,34.04,0H13.96C12.87,0,12,0.88,12,1.96V13H4.94C2.21,13,0,15.21,0,17.94v17.12C0,37.79,2.21,40,4.94,40h5.05
		L10,32.88v-0.95c0-0.51,0.42-0.93,0.93-0.93h1.06v15.03c0,1.09,0.88,1.97,1.97,1.97h20.06c1.09,0,1.97-0.88,1.97-1.97V31h1.08
		c0.51,0,0.93,0.42,0.93,0.93v0.95V40h5.07c2.73,0,4.94-2.21,4.94-4.94V17.94C48,15.21,45.79,13,43.06,13z M14.5,2.5h19V13h-19V2.5z
		 M33.47,45.48H14.51V31h18.96V45.48z M41.96,21.03c-1.1,0-2-0.9-2-2s0.9-2,2-2s2,0.9,2,2S43.07,21.03,41.96,21.03z"/>
</g>
</svg>
