<?xml version="1.0" encoding="utf-8"?>
<!-- Generator: Adobe Illustrator 27.2.0, SVG Export Plug-In . SVG Version: 6.00 Build 0)  -->
<svg version="1.1" id="Calque_1" xmlns="http://www.w3.org/2000/svg" xmlns:xlink="http://www.w3.org/1999/xlink" x="0px" y="0px"
	 viewBox="0 0 48 48" style="enable-background:new 0 0 48 48;" xml:space="preserve">
<style type="text/css">
	.st0{fill:url(#SVGID_1_);}
	.st1{fill:url(#SVGID_00000112596721662239811810000015872673950399802545_);}
	.st2{fill:url(#SVGID_00000174564405096905335650000004661696871392153768_);}
	.st3{fill:url(#SVGID_00000107571940931178413020000011131677859901088168_);}
	.st4{fill:url(#SVGID_00000145047480864210824980000003397892887180964994_);}
	.st5{fill:url(#SVGID_00000136404596110925930020000003689994452812302472_);}
	.st6{fill:url(#SVGID_00000102512417112382516020000003118091209208203138_);}
	.st7{fill:url(#SVGID_00000043443523414568685190000009711049917332614835_);}
</style>
<g>
	<g>
		<linearGradient id="SVGID_1_" gradientUnits="userSpaceOnUse" x1="14.1955" y1="-1.1416" x2="33.7979" y2="18.4607">
			<stop  offset="0" style="stop-color:#FFFFFF"/>
			<stop  offset="0.5338" style="stop-color:#F7F7F7"/>
			<stop  offset="1" style="stop-color:#EBEBEB"/>
		</linearGradient>
		<path class="st0" d="M34.04,17.41H13.96c-1.08,0-1.96-0.88-1.96-1.96V1.87c0-1.08,0.88-1.96,1.96-1.96h20.08
			c1.08,0,1.96,0.88,1.96,1.96v13.58C36,16.53,35.12,17.41,34.04,17.41z"/>
		
			<linearGradient id="SVGID_00000174602526831849464180000012039494441775471750_" gradientUnits="userSpaceOnUse" x1="14.1955" y1="-1.1416" x2="33.7979" y2="18.4607">
			<stop  offset="0" style="stop-color:#3D414C"/>
			<stop  offset="0.6355" style="stop-color:#383B45"/>
			<stop  offset="1" style="stop-color:#33363F"/>
		</linearGradient>
		<path style="fill:url(#SVGID_00000174602526831849464180000012039494441775471750_);" d="M33.5,2.41v12.5h-19V2.41H33.5
			 M34.04-0.09H13.96C12.87-0.09,12,0.79,12,1.87v13.58c0,1.08,0.88,1.96,1.96,1.96h20.08c1.08,0,1.96-0.88,1.96-1.96V1.87
			C36,0.79,35.12-0.09,34.04-0.09L34.04-0.09z"/>
	</g>
	<g>
		
			<linearGradient id="SVGID_00000031916486931853086440000009492860929809325503_" gradientUnits="userSpaceOnUse" x1="13.6479" y1="27.7309" x2="34.3304" y2="48.4134">
			<stop  offset="0" style="stop-color:#FFFFFF"/>
			<stop  offset="0.5338" style="stop-color:#F7F7F7"/>
			<stop  offset="1" style="stop-color:#EBEBEB"/>
		</linearGradient>
		<path style="fill:url(#SVGID_00000031916486931853086440000009492860929809325503_);" d="M34.02,47.91H13.96
			c-1.09,0-1.97-0.88-1.97-1.97V30.21c0-1.09,0.88-1.97,1.97-1.97h20.06c1.09,0,1.97,0.88,1.97,1.97v15.73
			C35.99,47.03,35.11,47.91,34.02,47.91z"/>
		
			<linearGradient id="SVGID_00000041263039523351223040000005186859926575423915_" gradientUnits="userSpaceOnUse" x1="13.6479" y1="27.7309" x2="34.3304" y2="48.4134">
			<stop  offset="0" style="stop-color:#3D414C"/>
			<stop  offset="0.6355" style="stop-color:#383B45"/>
			<stop  offset="1" style="stop-color:#33363F"/>
		</linearGradient>
		<path style="fill:url(#SVGID_00000041263039523351223040000005186859926575423915_);" d="M33.47,30.75v14.64H14.51V30.75H33.47
			 M34.02,28.23H13.96c-1.09,0-1.97,0.88-1.97,1.97v15.73c0,1.09,0.88,1.97,1.97,1.97h20.06c1.09,0,1.97-0.88,1.97-1.97V30.21
			C35.99,29.12,35.11,28.23,34.02,28.23L34.02,28.23z"/>
	</g>
	
		<linearGradient id="SVGID_00000060722519834002342910000012091080826296224412_" gradientUnits="userSpaceOnUse" x1="20.1846" y1="31.6348" x2="27.8087" y2="39.2589">
		<stop  offset="0" style="stop-color:#3D414C"/>
		<stop  offset="0.6355" style="stop-color:#383B45"/>
		<stop  offset="1" style="stop-color:#33363F"/>
	</linearGradient>
	<path style="fill:url(#SVGID_00000060722519834002342910000012091080826296224412_);" d="M17,35.81v-0.72
		c0-0.35,0.29-0.64,0.64-0.64h12.72c0.35,0,0.64,0.29,0.64,0.64v0.72c0,0.35-0.29,0.64-0.64,0.64H17.64
		C17.28,36.45,17,36.16,17,35.81z"/>
	
		<linearGradient id="SVGID_00000160169799680827680310000007258852271906944142_" gradientUnits="userSpaceOnUse" x1="20.17" y1="37.2052" x2="27.8234" y2="44.8587">
		<stop  offset="0" style="stop-color:#3D414C"/>
		<stop  offset="0.6355" style="stop-color:#383B45"/>
		<stop  offset="1" style="stop-color:#33363F"/>
	</linearGradient>
	<path style="fill:url(#SVGID_00000160169799680827680310000007258852271906944142_);" d="M17,41.44v-0.82
		c0-0.33,0.26-0.59,0.59-0.59h12.82c0.33,0,0.59,0.26,0.59,0.59v0.82c0,0.33-0.26,0.59-0.59,0.59H17.59
		C17.26,42.03,17,41.77,17,41.44z"/>
	
		<linearGradient id="SVGID_00000026155591661137907160000017390786338471335856_" gradientUnits="userSpaceOnUse" x1="6.6965" y1="9.106" x2="41.3036" y2="43.7131">
		<stop  offset="0" style="stop-color:#6E7489"/>
		<stop  offset="0.5523" style="stop-color:#656B89"/>
		<stop  offset="1" style="stop-color:#5A6089"/>
	</linearGradient>
	<path style="fill:url(#SVGID_00000026155591661137907160000017390786338471335856_);" d="M9.99,39.91H4.94
		C2.21,39.91,0,37.7,0,34.97V17.85c0-2.73,2.21-4.94,4.94-4.94h38.12c2.73,0,4.94,2.21,4.94,4.94v17.12c0,2.73-2.21,4.94-4.94,4.94
		h-5.07l0-7.12v-0.95c0-0.51-0.42-0.93-0.93-0.93H10.93c-0.51,0-0.93,0.42-0.93,0.93v0.95L9.99,39.91z"/>
	
		<linearGradient id="SVGID_00000134244194561921498500000002708894027955866292_" gradientUnits="userSpaceOnUse" x1="40.5506" y1="17.5273" x2="43.379" y2="20.3557">
		<stop  offset="0" style="stop-color:#FFFFFF"/>
		<stop  offset="0.5338" style="stop-color:#F7F7F7"/>
		<stop  offset="1" style="stop-color:#EBEBEB"/>
	</linearGradient>
	<circle style="fill:url(#SVGID_00000134244194561921498500000002708894027955866292_);" cx="41.96" cy="18.94" r="2"/>
</g>
</svg>
