<?xml version="1.0" encoding="utf-8"?>
<!-- Generator: Adobe Illustrator 25.4.1, SVG Export Plug-In . SVG Version: 6.00 Build 0)  -->
<svg version="1.1" id="Calque_1" xmlns="http://www.w3.org/2000/svg" xmlns:xlink="http://www.w3.org/1999/xlink" x="0px" y="0px"
	 viewBox="0 0 48 48" style="enable-background:new 0 0 48 48;" xml:space="preserve">
<style type="text/css">
	.st0{fill:#585858;}
</style>
<g>
	<path class="st0" d="M17.83,32.21l-0.07-1.8c-0.21-3.51,0.97-7.1,4.07-10.83c2.21-2.62,4-4.83,4-7.17c0-2.42-1.59-4-5.04-4.14
		c-2.28,0-5.03,0.83-6.83,2.07l-2.35-7.52C14.1,1.38,18.24,0,23.14,0c9.1,0,13.24,5.03,13.24,10.76c0,5.24-3.24,8.69-5.86,11.59
		c-2.55,2.83-3.59,5.51-3.52,8.62v1.24H17.83z M16.03,41.72c0-3.65,2.55-6.27,6.14-6.27c3.72,0,6.14,2.62,6.21,6.27
		c0,3.59-2.48,6.28-6.21,6.28C18.52,48,16.03,45.31,16.03,41.72z"/>
</g>
</svg>
