<?xml version="1.0" encoding="utf-8"?>
<!-- Generator: Adobe Illustrator 27.3.1, SVG Export Plug-In . SVG Version: 6.00 Build 0)  -->
<svg version="1.1" id="Calque_1" xmlns="http://www.w3.org/2000/svg" xmlns:xlink="http://www.w3.org/1999/xlink" x="0px" y="0px"
	 viewBox="0 0 48 48" style="enable-background:new 0 0 48 48;" xml:space="preserve">
<style type="text/css">
	.st0{fill:#1C779C;}
</style>
<path class="st0" d="M47.5,19.2c-0.5-2.4-1.3-4.7-2.5-6.8C40.9,5,33,0,24,0C16.5,0,9.8,3.4,5.4,8.9c0,0,0,0,0,0.1C2,13,0,18.3,0,24
	c0,1.4,0.1,2.7,0.3,4c0,0.1,0,0.2,0.1,0.3C2.5,39.5,12.2,48,24,48c5.1,0,9.8-1.6,13.6-4.2c0.6-0.4,1.1-0.8,1.6-1.2
	c1.2-1,2.3-2.1,3.3-3.3c0.2-0.3,0.5-0.6,0.7-0.9c1.4-1.9,2.5-3.9,3.3-6.1c0.1-0.4,0.3-0.7,0.4-1.1c0.7-2.3,1.1-4.6,1.1-7.1
	C48,22.3,47.8,20.7,47.5,19.2z M27.4,15.7c-3.7,2.1-8-2.7-5-5.8c3.9-4.1,9.6,2.2,5.2,5.7 M26.7,18.2c0.7-0.2,1.5,0.1,1.9,0.8
	c2.2,3.3-2.4,10.7-2.5,14.1c-0.2,2.9,2.6-0.8,3.4,1c0.2,1-3.2,3.2-5.7,4.8c-8.8,5-2.2-10.8-1.4-14.1c1-3.4-2.6,0.8-3.4-1
	C18.8,22.7,24,18.8,26.7,18.2z"/>
</svg>
