<?xml version="1.0" encoding="utf-8"?>
<!-- Generator: Adobe Illustrator 27.2.0, SVG Export Plug-In . SVG Version: 6.00 Build 0)  -->
<svg version="1.1" id="Calque_1" xmlns="http://www.w3.org/2000/svg" xmlns:xlink="http://www.w3.org/1999/xlink" x="0px" y="0px"
	 viewBox="0 0 48 48" style="enable-background:new 0 0 48 48;" xml:space="preserve">
<style type="text/css">
	.st0{fill:url(#SVGID_1_);}
</style>
<linearGradient id="SVGID_1_" gradientUnits="userSpaceOnUse" x1="-151.7676" y1="-147.6666" x2="-185.7089" y2="-113.7253" gradientTransform="matrix(0 -1 1 0 154.6941 -144.7364)">
	<stop  offset="0" style="stop-color:#D71800"/>
	<stop  offset="0.2614" style="stop-color:#D11700"/>
	<stop  offset="0.6136" style="stop-color:#C01500"/>
	<stop  offset="1" style="stop-color:#A51200"/>
</linearGradient>
<path class="st0" d="M9.18,5.13C7.66,6.31,6.3,7.68,5.12,9.19C1.91,13.26,0,18.41,0,24c0,13.26,10.74,24,24,24
	c5.59,0,10.74-1.91,14.81-5.12c1.51-1.18,2.88-2.54,4.06-4.06C46.08,34.74,48,29.6,48,24C48,10.75,37.25,0,24,0
	C18.4,0,13.26,1.92,9.18,5.13z M24,40.12C15.1,40.12,7.88,32.9,7.88,24c0-3.41,1.06-6.58,2.87-9.18l22.43,22.43
	C30.57,39.06,27.41,40.12,24,40.12z M40.12,24c0,3.41-1.07,6.58-2.88,9.19L14.82,10.76c2.61-1.81,5.77-2.87,9.18-2.87
	C32.9,7.89,40.12,15.1,40.12,24z"/>
</svg>
