<?xml version="1.0" encoding="utf-8"?>
<!-- Generator: Adobe Illustrator 27.2.0, SVG Export Plug-In . SVG Version: 6.00 Build 0)  -->
<svg version="1.1" id="Calque_1" xmlns="http://www.w3.org/2000/svg" xmlns:xlink="http://www.w3.org/1999/xlink" x="0px" y="0px"
	 viewBox="0 0 48 48" style="enable-background:new 0 0 48 48;" xml:space="preserve">
<style type="text/css">
	.st0{fill:#E77108;}
	.st1{fill:#A04717;}
	.st2{enable-background:new    ;}
	.st3{fill:#1E1E1C;}
</style>
<g>
	<g id="path26_49_">
		<path class="st0" d="M6.5,45.96V2.04C6.5,0.91,7.41,0,8.53,0h17.76L41.5,15.24v30.73c0,1.12-0.91,2.04-2.03,2.04H8.53
			C7.41,48,6.5,47.09,6.5,45.96z"/>
	</g>
	<path id="path32_39_" class="st1" d="M26.29,0L41.5,15.24H28.32c-1.12,0-2.03-0.91-2.03-2.04C26.29,13.2,26.29,0,26.29,0z"/>
	<g class="st2">
		<path class="st3" d="M11.7,32.85h2.12v7.57h3.71v1.78H11.7V32.85z"/>
		<path class="st3" d="M26.78,37.43c0,3.07-1.85,4.92-4.58,4.92c-2.77,0-4.39-2.09-4.39-4.76c0-2.8,1.79-4.9,4.54-4.9
			C25.22,32.7,26.78,34.85,26.78,37.43z M20.04,37.55c0,1.83,0.86,3.12,2.27,3.12c1.43,0,2.24-1.36,2.24-3.18
			c0-1.68-0.8-3.12-2.26-3.12C20.87,34.38,20.04,35.74,20.04,37.55z"/>
		<path class="st3" d="M35.96,41.77c-0.65,0.22-1.88,0.53-3.11,0.53c-1.7,0-2.93-0.43-3.79-1.26c-0.86-0.8-1.33-2.03-1.31-3.4
			c0.01-3.11,2.27-4.88,5.33-4.88c1.2,0,2.13,0.24,2.59,0.46l-0.44,1.69c-0.51-0.22-1.15-0.4-2.17-0.4c-1.76,0-3.09,1-3.09,3.02
			c0,1.93,1.2,3.06,2.93,3.06c0.48,0,0.87-0.05,1.04-0.14V38.5h-1.44v-1.65h3.47V41.77z"/>
	</g>
</g>
</svg>
