<?xml version="1.0" encoding="utf-8"?>
<!-- Generator: Adobe Illustrator 27.2.0, SVG Export Plug-In . SVG Version: 6.00 Build 0)  -->
<svg version="1.1" id="Calque_1" xmlns="http://www.w3.org/2000/svg" xmlns:xlink="http://www.w3.org/1999/xlink" x="0px" y="0px"
	 viewBox="0 0 48 48" style="enable-background:new 0 0 48 48;" xml:space="preserve">
<style type="text/css">
	.st0{fill-rule:evenodd;clip-rule:evenodd;fill:#E77108;}
	.st1{fill:#BB865D;}
	.st2{fill:#2172B7;}
	.st3{fill:#1D1D20;}
	.st4{fill:#D8D8D8;}
	.st5{fill:#F5B377;}
	.st6{fill:#683E14;}
	.st7{fill:#010101;}
	.st8{fill-rule:evenodd;clip-rule:evenodd;fill:#706F6E;}
	.st9{fill-rule:evenodd;clip-rule:evenodd;fill:#1D1E1C;}
	.st10{fill-rule:evenodd;clip-rule:evenodd;fill:#D8D8D8;}
	.st11{fill:#37A6DE;}
</style>
<g>
	<polygon class="st0" points="17.8,27.41 25.2,21.42 17.8,15.44 17.8,18.86 9.6,18.86 9.6,23.99 17.8,23.99 	"/>
	<g>
		<path class="st1" d="M9.28,15.22c-0.38,0.34-1.77,0.34-2.04,0.3c-0.27,0.04-1.66,0.04-2.04-0.3c0.08,0.56,0.2,0.95,0.05,1.81
			c-0.13,0.78,1.63,1.59,1.99,1.75c0.37-0.16,2.13-0.97,1.99-1.75C9.08,16.16,9.2,15.77,9.28,15.22z"/>
		<path class="st2" d="M9.42,16.58c0,0-1.2,1.79-2.18,1.67c-0.98,0.12-2.18-1.67-2.18-1.67c-0.16,0.96,0.4,3.99,2.18,4.12
			C9.01,20.57,9.58,17.54,9.42,16.58z"/>
		<path class="st3" d="M7.65,18.46l0.21-0.43l-0.62-0.54l-0.62,0.54l0.21,0.43c0,0-0.27,1.27-0.53,2.36c0,0,0.36,0.15,0.94,0.4
			c0.57-0.25,0.93-0.4,0.93-0.4C7.92,19.73,7.65,18.46,7.65,18.46z"/>
		<path class="st4" d="M13.99,20.65c-0.17-1.02-0.3-1.88-0.95-2.68c-0.98-1.2-3.68-1.39-3.68-1.39s0.06,2.36-2.12,3.84
			c-2.19-1.47-2.13-3.84-2.13-3.84s-2.7,0.19-3.68,1.39c-0.65,0.8-0.78,1.66-0.95,2.68C0.23,22.25,0,25.1,0,25.1h14.48
			C14.48,25.1,14.25,22.25,13.99,20.65z"/>
		<g>
			<path class="st5" d="M3.72,12.02c0,0-0.56-1.64,0.17-2.84c0.72-1.2,1.84-1.59,2.45-1.78c0.6-0.18,1.68-0.3,2.32-0.07
				C9.3,7.56,9.41,7.6,9.73,8.29c0.39,0.09,1.19,0.74,1.22,1.32c0.03,0.58,0.11,1.4-0.15,2.41c0.23-0.1,0.37,0.03,0.4,0.26
				c0.03,0.23,0.08,0.51-0.12,0.84c-0.2,0.33-0.35,0.54-0.81,0.6c0,0-0.23,0.73-0.68,1.36c-0.45,0.63-0.79,1.03-1.35,1.33
				c-0.57,0.31-0.86,0.24-1.02,0.24c-0.29,0-1.04-0.18-1.46-0.59c-0.42-0.4-0.78-0.88-1.01-1.31c-0.23-0.42-0.47-1.05-0.47-1.05
				s-0.27,0.12-0.58-0.27c-0.31-0.39-0.43-0.71-0.38-1.15C3.36,11.85,3.72,12.02,3.72,12.02z"/>
			<path class="st6" d="M10.64,12.39c-0.05,0.07,0.05-1.15,0.05-1.42c0-0.27-0.02-0.59-0.06-0.92c-0.05-0.33-0.17-0.85-0.45-0.56
				c-0.15,0.16-0.24,0.25-0.48,0.4c-0.42,0.26-1.14,0.37-2.39,0.49c-1.25,0.12-3.09,0.13-3.19,0.52c-0.1,0.38-0.13,0.99-0.13,1.27
				c0,0.28-0.07,0.07-0.33-0.27c-0.25-0.34-0.58-1.24-0.42-1.98c0.16-0.74,0.51-1.76,2.23-2.5c1.72-0.74,3.67-0.19,4.13,0
				c0.46,0.19,0.97,0.69,1,0.99c0.02,0.22,0.09,0.45,0.29,0.59c0.4,0.29,0.45,1.01,0.33,1.74C11.1,11.56,10.82,12.15,10.64,12.39z"
				/>
		</g>
		<g>
			<path class="st7" d="M11.08,18.55l0,0.05l0.55,0.01l0-0.05c0.01-0.27,0.03-0.91-0.24-1.57c-0.24-0.08-0.48-0.15-0.71-0.2
				C11.12,17.48,11.09,18.23,11.08,18.55z"/>
			<g>
				<path class="st8" d="M11.92,19.16c-0.02-0.01-0.03-0.04-0.03-0.07c-0.01-0.25-0.02-0.44-0.19-0.69
					c-0.15-0.22-0.46-0.28-0.68-0.06c-0.14,0.15-0.27,0.33-0.35,0.54c-0.01,0.03-0.04,0.05-0.07,0.06
					c-0.12,0.07-0.25,0.11-0.37,0.19c-0.42,0.26-0.73,0.64-1,1.05c-0.42,0.63-0.73,1.31-0.99,2.02c-0.1,0.28-0.08,0.55,0.11,0.78
					c0.11,0.13,0.24,0.26,0.36,0.38c0.03,0.03,0.05,0.06,0.07,0.1c0.11,0.25,0.38,0.39,0.65,0.33c0.26-0.06,0.44-0.31,0.43-0.57
					c-0.02-0.41-0.45-0.66-0.82-0.47c-0.02,0.01-0.05,0.02-0.06,0.01c-0.12-0.06-0.19-0.24-0.14-0.37c0.02-0.04,0.03-0.09,0.05-0.13
					c0.27-0.72,0.6-1.4,1.06-2.01c0.2-0.27,0.43-0.51,0.73-0.66c0.26-0.14,0.53-0.16,0.79,0c0.15,0.09,0.26,0.22,0.36,0.37
					c0.27,0.41,0.39,0.87,0.49,1.33c0.11,0.54,0.15,1.1,0.17,1.65c0,0.17-0.04,0.28-0.2,0.35c0,0-0.01,0-0.01,0.01
					c-0.04,0.03-0.07,0.02-0.11-0.01c-0.21-0.23-0.57-0.23-0.8-0.01c-0.22,0.21-0.21,0.58,0.01,0.8c0.22,0.22,0.59,0.2,0.8-0.03
					c0.03-0.03,0.07-0.06,0.11-0.07c0.32-0.14,0.63-0.28,0.79-0.62c0.01-0.07,0.02-0.13,0.04-0.2c0-0.19,0-0.39-0.02-0.59
					c-0.04-0.84-0.16-1.67-0.48-2.45C12.44,19.75,12.23,19.42,11.92,19.16z"/>
				<path class="st9" d="M11.14,23.56c0.05-0.31,0.35-0.53,0.67-0.47c0.32,0.05,0.53,0.35,0.48,0.67c-0.06,0.31-0.35,0.53-0.67,0.47
					C11.3,24.18,11.09,23.88,11.14,23.56z"/>
				<path class="st9" d="M8.75,23.16c0.06-0.31,0.35-0.53,0.67-0.47c0.32,0.06,0.53,0.35,0.48,0.67c-0.05,0.32-0.35,0.53-0.67,0.47
					C8.91,23.77,8.7,23.47,8.75,23.16z"/>
			</g>
		</g>
		<g>
			<path class="st7" d="M4.74,22.49c-0.62-0.96-1.45-2.97-0.3-5.83c-0.19,0.03-0.41,0.07-0.64,0.13c-1.09,3.04-0.05,5.18,0.48,6
				L4.74,22.49z"/>
			<g>
				<path class="st10" d="M5.3,22.64c0,0.43-0.35,0.79-0.79,0.79c-0.44,0-0.79-0.36-0.79-0.79c0-0.43,0.35-0.79,0.79-0.79
					C4.95,21.85,5.3,22.21,5.3,22.64z"/>
				<g>
					<path class="st9" d="M4.84,22.64c0,0.18-0.15,0.34-0.34,0.34c-0.18,0-0.33-0.16-0.33-0.34c0-0.18,0.15-0.33,0.33-0.33
						C4.69,22.3,4.84,22.46,4.84,22.64z"/>
					<path class="st8" d="M4.51,21.3c-0.74,0-1.34,0.6-1.34,1.34c0,0.74,0.6,1.34,1.34,1.34c0.74,0,1.34-0.6,1.34-1.34
						C5.86,21.9,5.25,21.3,4.51,21.3z M4.51,23.3c-0.37,0-0.67-0.29-0.67-0.66c0-0.37,0.3-0.66,0.67-0.66c0.37,0,0.66,0.3,0.66,0.66
						C5.18,23.01,4.88,23.3,4.51,23.3z"/>
				</g>
			</g>
		</g>
		<path class="st11" d="M5.32,16.15c0,0,0.5,1.04,1.92,1.34c-0.39,0.41-0.53,0.76-0.52,1.01c-0.74-0.29-1.6-1.1-1.65-1.91
			C5.16,16.24,5.32,16.15,5.32,16.15z"/>
		<path class="st11" d="M9.16,16.15c0,0-0.5,1.04-1.92,1.34c0.39,0.41,0.54,0.76,0.52,1.01c0.74-0.29,1.6-1.1,1.65-1.91
			C9.32,16.24,9.16,16.15,9.16,16.15z"/>
	</g>
	<g>
		<path class="st1" d="M38.06,22.36c-0.73,0.65-3.38,0.64-3.9,0.57c-0.51,0.07-3.17,0.08-3.9-0.57c0.16,1.07,0.37,1.81,0.09,3.46
			c-0.26,1.49,3.1,3.04,3.81,3.35c0.71-0.31,4.07-1.86,3.81-3.35C37.69,24.17,37.9,23.43,38.06,22.36z"/>
		<path class="st2" d="M38.34,24.97c0,0-2.3,3.43-4.17,3.19C32.3,28.4,30,24.97,30,24.97c-0.31,1.84,0.78,7.63,4.17,7.87
			C37.56,32.6,38.64,26.81,38.34,24.97z"/>
		<path class="st3" d="M34.94,28.56l0.41-0.82l-1.18-1.04l-1.18,1.04l0.41,0.82c0,0-0.53,2.43-1.02,4.51c0,0,0.69,0.29,1.78,0.77
			c1.1-0.48,1.79-0.77,1.79-0.77C35.46,30.99,34.94,28.56,34.94,28.56z"/>
		<path class="st4" d="M47.06,32.75c-0.32-1.95-0.57-3.6-1.81-5.12c-1.87-2.29-7.03-2.66-7.03-2.66s0.12,4.52-4.06,7.33
			c-4.18-2.82-4.06-7.33-4.06-7.33s-5.16,0.37-7.03,2.66c-1.24,1.52-1.49,3.17-1.81,5.12c-0.49,3.05-0.94,8.5-0.94,8.5H48
			C48,41.25,47.56,35.81,47.06,32.75z"/>
		<g>
			<path class="st5" d="M27.43,16.26c0,0-1.07-3.13,0.32-5.43c1.38-2.3,3.53-3.05,4.67-3.41c1.15-0.35,3.21-0.57,4.44-0.14
				c1.23,0.43,1.44,0.5,2.05,1.84c0.74,0.18,2.27,1.41,2.33,2.53c0.06,1.12,0.21,2.67-0.3,4.61c0.43-0.19,0.71,0.06,0.77,0.5
				c0.06,0.45,0.15,0.97-0.24,1.59c-0.38,0.62-0.66,1.04-1.55,1.16c0,0-0.43,1.4-1.3,2.6c-0.87,1.2-1.51,1.96-2.58,2.54
				c-1.08,0.58-1.64,0.46-1.96,0.45c-0.56-0.01-1.99-0.35-2.79-1.12c-0.81-0.77-1.5-1.68-1.93-2.49c-0.43-0.81-0.89-2-0.89-2
				s-0.52,0.24-1.11-0.51c-0.6-0.75-0.82-1.36-0.72-2.21C26.74,15.92,27.43,16.26,27.43,16.26z"/>
			<path class="st6" d="M40.66,16.96c-0.1,0.14,0.09-2.2,0.09-2.71c0-0.51-0.03-1.14-0.12-1.76c-0.09-0.62-0.33-1.63-0.85-1.07
				c-0.28,0.31-0.46,0.49-0.91,0.77c-0.8,0.49-2.18,0.71-4.57,0.93c-2.39,0.23-5.91,0.26-6.09,0.99c-0.18,0.73-0.24,1.9-0.24,2.43
				c0,0.54-0.14,0.14-0.62-0.51c-0.49-0.65-1.11-2.37-0.81-3.79c0.3-1.41,0.97-3.36,4.25-4.78c3.28-1.41,7.02-0.37,7.9,0
				c0.88,0.37,1.86,1.31,1.91,1.89c0.04,0.41,0.17,0.86,0.55,1.13c0.77,0.56,0.86,1.93,0.64,3.33
				C41.54,15.36,41.01,16.5,40.66,16.96z"/>
		</g>
		<g>
			<path class="st7" d="M41.51,28.73l0,0.1l1.05,0.03l0-0.09c0.02-0.52,0.06-1.74-0.45-3.01c-0.46-0.15-0.92-0.27-1.36-0.37
				C41.58,26.68,41.53,28.11,41.51,28.73z"/>
			<g>
				<path class="st8" d="M43.1,29.9c-0.04-0.02-0.05-0.08-0.06-0.12c-0.02-0.47-0.03-0.84-0.36-1.33c-0.28-0.42-0.88-0.55-1.29-0.11
					c-0.27,0.28-0.52,0.64-0.68,1.02c-0.02,0.05-0.08,0.09-0.13,0.12c-0.23,0.13-0.49,0.22-0.71,0.36c-0.81,0.5-1.39,1.23-1.91,2.01
					c-0.81,1.2-1.4,2.51-1.89,3.87c-0.19,0.55-0.16,1.04,0.21,1.5c0.21,0.25,0.46,0.49,0.69,0.73c0.05,0.05,0.1,0.12,0.13,0.19
					c0.21,0.47,0.73,0.74,1.24,0.62c0.49-0.12,0.85-0.59,0.82-1.09c-0.04-0.79-0.86-1.26-1.57-0.9c-0.04,0.02-0.09,0.03-0.12,0.02
					c-0.23-0.11-0.36-0.46-0.27-0.7c0.03-0.08,0.06-0.17,0.09-0.25c0.51-1.37,1.14-2.68,2.03-3.85c0.39-0.51,0.82-0.97,1.4-1.27
					c0.5-0.26,1-0.29,1.5,0c0.29,0.17,0.51,0.42,0.69,0.7c0.51,0.78,0.74,1.66,0.92,2.55c0.22,1.04,0.29,2.1,0.32,3.16
					c0.01,0.32-0.09,0.54-0.39,0.66c-0.01,0-0.02,0.01-0.03,0.02c-0.08,0.05-0.13,0.05-0.2-0.03c-0.41-0.44-1.1-0.45-1.53-0.02
					c-0.41,0.41-0.41,1.11,0.02,1.52c0.43,0.41,1.13,0.39,1.53-0.05c0.05-0.06,0.13-0.11,0.21-0.14c0.61-0.26,1.2-0.53,1.51-1.18
					c0.02-0.13,0.05-0.26,0.06-0.39c-0.01-0.37-0.01-0.75-0.03-1.12c-0.08-1.61-0.3-3.19-0.92-4.69
					C44.1,31.02,43.71,30.39,43.1,29.9z"/>
				<path class="st9" d="M41.62,38.31c0.1-0.6,0.68-1.01,1.28-0.91c0.61,0.1,1.02,0.67,0.92,1.27c-0.11,0.6-0.68,1.01-1.28,0.9
					C41.93,39.48,41.51,38.91,41.62,38.31z"/>
				<path class="st9" d="M37.05,37.54c0.1-0.6,0.68-1.01,1.28-0.9c0.61,0.11,1.01,0.67,0.91,1.27c-0.1,0.6-0.68,1.01-1.28,0.9
					C37.36,38.71,36.95,38.14,37.05,37.54z"/>
			</g>
		</g>
		<g>
			<path class="st7" d="M29.39,36.26c-1.18-1.83-2.77-5.67-0.56-11.14c-0.36,0.06-0.78,0.14-1.22,0.24
				c-2.09,5.8-0.1,9.91,0.91,11.47L29.39,36.26z"/>
			<g>
				<path class="st10" d="M30.46,36.55c0,0.83-0.68,1.51-1.51,1.51c-0.83,0-1.51-0.68-1.51-1.51c0-0.83,0.68-1.51,1.51-1.51
					C29.78,35.04,30.46,35.72,30.46,36.55z"/>
				<g>
					<path class="st9" d="M29.59,36.55c0,0.35-0.29,0.64-0.64,0.64c-0.35-0.01-0.64-0.3-0.64-0.65c0-0.35,0.29-0.63,0.63-0.63
						C29.29,35.9,29.59,36.2,29.59,36.55z"/>
					<path class="st8" d="M28.95,33.99c-1.42,0-2.56,1.15-2.56,2.56c0,1.42,1.15,2.56,2.56,2.56c1.41,0,2.56-1.15,2.56-2.56
						C31.52,35.14,30.37,33.99,28.95,33.99z M28.95,37.82c-0.7,0-1.27-0.57-1.27-1.27c0-0.7,0.57-1.27,1.27-1.27
						c0.7,0,1.27,0.57,1.27,1.27C30.22,37.25,29.65,37.82,28.95,37.82z"/>
				</g>
			</g>
		</g>
		<path class="st11" d="M30.49,24.15c0,0,0.96,1.98,3.67,2.55c-0.74,0.79-1.02,1.45-0.99,1.92c-1.41-0.56-3.06-2.1-3.16-3.65
			C30.2,24.32,30.49,24.15,30.49,24.15z"/>
		<path class="st11" d="M37.84,24.15c0,0-0.96,1.98-3.68,2.55c0.74,0.79,1.02,1.45,0.99,1.92c1.41-0.56,3.06-2.1,3.16-3.65
			C38.13,24.32,37.84,24.15,37.84,24.15z"/>
	</g>
</g>
</svg>
