<?xml version="1.0" encoding="utf-8"?>
<!-- Generator: Adobe Illustrator 27.2.0, SVG Export Plug-In . SVG Version: 6.00 Build 0)  -->
<svg version="1.1" id="Calque_1" xmlns="http://www.w3.org/2000/svg" xmlns:xlink="http://www.w3.org/1999/xlink" x="0px" y="0px"
	 viewBox="0 0 48 48" style="enable-background:new 0 0 48 48;" xml:space="preserve">
<style type="text/css">
	.st0{fill:#901348;}
	.st1{fill:#CF4C2F;}
	.st2{fill:#EC8928;}
	.st3{fill:url(#SVGID_1_);}
	.st4{fill:url(#SVGID_00000039847811960489226380000018379974231666045618_);}
	.st5{fill:#1D1E1C;}
</style>
<g>
	<g>
		<rect x="2.34" class="st0" width="15.3" height="10.66"/>
		<rect x="17.64" class="st0" width="18.02" height="10.66"/>
		<rect x="2.34" y="13.67" class="st1" width="15.3" height="10.66"/>
		<rect x="20.34" y="13.78" class="st1" width="15.3" height="10.66"/>
		<rect x="2.34" y="27.34" class="st2" width="15.3" height="10.66"/>
		<rect x="17.64" y="27.34" class="st2" width="18.02" height="10.66"/>
	</g>
</g>
<g>
	
		<linearGradient id="SVGID_1_" gradientUnits="userSpaceOnUse" x1="534.179" y1="440.7985" x2="540.0564" y2="440.7985" gradientTransform="matrix(0.7071 0.7071 -0.7071 0.7071 -40.6605 -646.9377)">
		<stop  offset="0" style="stop-color:#F5B378"/>
		<stop  offset="0.3685" style="stop-color:#F6AF74"/>
		<stop  offset="0.7497" style="stop-color:#FBA26A"/>
		<stop  offset="1" style="stop-color:#FF965F"/>
	</linearGradient>
	<path class="st3" d="M24.29,47.96l8.14-4.23c-0.21-0.57-0.66-1.58-1.62-2.54c-0.96-0.96-1.97-1.41-2.54-1.62
		c-0.92,2-3.3,6.06-4.22,8.11C23.97,47.85,24.12,48.02,24.29,47.96z"/>
	
		<linearGradient id="SVGID_00000029019916022860231150000017836163712206395520_" gradientUnits="userSpaceOnUse" x1="534.1784" y1="425.1871" x2="540.0564" y2="425.1871" gradientTransform="matrix(0.7071 0.7071 -0.7071 0.7071 -40.6605 -646.9377)">
		<stop  offset="0" style="stop-color:#1C779C"/>
		<stop  offset="0.4689" style="stop-color:#1C6E9C"/>
		<stop  offset="1" style="stop-color:#1C5E9C"/>
	</linearGradient>
	<path style="fill:url(#SVGID_00000029019916022860231150000017836163712206395520_);" d="M46.62,25.37
		c-0.58-0.58-1.17-0.97-1.68-1.23c-0.49-0.26-1.09-0.15-1.48,0.24L28.27,39.57c0.57,0.21,1.58,0.66,2.54,1.62
		c0.96,0.96,1.41,1.97,1.62,2.54l15.19-15.19c0.39-0.39,0.5-0.99,0.24-1.48C47.59,26.55,47.2,25.95,46.62,25.37z"/>
	<path class="st5" d="M24.23,47.99l3.86-2.01c-0.01-0.12-0.24-0.8-0.76-1.32c-0.56-0.56-1.21-0.74-1.33-0.75
		c-0.28,0.55-1.74,3.25-1.98,3.86C23.96,47.91,24.09,48.04,24.23,47.99z"/>
</g>
</svg>
