<?xml version="1.0" encoding="utf-8"?>
<!-- Generator: Adobe Illustrator 27.2.0, SVG Export Plug-In . SVG Version: 6.00 Build 0)  -->
<svg version="1.1" id="Calque_1" xmlns="http://www.w3.org/2000/svg" xmlns:xlink="http://www.w3.org/1999/xlink" x="0px" y="0px"
	 viewBox="0 0 48 48" style="enable-background:new 0 0 48 48;" xml:space="preserve">
<style type="text/css">
	.st0{fill:url(#SVGID_1_);}
	.st1{fill:url(#SVGID_00000040555821429313074700000002995774108603530910_);}
	.st2{fill:#1D1E1C;}
</style>
<g>
	
		<linearGradient id="SVGID_1_" gradientUnits="userSpaceOnUse" x1="514.1478" y1="452.6913" x2="526.1476" y2="452.6913" gradientTransform="matrix(0.7071 0.7071 -0.7071 0.7071 -40.6605 -646.9377)">
		<stop  offset="0" style="stop-color:#F5B378"/>
		<stop  offset="0.3685" style="stop-color:#F6AF74"/>
		<stop  offset="0.7497" style="stop-color:#FBA26A"/>
		<stop  offset="1" style="stop-color:#FF965F"/>
	</linearGradient>
	<path class="st0" d="M0.59,47.91l16.62-8.63c-0.42-1.16-1.34-3.23-3.3-5.19c-1.96-1.96-4.03-2.88-5.18-3.3
		C6.85,34.88,1.97,43.17,0.1,47.36C-0.05,47.69,0.24,48.04,0.59,47.91z"/>
	
		<linearGradient id="SVGID_00000163778930453732657880000017934968395159455392_" gradientUnits="userSpaceOnUse" x1="514.1467" y1="421.525" x2="526.1476" y2="421.525" gradientTransform="matrix(0.7071 0.7071 -0.7071 0.7071 -40.6605 -646.9377)">
		<stop  offset="0" style="stop-color:#1C779C"/>
		<stop  offset="0.4689" style="stop-color:#1C6E9C"/>
		<stop  offset="1" style="stop-color:#1C5E9C"/>
	</linearGradient>
	<path style="fill:url(#SVGID_00000163778930453732657880000017934968395159455392_);" d="M45.19,2.81
		c-1.17-1.17-2.39-1.98-3.42-2.52c-1-0.53-2.23-0.31-3.03,0.49L8.72,30.8c1.16,0.42,3.22,1.34,5.18,3.3
		c1.96,1.96,2.88,4.03,3.3,5.19L47.22,9.26c0.8-0.8,1.01-2.03,0.49-3.03C47.17,5.2,46.37,3.98,45.19,2.81z"/>
	<path class="st2" d="M0.46,47.98l7.88-4.09c-0.03-0.25-0.5-1.63-1.55-2.69c-1.15-1.15-2.47-1.51-2.72-1.54
		c-0.57,1.12-3.55,6.63-4.05,7.88C-0.08,47.81,0.19,48.08,0.46,47.98z"/>
</g>
</svg>
