<?xml version="1.0" encoding="utf-8"?>
<!-- Generator: Adobe Illustrator 27.2.0, SVG Export Plug-In . SVG Version: 6.00 Build 0)  -->
<svg version="1.1" id="Calque_1" xmlns="http://www.w3.org/2000/svg" xmlns:xlink="http://www.w3.org/1999/xlink" x="0px" y="0px"
	 viewBox="0 0 48 48" style="enable-background:new 0 0 48 48;" xml:space="preserve">
<style type="text/css">
	.st0{fill:#E30A18;}
	.st1{fill:#4DBBB6;}
</style>
<g>
	<path class="st0" d="M17.79,24.89c-0.26,0-0.53-0.09-0.74-0.26L1.45,12.2c-0.51-0.41-0.6-1.16-0.19-1.67
		c0.41-0.51,1.16-0.6,1.67-0.19l14.85,11.83L45.05,0.26c0.51-0.41,1.26-0.33,1.67,0.18s0.33,1.26-0.18,1.67L18.53,24.62
		C18.31,24.8,18.05,24.89,17.79,24.89z"/>
	<path class="st1" d="M45.81,48c-0.66,0-1.19-0.53-1.19-1.19v-32.4L18.54,35.58c-0.43,0.35-1.06,0.36-1.49,0.01L1.45,23.16
		c-0.51-0.41-0.6-1.16-0.19-1.67c0.41-0.51,1.16-0.6,1.67-0.19l14.85,11.83l27.28-22.14c0.36-0.29,0.85-0.35,1.26-0.15
		c0.41,0.2,0.68,0.61,0.68,1.07v34.89C47,47.47,46.47,48,45.81,48z"/>
</g>
</svg>
