<?xml version="1.0" encoding="utf-8"?>
<!-- Generator: Adobe Illustrator 27.2.0, SVG Export Plug-In . SVG Version: 6.00 Build 0)  -->
<svg version="1.1" id="Calque_1" xmlns="http://www.w3.org/2000/svg" xmlns:xlink="http://www.w3.org/1999/xlink" x="0px" y="0px"
	 viewBox="0 0 48 48" style="enable-background:new 0 0 48 48;" xml:space="preserve">
<style type="text/css">
	.st0{fill:#1C779C;}
	.st1{fill:#EE810B;}
</style>
<g>
	<g>
		<path class="st0" d="M15.16,20.42c-0.37,0-0.74-0.21-0.9-0.59c-0.23-0.5,0-1.09,0.5-1.3l16.2-7.22c0.5-0.22,1.09,0,1.3,0.5
			c0.23,0.5,0,1.09-0.5,1.3l-16.2,7.23C15.43,20.39,15.3,20.42,15.16,20.42z"/>
		<path class="st0" d="M31.37,36.79c-0.14,0-0.28-0.03-0.41-0.09l-16.05-7.44c-0.5-0.22-0.71-0.82-0.48-1.31
			c0.23-0.5,0.82-0.71,1.31-0.48l16.04,7.45c0.5,0.22,0.71,0.81,0.48,1.31C32.09,36.57,31.73,36.79,31.37,36.79z"/>
		<path class="st1" d="M8.81,32.82C3.96,32.82,0,28.87,0,24s3.96-8.82,8.81-8.82c4.86,0,8.81,3.97,8.81,8.82
			C17.63,28.87,13.67,32.82,8.81,32.82z"/>
		<path class="st1" d="M39.19,18.39c-4.86,0-8.81-3.97-8.81-8.82s3.96-8.82,8.81-8.82c4.86,0,8.81,3.97,8.81,8.82
			S44.04,18.39,39.19,18.39z"/>
		<path class="st1" d="M39.19,47.25c-4.86,0-8.81-3.97-8.81-8.82c0-4.87,3.96-8.82,8.81-8.82c4.86,0,8.81,3.97,8.81,8.82
			C48,43.29,44.04,47.25,39.19,47.25z"/>
	</g>
</g>
</svg>
