<?xml version="1.0" encoding="utf-8"?>
<!-- Generator: Adobe Illustrator 25.4.1, SVG Export Plug-In . SVG Version: 6.00 Build 0)  -->
<svg version="1.1" id="Calque_1" xmlns="http://www.w3.org/2000/svg" xmlns:xlink="http://www.w3.org/1999/xlink" x="0px" y="0px"
	 viewBox="0 0 48 48" style="enable-background:new 0 0 48 48;" xml:space="preserve">
<style type="text/css">
	.st0{fill:#FFFFFF;}
	.st1{fill:#B12917;}
</style>
<g id="path26_73_">
	<path class="st0" d="M8.5,47c-0.57,0-1.04-0.46-1.04-1.04V2.04C7.46,1.46,7.93,1,8.5,1h17.39l14.65,14.65v30.31
		c0,0.57-0.46,1.04-1.04,1.04H8.5z"/>
	<path class="st1" d="M25.47,2l14.07,14.07v29.9c0,0.02-0.02,0.04-0.04,0.04h-31c-0.02,0-0.04-0.02-0.04-0.04V2.04
		C8.46,2.02,8.48,2,8.5,2H25.47 M26.3,0H8.5C7.37,0,6.46,0.91,6.46,2.04v43.93C6.46,47.09,7.37,48,8.5,48h31
		c1.12,0,2.04-0.91,2.04-2.04V15.24L26.3,0L26.3,0z"/>
</g>
<path id="path32_44_" class="st1" d="M26.3,0l15.24,15.24h-13.2c-1.12,0-2.04-0.91-2.04-2.04V0z"/>
<rect x="2.97" y="20.62" class="st1" width="42.06" height="20.61"/>
<g>
	<path class="st0" d="M8.88,25.25C9.73,25.1,10.91,25,12.57,25c1.68,0,2.88,0.32,3.69,0.97c0.77,0.61,1.29,1.61,1.29,2.79
		c0,1.18-0.4,2.18-1.11,2.86c-0.93,0.88-2.31,1.27-3.92,1.27c-0.36,0-0.68-0.02-0.93-0.05v4.31h-2.7V25.25z M11.59,30.73
		c0.23,0.05,0.52,0.07,0.91,0.07c1.45,0,2.34-0.73,2.34-1.97c0-1.11-0.77-1.77-2.13-1.77c-0.55,0-0.93,0.05-1.13,0.11V30.73z"/>
	<path class="st0" d="M19.28,25.25c1-0.16,2.31-0.25,3.69-0.25c2.29,0,3.78,0.41,4.94,1.29c1.25,0.93,2.04,2.42,2.04,4.55
		c0,2.31-0.84,3.9-2,4.89c-1.27,1.06-3.21,1.56-5.57,1.56c-1.41,0-2.42-0.09-3.1-0.18V25.25z M22.02,35.09
		c0.24,0.05,0.61,0.05,0.95,0.05c2.47,0.02,4.08-1.34,4.08-4.23c0.02-2.51-1.45-3.83-3.79-3.83c-0.61,0-1,0.05-1.24,0.11V35.09z"/>
	<path class="st0" d="M31.74,25.09h7.37v2.24h-4.64v2.76h4.33v2.22h-4.33v4.85h-2.74V25.09z"/>
</g>
</svg>
