<?xml version="1.0" encoding="utf-8"?>
<!-- Generator: Adobe Illustrator 27.2.0, SVG Export Plug-In . SVG Version: 6.00 Build 0)  -->
<svg version="1.1" id="Calque_1" xmlns="http://www.w3.org/2000/svg" xmlns:xlink="http://www.w3.org/1999/xlink" x="0px" y="0px"
	 viewBox="0 0 48 48" style="enable-background:new 0 0 48 48;" xml:space="preserve">
<style type="text/css">
	.st0{fill:#585856;}
	.st1{fill:#F19001;}
	.st2{fill:#FFFFFF;}
	.st3{fill:#9B9A9A;}
	.st4{fill:#BD1823;}
	.st5{fill:#3C3C3B;}
	.st6{fill:#1D1E1C;}
</style>
<g>
	<path class="st0" d="M10.6,6.07c0,0.6-0.49,1.09-1.09,1.09l0,0c-0.6,0-1.09-0.49-1.09-1.09V1.09C8.41,0.49,8.9,0,9.5,0l0,0
		c0.6,0,1.09,0.49,1.09,1.09V6.07z"/>
	<path class="st0" d="M20.09,6.1c0,0.6-0.49,1.09-1.09,1.09l0,0c-0.6,0-1.09-0.49-1.09-1.09V1.11c0-0.6,0.49-1.09,1.09-1.09l0,0
		c0.6,0,1.09,0.49,1.09,1.09V6.1z"/>
	<path class="st0" d="M29.59,6.1c0,0.6-0.49,1.09-1.09,1.09l0,0c-0.6,0-1.09-0.49-1.09-1.09V1.11c0-0.6,0.49-1.09,1.09-1.09l0,0
		c0.6,0,1.09,0.49,1.09,1.09V6.1z"/>
	<path class="st1" d="M34.34,3.62h-3.89v2.73c0,1.07-0.87,1.95-1.95,1.95c-1.08,0-1.95-0.87-1.95-1.95V3.62h-5.6v2.73
		c0,1.07-0.88,1.95-1.95,1.95c-1.08,0-1.95-0.87-1.95-1.95V3.62h-5.6v2.71c0,1.07-0.87,1.94-1.95,1.94c-1.08,0-1.95-0.87-1.95-1.94
		V3.62H3.66C1.64,3.62,0,5.25,0,7.26v27.09C0,36.37,1.64,38,3.66,38h30.68c2.02,0,3.66-1.63,3.66-3.64V7.26
		C38,5.25,36.37,3.62,34.34,3.62z"/>
	<path class="st2" d="M1.58,13.24V33.2c0,1.78,1.5,3.23,3.35,3.23h28.15c1.85,0,3.36-1.44,3.36-3.23V13.24H1.58z"/>
	<path class="st3" d="M18.08,19.75c0,0.16-0.13,0.29-0.28,0.29h-5.57c-0.16,0-0.29-0.13-0.29-0.29v-3.66c0-0.16,0.13-0.29,0.29-0.29
		h5.57c0.16,0,0.28,0.13,0.28,0.29V19.75z"/>
	<path class="st3" d="M26.06,19.75c0,0.16-0.13,0.29-0.29,0.29H20.2c-0.16,0-0.29-0.13-0.29-0.29v-3.66c0-0.16,0.13-0.29,0.29-0.29
		h5.57c0.16,0,0.29,0.13,0.29,0.29V19.75z"/>
	<path class="st3" d="M34.04,19.75c0,0.16-0.13,0.29-0.29,0.29h-5.57c-0.16,0-0.29-0.13-0.29-0.29v-3.66c0-0.16,0.13-0.29,0.29-0.29
		h5.57c0.16,0,0.29,0.13,0.29,0.29V19.75z"/>
	<path class="st3" d="M10.1,26.67c0,0.16-0.13,0.29-0.29,0.29H4.25c-0.16,0-0.29-0.13-0.29-0.29v-3.66c0-0.16,0.13-0.29,0.29-0.29
		h5.57c0.16,0,0.29,0.13,0.29,0.29V26.67z"/>
	<path class="st3" d="M18.08,26.67c0,0.16-0.13,0.29-0.28,0.29h-5.57c-0.16,0-0.29-0.13-0.29-0.29v-3.66c0-0.16,0.13-0.29,0.29-0.29
		h5.57c0.16,0,0.28,0.13,0.28,0.29V26.67z"/>
	<path class="st4" d="M26.06,26.67c0,0.16-0.13,0.29-0.29,0.29H20.2c-0.16,0-0.29-0.13-0.29-0.29v-3.66c0-0.16,0.13-0.29,0.29-0.29
		h5.57c0.16,0,0.29,0.13,0.29,0.29V26.67z"/>
	<path class="st3" d="M34.04,26.67c0,0.16-0.13,0.29-0.29,0.29h-5.57c-0.16,0-0.29-0.13-0.29-0.29v-3.66c0-0.16,0.13-0.29,0.29-0.29
		h5.57c0.16,0,0.29,0.13,0.29,0.29V26.67z"/>
	<path class="st3" d="M26.06,33.59c0,0.16-0.13,0.29-0.29,0.29H20.2c-0.16,0-0.29-0.13-0.29-0.29v-3.66c0-0.16,0.13-0.29,0.29-0.29
		h5.57c0.16,0,0.29,0.13,0.29,0.29V33.59z"/>
	<path class="st3" d="M34.04,33.59c0,0.16-0.13,0.29-0.29,0.29h-5.57c-0.16,0-0.29-0.13-0.29-0.29v-3.66c0-0.16,0.13-0.29,0.29-0.29
		h5.57c0.16,0,0.29,0.13,0.29,0.29V33.59z"/>
	<path class="st3" d="M10.1,33.59c0,0.16-0.13,0.29-0.29,0.29H4.25c-0.16,0-0.29-0.13-0.29-0.29v-3.66c0-0.16,0.13-0.29,0.29-0.29
		h5.57c0.16,0,0.29,0.13,0.29,0.29V33.59z"/>
	<path class="st3" d="M18.08,33.59c0,0.16-0.13,0.29-0.28,0.29h-5.57c-0.16,0-0.29-0.13-0.29-0.29v-3.66c0-0.16,0.13-0.29,0.29-0.29
		h5.57c0.16,0,0.28,0.13,0.28,0.29V33.59z"/>
</g>
<g>
	<path class="st2" d="M46.52,36c0,5.81-4.71,10.52-10.52,10.52S25.48,41.81,25.48,36c0-5.81,4.71-10.52,10.52-10.52
		S46.52,30.19,46.52,36z"/>
	<path class="st5" d="M36,24c-6.63,0-12,5.37-12,12c0,6.63,5.37,12,12,12c6.63,0,12-5.37,12-12C48,29.37,42.63,24,36,24z M36,45.54
		c-5.27,0-9.54-4.27-9.54-9.54c0-5.27,4.27-9.54,9.54-9.54c5.27,0,9.54,4.27,9.54,9.54C45.54,41.27,41.27,45.54,36,45.54z"/>
	<path class="st6" d="M37.13,36c0,0.62-0.51,1.13-1.13,1.13s-1.13-0.51-1.13-1.13c0-0.62,0.51-1.13,1.13-1.13S37.13,35.38,37.13,36z
		"/>
	<path class="st3" d="M37.13,36c0,0.62-0.51,1.13-1.13,1.13l0,0c-0.62,0-1.13-0.5-1.13-1.13v-6.45c0-0.62,0.51-1.13,1.13-1.13l0,0
		c0.62,0,1.13,0.5,1.13,1.13V36z"/>
	<path class="st4" d="M39.98,38.38l-1.94-1.94L36.8,35.2c-0.44-0.44-1.16-0.44-1.6,0c-0.44,0.44-0.44,1.16,0,1.6l1.24,1.24
		l1.95,1.94c0.44,0.44,1.15,0.44,1.6,0C40.42,39.54,40.42,38.83,39.98,38.38z"/>
</g>
</svg>
