<?xml version="1.0" encoding="utf-8"?>
<!-- Generator: Adobe Illustrator 27.2.0, SVG Export Plug-In . SVG Version: 6.00 Build 0)  -->
<svg version="1.1" id="Calque_1" xmlns="http://www.w3.org/2000/svg" xmlns:xlink="http://www.w3.org/1999/xlink" x="0px" y="0px"
	 viewBox="0 0 48 48" style="enable-background:new 0 0 48 48;" xml:space="preserve">
<style type="text/css">
	.st0{fill:#1C779C;}
	.st1{fill:#FFFFFF;}
</style>
<g>
	<path class="st0" d="M24.48,29.48c-1.22-3.71-4.34-6.27-7.6-7.41c1.55-1.24,2.54-3.13,2.54-5.24c0-3.74-3.12-6.77-6.95-6.77
		c-3.84,0-6.96,3.03-6.96,6.77c0,2.13,1.01,4.03,2.59,5.27C7.17,22.46,0.82,25.15,0,32.74c-0.07,2.28,1.24,2.77,1.24,2.77v0
		c0,0,0.54,0.51,1.39,0.71c0.18,0.55,0.46,0.99,0.84,1.35v0c0,0,0.63,1.66,6.92,1.96c0.09,0.02,0.19,0.03,0.28,0.05h1.57
		c0.19,0,0.39,0,0.6,0h1.8c0.16-0.03,0.31-0.05,0.47-0.08c6.46-0.43,7.14-2.43,7.14-2.43v0c0.17-0.25,0.31-0.53,0.41-0.85
		C25.59,35.63,25.36,32.15,24.48,29.48z"/>
	<g>
		<path class="st1" d="M31.03,43h-2.07l-0.14-0.03l-0.14-0.02c-7.73-0.38-8.76-2.28-8.77-2.3l-0.04-0.08l-0.07-0.08
			c-0.46-0.45-0.78-0.96-0.98-1.58l-0.09-0.27l-0.28-0.06c-0.97-0.22-1.59-0.8-1.6-0.81l-0.07-0.06l-0.09-0.04
			c-0.06-0.02-1.4-0.59-1.32-3.18c1.06-9.79,9.43-13.24,10.38-13.6l0.83-0.31l-0.69-0.55c-2.06-1.62-3.23-4.01-3.23-6.57
			c0-4.66,3.9-8.45,8.69-8.45s8.69,3.79,8.69,8.45c0,2.54-1.16,4.92-3.17,6.53l-0.7,0.56l0.85,0.3c4.68,1.64,8.32,5.18,9.74,9.48
			c0.45,1.35,1.35,4.72,0.16,6.77c-0.46,0.79-1.18,1.27-2.2,1.47l-0.29,0.06l-0.09,0.28c-0.11,0.36-0.27,0.68-0.49,1l-0.09,0.13
			v0.04c-0.2,0.34-1.7,2.35-8.97,2.83c0,0-0.51,0.08-0.68,0.11L31.03,43z"/>
		<path class="st0" d="M31.35,5.5c4.52,0,8.19,3.56,8.19,7.95c0,2.38-1.09,4.62-2.99,6.14l-1.41,1.13l1.7,0.6
			c4.53,1.59,8.06,5.02,9.43,9.16c0.88,2.68,0.96,5.06,0.2,6.36c-0.39,0.66-0.99,1.06-1.86,1.23l-0.58,0.11l-0.18,0.56
			c-0.1,0.31-0.24,0.59-0.42,0.87l-0.17,0.26v0.04c-0.35,0.44-2.05,2.06-8.51,2.49l-0.08,0.01l-0.05,0.01
			c-0.17,0.03-0.35,0.06-0.52,0.09l-2.29,0l-0.26,0l-0.26,0l-0.26,0h-1.98l-0.14-0.02l-0.14-0.02l-0.06-0.01l-0.06,0
			c-6.03-0.29-7.78-1.53-8.19-1.92v-0.1l-0.31-0.29c-0.4-0.38-0.68-0.83-0.85-1.37l-0.17-0.54l-0.55-0.13
			c-0.44-0.1-0.79-0.29-1.03-0.44l0.01-0.21l-0.65-0.24c-0.04-0.02-1.07-0.51-1.02-2.66c1.05-9.5,9.14-12.84,10.06-13.19l1.65-0.63
			l-1.39-1.09c-1.93-1.52-3.04-3.78-3.04-6.18C23.16,9.06,26.84,5.5,31.35,5.5 M31.35,4.5c-5.08,0-9.19,4.01-9.19,8.95
			c0,2.82,1.34,5.33,3.42,6.97c-1.23,0.47-9.63,4.02-10.71,14.05c-0.09,3.02,1.64,3.66,1.64,3.66v0c0,0,0.71,0.67,1.83,0.93
			c0.23,0.73,0.62,1.31,1.11,1.78v0c0,0,0.83,2.19,9.14,2.6c0.12,0.02,0.25,0.04,0.37,0.06h2.07c0.17,0,0.34,0,0.52,0
			c0.09,0,0.18,0,0.27,0h2.38c0.2-0.04,0.41-0.07,0.62-0.11c8.54-0.56,9.44-3.22,9.44-3.22v0c0.22-0.33,0.41-0.7,0.55-1.12
			c3.89-0.76,3.58-5.36,2.42-8.89c-1.62-4.9-5.73-8.28-10.05-9.79c2.05-1.64,3.36-4.13,3.36-6.92C40.54,8.51,36.43,4.5,31.35,4.5
			L31.35,4.5z"/>
	</g>
</g>
</svg>
