<?xml version="1.0" encoding="utf-8"?>
<!-- Generator: Adobe Illustrator 27.2.0, SVG Export Plug-In . SVG Version: 6.00 Build 0)  -->
<svg version="1.1" id="Calque_1" xmlns="http://www.w3.org/2000/svg" xmlns:xlink="http://www.w3.org/1999/xlink" x="0px" y="0px"
	 viewBox="0 0 48 48" style="enable-background:new 0 0 48 48;" xml:space="preserve">
<style type="text/css">
	.st0{fill:#1C779C;}
</style>
<path class="st0" d="M43.31,31.58c-1.98-6.04-7.01-10.19-12.28-12.05c2.51-2.02,4.11-5.09,4.11-8.52C35.13,4.93,30.1,0,23.9,0
	c-6.21,0-11.24,4.93-11.24,11.01c0,3.47,1.64,6.55,4.19,8.57c-1.51,0.57-11.77,4.94-13.09,17.3c-0.11,3.72,2,4.5,2,4.5v0
	c0,0,0.87,0.83,2.24,1.15c0.29,0.89,0.75,1.61,1.35,2.19v0c0,0,1.01,2.7,11.18,3.2c0.15,0.03,0.3,0.05,0.45,0.08h2.53
	c0.31,0,0.63,0,0.97,0h2.9c0.25-0.05,0.51-0.09,0.76-0.13c10.44-0.69,11.54-3.96,11.54-3.96v-0.01c0.27-0.41,0.51-0.86,0.67-1.38
	C45.1,41.59,44.73,35.93,43.31,31.58z"/>
</svg>
