<?xml version="1.0" encoding="utf-8"?>
<!-- Generator: Adobe Illustrator 27.2.0, SVG Export Plug-In . SVG Version: 6.00 Build 0)  -->
<svg version="1.1" id="Calque_1" xmlns="http://www.w3.org/2000/svg" xmlns:xlink="http://www.w3.org/1999/xlink" x="0px" y="0px"
	 viewBox="0 0 48 48" style="enable-background:new 0 0 48 48;" xml:space="preserve">
<style type="text/css">
	.st0{fill:#FFFFFF;}
	.st1{fill:#1D1E1C;}
	.st2{fill:#A5D3C1;}
	.st3{fill:#706F6E;}
	.st4{fill:#F19001;}
	.st5{fill:#1C779C;}
	.st6{fill:#585856;}
</style>
<g>
	<path class="st0" d="M19.23,14.25h-0.45c-0.75,0-1.36-0.59-1.36-1.32V9.14H8.03v3.79c0,0.73-0.61,1.32-1.35,1.32H6.23
		c-2.24,0-4.06,1.78-4.06,3.97v20.8c0,2.19,1.82,3.97,4.06,3.97h13c2.24,0,4.06-1.78,4.06-3.97h0v-20.8
		C23.3,16.03,21.48,14.25,19.23,14.25z"/>
	<g>
		<path class="st0" d="M20.24,28.71c0,4.1-3.34,7.43-7.46,7.43c-4.12,0-7.46-3.33-7.46-7.43s3.34-7.42,7.46-7.42
			C16.9,21.29,20.24,24.61,20.24,28.71z"/>
		<path class="st1" d="M13.58,28.71c0,0.44-0.36,0.8-0.8,0.8c-0.44,0-0.8-0.36-0.8-0.8c0-0.44,0.36-0.8,0.8-0.8
			C13.22,27.91,13.58,28.27,13.58,28.71z"/>
		<path class="st2" d="M17.86,33.79c1.31-1.3,2.13-3.1,2.13-5.08c0-3.96-3.23-7.17-7.21-7.17v7.04c0,0-0.02,0.03-0.05,0.09
			L17.86,33.79z"/>
		<path class="st3" d="M13.58,28.71c0,0.44-0.36,0.8-0.8,0.8l0,0c-0.44,0-0.8-0.36-0.8-0.8v-4.56c0-0.44,0.36-0.8,0.8-0.8l0,0
			c0.44,0,0.8,0.36,0.8,0.8V28.71z"/>
		<path class="st3" d="M15.6,30.39l-1.38-1.37l-0.88-0.87c-0.31-0.31-0.82-0.31-1.13,0c-0.31,0.31-0.31,0.82,0,1.13l0.88,0.87
			l1.38,1.37c0.32,0.31,0.82,0.31,1.14,0C15.92,31.21,15.92,30.7,15.6,30.39z"/>
		<path class="st4" d="M12.78,20.24c-4.7,0-8.52,3.79-8.52,8.47c0,4.68,3.82,8.47,8.52,8.47c4.7,0,8.51-3.79,8.51-8.47
			C21.29,24.03,17.48,20.24,12.78,20.24z M12.78,35.44c-3.73,0-6.77-3.01-6.77-6.73c0-3.72,3.03-6.73,6.77-6.73
			c3.74,0,6.77,3.01,6.77,6.73C19.54,32.43,16.52,35.44,12.78,35.44z"/>
	</g>
	<g>
		<path class="st0" d="M27.96,35.65c-0.12,0.56-0.08,1.14,0.11,1.67c0.34,0.94,1.11,1.62,2.05,1.82l6.23,1.32l1.25-5.8l-6.23-1.32
			C29.83,33.01,28.3,34.05,27.96,35.65z"/>
		<path class="st5" d="M45.39,35.79l-14-2.98c-1.8-0.39-3.59,0.83-3.99,2.72c-0.4,1.88,0.73,3.72,2.53,4.1l14,2.97
			c1.8,0.39,3.59-0.83,3.99-2.72C48.32,38.01,47.19,36.17,45.39,35.79z M36.18,40.21l-6.02-1.28c-1.42-0.3-2.32-1.75-2-3.24
			c0.32-1.49,1.73-2.45,3.16-2.15l6.01,1.28L36.18,40.21z"/>
	</g>
	<g>
		<path class="st0" d="M32.19,43.36c0.54-0.2,1.02-0.53,1.38-0.97c0.63-0.78,0.81-1.78,0.49-2.69l-2.11-5.97l-5.63,1.97l2.11,5.97
			C28.95,43.15,30.64,43.91,32.19,43.36z"/>
		<path class="st5" d="M23.21,28.49l4.75,13.43c0.61,1.73,2.59,2.61,4.41,1.97c1.83-0.64,2.81-2.56,2.2-4.28l-4.75-13.43
			c-0.61-1.73-2.59-2.61-4.41-1.97C23.59,24.84,22.6,26.77,23.21,28.49z M31.81,34l2.04,5.78c0.48,1.37-0.3,2.88-1.74,3.39
			c-1.44,0.5-3-0.19-3.49-1.56l-2.04-5.77L31.81,34z"/>
	</g>
	<path class="st6" d="M25.55,18.53c-0.04-3.18-2.48-5.82-5.64-6.23V8.6h1.48V3H4.17v5.6h1.48v3.7C2.47,12.72,0,15.39,0,18.61v20.03
		C0,42.15,2.93,45,6.52,45h12.52c3.55,0,6.44-2.79,6.51-6.24V18.53z M22.95,38.63L22.95,38.63c0,2.11-1.76,3.82-3.91,3.82H6.52
		c-2.16,0-3.91-1.71-3.91-3.82V18.61c0-2.11,1.75-3.82,3.91-3.82h0.43c0.72,0,1.3-0.57,1.3-1.27V9.87h9.04v3.65
		c0,0.7,0.58,1.27,1.3,1.27h0.43c2.16,0,3.91,1.71,3.91,3.82V38.63z"/>
</g>
</svg>
