<?xml version="1.0" encoding="utf-8"?>
<!-- Generator: Adobe Illustrator 25.4.1, SVG Export Plug-In . SVG Version: 6.00 Build 0)  -->
<svg version="1.1" id="Calque_1" xmlns="http://www.w3.org/2000/svg" xmlns:xlink="http://www.w3.org/1999/xlink" x="0px" y="0px"
	 viewBox="0 0 48 48" style="enable-background:new 0 0 48 48;" xml:space="preserve">
<style type="text/css">
	.st0{fill:#1C779C;}
</style>
<g id="_x32__audio_simple_repeat_2_6_">
	<g>
		<path class="st0" d="M42.99,29.85c0.62-1.97,0.97-4.05,0.97-6.21c0-11.55-9.32-20.95-20.83-21.1v6.78
			c7.78,0.15,14.06,6.51,14.06,14.32c0,1.08-0.14,2.13-0.37,3.14l-6.34-3.14l4.41,13.11L48,32.34L42.99,29.85z"/>
		<path class="st0" d="M10.81,24.35c0-1.08,0.14-2.13,0.37-3.15l6.34,3.15l-4.41-13.11L0,15.66l5.01,2.48
			c-0.61,1.97-0.97,4.05-0.97,6.21c0,11.55,9.32,20.95,20.83,21.1v-6.78C17.1,38.53,10.81,32.17,10.81,24.35z"/>
	</g>
</g>
</svg>
