<?xml version="1.0" encoding="utf-8"?>
<!-- Generator: Adobe Illustrator 25.3.1, SVG Export Plug-In . SVG Version: 6.00 Build 0)  -->
<svg version="1.1" id="Calque_1" xmlns="http://www.w3.org/2000/svg" xmlns:xlink="http://www.w3.org/1999/xlink" x="0px" y="0px"
	 viewBox="0 0 48 48" style="enable-background:new 0 0 48 48;" xml:space="preserve">
<style type="text/css">
	.st0{fill:#C89D65;}
</style>
<g>
	<path class="st0" d="M45.4,11.8H18.2L16,6.2H2.6C1.2,6.2,0,7.4,0,8.9v30.3c0,1.5,1.2,2.6,2.6,2.6h2.8c0.1-0.1,0.2-0.3,0.3-0.4
		l7.3-8.5c-0.8-1.2-1.3-2.6-1.4-4.2c-0.4-5,3.4-9.3,8.4-9.7c5-0.4,9.3,3.4,9.7,8.4c0.4,5-3.4,9.3-8.4,9.7c-1.6,0.1-3.1-0.2-4.4-0.8
		l0,0.1l-4.7,5.4h33.2c1.5,0,2.6-1.2,2.6-2.6V14.4C48,13,46.8,11.8,45.4,11.8z"/>
	<path class="st0" d="M27,27.6c-0.2-3.5-3.3-6.1-6.7-5.8c-3.5,0.2-6.1,3.3-5.8,6.7c0.2,3.5,3.3,6.1,6.7,5.8
		C24.6,34.1,27.3,31.1,27,27.6z"/>
</g>
</svg>
