<?xml version="1.0" encoding="utf-8"?>
<!-- Generator: Adobe Illustrator 25.3.1, SVG Export Plug-In . SVG Version: 6.00 Build 0)  -->
<svg version="1.1" id="Calque_1" xmlns="http://www.w3.org/2000/svg" xmlns:xlink="http://www.w3.org/1999/xlink" x="0px" y="0px"
	 viewBox="0 0 48 48" style="enable-background:new 0 0 48 48;" xml:space="preserve">
<style type="text/css">
	.st0{fill:#1C789D;}
</style>
<g>
	<path class="st0" d="M28.5,32.5c0-3.7-3-6.7-6.7-6.7c-3.7,0-6.7,3-6.7,6.7c0,3.7,3,6.7,6.7,6.7C25.5,39.2,28.5,36.2,28.5,32.5z"/>
	<path class="st0" d="M43.3,31.6c-2-6-7-10.2-12.3-12.1c2.5-2,4.1-5.1,4.1-8.5c0-6.1-5-11-11.2-11c-6.2,0-11.2,4.9-11.2,11
		c0,3.5,1.6,6.6,4.2,8.6c-1.5,0.6-11.8,4.9-13.1,17.3c-0.1,3.7,2,4.5,2,4.5v0c0,0,0.8,0.7,2,1.1l5.5-5.5c-0.7-1.4-1.1-2.9-1.1-4.6
		c0-5.3,4.3-9.7,9.7-9.7c5.3,0,9.7,4.3,9.7,9.7c0,5.3-4.3,9.7-9.7,9.7c-1.7,0-3.3-0.4-4.7-1.2l-5.5,5.4c1.6,0.7,4.3,1.3,8.9,1.5
		c0.1,0,0.3,0.1,0.4,0.1h2.5c0.3,0,0.6,0,1,0h2.9c0.3,0,0.5-0.1,0.8-0.1c10.4-0.7,11.5-4,11.5-4v0c0.3-0.4,0.5-0.9,0.7-1.4
		C45.1,41.6,44.7,35.9,43.3,31.6z"/>
</g>
</svg>
