<?xml version="1.0" encoding="utf-8"?>
<!-- Generator: Adobe Illustrator 25.3.1, SVG Export Plug-In . SVG Version: 6.00 Build 0)  -->
<svg version="1.1" id="Calque_1" xmlns="http://www.w3.org/2000/svg" xmlns:xlink="http://www.w3.org/1999/xlink" x="0px" y="0px"
	 viewBox="0 0 48 48" style="enable-background:new 0 0 48 48;" xml:space="preserve">
<style type="text/css">
	.st0{fill:#FFFFFF;}
	.st1{fill:#C7C6C6;}
	.st2{fill:#595959;}
</style>
<g>
	<path class="st0" d="M3.2,16.9c0,7.6,6.2,13.8,13.7,13.8c7.6,0,13.7-6.2,13.7-13.8c0-7.6-6.2-13.8-13.7-13.8
		C9.4,3.2,3.2,9.3,3.2,16.9z"/>
	<path class="st1" d="M0,17c0,9.4,7.6,17,16.9,17c3,0,5.7-0.8,8.1-2.1l14.7,14.8c1.9,1.9,4.9,1.9,6.8,0c1.9-1.9,1.9-4.9,0-6.8
		L31.8,24.9c1.3-2.4,2-5.1,2-8c0-9.4-7.6-17-16.9-17C7.6,0,0,7.6,0,17z M5.2,17c0-6.5,5.3-11.8,11.7-11.8c6.5,0,11.7,5.3,11.7,11.8
		c0,6.5-5.3,11.8-11.7,11.8C10.4,28.7,5.2,23.5,5.2,17z"/>
	<path class="st2" d="M31.9,25l14.7,14.7c1.9,1.9,1.9,4.9,0,6.8c-1.9,1.9-4.9,1.9-6.8,0L25.2,31.9C28,30.3,30.4,27.9,31.9,25z"/>
</g>
</svg>
