<?xml version="1.0" encoding="utf-8"?>
<!-- Generator: Adobe Illustrator 27.2.0, SVG Export Plug-In . SVG Version: 6.00 Build 0)  -->
<svg version="1.1" id="Calque_1" xmlns="http://www.w3.org/2000/svg" xmlns:xlink="http://www.w3.org/1999/xlink" x="0px" y="0px"
	 viewBox="0 0 48 48" style="enable-background:new 0 0 48 48;" xml:space="preserve">
<style type="text/css">
	.st0{fill:#026634;}
	.st1{fill:#39A935;}
</style>
<g>
	<path class="st0" d="M7.96,33.29c-0.31,0.84-0.5,1.42-0.59,1.74c-0.08,0.33-0.19,0.83-0.33,1.5c-0.14,0.67-0.17,1.26-0.11,1.77
		c0.07,0.51,0.2,1.01,0.4,1.5c0.29,0.67,0.72,1.27,1.28,1.79c0.56,0.52,1.17,0.8,1.83,0.86l11.46,0.79l0.05-0.6l0.41-10.03
		c-7.84-0.29-12.47-0.55-13.88-0.76C8.45,31.98,8.27,32.46,7.96,33.29z"/>
	<path class="st0" d="M22.12,3.51c-0.22-0.23-0.55-0.54-0.98-0.94c-0.44-0.4-0.81-0.7-1.13-0.9c-0.32-0.2-0.7-0.39-1.15-0.57
		c-0.45-0.18-0.89-0.29-1.32-0.33c-0.73-0.07-1.45,0.02-2.18,0.27c-0.73,0.25-1.27,0.66-1.64,1.23l-6.14,9.7L8.1,12.3l8.65,5.1
		c3.96-6.76,6.37-10.71,7.23-11.86c-0.14-0.15-0.44-0.46-0.87-0.95C22.67,4.1,22.34,3.74,22.12,3.51z"/>
	<path class="st1" d="M9.67,28.4c0.88-1.32,1.9-2.63,3.04-3.94l4.01,2.51l-4.91-10.33L0,16.18l3.82,2.34
		c-1.44,2.27-2.47,3.98-3.11,5.12l-0.22,0.49c-0.13,0.31-0.18,0.74-0.16,1.28c0.02,0.55,0.18,1.05,0.49,1.53L6,36.67l0.11-0.57
		c0.06-0.38,0.22-0.95,0.5-1.72c0.28-0.76,0.64-1.62,1.08-2.58C8.13,30.85,8.79,29.72,9.67,28.4z"/>
	<path class="st1" d="M35.81,15.66l6-10.17l-3.87,2.26c-1.33-2.34-2.35-4.07-3.06-5.18l-0.3-0.41c-0.22-0.27-0.57-0.53-1.06-0.78
		c-0.49-0.25-1.02-0.34-1.58-0.29L20.89,1.07l0.46,0.35c0.31,0.24,0.74,0.66,1.28,1.27c0.55,0.61,1.13,1.34,1.76,2.18
		c0.63,0.85,1.31,1.97,2.06,3.37c0.75,1.4,1.43,2.91,2.05,4.52l-4.12,2.34L35.81,15.66z"/>
	<path class="st0" d="M47.62,23.81l-5.78-9.9l-0.52,0.3l-8.54,5.32c4.2,6.61,6.61,10.58,7.23,11.88c0.2-0.05,0.62-0.16,1.26-0.33
		c0.64-0.16,1.1-0.29,1.4-0.38c0.3-0.09,0.73-0.24,1.28-0.44c0.55-0.2,1-0.4,1.32-0.6c0.33-0.2,0.67-0.45,1.04-0.76
		c0.36-0.31,0.66-0.65,0.9-1.01c0.4-0.64,0.65-1.31,0.75-2.02C48.06,25.17,47.95,24.48,47.62,23.81z"/>
	<path class="st1" d="M39.22,32.23c-2.06,0.2-4.63,0.15-7.72-0.14l-0.19-4.72l-5.76,9.87l6.27,10l-0.22-4.47
		c2.69-0.09,4.68-0.2,5.97-0.33l0.49-0.11c0.35-0.05,0.74-0.24,1.19-0.56c0.45-0.32,0.78-0.74,1-1.27l5.13-9.79l-1.53,0.6
		C42.82,31.73,41.28,32.03,39.22,32.23z"/>
</g>
</svg>
