<?xml version="1.0" encoding="utf-8"?>
<!-- Generator: Adobe Illustrator 25.3.1, SVG Export Plug-In . SVG Version: 6.00 Build 0)  -->
<svg version="1.1" id="Calque_1" xmlns="http://www.w3.org/2000/svg" xmlns:xlink="http://www.w3.org/1999/xlink" x="0px" y="0px"
	 viewBox="0 0 48 48" style="enable-background:new 0 0 48 48;" xml:space="preserve">
<style type="text/css">
	.st0{fill:#595959;}
</style>
<path class="st0" d="M1,6.7l6.8,6.8l6.4-6.4L7.5,0.4C8.4,0.2,9.4,0,10.4,0c5.5,0,10,4.5,10,10c0,1.4-0.3,2.7-0.8,3.8l14.7,14.7
	c1-0.3,2.1-0.5,3.2-0.5c5.5,0,10,4.5,10,10c0,1.1-0.2,2.2-0.5,3.2l-6.8-6.8l-6.4,6.4l6.7,6.7c-0.9,0.3-1.9,0.4-3,0.5
	c-5.5,0-10-4.5-10-10c0-1.4,0.3-2.7,0.8-3.8L13.6,19.4c-1,0.3-2.1,0.5-3.2,0.5c-5.5,0-10-4.5-10-10C0.5,8.8,0.7,7.8,1,6.7z"/>
</svg>
