<?xml version="1.0" encoding="utf-8"?>
<!-- Generator: Adobe Illustrator 24.0.2, SVG Export Plug-In . SVG Version: 6.00 Build 0)  -->
<svg version="1.1" id="Calque_1" xmlns="http://www.w3.org/2000/svg" xmlns:xlink="http://www.w3.org/1999/xlink" x="0px" y="0px"
	 viewBox="0 0 48 48" style="enable-background:new 0 0 48 48;" xml:space="preserve">
<style type="text/css">
	.st0{fill:#1E789D;}
</style>
<path class="st0" d="M26.1,4c-10.8,0-19.6,8.6-20,19.2H3.9c-0.8,0-1.5,0.3-1.8,0.9c-0.3,0.6-0.3,1.3,0.1,2l6.2,10.6
	c0.4,0.7,1,1.1,1.7,1.1c0.7,0,1.3-0.4,1.7-1.1l6.2-10.6c0.4-0.7,0.5-1.4,0.1-2c-0.3-0.6-1-0.9-1.8-0.9H14c0.4-6.3,5.7-11.3,12-11.3
	c6.7,0,12.1,5.4,12.1,12.1c0,6.6-5.4,12.1-12.1,12.1c-2.2,0-4,1.8-4,4c0,1.9,1.4,3.5,3.2,3.9V44h0.8c11,0,20-9,20-20
	C46.1,13,37.1,4,26.1,4z"/>
</svg>
