<?xml version="1.0" encoding="utf-8"?>
<!-- Generator: Adobe Illustrator 27.2.0, SVG Export Plug-In . SVG Version: 6.00 Build 0)  -->
<svg version="1.1" id="Calque_1" xmlns="http://www.w3.org/2000/svg" xmlns:xlink="http://www.w3.org/1999/xlink" x="0px" y="0px"
	 viewBox="0 0 48 48" style="enable-background:new 0 0 48 48;" xml:space="preserve">
<style type="text/css">
	.st0{fill:#F49B20;}
</style>
<g>
	<g>
		<path class="st0" d="M1.38,24h14.03c0.6,0,1.05,0.2,1.26,0.57c0.21,0.36,0.16,0.85-0.15,1.37L9.53,37.9
			c-0.3,0.52-0.71,0.81-1.13,0.81c-0.43,0-0.83-0.28-1.13-0.81L0.27,25.94c-0.3-0.52-0.36-1.01-0.15-1.37C0.33,24.2,0.78,24,1.38,24
			z"/>
	</g>
	<path class="st0" d="M26.35,2.35C38.31,2.35,48,12.04,48,24c0,11.96-9.69,21.65-21.65,21.65v-0.01c-1.97,0-3.56-1.59-3.56-3.56
		s1.59-3.56,3.56-3.56c0.02,0,0.04,0,0.06,0C34.4,38.49,40.88,32,40.88,24c0-8.03-6.51-14.53-14.53-14.53S11.82,15.97,11.82,24l0,0
		H4.69l0,0C4.69,12.04,14.39,2.35,26.35,2.35z"/>
</g>
</svg>
