<?xml version="1.0" encoding="utf-8"?>
<!-- Generator: Adobe Illustrator 27.2.0, SVG Export Plug-In . SVG Version: 6.00 Build 0)  -->
<svg version="1.1" id="Calque_1" xmlns="http://www.w3.org/2000/svg" xmlns:xlink="http://www.w3.org/1999/xlink" x="0px" y="0px"
	 viewBox="0 0 48 48" style="enable-background:new 0 0 48 48;" xml:space="preserve">
<style type="text/css">
	.st0{fill:#FFFFFF;}
	.st1{fill:#585856;}
	.st2{fill:#585758;}
	.st3{fill:#1C779C;}
	.st4{fill:url(#SVGID_1_);}
	.st5{fill:url(#SVGID_00000142878185219342451810000012596135469084862390_);}
	.st6{fill:#1D1E1C;}
</style>
<g>
	<g>
		<g>
			<g>
				<path id="path26_00000114034397364483736670000015367561178695629979_" class="st0" d="M5.6,36.4V1.6C5.6,0.7,6.4,0,7.3,0h14.1
					l12,12.1v24.3c0,0.9-0.7,1.6-1.6,1.6H7.3C6.4,38,5.6,37.3,5.6,36.4z"/>
				<path id="path26_00000083084449571897948160000012329272596737402511_" class="st1" d="M20.9,1l11.4,11.5v23.9
					c0,0.3-0.3,0.6-0.6,0.6H7.3c-0.3,0-0.6-0.3-0.6-0.6V1.6C6.7,1.3,6.9,1,7.3,1H20.9 M21.3,0H7.3C6.4,0,5.6,0.7,5.6,1.6v34.8
					c0,0.9,0.7,1.6,1.6,1.6h24.5c0.9,0,1.6-0.7,1.6-1.6V12.1L21.3,0L21.3,0z"/>
			</g>
			<path id="path32_00000053523947610233731860000003679727193047249303_" class="st2" d="M21.3,0l12,12.1H22.9
				c-0.9,0-1.6-0.7-1.6-1.6L21.3,0L21.3,0z"/>
		</g>
		<g>
			<path class="st3" d="M24.2,29.8c-0.6,0.3-1.6,0.7-2.8,0.7c-1.7,0-3.4-0.7-4.4-2c-0.5-0.6-0.8-1.4-1-2.3h-1.2v-1.3h1
				c0-0.1,0-0.2,0-0.3c0-0.2,0-0.4,0-0.5h-1v-1.3H16c0.2-1,0.7-1.8,1.2-2.4c1-1.1,2.4-1.8,4.1-1.8c1.1,0,2,0.2,2.7,0.5l-0.5,2
				c-0.5-0.2-1.2-0.4-2-0.4c-0.9,0-1.6,0.3-2.2,1c-0.2,0.3-0.4,0.7-0.6,1.2h4.4V24h-4.7c0,0.2,0,0.4,0,0.6c0,0.1,0,0.2,0,0.3h4.7
				v1.3h-4.5c0.1,0.5,0.3,0.9,0.6,1.2c0.6,0.6,1.4,0.9,2.3,0.9c0.8,0,1.7-0.3,2-0.5L24.2,29.8z"/>
		</g>
	</g>
	<g>
		
			<linearGradient id="SVGID_1_" gradientUnits="userSpaceOnUse" x1="-2026.7765" y1="3153.3604" x2="-2020.8925" y2="3153.3604" gradientTransform="matrix(0.7071 0.7071 0.7071 -0.7071 -771.2449 3705.3457)">
			<stop  offset="0" style="stop-color:#F5B378"/>
			<stop  offset="0.3685" style="stop-color:#F6AF74"/>
			<stop  offset="0.7497" style="stop-color:#FBA26A"/>
			<stop  offset="1" style="stop-color:#FF965F"/>
		</linearGradient>
		<path class="st4" d="M24.3,48l8.1-4.2c-0.2-0.6-0.7-1.6-1.6-2.5c-1-1-2-1.4-2.5-1.6c-0.9,2-3.3,6.1-4.2,8.1
			C24,47.8,24.1,48,24.3,48z"/>
		
			<linearGradient id="SVGID_00000170248409045193534150000000416025237181637506_" gradientUnits="userSpaceOnUse" x1="-2026.7765" y1="3168.9763" x2="-2020.8925" y2="3168.9763" gradientTransform="matrix(0.7071 0.7071 0.7071 -0.7071 -771.2449 3705.3457)">
			<stop  offset="0" style="stop-color:#1C779C"/>
			<stop  offset="0.4689" style="stop-color:#1C6E9C"/>
			<stop  offset="1" style="stop-color:#1C5E9C"/>
		</linearGradient>
		<path style="fill:url(#SVGID_00000170248409045193534150000000416025237181637506_);" d="M46.6,25.4c-0.6-0.6-1.2-1-1.7-1.2
			c-0.5-0.3-1.1-0.2-1.5,0.2L28.3,39.6c0.6,0.2,1.6,0.7,2.5,1.6c1,1,1.4,2,1.6,2.5l15.2-15.2c0.4-0.4,0.5-1,0.2-1.5
			C47.6,26.5,47.2,25.9,46.6,25.4z"/>
		<path class="st6" d="M24.2,48l3.9-2c0-0.1-0.2-0.8-0.8-1.3c-0.6-0.6-1.2-0.7-1.3-0.8c-0.3,0.6-1.7,3.3-2,3.9
			C24,47.9,24.1,48,24.2,48z"/>
	</g>
</g>
</svg>
