<?xml version="1.0" encoding="utf-8"?>
<!-- Generator: Adobe Illustrator 25.3.0, SVG Export Plug-In . SVG Version: 6.00 Build 0)  -->
<svg version="1.1" id="Calque_1" xmlns="http://www.w3.org/2000/svg" xmlns:xlink="http://www.w3.org/1999/xlink" x="0px" y="0px"
	 viewBox="0 0 48 48" style="enable-background:new 0 0 48 48;" xml:space="preserve">
<style type="text/css">
	.st0{fill:#595959;}
	.st1{fill-rule:evenodd;clip-rule:evenodd;fill:#595959;}
	.st2{fill-rule:evenodd;clip-rule:evenodd;fill:#1C789D;}
</style>
<g id="action_x5F_sortie">
	<path id="porte" class="st0" d="M20.4,0c-0.1,0-0.2,0-0.3,0c-4.2,1.5-8.4,3-12.6,4.5C3.3,6,3.3,5.9,3.3,10.3c0,4.6,0,22.9,0,27.5
		c0,4.3,0,4.3,4.2,5.8c4.2,1.5,8.4,3,12.6,4.5c0.1,0,0.2,0,0.3,0L20.4,0z M17.2,26.1c-0.7,0-1.3-0.9-1.3-2.1s0.6-2.1,1.3-2.1
		c0.7,0,1.3,0.9,1.3,2.1S17.9,26.1,17.2,26.1z"/>
	<polygon id="encadrement" class="st1" points="27.4,14.5 27.4,6.3 20.4,6.3 20.4,3.9 27.4,3.9 27.4,3.9 29.8,3.9 29.8,16.3 
		29.8,16.3 29.8,31.7 29.8,34.9 29.8,44.1 27.4,44.1 27.4,44.1 20.4,44.1 20.4,41.7 27.4,41.7 27.4,31.7 27.4,31.7 27.4,16.3 	"/>
	<path id="fleche" class="st2" d="M34.7,18.6c0-1.8,0-3.3,0-4.6c3.3,3.3,6.7,6.7,10,9.9c-3.2,3.2-6.6,6.6-10,10c0-1.5,0-3,0-4.9
		c-3.7,0-7.1,0-10.7,0h-0.2l0-10.4L34.7,18.6z"/>
</g>
</svg>
