<?xml version="1.0" encoding="utf-8"?>
<!-- Generator: Adobe Illustrator 27.2.0, SVG Export Plug-In . SVG Version: 6.00 Build 0)  -->
<svg version="1.1" id="Calque_1" xmlns="http://www.w3.org/2000/svg" xmlns:xlink="http://www.w3.org/1999/xlink" x="0px" y="0px"
	 viewBox="0 0 48 48" style="enable-background:new 0 0 48 48;" xml:space="preserve">
<style type="text/css">
	.st0{fill:#F0A952;}
	.st1{fill:#D18D34;}
	.st2{fill-rule:evenodd;clip-rule:evenodd;fill:#1C779C;}
	.st3{fill:#FFD57C;}
</style>
<g>
	<path class="st0" d="M0.01,11.99c0,0.04-0.01,0.08-0.01,0.13v34.79C0,47.51,0.48,48,1.06,48h45.87c0.59,0,1.06-0.49,1.06-1.09
		V12.12c0-0.04-0.01-0.09-0.01-0.13H0.01z"/>
	<polygon class="st1" points="43.53,0 24,0 4.47,0 0,11.99 24,11.99 48,11.99 	"/>
	<polygon class="st2" points="28.77,22.85 19.23,22.85 19.23,31.33 12.86,31.33 24,45.04 35.14,31.33 28.77,31.33 	"/>
	<polygon class="st3" points="21.45,0 19.05,12.17 19.05,17.72 24,17.72 28.95,17.72 28.95,12.17 26.55,0 	"/>
</g>
</svg>
