<?xml version="1.0" encoding="utf-8"?>
<!-- Generator: Adobe Illustrator 27.2.0, SVG Export Plug-In . SVG Version: 6.00 Build 0)  -->
<svg version="1.1" id="Calque_1" xmlns="http://www.w3.org/2000/svg" xmlns:xlink="http://www.w3.org/1999/xlink" x="0px" y="0px"
	 viewBox="0 0 48 48" style="enable-background:new 0 0 48 48;" xml:space="preserve">
<style type="text/css">
	.st0{fill:#3D3D3C;}
	.st1{fill:#6A6967;}
	.st2{fill:#9B9A9A;}
	.st3{fill:#1C779C;}
	.st4{fill:#A46A25;}
	.st5{fill:#C79B66;}
	.st6{fill:#916036;}
</style>
<g>
	<g>
		<path class="st0" d="M19,38c3.71,0,6.73-1.51,6.73-3.38V9.29H12.27v25.33C12.27,36.49,15.29,38,19,38z"/>
		<path class="st1" d="M19,38c1.86,0,3.54-0.38,4.76-0.99V16.96h-9.52v20.05C15.46,37.62,17.14,38,19,38z"/>
	</g>
	<path class="st2" d="M14.8,8.44h8.41V0H14.8V8.44z M21.94,3.38v1.69h-1.68V3.38H21.94z M17.74,3.38v1.69h-1.68V3.38H17.74z"/>
	<rect x="13.12" y="7.76" class="st3" width="11.77" height="1.52"/>
</g>
<g>
	<path class="st4" d="M45.96,28.13l-20.75,1.12c-0.71,0.04-1.25,0.68-1.21,1.43l0.68,12.7c0.04,0.75,0.65,1.33,1.35,1.29l20.75-1.12
		c0.71-0.04,1.25-0.67,1.21-1.43l-0.68-12.7C47.28,28.67,46.67,28.09,45.96,28.13z"/>
	<path class="st5" d="M46.71,30.04H33.52l-1.08-2.71h-6.46c-0.71,0-1.28,0.58-1.28,1.29v14.75c0,0.71,0.57,1.29,1.28,1.29h20.73
		c0.71,0,1.28-0.58,1.28-1.29V31.33C47.99,30.62,47.42,30.04,46.71,30.04z"/>
	<path class="st6" d="M34.5,36.72c-0.31,0.12-2.47,1.04-2.75,3.64c-0.02,0.78,0.42,0.95,0.42,0.95l0,0c0,0,0.18,0.17,0.47,0.24
		c0.06,0.19,0.16,0.34,0.28,0.46l0,0c0,0,0.21,0.57,2.35,0.67c0.03,0.01,0.06,0.01,0.09,0.02h0.53c0.07,0,0.13,0,0.2,0h0.61
		c0.05-0.01,0.11-0.02,0.16-0.03c2.19-0.15,2.42-0.83,2.42-0.83v0c0.06-0.09,0.11-0.18,0.14-0.29c1-0.2,0.92-1.39,0.62-2.31
		c-0.41-1.27-1.47-2.15-2.58-2.54c0.53-0.43,0.86-1.07,0.86-1.79c0-1.28-1.06-2.32-2.36-2.32c-1.3,0-2.36,1.04-2.36,2.32
		C33.62,35.64,33.96,36.3,34.5,36.72"/>
</g>
</svg>
