<?xml version="1.0" encoding="utf-8"?>
<!-- Generator: Adobe Illustrator 26.5.0, SVG Export Plug-In . SVG Version: 6.00 Build 0)  -->
<svg version="1.1" id="Calque_1" xmlns="http://www.w3.org/2000/svg" xmlns:xlink="http://www.w3.org/1999/xlink" x="0px" y="0px"
	 viewBox="0 0 48 48" style="enable-background:new 0 0 48 48;" xml:space="preserve">
<style type="text/css">
	.st0{fill:#1C779C;}
</style>
<g>
	<path class="st0" d="M26.9,48h-5.8c-1.7,0-3.1-1.4-3.1-3.1V3.1C18,1.4,19.4,0,21.1,0h5.8C28.6,0,30,1.4,30,3.1v41.8
		C30,46.6,28.6,48,26.9,48z"/>
</g>
<g>
	<path class="st0" d="M8.9,48H3.1C1.4,48,0,46.6,0,44.9V3.1C0,1.4,1.4,0,3.1,0h5.8C10.6,0,12,1.4,12,3.1v41.8
		C12,46.6,10.6,48,8.9,48z"/>
</g>
<g>
	<path class="st0" d="M44.9,48h-5.8c-1.7,0-3.1-1.4-3.1-3.1V3.1C36,1.4,37.4,0,39.1,0h5.8C46.6,0,48,1.4,48,3.1v41.8
		C48,46.6,46.6,48,44.9,48z"/>
</g>
</svg>
