<?xml version="1.0" encoding="utf-8"?>
<!-- Generator: Adobe Illustrator 27.2.0, SVG Export Plug-In . SVG Version: 6.00 Build 0)  -->
<svg version="1.1" id="Calque_1" xmlns="http://www.w3.org/2000/svg" xmlns:xlink="http://www.w3.org/1999/xlink" x="0px" y="0px"
	 viewBox="0 0 48 48" style="enable-background:new 0 0 48 48;" xml:space="preserve">
<style type="text/css">
	.st0{fill:#FAD1A9;}
	.st1{fill:#E47D27;}
	.st2{fill:#1D1E1C;}
</style>
<g>
	<g>
		<path class="st0" d="M3.96,43.5c-1.15,0-1.99-0.31-2.3-0.86c-0.31-0.54-0.16-1.43,0.42-2.42L22.06,6.06
			C22.64,5.07,23.34,4.5,24,4.5s1.36,0.57,1.94,1.56l19.98,34.16c0.58,0.99,0.73,1.87,0.41,2.41c-0.32,0.56-1.15,0.87-2.3,0.87H3.96
			z"/>
		<path class="st1" d="M24,6.03c0.13,0.09,0.37,0.32,0.65,0.79l19.98,34.15c0.26,0.44,0.34,0.73,0.36,0.89
			C44.84,41.92,44.55,42,44.04,42H3.96c-0.51,0-0.8-0.08-0.95-0.14c0.02-0.16,0.1-0.45,0.36-0.88L23.35,6.82
			C23.62,6.35,23.87,6.12,24,6.03 M24,3c-1.21,0-2.37,0.82-3.24,2.31L0.78,39.47c-0.87,1.49-1.02,2.88-0.42,3.92
			C0.96,44.43,2.24,45,3.96,45h40.08c1.72,0,3-0.57,3.6-1.62c0.6-1.04,0.45-2.43-0.42-3.92L27.24,5.31C26.37,3.82,25.22,3,24,3L24,3
			z"/>
	</g>
	<g>
		<path class="st2" d="M22.99,30.54l-1.66-9.64c-0.03-0.16-0.04-0.32-0.04-0.48c0-1.39,0.9-2.08,2.71-2.08
			c1.81,0,2.72,0.69,2.72,2.06c0,0.19-0.02,0.36-0.04,0.5l-1.66,9.64H22.99z M24,32.52c1.59,0,2.38,0.79,2.38,2.38
			c0,1.59-0.79,2.37-2.38,2.37c-1.58,0-2.37-0.79-2.37-2.37C21.62,33.31,22.41,32.52,24,32.52z"/>
	</g>
</g>
</svg>
