<?xml version="1.0" encoding="utf-8"?>
<!-- Generator: Adobe Illustrator 27.2.0, SVG Export Plug-In . SVG Version: 6.00 Build 0)  -->
<svg version="1.1" id="Calque_1" xmlns="http://www.w3.org/2000/svg" xmlns:xlink="http://www.w3.org/1999/xlink" x="0px" y="0px"
	 viewBox="0 0 48 48" style="enable-background:new 0 0 48 48;" xml:space="preserve">
<style type="text/css">
	.st0{fill:#1C779C;}
	.st1{fill:url(#SVGID_1_);}
</style>
<g>
	<g>
		<path class="st0" d="M0,44.34v-9.56h2.54l2,3.5c0.57,1.01,1.14,2.2,1.57,3.28h0.04c-0.14-1.26-0.19-2.55-0.19-3.98v-2.79h2v9.56
			H5.68l-2.06-3.69c-0.57-1.02-1.2-2.25-1.67-3.37L1.91,37.3C1.97,38.56,2,39.91,2,41.47v2.88H0z"/>
		<path class="st0" d="M16.64,40.8c0,2.54-1.81,3.7-3.68,3.7c-2.04,0-3.61-1.33-3.61-3.57c0-2.24,1.49-3.67,3.73-3.67
			C15.21,37.25,16.64,38.72,16.64,40.8z M11.58,40.87c0,1.19,0.5,2.08,1.43,2.08c0.84,0,1.39-0.84,1.39-2.08
			c0-1.03-0.4-2.08-1.39-2.08C11.97,38.79,11.58,39.85,11.58,40.87z"/>
		<path class="st0" d="M19.69,41.57c0.07,0.89,0.96,1.32,1.97,1.32c0.74,0,1.34-0.1,1.93-0.28l0.29,1.46
			c-0.71,0.28-1.59,0.43-2.53,0.43c-2.37,0-3.73-1.36-3.73-3.53c0-1.76,1.1-3.7,3.53-3.7c2.25,0,3.11,1.74,3.11,3.46
			c0,0.37-0.04,0.69-0.07,0.85H19.69z M22.25,40.09c0-0.53-0.23-1.4-1.23-1.4c-0.91,0-1.29,0.82-1.34,1.4H22.25z M23.45,34.39
			l-1.74,2.15h-1.5l1.23-2.15H23.45z"/>
		<path class="st0" d="M25.56,39.62c0-0.86-0.03-1.6-0.06-2.21h1.83l0.1,0.94h0.04c0.3-0.44,0.91-1.09,2.11-1.09
			c0.9,0,1.61,0.45,1.91,1.18h0.03c0.26-0.35,0.57-0.64,0.9-0.84c0.39-0.23,0.81-0.34,1.33-0.34c1.34,0,2.35,0.94,2.35,3.01v4.08H34
			v-3.77c0-1.01-0.33-1.59-1.03-1.59c-0.5,0-0.86,0.34-1,0.75c-0.06,0.16-0.08,0.38-0.08,0.55v4.05h-2.11v-3.88
			c0-0.88-0.31-1.47-1-1.47c-0.56,0-0.89,0.42-1.01,0.78c-0.07,0.17-0.09,0.37-0.09,0.54v4.04h-2.11V39.62z"/>
		<path class="st0" d="M40.09,35.48c0,0.6-0.46,1.08-1.17,1.08c-0.68,0-1.14-0.48-1.13-1.08c-0.01-0.62,0.44-1.09,1.14-1.09
			C39.63,34.39,40.08,34.86,40.09,35.48z M37.85,44.34v-6.93h2.17v6.93H37.85z"/>
		<path class="st0" d="M43.43,41.57c0.07,0.89,0.96,1.32,1.97,1.32c0.74,0,1.34-0.1,1.93-0.28l0.29,1.46
			c-0.71,0.28-1.59,0.43-2.53,0.43c-2.37,0-3.73-1.36-3.73-3.53c0-1.76,1.1-3.7,3.53-3.7c2.25,0,3.11,1.74,3.11,3.46
			c0,0.37-0.04,0.69-0.07,0.85H43.43z M45.99,40.09c0-0.53-0.23-1.4-1.23-1.4c-0.91,0-1.29,0.82-1.34,1.4H45.99z"/>
	</g>
</g>
<g>
	<linearGradient id="SVGID_1_" gradientUnits="userSpaceOnUse" x1="17.4181" y1="4.3535" x2="30.5887" y2="17.5241">
		<stop  offset="0" style="stop-color:#009D00"/>
		<stop  offset="0.3012" style="stop-color:#009700"/>
		<stop  offset="0.7063" style="stop-color:#008600"/>
		<stop  offset="1" style="stop-color:#007500"/>
	</linearGradient>
	<path class="st1" d="M39.08,4.44L39.08,4.44c1.26,1.26,1.26,3.3,0,4.56L21.7,26.42c-1.05,1.05-2.74,1.05-3.79,0l-8.99-9
		c-1.26-1.26-1.26-3.3,0-4.56l0,0c1.26-1.26,3.29-1.26,4.55,0l6.33,6.34L34.53,4.44C35.79,3.19,37.82,3.19,39.08,4.44z"/>
</g>
</svg>
