<?xml version="1.0" encoding="utf-8"?>
<!-- Generator: Adobe Illustrator 27.2.0, SVG Export Plug-In . SVG Version: 6.00 Build 0)  -->
<svg version="1.1" id="Calque_1" xmlns="http://www.w3.org/2000/svg" xmlns:xlink="http://www.w3.org/1999/xlink" x="0px" y="0px"
	 viewBox="0 0 48 48" style="enable-background:new 0 0 48 48;" xml:space="preserve">
<style type="text/css">
	.st0{fill:#1C779C;}
	.st1{fill:url(#SVGID_1_);}
</style>
<g>
	<g>
		<path class="st0" d="M12.39,44.95L11.53,48H8.73l3.66-11.9h3.55L19.65,48h-2.91l-0.92-3.05H12.39z M15.42,42.93l-0.75-2.52
			c-0.21-0.71-0.43-1.59-0.6-2.29h-0.03c-0.18,0.71-0.36,1.61-0.55,2.29l-0.71,2.52H15.42z"/>
		<path class="st0" d="M21.26,36.26c0.87-0.14,2.17-0.25,3.61-0.25c1.78,0,3.02,0.26,3.87,0.94c0.71,0.57,1.1,1.39,1.1,2.49
			c0,1.52-1.08,2.56-2.11,2.93v0.05c0.83,0.34,1.3,1.13,1.6,2.23c0.37,1.34,0.75,2.9,0.98,3.35h-2.77c-0.2-0.34-0.48-1.31-0.83-2.77
			c-0.32-1.48-0.84-1.89-1.94-1.91h-0.82V48h-2.68V36.26z M23.94,41.38h1.07c1.35,0,2.15-0.67,2.15-1.71c0-1.09-0.75-1.64-1.99-1.66
			c-0.66,0-1.03,0.05-1.22,0.09V41.38z"/>
		<path class="st0" d="M31.8,36.1h2.72v9.64h4.76V48H31.8V36.1z"/>
	</g>
</g>
<g>
	<linearGradient id="SVGID_1_" gradientUnits="userSpaceOnUse" x1="16.2648" y1="1.0031" x2="31.7433" y2="16.4816">
		<stop  offset="0" style="stop-color:#009D00"/>
		<stop  offset="0.3012" style="stop-color:#009700"/>
		<stop  offset="0.7063" style="stop-color:#008600"/>
		<stop  offset="1" style="stop-color:#007500"/>
	</linearGradient>
	<path class="st1" d="M41.72,1.11L41.72,1.11c1.48,1.48,1.48,3.88,0,5.36L21.29,26.93c-1.23,1.23-3.22,1.23-4.45,0L6.28,16.35
		c-1.48-1.48-1.48-3.88,0-5.36l0,0c1.48-1.48,3.87-1.48,5.35,0l7.44,7.45L36.37,1.11C37.85-0.37,40.25-0.37,41.72,1.11z"/>
</g>
</svg>
