<?xml version="1.0" encoding="utf-8"?>
<!-- Generator: Adobe Illustrator 25.4.1, SVG Export Plug-In . SVG Version: 6.00 Build 0)  -->
<svg version="1.1" id="Calque_1" xmlns="http://www.w3.org/2000/svg" xmlns:xlink="http://www.w3.org/1999/xlink" x="0px" y="0px"
	 viewBox="0 0 48 48" style="enable-background:new 0 0 48 48;" xml:space="preserve">
<style type="text/css">
	.st0{fill:#FFFFFF;}
	.st1{fill:#2DAB66;}
</style>
<g id="path26_29_">
	<path class="st0" d="M8.5,47c-0.57,0-1.04-0.46-1.04-1.04V2.04C7.46,1.46,7.93,1,8.5,1h17.39l14.65,14.65v30.31
		c0,0.57-0.46,1.04-1.04,1.04H8.5z"/>
	<path class="st1" d="M25.47,2l14.07,14.07v29.9c0,0.02-0.02,0.04-0.04,0.04h-31c-0.02,0-0.04-0.02-0.04-0.04V2.04
		C8.46,2.02,8.48,2,8.5,2H25.47 M26.3,0H8.5C7.37,0,6.46,0.91,6.46,2.04v43.93C6.46,47.09,7.37,48,8.5,48h31
		c1.12,0,2.04-0.91,2.04-2.04V15.24L26.3,0L26.3,0z"/>
</g>
<path id="path32_16_" class="st1" d="M24.91,0l15.24,15.24h-13.2c-1.13,0-2.04-0.91-2.04-2.04V0z"/>
<rect x="2.97" y="20.62" class="st1" width="42.06" height="20.61"/>
<g>
	<path class="st0" d="M16.34,37.47l-1.14-2.29c-0.47-0.88-0.77-1.54-1.13-2.27h-0.04c-0.26,0.73-0.58,1.39-0.98,2.27L12,37.47H8.73
		l3.66-6.4l-3.53-6.25h3.29l1.11,2.31c0.38,0.77,0.66,1.39,0.96,2.1h0.04c0.3-0.81,0.54-1.37,0.86-2.1l1.07-2.31h3.27l-3.56,6.17
		l3.75,6.48H16.34z"/>
	<path class="st0" d="M21.18,24.81h2.87v10.25h5.03v2.4h-7.9V24.81z"/>
	<path class="st0" d="M30.86,34.52c0.77,0.39,1.95,0.79,3.17,0.79c1.31,0,2.01-0.54,2.01-1.37c0-0.79-0.6-1.24-2.12-1.78
		c-2.1-0.73-3.47-1.9-3.47-3.73c0-2.16,1.8-3.81,4.79-3.81c1.43,0,2.48,0.3,3.23,0.64l-0.64,2.31c-0.5-0.24-1.41-0.6-2.64-0.6
		c-1.24,0-1.84,0.56-1.84,1.22c0,0.81,0.71,1.16,2.35,1.78c2.23,0.83,3.28,1.99,3.28,3.77c0,2.12-1.63,3.92-5.1,3.92
		c-1.45,0-2.87-0.38-3.58-0.77L30.86,34.52z"/>
</g>
</svg>
