<?xml version="1.0" encoding="utf-8"?>
<!-- Generator: Adobe Illustrator 27.2.0, SVG Export Plug-In . SVG Version: 6.00 Build 0)  -->
<svg version="1.1" id="Calque_1" xmlns="http://www.w3.org/2000/svg" xmlns:xlink="http://www.w3.org/1999/xlink" x="0px" y="0px"
	 viewBox="0 0 48 48" style="enable-background:new 0 0 48 48;" xml:space="preserve">
<style type="text/css">
	.st0{fill:#1C779C;}
	.st1{fill:none;stroke:#1C779C;stroke-width:1.5986;stroke-miterlimit:10;}
</style>
<g>
	<polygon class="st0" points="37.91,22.08 31.57,22.08 31.57,25.99 37.91,25.99 37.91,32.33 46.21,24.03 37.91,15.74 	"/>
	<polygon class="st0" points="10.25,15.74 1.95,24.03 10.25,32.33 10.25,25.99 16.53,25.99 16.53,22.08 10.25,22.08 	"/>
	<polygon class="st0" points="26.04,31.52 22.12,31.52 22.12,37.87 15.78,37.87 24.08,46.17 32.38,37.87 26.04,37.87 	"/>
	<polygon class="st0" points="24.08,1.9 15.78,10.2 22.12,10.2 22.12,16.49 26.03,16.49 26.04,10.2 32.38,10.2 	"/>
	<rect x="0.75" y="0.75" class="st1" width="46.5" height="46.5"/>
</g>
</svg>
