<?xml version="1.0" encoding="utf-8"?>
<!-- Generator: Adobe Illustrator 25.4.1, SVG Export Plug-In . SVG Version: 6.00 Build 0)  -->
<svg version="1.1" id="Calque_1" xmlns="http://www.w3.org/2000/svg" xmlns:xlink="http://www.w3.org/1999/xlink" x="0px" y="0px"
	 viewBox="0 0 48 48" style="enable-background:new 0 0 48 48;" xml:space="preserve">
<style type="text/css">
	.st0{fill:#FFFFFF;}
	.st1{fill:#1C779C;}
	.st2{fill:#C6C6C6;}
	.st3{fill:#585858;}
</style>
<g>
	<path class="st0" d="M17.32,16.99c0,7.59,6.15,13.74,13.74,13.74s13.74-6.16,13.74-13.74c0-7.59-6.15-13.74-13.74-13.74
		S17.32,9.4,17.32,16.99z"/>
	<path class="st1" d="M36.43,15.1h-3.47v-3.47c0-0.34-0.28-0.62-0.62-0.62h-2.54c-0.34,0-0.62,0.28-0.62,0.62v3.47H25.7
		c-0.34,0-0.62,0.28-0.62,0.62v2.54c0,0.34,0.28,0.62,0.62,0.62h3.47v3.47c0,0.34,0.28,0.62,0.62,0.62h2.54
		c0.34,0,0.62-0.28,0.62-0.62v-3.47h3.47c0.34,0,0.62-0.28,0.62-0.62v-2.54C37.05,15.37,36.77,15.1,36.43,15.1z"/>
	<path class="st2" d="M31.09,0.07c-9.34,0-16.9,7.57-16.9,16.91c0,2.88,0.72,5.59,1.99,7.97L1.41,39.71c-1.88,1.88-1.88,4.93,0,6.81
		c1.88,1.88,4.93,1.88,6.81,0l14.73-14.72c2.41,1.33,5.19,2.09,8.14,2.09c9.34,0,16.91-7.57,16.91-16.91S40.43,0.07,31.09,0.07z
		 M31.09,28.73c-6.49,0-11.75-5.26-11.75-11.75c0-6.49,5.26-11.75,11.75-11.75c6.49,0,11.75,5.26,11.75,11.75
		C42.84,23.47,37.58,28.73,31.09,28.73z"/>
	<path class="st3" d="M16.08,25.04L1.41,39.71c-1.88,1.88-1.88,4.93,0,6.81c1.88,1.88,4.93,1.88,6.81,0l14.63-14.63
		C19.99,30.31,17.63,27.92,16.08,25.04z"/>
</g>
</svg>
