<?xml version="1.0" encoding="utf-8"?>
<!-- Generator: Adobe Illustrator 25.4.1, SVG Export Plug-In . SVG Version: 6.00 Build 0)  -->
<svg version="1.1" id="Calque_1" xmlns="http://www.w3.org/2000/svg" xmlns:xlink="http://www.w3.org/1999/xlink" x="0px" y="0px"
	 viewBox="0 0 48 48" style="enable-background:new 0 0 48 48;" xml:space="preserve">
<style type="text/css">
	.st0{fill:#FFFFFF;}
	.st1{fill:#C6C6C6;}
	.st2{fill:#1C779C;}
	.st3{fill:#585858;}
</style>
<g>
	<path class="st0" d="M17.36,17.08c0,7.59,6.15,13.75,13.74,13.75c7.59,0,13.74-6.16,13.74-13.75c0-7.59-6.15-13.74-13.74-13.74
		C23.52,3.33,17.36,9.49,17.36,17.08z"/>
	<path class="st1" d="M31.09,0.07c-9.34,0-16.91,7.57-16.91,16.91c0,2.88,0.72,5.59,1.99,7.97L1.41,39.71
		c-1.88,1.88-1.88,4.93,0,6.81c1.88,1.88,4.93,1.88,6.81,0l14.73-14.72c2.41,1.33,5.19,2.09,8.14,2.09
		c9.34,0,16.91-7.57,16.91-16.91C48,7.64,40.43,0.07,31.09,0.07z M31.09,28.73c-6.49,0-11.75-5.26-11.75-11.75S24.6,5.23,31.09,5.23
		c6.49,0,11.75,5.26,11.75,11.75S37.58,28.73,31.09,28.73z"/>
	<path class="st2" d="M25.64,18.96h10.95c0.28-0.06,0.51-0.3,0.51-0.6v-2.54c0-0.34-0.28-0.62-0.62-0.62H25.74
		c-0.34,0-0.62,0.28-0.62,0.62v2.54C25.13,18.66,25.35,18.9,25.64,18.96z"/>
	<path class="st3" d="M16.08,25.04L1.41,39.71c-1.88,1.88-1.88,4.93,0,6.81c1.88,1.88,4.93,1.88,6.81,0l14.63-14.63
		C19.99,30.31,17.63,27.92,16.08,25.04z"/>
</g>
</svg>
