<?xml version="1.0" encoding="utf-8"?>
<!-- Generator: Adobe Illustrator 27.3.1, SVG Export Plug-In . SVG Version: 6.00 Build 0)  -->
<svg version="1.1" id="Calque_1" xmlns="http://www.w3.org/2000/svg" xmlns:xlink="http://www.w3.org/1999/xlink" x="0px" y="0px"
	 viewBox="0 0 48 48" style="enable-background:new 0 0 48 48;" xml:space="preserve">
<style type="text/css">
	.st0{fill:#F5F5F5;}
	.st1{fill:#C99D66;}
	.st2{fill:#FFFFFF;}
</style>
<g>
	<polygon class="st0" points="24,0.5 0.4,11.2 0,12.1 23.5,47.5 24.5,47.5 48,12.1 47.6,11.1 	"/>
	<polygon class="st1" points="23.5,23.9 0,12.1 0,35.7 23.5,47.5 	"/>
	<path class="st2" d="M18.9,34.2L11,30.3c-0.4-0.2-0.8,0-0.8,0.6v4.9c0,0.5,0.4,1.2,0.8,1.4l7.9,3.9c0.4,0.2,0.8,0,0.8-0.6v-4.9
		C19.7,35.1,19.3,34.5,18.9,34.2z M16.9,38.2l-4.7-2.4c-0.2-0.1-0.4-0.4-0.4-0.7c0-0.3,0.2-0.4,0.4-0.3l4.7,2.4
		c0.2,0.1,0.4,0.4,0.4,0.7C17.3,38.2,17.1,38.3,16.9,38.2z M17.7,36.6l-5.5-2.8c-0.2-0.1-0.4-0.4-0.4-0.7c0-0.3,0.2-0.4,0.4-0.3
		l5.5,2.8c0.2,0.1,0.4,0.4,0.4,0.7C18.1,36.6,17.9,36.7,17.7,36.6z"/>
	<g>
		<polygon class="st1" points="37.6,16.2 47.6,11.1 24,0.5 14.1,5 		"/>
		<polygon class="st1" points="11.4,6.2 0.4,11.2 24,22.9 35,17.5 		"/>
	</g>
	<polygon class="st1" points="24.5,23.9 24.5,47.5 48,35.7 48,12.1 	"/>
</g>
</svg>
