<?xml version="1.0" encoding="utf-8"?>
<!-- Generator: Adobe Illustrator 27.2.0, SVG Export Plug-In . SVG Version: 6.00 Build 0)  -->
<svg version="1.1" id="Calque_1" xmlns="http://www.w3.org/2000/svg" xmlns:xlink="http://www.w3.org/1999/xlink" x="0px" y="0px"
	 viewBox="0 0 48 48" style="enable-background:new 0 0 48 48;" xml:space="preserve">
<style type="text/css">
	.st0{fill:#585856;}
	.st1{fill:#F19001;}
	.st2{fill:#FFFFFF;}
	.st3{fill:#9B9A9A;}
	.st4{fill:#706F6E;}
</style>
<g>
	<path class="st0" d="M13.38,7.67c0,0.76-0.62,1.37-1.38,1.37l0,0c-0.76,0-1.38-0.61-1.38-1.37v-6.3C10.62,0.61,11.24,0,12,0l0,0
		c0.76,0,1.38,0.61,1.38,1.37V7.67z"/>
	<path class="st0" d="M25.38,7.71c0,0.76-0.62,1.38-1.38,1.38l0,0c-0.76,0-1.38-0.62-1.38-1.38v-6.3c0-0.76,0.61-1.38,1.38-1.38l0,0
		c0.76,0,1.38,0.61,1.38,1.38V7.71z"/>
	<path class="st0" d="M37.38,7.71c0,0.76-0.62,1.38-1.38,1.38l0,0c-0.76,0-1.38-0.62-1.38-1.38v-6.3c0-0.76,0.61-1.38,1.38-1.38l0,0
		c0.76,0,1.38,0.61,1.38,1.38V7.71z"/>
	<path class="st1" d="M43.38,4.58h-4.92v3.45c0,1.36-1.1,2.45-2.46,2.45c-1.36,0-2.46-1.1-2.46-2.45V4.58h-7.07v3.45
		c0,1.36-1.11,2.45-2.46,2.45c-1.36,0-2.46-1.1-2.46-2.45V4.58h-7.07v3.41c0,1.35-1.1,2.45-2.46,2.45c-1.36,0-2.46-1.1-2.46-2.45
		V4.58H4.62C2.07,4.58,0,6.63,0,9.17V43.4C0,45.94,2.07,48,4.62,48h38.76c2.55,0,4.62-2.06,4.62-4.6V9.17
		C48,6.63,45.93,4.58,43.38,4.58z"/>
	<path class="st2" d="M1.98,16.73v25.21c0,2.25,1.9,4.08,4.24,4.08h35.55c2.34,0,4.24-1.82,4.24-4.08V16.73H1.98z"/>
	<path class="st3" d="M22.84,24.95c0,0.2-0.16,0.36-0.36,0.36h-7.04c-0.2,0-0.36-0.16-0.36-0.36v-4.62c0-0.2,0.16-0.36,0.36-0.36
		h7.04c0.2,0,0.36,0.16,0.36,0.36V24.95z"/>
	<path class="st3" d="M32.92,24.95c0,0.2-0.16,0.36-0.36,0.36h-7.04c-0.2,0-0.36-0.16-0.36-0.36v-4.62c0-0.2,0.16-0.36,0.36-0.36
		h7.04c0.2,0,0.36,0.16,0.36,0.36V24.95z"/>
	<path class="st4" d="M43,24.95c0,0.2-0.16,0.36-0.36,0.36H35.6c-0.2,0-0.37-0.16-0.37-0.36v-4.62c0-0.2,0.17-0.36,0.37-0.36h7.04
		c0.2,0,0.36,0.16,0.36,0.36V24.95z"/>
	<path class="st3" d="M12.76,33.69c0,0.2-0.16,0.36-0.36,0.36H5.36c-0.2,0-0.36-0.16-0.36-0.36v-4.62c0-0.2,0.16-0.36,0.36-0.36
		h7.04c0.2,0,0.36,0.16,0.36,0.36V33.69z"/>
	<path class="st3" d="M22.84,33.69c0,0.2-0.16,0.36-0.36,0.36h-7.04c-0.2,0-0.36-0.16-0.36-0.36v-4.62c0-0.2,0.16-0.36,0.36-0.36
		h7.04c0.2,0,0.36,0.16,0.36,0.36V33.69z"/>
	<path class="st3" d="M32.92,33.69c0,0.2-0.16,0.36-0.36,0.36h-7.04c-0.2,0-0.36-0.16-0.36-0.36v-4.62c0-0.2,0.16-0.36,0.36-0.36
		h7.04c0.2,0,0.36,0.16,0.36,0.36V33.69z"/>
	<path class="st4" d="M43,33.69c0,0.2-0.16,0.36-0.36,0.36H35.6c-0.2,0-0.37-0.16-0.37-0.36v-4.62c0-0.2,0.17-0.36,0.37-0.36h7.04
		c0.2,0,0.36,0.16,0.36,0.36V33.69z"/>
	<path class="st3" d="M12.76,42.42c0,0.2-0.16,0.36-0.36,0.36H5.36c-0.2,0-0.36-0.16-0.36-0.36V37.8c0-0.2,0.16-0.36,0.36-0.36h7.04
		c0.2,0,0.36,0.17,0.36,0.36V42.42z"/>
	<path class="st3" d="M22.84,42.42c0,0.2-0.16,0.36-0.36,0.36h-7.04c-0.2,0-0.36-0.16-0.36-0.36V37.8c0-0.2,0.16-0.36,0.36-0.36
		h7.04c0.2,0,0.36,0.17,0.36,0.36V42.42z"/>
</g>
</svg>
