<?xml version="1.0" encoding="utf-8"?>
<!-- Generator: Adobe Illustrator 27.2.0, SVG Export Plug-In . SVG Version: 6.00 Build 0)  -->
<svg version="1.1" id="Calque_1" xmlns="http://www.w3.org/2000/svg" xmlns:xlink="http://www.w3.org/1999/xlink" x="0px" y="0px"
	 viewBox="0 0 48 48" style="enable-background:new 0 0 48 48;" xml:space="preserve">
<style type="text/css">
	.st0{fill:#A46A25;}
	.st1{fill:#C79B66;}
	.st2{fill:#683E14;}
</style>
<g>
	<path class="st0" d="M43.31,7.71L2.34,10.84c-1.4,0.11-2.44,1.39-2.33,2.87l1.9,25.05c0.11,1.48,1.34,2.59,2.74,2.48l40.98-3.13
		c1.4-0.11,2.44-1.39,2.33-2.87l-1.9-25.05C45.94,8.71,44.71,7.6,43.31,7.71z"/>
	<path class="st1" d="M44.87,11.45L18.8,12.05l-2.25-5.3L3.77,7.04c-1.4,0.03-2.51,1.2-2.47,2.6l0.65,29.13
		c0.03,1.4,1.19,2.52,2.59,2.48l40.98-0.93c1.4-0.03,2.51-1.19,2.48-2.6l-0.53-23.78C47.43,12.54,46.27,11.42,44.87,11.45z"/>
	<g>
		<path class="st2" d="M12.67,18.08c0.03,1.24,1.06,2.23,2.29,2.2c1.24-0.03,2.22-1.06,2.19-2.3c-0.03-1.24-1.05-2.23-2.29-2.2
			C13.62,15.81,12.64,16.84,12.67,18.08z"/>
		<polygon class="st2" points="13.87,31.3 35.76,30.81 37.21,30.78 37.25,32.45 37.36,37.16 35.9,37.19 35.8,32.48 13.91,32.98 
			14.01,37.68 12.56,37.72 12.46,33.01 12.42,31.34 		"/>
		<path class="st2" d="M12.38,22.22c0.09-0.05,0.27-0.14,0.51,0.01l5.67,5.45l6.84-0.15l-0.06-2.82l9.02-0.23
			c1.5-0.04,2.74,1.17,2.77,2.69l0.06,2.61L12.4,30.35l-0.03-1.45l-0.03-1.17l-0.12-5.34C12.22,22.39,12.28,22.28,12.38,22.22z"/>
		<path class="st2" d="M17.66,21.67l3.37,3.14l3.49-0.08l0.05,2.06l-5.43,0.12l-5.36-5.15C16.13,19.86,17.66,21.67,17.66,21.67z"/>
	</g>
</g>
</svg>
