<?xml version="1.0" encoding="utf-8"?>
<!-- Generator: Adobe Illustrator 27.2.0, SVG Export Plug-In . SVG Version: 6.00 Build 0)  -->
<svg version="1.1" id="Calque_1" xmlns="http://www.w3.org/2000/svg" xmlns:xlink="http://www.w3.org/1999/xlink" x="0px" y="0px"
	 viewBox="0 0 48 48" style="enable-background:new 0 0 48 48;" xml:space="preserve">
<style type="text/css">
	.st0{fill:#F8AE15;}
</style>
<g>
	<g>
		<path class="st0" d="M47.94,11.3c0.07,3.63-1.25,6.44-3.67,8.78c-0.61,0.59-1.59,0.64-2.54,0.12c-0.92-0.5-1.51-1.29-1.76-2.3
			c-0.17-0.68-0.06-1.3,0.49-1.82c1.79-1.68,2.37-3.76,1.8-6.1c-0.51-2.14-2.42-4.04-4.96-4.39c-4-0.55-7.81,3.27-7.45,6.93
			c0.16,1.58,0.75,2.93,1.94,4.01c3.19,2.92,6.37,5.86,9.56,8.78c0.91,0.84,1.83,1.66,2.74,2.49c4.11,3.71,5.1,9.69,2.32,14.44
			c-2.95,5.04-8.97,6.98-14.24,4.88c-1.54-0.61-2.89-1.48-4.04-2.68c-1.18-1.23-2.42-2.39-3.6-3.61c-0.4-0.41-0.66-0.43-1.08-0.01
			c-1.54,1.55-3.02,3.18-4.7,4.57c-3.76,3.13-9.28,3.48-13.37,0.81c-3.98-2.6-5.77-6.37-5.29-11.14c0.29-2.89,1.6-5.28,3.71-7.26
			c1.18-1.1,2.28-2.28,3.43-3.41c0.34-0.34,0.28-0.53-0.04-0.85c-1.6-1.59-3.27-3.12-4.72-4.83C-0.85,14.79-0.8,8.4,2.46,4.41
			c1.62-1.98,3.63-3.36,6.09-4.02c2.7-0.72,5.33-0.44,7.88,0.72c2.09,0.95,3.61,2.58,5.18,4.17c0.48,0.49,0.54,1.07,0.34,1.72
			c-0.37,1.16-1.17,1.9-2.27,2.33c-0.93,0.36-1.75,0.16-2.45-0.61c-0.99-1.1-2.01-2.19-3.46-2.71c-2.04-0.72-4.03-0.64-5.79,0.7
			c-1.88,1.43-2.78,3.37-2.44,5.74c0.18,1.27,0.8,2.38,1.72,3.29c2.23,2.24,4.47,4.47,6.7,6.71c1.09,1.1,1.1,1.93,0.02,3.01
			c-2.21,2.22-4.46,4.42-6.65,6.67C5.52,34,5.04,36.27,5.96,38.64c1.04,2.67,3.31,3.98,6.14,3.78c1.54-0.11,2.81-0.79,3.9-1.9
			c2.18-2.22,4.39-4.41,6.61-6.61c1-0.99,1.86-0.97,2.86,0.03c2.21,2.22,4.41,4.46,6.64,6.67c1.7,1.68,3.8,2.17,6.05,1.55
			c2.33-0.64,3.74-2.29,4.21-4.65c0.41-2.05-0.19-3.87-1.69-5.32c-1.73-1.67-3.52-3.28-5.29-4.91c-2.68-2.47-5.49-4.81-8.02-7.42
			c-2.6-2.69-3.53-6.07-2.85-9.79c0.49-2.69,1.84-4.91,3.87-6.77c2.29-2.09,4.92-3.26,8.01-3.27c4.73-0.03,8.87,2.74,10.72,7.1
			C47.73,8.57,47.94,9.67,47.94,11.3z"/>
	</g>
</g>
</svg>
