<?xml version="1.0" encoding="utf-8"?>
<!-- Generator: Adobe Illustrator 27.2.0, SVG Export Plug-In . SVG Version: 6.00 Build 0)  -->
<svg version="1.1" id="Calque_1" xmlns="http://www.w3.org/2000/svg" xmlns:xlink="http://www.w3.org/1999/xlink" x="0px" y="0px"
	 viewBox="0 0 48 48" style="enable-background:new 0 0 48 48;" xml:space="preserve">
<style type="text/css">
	.st0{fill:#F4F4F4;}
	.st1{fill:#1C779C;}
	.st2{fill:#37B197;}
	.st3{fill:#FFFFFF;}
	.st4{fill:#585856;}
</style>
<g>
	<g>
		<rect x="3.5" y="6.09" class="st0" width="18.77" height="35.58"/>
		<rect x="26.65" y="23.22" class="st0" width="19.36" height="24.78"/>
		<path class="st1" d="M1.75,48h22.13V3.94H1.75V48z M15.58,9.45h5.53v5.51h-5.53V9.45z M15.58,20.47h5.53v5.51h-5.53V20.47z
			 M15.58,31.48h5.53v5.5h-5.53V31.48z M4.52,9.45h5.53v5.51H4.52V9.45z M4.52,20.47h5.53v5.51H4.52V20.47z M4.52,31.48h5.53v5.5
			H4.52V31.48z"/>
		<polygon class="st1" points="26.65,48 32.17,48 32.17,36.99 40.47,36.99 40.47,48 46,48 46,23.22 26.65,23.22 		"/>
		<rect x="26.65" y="17.71" class="st2" width="19.36" height="2.75"/>
		<path class="st3" d="M39.71,28.73h-2.19v-2.18c0-0.22-0.17-0.39-0.39-0.39h-1.61c-0.22,0-0.39,0.17-0.39,0.39v2.18h-2.19
			c-0.22,0-0.39,0.18-0.39,0.39v1.59c0,0.22,0.17,0.39,0.39,0.39h2.19v2.18c0,0.22,0.17,0.39,0.39,0.39h1.61
			c0.21,0,0.39-0.18,0.39-0.39V31.1h2.19c0.22,0,0.39-0.18,0.39-0.39v-1.59C40.1,28.9,39.92,28.73,39.71,28.73z"/>
	</g>
	<g>
		<path class="st1" d="M38.07,9.8c-0.38-0.45-0.68-0.83-0.91-1.15c0.14-0.27,0.25-0.53,0.32-0.76l1.56-0.24
			c0.06-0.01,0.12-0.04,0.16-0.11c0.05-0.06,0.07-0.13,0.07-0.2V5.5c0-0.07-0.02-0.14-0.07-0.19c-0.05-0.06-0.1-0.09-0.17-0.11
			l-1.53-0.23c-0.07-0.23-0.19-0.5-0.34-0.82c0.1-0.15,0.25-0.35,0.45-0.6c0.2-0.25,0.34-0.43,0.42-0.54
			c0.05-0.07,0.07-0.13,0.07-0.19c0-0.18-0.48-0.71-1.45-1.6c-0.07-0.05-0.14-0.08-0.21-0.08c-0.08,0-0.15,0.02-0.2,0.07l-1.19,0.89
			c-0.27-0.14-0.52-0.24-0.75-0.31l-0.23-1.53c-0.01-0.07-0.04-0.13-0.1-0.17C33.91,0.03,33.85,0,33.77,0H31.9
			c-0.15,0-0.26,0.08-0.3,0.24c-0.08,0.31-0.16,0.82-0.23,1.54c-0.29,0.09-0.55,0.2-0.78,0.32l-1.16-0.9
			c-0.07-0.05-0.14-0.07-0.21-0.07c-0.13,0-0.39,0.2-0.8,0.59c-0.4,0.39-0.68,0.69-0.82,0.89c-0.05,0.05-0.07,0.12-0.07,0.2
			c0,0.06,0.02,0.13,0.07,0.2c0.38,0.45,0.68,0.83,0.9,1.15c-0.14,0.27-0.25,0.53-0.32,0.76l-1.56,0.24
			c-0.06,0.01-0.11,0.04-0.16,0.11C26.42,5.33,26.4,5.4,26.4,5.47v1.85c0,0.07,0.02,0.14,0.07,0.2c0.05,0.05,0.1,0.09,0.17,0.09
			l1.53,0.24c0.08,0.25,0.2,0.53,0.35,0.82c-0.11,0.15-0.27,0.35-0.47,0.61c-0.21,0.26-0.35,0.44-0.41,0.53
			c-0.05,0.07-0.07,0.13-0.07,0.19c0,0.18,0.48,0.72,1.45,1.6c0.07,0.05,0.14,0.08,0.21,0.08c0.09,0,0.15-0.02,0.2-0.07l1.19-0.89
			c0.28,0.14,0.53,0.24,0.76,0.31l0.23,1.53c0.01,0.07,0.04,0.13,0.1,0.18c0.06,0.05,0.13,0.07,0.2,0.07h1.87
			c0.15,0,0.26-0.08,0.3-0.24c0.08-0.31,0.16-0.83,0.23-1.55c0.27-0.08,0.53-0.18,0.77-0.31l1.16,0.9c0.07,0.05,0.14,0.07,0.21,0.07
			c0.13,0,0.39-0.2,0.79-0.6c0.4-0.4,0.67-0.7,0.83-0.9c0.05-0.05,0.07-0.11,0.07-0.19h0C38.14,9.94,38.11,9.87,38.07,9.8z
			 M34.66,8.22c-0.5,0.5-1.11,0.75-1.82,0.75s-1.32-0.25-1.82-0.75c-0.5-0.5-0.76-1.1-0.76-1.81s0.25-1.31,0.76-1.81
			c0.5-0.5,1.11-0.75,1.82-0.75s1.32,0.25,1.82,0.75c0.5,0.5,0.75,1.11,0.75,1.81S35.16,7.72,34.66,8.22z"/>
		<path class="st2" d="M46.25,9.69l-0.72-1.32c-0.05-0.1-0.58,0.05-1.57,0.47c-0.18-0.14-0.36-0.26-0.55-0.34
			c-0.06-0.88-0.14-1.41-0.22-1.57c-0.01-0.02-0.04-0.04-0.08-0.05c-1-0.03-1.51-0.04-1.53-0.03l-0.05,0.05
			c-0.12,0.4-0.22,0.91-0.3,1.53c-0.14,0.06-0.23,0.1-0.3,0.13c-0.06,0.03-0.16,0.09-0.28,0.17c-0.16-0.09-0.44-0.21-0.84-0.37
			c-0.4-0.17-0.63-0.23-0.68-0.21c-0.01,0.01-0.08,0.11-0.2,0.3c-0.12,0.2-0.25,0.4-0.39,0.62c-0.14,0.22-0.21,0.34-0.23,0.37
			c-0.02,0.03-0.01,0.06,0,0.09c0.08,0.16,0.48,0.51,1.19,1.05c-0.03,0.2-0.04,0.42-0.02,0.64c-0.89,0.6-1.31,0.95-1.26,1.05
			l0.71,1.32c0.06,0.1,0.58-0.05,1.58-0.46c0.17,0.13,0.35,0.24,0.55,0.34c0.06,0.88,0.14,1.4,0.22,1.56
			c0.01,0.03,0.04,0.04,0.07,0.05c1.01,0.03,1.53,0.05,1.54,0.04c0.05-0.03,0.12-0.25,0.2-0.68c0.08-0.43,0.13-0.73,0.15-0.91
			c0.13-0.06,0.23-0.1,0.3-0.13c0.06-0.04,0.15-0.09,0.27-0.17c0.16,0.08,0.44,0.21,0.84,0.38c0.4,0.17,0.63,0.24,0.68,0.21
			c0.01-0.01,0.28-0.44,0.81-1.3c0.02-0.03,0.02-0.06,0-0.08c-0.08-0.16-0.48-0.51-1.19-1.05c0.03-0.22,0.04-0.43,0.02-0.64
			C45.88,10.15,46.3,9.8,46.25,9.69z M43.56,11.38c-0.11,0.37-0.33,0.64-0.67,0.82c-0.33,0.18-0.69,0.22-1.05,0.11
			c-0.37-0.11-0.64-0.33-0.82-0.67c-0.18-0.33-0.21-0.68-0.1-1.04c0.11-0.37,0.33-0.64,0.66-0.82c0.33-0.18,0.68-0.21,1.05-0.1
			c0.37,0.11,0.64,0.33,0.82,0.66C43.64,10.67,43.67,11.02,43.56,11.38z"/>
		<path class="st4" d="M39.87,4.27c0.1,0.12,0.21,0.23,0.33,0.34c-0.11,0.64-0.15,1.02-0.12,1.15c0.01,0.02,0.02,0.03,0.05,0.04
			c0.71,0.2,1.08,0.3,1.08,0.3c0.04-0.01,0.13-0.16,0.26-0.45c0.13-0.29,0.22-0.49,0.27-0.62c0.1-0.01,0.18-0.03,0.23-0.04
			c0.05-0.01,0.13-0.04,0.23-0.07c0.1,0.09,0.27,0.23,0.53,0.42c0.25,0.19,0.4,0.28,0.44,0.27c0.01,0,0.28-0.26,0.81-0.78
			c0.02-0.02,0.02-0.04,0.02-0.06c-0.03-0.13-0.25-0.44-0.66-0.95c0.06-0.15,0.1-0.3,0.13-0.45c0.74-0.27,1.1-0.44,1.08-0.52
			l-0.27-1.06c-0.02-0.08-0.42-0.06-1.2,0.05v0c-0.1-0.13-0.21-0.24-0.33-0.34c0.11-0.64,0.15-1.02,0.12-1.15
			c0-0.02-0.02-0.04-0.04-0.04C42.12,0.09,41.76,0,41.74,0L41.7,0.03c-0.16,0.26-0.32,0.6-0.49,1.03c-0.11,0.02-0.18,0.03-0.23,0.04
			c-0.05,0.01-0.13,0.04-0.23,0.07c-0.1-0.09-0.27-0.23-0.53-0.41c-0.25-0.19-0.4-0.27-0.44-0.27c-0.01,0.01-0.08,0.06-0.2,0.18
			c-0.12,0.12-0.25,0.24-0.39,0.37c-0.13,0.13-0.21,0.2-0.23,0.22c-0.02,0.02-0.02,0.04-0.02,0.06c0.03,0.13,0.25,0.44,0.66,0.95
			c-0.05,0.14-0.1,0.29-0.13,0.45C38.74,3,38.38,3.17,38.4,3.25l0.27,1.07C38.69,4.4,39.09,4.38,39.87,4.27z M40.61,2.54
			c0.14-0.24,0.35-0.4,0.61-0.46c0.26-0.06,0.52-0.03,0.76,0.12c0.24,0.14,0.4,0.35,0.47,0.61c0.07,0.27,0.03,0.52-0.11,0.76
			c-0.14,0.24-0.35,0.39-0.62,0.46c-0.27,0.07-0.52,0.03-0.76-0.11c-0.24-0.14-0.39-0.35-0.46-0.62
			C40.43,3.03,40.47,2.78,40.61,2.54z"/>
	</g>
</g>
</svg>
