<?xml version="1.0" encoding="utf-8"?>
<!-- Generator: Adobe Illustrator 27.2.0, SVG Export Plug-In . SVG Version: 6.00 Build 0)  -->
<svg version="1.1" id="Calque_1" xmlns="http://www.w3.org/2000/svg" xmlns:xlink="http://www.w3.org/1999/xlink" x="0px" y="0px"
	 viewBox="0 0 48 48" style="enable-background:new 0 0 48 48;" xml:space="preserve">
<style type="text/css">
	.st0{fill:#E77108;}
	.st1{fill:#59595B;}
	.st2{fill:#919194;}
	.st3{fill:#424143;}
</style>
<g>
	<polygon class="st0" points="32.28,26.13 30.51,27.79 31.42,28.77 33.18,27.11 36.1,30.24 34.26,31.97 35.17,32.95 37.01,31.22 
		38.95,33.31 31.53,40.28 22.29,30.34 29.7,23.37 	"/>
	<polygon class="st1" points="21.91,18.84 23.7,17.15 24.61,18.13 22.82,19.82 	"/>
	<polygon class="st1" points="18.55,15.04 20.35,13.35 21.26,14.33 19.46,16.02 	"/>
	<polygon class="st2" points="23.38,24.55 27.33,20.84 28.74,22.36 21.31,29.33 19.91,27.81 22.39,25.48 11.82,14.12 13.6,12.44 
		24.17,23.8 	"/>
	<path class="st3" d="M5.12,17.47l26.13,28.09l5.5-5.17l5.38,5.78L47.5,48l-8.79-9.45l5.39-5.07L17.97,5.4l-5.83,5.47l-0.01-0.01
		l-1.79,1.67l0.01,0.02L5.12,17.47z M8.13,17.57l3.68-3.46l0,0l1.78-1.68h0l4.27-4.01l23.22,24.96l-9.74,9.15L8.13,17.57z"/>
	<polygon class="st2" points="11.58,0 14.88,3.55 9.78,8.33 12.13,10.86 10.34,12.53 8,10.01 3.8,13.95 0.5,10.4 	"/>
</g>
</svg>
