<?xml version="1.0" encoding="utf-8"?>
<!-- Generator: Adobe Illustrator 27.2.0, SVG Export Plug-In . SVG Version: 6.00 Build 0)  -->
<svg version="1.1" id="Calque_1" xmlns="http://www.w3.org/2000/svg" xmlns:xlink="http://www.w3.org/1999/xlink" x="0px" y="0px"
	 viewBox="0 0 48 48" style="enable-background:new 0 0 48 48;" xml:space="preserve">
<style type="text/css">
	.st0{fill:#FFFFFF;}
	.st1{fill:#585856;}
	.st2{fill:#BD1823;}
</style>
<g>
	<g>
		<path class="st0" d="M35.9,6.26c-9.52-1.44-14.27-1.44-23.79,0c-0.59,0.09-1.04,0.58-0.97,1.09c1.21,9.98,0.56,22.24-0.25,30.83
			c0,0,3.69,1.8,13.11,1.8c9.42,0,13.11-1.8,13.11-1.8c-0.81-8.6-1.46-20.86-0.24-30.83C36.93,6.85,36.49,6.35,35.9,6.26z"/>
		<path class="st1" d="M38.97,8.1c0.25-1.62-1.15-3.3-3.17-3.64c-1.83-0.31-3.45-0.54-5-0.73C30.29,1.63,27.47,0,24,0
			c-3.47,0-6.29,1.63-6.81,3.73c-1.54,0.19-3.17,0.42-5,0.73C10.18,4.8,8.78,6.48,9.03,8.1c1.7,11.27,1.7,16.9,0,28.16
			c-0.25,1.62,1.15,3.3,3.17,3.64c2.5,0.42,4.65,0.72,6.66,0.92v5.4c0,0.99,1,1.79,2.23,1.79c1.23,0,2.22-0.8,2.22-1.79v-5.14
			c0.87,0.01,1.75,0,2.63-0.03v2.24c0,0.71,0.72,1.29,1.61,1.29c0.89,0,1.61-0.58,1.61-1.29v-2.46c2.01-0.2,4.16-0.5,6.66-0.92
			c2.02-0.34,3.41-2.02,3.17-3.64C37.28,25,37.28,19.36,38.97,8.1z M24,0.87c0.58,0,1.04,0.77,1.04,1.73S24.58,4.32,24,4.32
			c-0.58,0-1.05-0.77-1.05-1.72S23.42,0.87,24,0.87z M36.48,36.69c0.06,0.49-0.36,0.97-0.95,1.06c-9.23,1.4-13.84,1.4-23.08,0
			c-0.58-0.09-1-0.56-0.95-1.06c1.41-11.61,1.41-17.42,0-29.02c-0.06-0.49,0.37-0.97,0.95-1.06c9.23-1.4,13.84-1.4,23.08,0
			c0.58,0.09,1.01,0.56,0.95,1.06C35.07,19.28,35.07,25.08,36.48,36.69z"/>
	</g>
	<path class="st0" d="M30.82,24.71c-1.27-3.93-6.25-10.72-6.82-11.5c-0.58,0.78-5.55,7.56-6.83,11.49
		c-0.35,0.85-0.54,1.78-0.54,2.75c0,4.05,3.3,7.34,7.36,7.34c4.06,0,7.36-3.29,7.36-7.34C31.36,26.48,31.17,25.55,30.82,24.71z"/>
	<path class="st2" d="M31.16,24.74C29.82,20.62,24.6,13.49,24,12.68c-0.6,0.81-5.82,7.93-7.16,12.06c-0.36,0.89-0.56,1.87-0.56,2.89
		c0,4.25,3.46,7.7,7.72,7.7c4.26,0,7.72-3.45,7.72-7.7C31.72,26.6,31.52,25.63,31.16,24.74z M22.05,32.85
		c-0.84,0.1-2.5-0.43-3.39-2.73c-1.09-2.83,0.69-7.06,1.85-8.91c-1.2,4.17,0.03,7.93,2.08,9.39C23.73,31.42,23.06,32.73,22.05,32.85
		z"/>
</g>
</svg>
