<?xml version="1.0" encoding="utf-8"?>
<!-- Generator: Adobe Illustrator 27.2.0, SVG Export Plug-In . SVG Version: 6.00 Build 0)  -->
<svg version="1.1" id="Calque_1" xmlns="http://www.w3.org/2000/svg" xmlns:xlink="http://www.w3.org/1999/xlink" x="0px" y="0px"
	 viewBox="0 0 48 48" style="enable-background:new 0 0 48 48;" xml:space="preserve">
<style type="text/css">
	.st0{fill:#39A935;}
</style>
<g id="layer3_2_" transform="translate(0,-99.999988)">
	<path id="rect4208_2_" class="st0" d="M9.6,100c-5.32,0-9.6,4.28-9.6,9.6v28.8c0,5.32,4.28,9.6,9.6,9.6h28.8
		c5.32,0,9.6-4.28,9.6-9.6v-28.8c0-5.32-4.28-9.6-9.6-9.6H9.6z M24.04,106.15l12.61,12.11c0.41,0.4,0.27,1.24-0.04,1.31l-5.68-0.01
		l-0.01,14.79c-0.09,0.94-0.97,1.49-1.72,1.53l-10.49-0.02c-0.37,0.02-1.49-0.37-1.62-1.49v-14.82h-5.62c-0.32-0.1-0.69-0.65,0-1.38
		L24.04,106.15z M12.35,139.68h23.31c0.68,0,1.23,0.55,1.23,1.23v1.07c0,0.68-0.55,1.23-1.23,1.23H12.35
		c-0.68,0-1.23-0.55-1.23-1.23v-1.07C11.12,140.23,11.67,139.68,12.35,139.68z"/>
</g>
</svg>
