<?xml version="1.0" encoding="utf-8"?>
<!-- Generator: Adobe Illustrator 27.2.0, SVG Export Plug-In . SVG Version: 6.00 Build 0)  -->
<svg version="1.1" id="Calque_1" xmlns="http://www.w3.org/2000/svg" xmlns:xlink="http://www.w3.org/1999/xlink" x="0px" y="0px"
	 viewBox="0 0 48 48" style="enable-background:new 0 0 48 48;" xml:space="preserve">
<style type="text/css">
	.st0{fill:#FFFFFF;}
	.st1{fill:#B0B0B0;}
	.st2{fill:#5AB895;}
</style>
<g>
	<g>
		<path class="st0" d="M17.33,17.05L3.42,30.96c-3.58,3.58-3.44,9.53,0.33,13.3c3.76,3.76,9.71,3.91,13.29,0.33l13.92-13.91
			L17.33,17.05z"/>
		<path class="st1" d="M3.16,44.85c-4.08-4.08-4.23-10.57-0.33-14.47l14.5-14.49l14.79,14.79l-14.5,14.49
			C13.72,49.07,7.23,48.92,3.16,44.85z M17.33,18.22L4,31.55c-3.25,3.25-3.11,8.69,0.33,12.12c3.43,3.44,8.87,3.58,12.12,0.33
			l13.33-13.32L17.33,18.22z"/>
	</g>
	<path class="st2" d="M31.5,30.13L45.4,16.22c3.59-3.58,3.44-9.53-0.33-13.3c-3.76-3.76-9.71-3.91-13.29-0.33L17.87,16.5L31.5,30.13
		z"/>
</g>
</svg>
