<?xml version="1.0" encoding="utf-8"?>
<!-- Generator: Adobe Illustrator 27.2.0, SVG Export Plug-In . SVG Version: 6.00 Build 0)  -->
<svg version="1.1" id="Calque_1" xmlns="http://www.w3.org/2000/svg" xmlns:xlink="http://www.w3.org/1999/xlink" x="0px" y="0px"
	 viewBox="0 0 48 48" style="enable-background:new 0 0 48 48;" xml:space="preserve">
<style type="text/css">
	.st0{fill:#585856;}
</style>
<path class="st0" d="M1.04,6.74l6.75,6.76l6.37-6.38L7.5,0.45C8.44,0.16,9.43,0,10.46,0c5.5,0,9.96,4.47,9.96,9.98
	c0,1.36-0.27,2.65-0.76,3.83l14.72,14.74c0.99-0.33,2.05-0.51,3.16-0.51c5.5,0,9.96,4.47,9.96,9.98c0,1.13-0.19,2.23-0.54,3.24
	l-6.75-6.76l-6.37,6.38l6.66,6.67C39.56,47.84,38.57,48,37.54,48c-5.5,0-9.96-4.47-9.96-9.98c0-1.36,0.27-2.65,0.76-3.83
	L13.62,19.45c-0.99,0.33-2.05,0.51-3.16,0.51c-5.5,0-9.96-4.47-9.96-9.98C0.5,8.85,0.69,7.76,1.04,6.74z"/>
</svg>
