<?xml version="1.0" encoding="utf-8"?>
<!-- Generator: Adobe Illustrator 27.2.0, SVG Export Plug-In . SVG Version: 6.00 Build 0)  -->
<svg version="1.1" id="Calque_1" xmlns="http://www.w3.org/2000/svg" xmlns:xlink="http://www.w3.org/1999/xlink" x="0px" y="0px"
	 viewBox="0 0 48 48" style="enable-background:new 0 0 48 48;" xml:space="preserve">
<style type="text/css">
	.st0{fill:#1C779C;}
	.st1{fill:#37B197;}
	.st2{fill:#585856;}
</style>
<g>
	<path class="st0" d="M28.21,29.48c-0.91-1.09-1.64-2.03-2.19-2.82c0.34-0.67,0.6-1.29,0.78-1.86l3.77-0.59
		c0.15-0.02,0.28-0.1,0.39-0.26c0.11-0.16,0.17-0.32,0.17-0.48v-4.53c0-0.18-0.06-0.34-0.17-0.48c-0.11-0.14-0.25-0.22-0.41-0.26
		l-3.69-0.56c-0.18-0.56-0.45-1.23-0.83-2.01c0.24-0.36,0.61-0.85,1.09-1.47c0.49-0.62,0.82-1.06,1.02-1.32
		c0.11-0.16,0.17-0.32,0.17-0.47c0-0.44-1.17-1.74-3.5-3.92c-0.16-0.13-0.33-0.2-0.51-0.2c-0.19,0-0.36,0.06-0.49,0.17l-2.87,2.18
		c-0.66-0.34-1.27-0.6-1.82-0.76l-0.56-3.75c-0.02-0.16-0.1-0.31-0.24-0.43c-0.15-0.12-0.31-0.18-0.49-0.18H13.3
		c-0.37,0-0.62,0.2-0.73,0.59c-0.2,0.75-0.38,2.01-0.56,3.77c-0.7,0.23-1.33,0.49-1.88,0.79l-2.8-2.21
		C7.19,8.33,7.01,8.27,6.84,8.27c-0.31,0-0.95,0.48-1.92,1.44c-0.97,0.97-1.64,1.69-1.99,2.18c-0.11,0.13-0.17,0.3-0.17,0.49
		c0,0.15,0.06,0.31,0.17,0.49c0.91,1.09,1.64,2.04,2.19,2.82c-0.34,0.67-0.6,1.29-0.78,1.86l-3.77,0.58
		c-0.15,0.02-0.27,0.1-0.39,0.26C0.06,18.54,0,18.71,0,18.87v4.53c0,0.18,0.06,0.34,0.17,0.48c0.12,0.14,0.25,0.21,0.42,0.23
		l3.7,0.59c0.19,0.62,0.48,1.29,0.85,2.01c-0.26,0.36-0.64,0.86-1.14,1.49c-0.51,0.64-0.84,1.07-1,1.29
		c-0.12,0.16-0.17,0.32-0.17,0.46c0,0.45,1.17,1.75,3.5,3.92c0.16,0.13,0.33,0.2,0.51,0.2c0.21,0,0.37-0.05,0.48-0.17l2.87-2.18
		c0.67,0.34,1.27,0.6,1.83,0.76l0.56,3.75c0.02,0.16,0.1,0.31,0.24,0.43c0.15,0.12,0.31,0.18,0.49,0.18h4.52
		c0.37,0,0.62-0.19,0.73-0.59c0.2-0.77,0.38-2.04,0.56-3.79c0.65-0.19,1.27-0.45,1.87-0.76l2.8,2.21c0.16,0.11,0.34,0.17,0.51,0.17
		c0.31,0,0.94-0.49,1.91-1.46c0.96-0.97,1.63-1.7,2-2.19c0.11-0.11,0.17-0.27,0.17-0.47h0C28.38,29.8,28.32,29.64,28.21,29.48z
		 M19.97,25.6c-1.22,1.23-2.68,1.83-4.4,1.83c-1.72,0-3.19-0.61-4.4-1.83c-1.22-1.22-1.83-2.7-1.83-4.43c0-1.73,0.61-3.21,1.83-4.43
		c1.22-1.22,2.69-1.83,4.4-1.83c1.72,0,3.19,0.61,4.4,1.83c1.22,1.23,1.82,2.7,1.82,4.43C21.79,22.9,21.18,24.38,19.97,25.6z"/>
	<path class="st1" d="M47.99,29.21l-1.73-3.23c-0.13-0.25-1.4,0.13-3.81,1.14c-0.44-0.34-0.88-0.62-1.33-0.84
		c-0.15-2.16-0.33-3.44-0.53-3.83c-0.04-0.06-0.09-0.1-0.18-0.11c-2.41-0.08-3.65-0.11-3.71-0.07l-0.11,0.12
		c-0.3,0.97-0.54,2.22-0.73,3.73c-0.33,0.14-0.56,0.24-0.72,0.32c-0.16,0.09-0.38,0.23-0.67,0.43c-0.38-0.21-1.06-0.51-2.02-0.92
		c-0.96-0.4-1.51-0.57-1.63-0.5c-0.03,0.02-0.19,0.26-0.49,0.74c-0.3,0.48-0.61,0.98-0.94,1.52c-0.33,0.54-0.51,0.83-0.56,0.9
		c-0.04,0.08-0.04,0.15,0,0.21c0.2,0.39,1.16,1.24,2.88,2.56c-0.07,0.5-0.09,1.02-0.05,1.58c-2.15,1.47-3.17,2.32-3.04,2.57
		l1.72,3.24c0.14,0.25,1.41-0.13,3.81-1.14c0.41,0.32,0.85,0.59,1.33,0.83c0.15,2.16,0.33,3.44,0.54,3.82
		c0.03,0.06,0.09,0.1,0.18,0.11c2.45,0.08,3.7,0.11,3.72,0.1c0.12-0.07,0.28-0.62,0.47-1.66c0.2-1.04,0.32-1.78,0.36-2.22
		c0.32-0.14,0.56-0.25,0.71-0.33c0.16-0.09,0.37-0.22,0.66-0.42c0.39,0.21,1.07,0.52,2.04,0.93c0.97,0.41,1.51,0.58,1.64,0.52
		c0.03-0.02,0.68-1.08,1.97-3.19c0.04-0.08,0.04-0.15,0.01-0.21c-0.2-0.38-1.16-1.24-2.88-2.56c0.07-0.53,0.08-1.06,0.05-1.57
		C47.1,30.32,48.12,29.46,47.99,29.21z M41.5,33.34c-0.26,0.89-0.81,1.56-1.61,1.99c-0.81,0.44-1.66,0.53-2.54,0.26
		c-0.88-0.27-1.54-0.81-1.98-1.63c-0.43-0.8-0.51-1.65-0.24-2.55c0.27-0.9,0.8-1.57,1.6-2c0.8-0.43,1.65-0.51,2.54-0.24
		c0.9,0.27,1.56,0.81,1.99,1.61C41.68,31.6,41.76,32.45,41.5,33.34z"/>
	<path class="st2" d="M32.57,15.94c0.23,0.3,0.5,0.57,0.8,0.83c-0.28,1.57-0.37,2.5-0.3,2.81c0.02,0.05,0.05,0.08,0.11,0.11
		c1.72,0.5,2.6,0.74,2.62,0.73c0.1-0.02,0.31-0.39,0.63-1.09c0.32-0.7,0.54-1.21,0.64-1.51c0.25-0.03,0.44-0.07,0.57-0.1
		c0.12-0.03,0.31-0.09,0.54-0.18c0.24,0.22,0.66,0.55,1.28,1.02c0.62,0.46,0.97,0.68,1.07,0.66c0.03-0.01,0.68-0.65,1.96-1.9
		c0.04-0.06,0.05-0.1,0.04-0.15c-0.08-0.31-0.61-1.08-1.59-2.33c0.14-0.37,0.25-0.74,0.31-1.11c1.79-0.65,2.66-1.08,2.61-1.28
		l-0.66-2.6c-0.05-0.2-1.02-0.16-2.9,0.12v0c-0.25-0.32-0.52-0.59-0.8-0.83c0.27-1.56,0.37-2.5,0.3-2.8
		c-0.01-0.05-0.05-0.09-0.11-0.11c-1.7-0.49-2.57-0.73-2.62-0.72l-0.1,0.07c-0.38,0.64-0.77,1.47-1.18,2.52
		c-0.26,0.04-0.44,0.07-0.57,0.11c-0.12,0.03-0.31,0.09-0.55,0.18c-0.23-0.22-0.66-0.55-1.27-1.01c-0.61-0.46-0.97-0.67-1.07-0.65
		c-0.02,0.01-0.18,0.16-0.48,0.44c-0.3,0.29-0.61,0.59-0.94,0.91c-0.32,0.32-0.51,0.5-0.55,0.54c-0.04,0.05-0.05,0.1-0.04,0.15
		c0.08,0.31,0.61,1.08,1.59,2.33c-0.13,0.34-0.24,0.71-0.31,1.11c-1.79,0.66-2.66,1.08-2.61,1.28l0.66,2.61
		C29.73,16.26,30.69,16.22,32.57,15.94z M34.36,11.7c0.35-0.59,0.84-0.97,1.48-1.13c0.64-0.16,1.25-0.07,1.84,0.28
		c0.59,0.35,0.96,0.85,1.13,1.49c0.17,0.66,0.08,1.28-0.27,1.86c-0.34,0.58-0.84,0.96-1.49,1.12c-0.66,0.17-1.27,0.08-1.85-0.27
		c-0.58-0.35-0.95-0.85-1.12-1.51C33.92,12.91,34.01,12.29,34.36,11.7z"/>
</g>
</svg>
