<?xml version="1.0" encoding="utf-8"?>
<!-- Generator: Adobe Illustrator 25.3.1, SVG Export Plug-In . SVG Version: 6.00 Build 0)  -->
<svg version="1.1" id="Calque_1" xmlns="http://www.w3.org/2000/svg" xmlns:xlink="http://www.w3.org/1999/xlink" x="0px" y="0px"
	 viewBox="0 0 48 48" style="enable-background:new 0 0 48 48;" xml:space="preserve">
<style type="text/css">
	.st0{fill:#1C789D;}
</style>
<g>
	<path class="st0" d="M42.8,27l5.2-3.2l-2.3-10l-6.1-0.7l-1.6-1.9l0.7-6.1l-9.3-4.5l-4.3,4.3h-2.5l-4.3-4.3L9.2,5.1l0.7,6.1
		l-1.5,1.9l-6.1,0.7L0,23.7L5.2,27l0.6,2.4l-3.3,5.2l6.4,8l5.7-2l2.2,1.1l2,5.8h10.3l2-5.8l2.2-1.1l5.7,2l6.4-8l-3.3-5.2L42.8,27z
		 M24,35.4c-6.3,0-11.4-5.1-11.4-11.4c0-6.3,5.1-11.4,11.4-11.4c6.3,0,11.4,5.1,11.4,11.4C35.4,30.3,30.3,35.4,24,35.4z"/>
	<path class="st0" d="M24,18.5c-3,0-5.5,2.5-5.5,5.5c0,3,2.4,5.5,5.5,5.5c3,0,5.5-2.5,5.5-5.5C29.5,21,27,18.5,24,18.5z"/>
</g>
</svg>
