<?xml version="1.0" encoding="utf-8"?>
<!-- Generator: Adobe Illustrator 27.2.0, SVG Export Plug-In . SVG Version: 6.00 Build 0)  -->
<svg version="1.1" id="Calque_1" xmlns="http://www.w3.org/2000/svg" xmlns:xlink="http://www.w3.org/1999/xlink" x="0px" y="0px"
	 viewBox="0 0 48 48" style="enable-background:new 0 0 48 48;" xml:space="preserve">
<style type="text/css">
	.st0{fill:#1C779C;}
	.st1{fill:#010101;}
	.st2{fill:#9B9A9A;}
</style>
<g>
	<path class="st0" d="M1.06,7.12c0,2.42,1.94,4.37,4.34,4.37c2.4,0,4.34-1.95,4.34-4.37c0-2.41-1.94-4.37-4.34-4.37
		C3,2.75,1.06,4.7,1.06,7.12z"/>
	<polygon class="st1" points="2.81,32.85 45.19,32.85 48,32.85 48,36.1 48,45.25 45.19,45.25 45.19,36.1 2.81,36.1 2.81,45.25 
		0,45.25 0,36.1 0,32.85 	"/>
	<path class="st2" d="M0.33,15.15c0.18-0.1,0.52-0.27,0.98,0.05l10.74,10.84h13.25v-5.47l17.46-0.05c2.9,0,5.24,2.4,5.24,5.35v5.08
		H0v-2.81v-2.27V15.47C0,15.47,0.13,15.25,0.33,15.15z"/>
	<path class="st0" d="M10.56,14.3l6.38,6.24h6.76v4.01H13.19L3.04,14.3C7.67,10.74,10.56,14.3,10.56,14.3z"/>
</g>
</svg>
