<?xml version="1.0" encoding="utf-8"?>
<!-- Generator: Adobe Illustrator 27.2.0, SVG Export Plug-In . SVG Version: 6.00 Build 0)  -->
<svg version="1.1" id="Calque_1" xmlns="http://www.w3.org/2000/svg" xmlns:xlink="http://www.w3.org/1999/xlink" x="0px" y="0px"
	 viewBox="0 0 48 48" style="enable-background:new 0 0 48 48;" xml:space="preserve">
<style type="text/css">
	.st0{fill:#FFFFFF;}
	.st1{fill:#1C779C;}
	.st2{fill:#1D1E1C;}
</style>
<g>
	<rect x="5.21" y="2.41" class="st0" width="37.69" height="26.53"/>
	<g>
		<path class="st1" d="M45.15,0H2.85C1.56,0,0.5,1.05,0.5,2.34c0,1.29,1.06,2.34,2.35,2.34h0.54v23.17c0,1.68,1.37,3.04,3.06,3.04
			h35.1c1.68,0,3.05-1.36,3.05-3.04V4.68h0.55c1.29,0,2.35-1.05,2.35-2.34C47.5,1.05,46.44,0,45.15,0z M41.78,27.86
			c0,0.13-0.11,0.23-0.23,0.23H6.45c-0.13,0-0.24-0.11-0.24-0.23V4.68h35.57V27.86L41.78,27.86z"/>
		<path class="st2" d="M35.86,9.11c-1.29,0-2.34,1.05-2.34,2.33c0,0.49,0.15,0.95,0.41,1.32l-5.41,6.21
			c-0.31-0.16-0.67-0.24-1.04-0.24c-0.41,0-0.8,0.11-1.14,0.29l-2.44-2.56c0.23-0.36,0.36-0.78,0.36-1.24
			c0-1.29-1.05-2.33-2.34-2.33s-2.34,1.05-2.34,2.33c0,0.23,0.03,0.45,0.09,0.66l-5.89,3.51c-0.42-0.42-1-0.67-1.64-0.67
			c-1.29,0-2.34,1.05-2.34,2.33c0,1.29,1.05,2.33,2.34,2.33c1.29,0,2.34-1.05,2.34-2.33c0-0.23-0.03-0.45-0.1-0.66l5.89-3.51
			c0.42,0.42,1,0.67,1.64,0.67c0.41,0,0.8-0.11,1.13-0.29l2.44,2.55c-0.23,0.36-0.35,0.78-0.35,1.24c0,1.29,1.05,2.33,2.34,2.33
			c1.29,0,2.34-1.05,2.34-2.33c0-0.49-0.15-0.95-0.41-1.32l5.41-6.21c0.31,0.16,0.67,0.24,1.04,0.24c1.29,0,2.34-1.05,2.34-2.33
			C38.2,10.15,37.15,9.11,35.86,9.11z M13.31,21.05c0,0.64-0.52,1.17-1.17,1.17c-0.65,0-1.17-0.52-1.17-1.17
			c0-0.64,0.52-1.16,1.17-1.16c0.21,0,0.4,0.05,0.57,0.15c0.35,0.2,0.59,0.57,0.6,1V21.05z M21.92,16.39c-0.21,0-0.4-0.05-0.57-0.15
			c-0.35-0.2-0.59-0.58-0.6-1v-0.02c0-0.64,0.52-1.17,1.17-1.17c0.64,0,1.17,0.52,1.17,1.17c0,0.11-0.02,0.23-0.05,0.33
			c-0.12,0.39-0.44,0.7-0.85,0.8C22.1,16.38,22.01,16.39,21.92,16.39z M28.65,21.05c0,0.64-0.53,1.17-1.17,1.17
			c-0.65,0-1.17-0.52-1.17-1.17c0-0.11,0.02-0.22,0.04-0.33c0.12-0.4,0.45-0.71,0.85-0.8c0.09-0.02,0.18-0.03,0.27-0.03
			c0.08,0,0.15,0.01,0.22,0.02c0.41,0.08,0.75,0.37,0.89,0.76C28.62,20.79,28.65,20.92,28.65,21.05z M35.86,12.61
			c-0.08,0-0.15-0.01-0.22-0.02c-0.41-0.08-0.75-0.38-0.88-0.77c-0.04-0.12-0.06-0.25-0.06-0.38c0-0.64,0.52-1.17,1.17-1.17
			c0.65,0,1.17,0.52,1.17,1.17C37.03,12.08,36.51,12.61,35.86,12.61z"/>
		<path class="st1" d="M39.65,44.23c-0.39,0-0.74,0.12-1.04,0.31l-13.78-6.96V30.9h-1.65v6.69L9.39,44.55
			c-0.3-0.2-0.66-0.31-1.04-0.31c-1.04,0-1.89,0.84-1.89,1.88c0,1.04,0.85,1.88,1.89,1.88c1.04,0,1.89-0.84,1.89-1.88
			c0-0.05,0-0.1-0.01-0.16l12.95-6.54v5c-0.63,0.3-1.07,0.95-1.07,1.69c0,1.04,0.85,1.88,1.89,1.88c1.04,0,1.89-0.84,1.89-1.88
			c0-0.75-0.44-1.39-1.07-1.69v-5l12.95,6.54c-0.01,0.05-0.01,0.1-0.01,0.16c0,1.04,0.85,1.88,1.89,1.88c1.04,0,1.89-0.84,1.89-1.88
			C41.54,45.08,40.69,44.23,39.65,44.23z"/>
	</g>
</g>
</svg>
