<?xml version="1.0" encoding="utf-8"?>
<!-- Generator: Adobe Illustrator 27.2.0, SVG Export Plug-In . SVG Version: 6.00 Build 0)  -->
<svg version="1.1" id="Calque_1" xmlns="http://www.w3.org/2000/svg" xmlns:xlink="http://www.w3.org/1999/xlink" x="0px" y="0px"
	 viewBox="0 0 48 48" style="enable-background:new 0 0 48 48;" xml:space="preserve">
<style type="text/css">
	.st0{fill:#FFFFFF;}
	.st1{fill:#2172B7;}
	.st2{fill:#3C3C3B;}
	.st3{fill:#F19001;}
	.st4{fill:#1C779C;}
</style>
<g>
	<polygon class="st0" points="1.03,37.36 25.38,37.36 25.38,10.8 12.58,10.8 0.99,22.38 	"/>
	<path class="st1" d="M46.21,7.83h-4.34c-0.99,0-1.79,0.81-1.79,1.8c0,0.99,0.8,1.8,1.79,1.8h2.56v25.15h-2.56
		c-0.99,0-1.79,0.81-1.79,1.8c0,0.99,0.8,1.8,1.79,1.8h4.34c0.99,0,1.79-0.81,1.79-1.8V9.63C48,8.63,47.2,7.83,46.21,7.83z"/>
	<g>
		<path id="path32_20_" class="st2" d="M0,22.15L12.16,9.91v10.6c0,0.9-0.73,1.64-1.62,1.64H0z"/>
		<path class="st2" d="M23.76,35.99H2.08V23.02l10.94-11.01h10.74v-2.1H12.16L0,22.15v14.3c0,0.9,0.73,1.63,1.62,1.63h22.14V35.99z"
			/>
	</g>
	<polygon class="st3" points="43.32,24 33.93,16.34 33.93,20.22 28.88,20.22 28.88,3.5 21.54,3.5 21.54,44.5 28.88,44.5 
		28.88,27.78 33.93,27.78 33.93,31.66 	"/>
	<path class="st4" d="M19.05,14.83c0.54,0,0.97,0.46,0.97,1.04v17.19c0,0.57-0.43,1.04-0.97,1.04l0,0c-0.53,0-0.97-0.46-0.97-1.04
		V15.86C18.09,15.29,18.52,14.83,19.05,14.83L19.05,14.83z"/>
	<path class="st4" d="M15.08,14.83c0.54,0,0.97,0.46,0.97,1.04v17.19c0,0.57-0.43,1.04-0.97,1.04l0,0c-0.53,0-0.97-0.46-0.97-1.04
		V15.86C14.11,15.29,14.55,14.83,15.08,14.83L15.08,14.83z"/>
	<path class="st4" d="M9.21,24.66c-0.53,0-0.96,0.46-0.96,1.04v2.24v2.91v2.24c0,0.57,0.43,1.04,0.97,1.04
		c0.53,0,0.96-0.46,0.96-1.04v-2.24v-2.91v-2.24C10.18,25.12,9.75,24.66,9.21,24.66z"/>
	<path class="st4" d="M5.24,24.74c-0.53,0-0.97,0.46-0.97,1.04v2.24v2.91v2.24c0,0.57,0.43,1.04,0.97,1.04
		c0.53,0,0.97-0.46,0.97-1.04v-2.24v-2.91v-2.24C6.21,25.2,5.78,24.74,5.24,24.74z"/>
</g>
</svg>
