<?xml version="1.0" encoding="utf-8"?>
<!-- Generator: Adobe Illustrator 27.2.0, SVG Export Plug-In . SVG Version: 6.00 Build 0)  -->
<svg version="1.1" id="Calque_1" xmlns="http://www.w3.org/2000/svg" xmlns:xlink="http://www.w3.org/1999/xlink" x="0px" y="0px"
	 viewBox="0 0 48 48" style="enable-background:new 0 0 48 48;" xml:space="preserve">
<style type="text/css">
	.st0{fill:#706F6E;}
	.st1{fill:#FFFFFF;}
	.st2{fill:#BD1823;}
</style>
<g>
	<path class="st0" d="M48,24c0,13.26-10.75,24-24,24C10.75,48,0,37.26,0,24C0,10.74,10.75,0,24,0C37.25,0,48,10.74,48,24z"/>
	<path class="st1" d="M41.83,24.26L41.83,24.26L41.83,24.26c0-6.96-13.3-12.6-17.83-12.6c-4.54,0-17.84,5.64-17.84,12.6l0,0l0,0v0
		l0,0l5.26,12.09c0,0,12.04-6.23,24.82,0C39.09,29.54,41.82,24.28,41.83,24.26L41.83,24.26L41.83,24.26z"/>
	<path class="st2" d="M31.36,20.29H26.6v-4.77c0-0.47-0.38-0.85-0.85-0.85h-3.5c-0.47,0-0.85,0.38-0.85,0.85v4.77h-4.76
		c-0.47,0-0.85,0.38-0.85,0.86v3.48c0,0.47,0.38,0.86,0.85,0.86h4.76v4.76c0,0.47,0.38,0.85,0.85,0.85h3.5
		c0.47,0,0.85-0.38,0.85-0.85v-4.76h4.77c0.47,0,0.85-0.38,0.85-0.86v-3.48C32.21,20.67,31.83,20.29,31.36,20.29z"/>
</g>
</svg>
