<?xml version="1.0" encoding="utf-8"?>
<!-- Generator: Adobe Illustrator 27.2.0, SVG Export Plug-In . SVG Version: 6.00 Build 0)  -->
<svg version="1.1" id="Calque_1" xmlns="http://www.w3.org/2000/svg" xmlns:xlink="http://www.w3.org/1999/xlink" x="0px" y="0px"
	 viewBox="0 0 48 48" style="enable-background:new 0 0 48 48;" xml:space="preserve">
<style type="text/css">
	.st0{fill:#F4F4F4;}
	.st1{fill:#1C779C;}
	.st2{fill:#BD1824;}
	.st3{fill:#37B197;}
	.st4{fill:#FFFFFF;}
</style>
<g>
	<rect x="1.89" y="2.34" class="st0" width="20.36" height="38.76"/>
	<rect x="27" y="21" class="st0" width="21" height="27"/>
	<path class="st1" d="M0,48h24V0H0V48z M15,6h6v6h-6V6z M15,18h6v6h-6V18z M15,30h6v6h-6V30z M3,6h6v6H3V6z M3,18h6v6H3V18z M3,30h6
		v6H3V30z"/>
	<polygon class="st2" points="27,48 33,48 33,36 42,36 42,48 48,48 48,21 27,21 	"/>
	<rect x="27" y="15" class="st3" width="21" height="3"/>
	<path class="st4" d="M41.17,27h-2.37v-2.37c0-0.23-0.19-0.42-0.42-0.42h-1.74c-0.23,0-0.42,0.19-0.42,0.42V27h-2.37
		c-0.24,0-0.42,0.19-0.42,0.43v1.74c0,0.24,0.19,0.43,0.42,0.43h2.37v2.37c0,0.23,0.19,0.43,0.42,0.43h1.74
		c0.23,0,0.42-0.19,0.42-0.43v-2.37h2.37c0.23,0,0.42-0.19,0.42-0.43v-1.74C41.59,27.19,41.4,27,41.17,27z"/>
</g>
</svg>
