<?xml version="1.0" encoding="utf-8"?>
<!-- Generator: Adobe Illustrator 27.2.0, SVG Export Plug-In . SVG Version: 6.00 Build 0)  -->
<svg version="1.1" id="Calque_1" xmlns="http://www.w3.org/2000/svg" xmlns:xlink="http://www.w3.org/1999/xlink" x="0px" y="0px"
	 viewBox="0 0 48 48" style="enable-background:new 0 0 48 48;" xml:space="preserve">
<style type="text/css">
	.st0{fill:#BD1824;}
	.st1{fill:#1C779C;}
	.st2{fill:#3C3C3B;}
	.st3{fill:#9C9B99;}
	.st4{fill:#FFFFFF;}
</style>
<g>
	<path class="st0" d="M24.64,11.5V7.53c0-0.29-0.24-0.53-0.53-0.53h-5.47c-0.29,0-0.53,0.24-0.53,0.53v3.97H24.64z"/>
	<g>
		<path class="st1" d="M47.97,25.31c-0.06-1.25-0.31-2.06-1.53-2.62c-1.22-0.56-6.4-2-6.4-2s-2.96-5.74-4.52-8.61
			c-0.01-0.03-0.03-0.05-0.05-0.07H0c0,4.51,0,21.11,0,22.35c0,1.44,1.5,0.87,1.5,0.87s0.85-7.45,7.65-7.45
			c6.81,0,7.46,7.56,7.46,7.56h14.6c0,0,0.22-7.54,7.76-7.54c7.26,0,6.41,7.54,7.31,7.54c1.7,0,1.69-0.86,1.69-0.86
			S48.03,26.56,47.97,25.31z M27.21,21.07c-0.29,0-0.53-0.24-0.53-0.53v-5.78c0-0.29,0.24-0.53,0.53-0.53h6.92l3.33,6.84H27.21z"/>
	</g>
	<path class="st2" d="M14.68,35.26c0,3.12-2.53,5.65-5.66,5.65c-3.13,0-5.66-2.53-5.66-5.65c0-3.12,2.53-5.65,5.66-5.65
		C12.15,29.61,14.68,32.14,14.68,35.26z"/>
	<path class="st3" d="M11.34,35.26c0,1.28-1.04,2.32-2.32,2.32c-1.28,0-2.32-1.04-2.32-2.32c0-1.28,1.04-2.32,2.32-2.32
		C10.3,32.94,11.34,33.98,11.34,35.26z"/>
	<path class="st2" d="M44.46,35.35c0,3.12-2.53,5.65-5.66,5.65c-3.13,0-5.66-2.53-5.66-5.65c0-3.12,2.53-5.65,5.66-5.65
		C41.93,29.7,44.46,32.23,44.46,35.35z"/>
	<path class="st4" d="M19.8,18.91h-3.05v-3.04c0-0.3-0.24-0.54-0.54-0.54h-2.23c-0.3,0-0.54,0.24-0.54,0.54v3.04h-3.05
		c-0.3,0-0.55,0.24-0.55,0.54v2.23c0,0.3,0.24,0.54,0.55,0.54h3.05v3.04c0,0.3,0.24,0.54,0.54,0.54h2.23c0.3,0,0.54-0.24,0.54-0.54
		v-3.04h3.05c0.3,0,0.55-0.25,0.55-0.54v-2.23C20.35,19.15,20.1,18.91,19.8,18.91z"/>
	<path class="st3" d="M41.12,35.35c0,1.28-1.04,2.32-2.32,2.32c-1.28,0-2.32-1.04-2.32-2.32s1.04-2.32,2.32-2.32
		C40.08,33.03,41.12,34.07,41.12,35.35z"/>
	<path class="st0" d="M26.31,9.49c-0.33,0-0.6-0.21-0.6-0.48l0,0c0-0.26,0.27-0.48,0.6-0.48h3.44c0.33,0,0.6,0.21,0.6,0.48l0,0
		c0,0.26-0.27,0.48-0.6,0.48H26.31z"/>
	<g>
		<path class="st0" d="M28.51,10.84c0.07-0.15-0.02-0.33-0.22-0.39l-2.01-0.61c-0.2-0.06-0.41,0.02-0.49,0.17
			c-0.07,0.15,0.02,0.33,0.22,0.38l2.01,0.61C28.21,11.08,28.43,11,28.51,10.84z"/>
		<path class="st0" d="M28.29,7.58c0.19-0.06,0.29-0.23,0.22-0.38c-0.07-0.16-0.29-0.23-0.49-0.17L26,7.63
			c-0.19,0.06-0.29,0.23-0.22,0.39c0.07,0.15,0.29,0.23,0.49,0.17L28.29,7.58z"/>
	</g>
	<path class="st0" d="M16.45,9.73c0.33,0,0.6-0.21,0.6-0.48l0,0c0-0.26-0.27-0.48-0.6-0.48h-3.44c-0.33,0-0.6,0.21-0.6,0.48l0,0
		c0,0.26,0.27,0.48,0.6,0.48H16.45z"/>
	<g>
		<path class="st0" d="M14.25,11.07c-0.08-0.15,0.02-0.33,0.22-0.38l2.01-0.61c0.2-0.06,0.41,0.02,0.49,0.17
			c0.07,0.15-0.02,0.33-0.22,0.39l-2.01,0.61C14.55,11.31,14.33,11.23,14.25,11.07z"/>
		<path class="st0" d="M14.47,7.81c-0.19-0.06-0.29-0.23-0.22-0.38c0.07-0.15,0.29-0.23,0.49-0.17l2.01,0.61
			c0.2,0.06,0.29,0.23,0.22,0.39c-0.07,0.15-0.29,0.23-0.49,0.17L14.47,7.81z"/>
	</g>
</g>
</svg>
