<?xml version="1.0" encoding="utf-8"?>
<!-- Generator: Adobe Illustrator 27.2.0, SVG Export Plug-In . SVG Version: 6.00 Build 0)  -->
<svg version="1.1" id="Calque_1" xmlns="http://www.w3.org/2000/svg" xmlns:xlink="http://www.w3.org/1999/xlink" x="0px" y="0px"
	 viewBox="0 0 48 48" style="enable-background:new 0 0 48 48;" xml:space="preserve">
<style type="text/css">
	.st0{fill:#D69662;}
	.st1{fill:#37B197;}
	.st2{fill:#F5B377;}
	.st3{fill:#7F5025;}
	.st4{fill:#FFFFFF;}
	.st5{fill:#706F6E;}
	.st6{fill:#BD1824;}
	.st7{fill:#BB865D;}
	.st8{fill:#2172B7;}
	.st9{fill:#1D1D20;}
	.st10{fill:#D8D8D8;}
	.st11{fill:#683E14;}
	.st12{fill:#010101;}
	.st13{fill-rule:evenodd;clip-rule:evenodd;fill:#706F6E;}
	.st14{fill-rule:evenodd;clip-rule:evenodd;fill:#1D1E1C;}
	.st15{fill-rule:evenodd;clip-rule:evenodd;fill:#D8D8D8;}
	.st16{fill:#37A6DE;}
</style>
<g>
	<g>
		<path class="st0" d="M19.25,29.68c-0.62-0.27-1.92-0.84-2.15-1.03c-0.23-0.19-0.32-0.6-0.32-1.29c0-0.69,0.25-1.32,0.6-2.15
			c0.39-0.94-3.34,1.2-3.51,1.31c-0.18-0.1-3.91-2.25-3.51-1.31c0.35,0.83,0.6,1.46,0.6,2.15c0,0.69-0.1,1.1-0.32,1.29
			c-0.23,0.19-1.52,0.76-2.15,1.03c-0.62,0.27-0.16,4.63,1.13,5.89c1.21,1.17,3.9,2.25,4.23,2.38v0.01c0,0,0.01,0,0.02-0.01
			c0.01,0,0.02,0.01,0.02,0.01v-0.01c0.33-0.13,3.02-1.21,4.23-2.38C19.4,34.32,19.87,29.95,19.25,29.68z"/>
		<path class="st1" d="M26.54,34.26c-1-1.45-2.65-2.52-4.02-3.24c-1.37-0.72-3.79-1.63-3.79-1.63s0.03,0.61-0.07,1.41
			c-0.27,2.16-1.45,3.14-2.17,4.07C15.58,36.05,15.11,37,13.95,37c-1.16,0-1.63-0.95-2.55-2.13c-0.72-0.92-1.9-1.9-2.17-4.07
			c-0.1-0.8-0.07-1.41-0.07-1.41s-2.42,0.91-3.79,1.63c-1.37,0.72-3.02,1.79-4.02,3.24C0.36,35.72,0,37.4,0,38.87
			c0,1.48,0.89,1.48,0.89,1.48h26.12c0,0,0.89,0,0.89-1.48C27.9,37.4,27.54,35.72,26.54,34.26z"/>
		<path class="st2" d="M13.85,9.92c-0.36,0.06-10.57,1.8-5.19,12.45c0.82,1.63,2.51,5.37,5.19,5.37c2.69,0,4.37-3.74,5.19-5.37
			C24.42,11.72,14.21,9.98,13.85,9.92z"/>
		<path class="st3" d="M13.95,8.85c-2.53,0-5.51,1.63-6.56,3.4c-1.05,1.77-1.89,3.63-2.11,5.64c-0.22,2.01-0.29,3.49,0,4.99
			c0.29,1.5,0.67,3.13,0.67,3.96c0.42,0.38,1.61,1.77,4.74,1.74c1.28-0.75-0.54-3.61-1.15-4.87c-0.75-1.54-1.33-4.22-1.17-6.18
			c1.32-0.08,6.61-0.7,9.13-3.91c0.01,1.83,0.85,3.05,1.91,3.76c-0.03,3.41-1.01,6.36-2.08,8.03c-0.43,0.66-2.29,3.68,0.72,3.18
			c1.79-0.3,3.37-1.12,3.72-1.77c0.11-1.06,0.16-1.75,0.52-3.13c0.37-1.38,0.95-7.34-1.64-11.02C17.55,8.27,13.95,8.85,13.95,8.85z"
			/>
		<g>
			<path class="st4" d="M7.41,12.55c0,0-0.64-3.54-0.92-5.11L6.43,7.11l0.29-0.18C9.75,5.02,13.78,5,13.95,5
				c0.17,0,4.2,0.02,7.23,1.93l0.29,0.18l-0.06,0.33c-0.28,1.58-0.92,5.11-0.92,5.11l-0.12,0.65l-0.59-0.29
				c-0.03-0.01-2.63-1.27-5.83-1.27c-3.22,0-5.81,1.26-5.83,1.27l-0.6,0.29L7.41,12.55z"/>
			<path class="st5" d="M13.95,5.5c0.11,0,4.03,0.01,6.97,1.85C20.64,8.93,20,12.46,20,12.46s-2.68-1.32-6.05-1.32
				c-3.37,0-6.05,1.32-6.05,1.32S7.26,8.93,6.98,7.35C9.91,5.51,13.84,5.5,13.95,5.5C13.95,5.5,13.95,5.5,13.95,5.5
				C13.95,5.5,13.95,5.5,13.95,5.5 M13.95,4.5L13.95,4.5c-0.18,0-4.34,0.02-7.5,2L5.88,6.86L6,7.52c0.28,1.58,0.92,5.11,0.92,5.11
				l0.24,1.31l1.19-0.59c0.02-0.01,2.53-1.22,5.61-1.22c3.08,0,5.59,1.21,5.61,1.22l1.19,0.58l0.24-1.3c0,0,0.64-3.54,0.92-5.11
				l0.12-0.66L21.45,6.5C18.29,4.52,14.13,4.5,13.95,4.5L13.95,4.5z"/>
		</g>
		<polygon class="st6" points="12,7.79 13.41,7.79 13.41,6.37 14.53,6.37 14.53,7.79 15.94,7.79 15.94,8.91 14.53,8.91 14.53,10.33 
			13.41,10.33 13.41,8.91 12,8.91 		"/>
	</g>
	<g>
		<path class="st7" d="M38.03,23.42c-0.73,0.65-3.4,0.65-3.91,0.58c-0.52,0.07-3.18,0.08-3.91-0.58c0.16,1.08,0.38,1.82,0.09,3.5
			c-0.26,1.5,3.12,3.07,3.83,3.38c0.71-0.31,4.08-1.88,3.82-3.38C37.65,25.24,37.87,24.5,38.03,23.42z"/>
		<path class="st8" d="M38.3,26.05c0,0-2.31,3.47-4.18,3.23c-1.87,0.24-4.18-3.23-4.18-3.23c-0.31,1.86,0.78,7.71,4.18,7.95
			C37.52,33.76,38.61,27.91,38.3,26.05z"/>
		<path class="st9" d="M34.89,29.68l0.41-0.83l-1.19-1.05l-1.19,1.05l0.41,0.83c0,0-0.53,2.45-1.02,4.55c0,0,0.69,0.29,1.79,0.78
			c1.1-0.49,1.79-0.78,1.79-0.78C35.42,32.13,34.89,29.68,34.89,29.68z"/>
		<path class="st10" d="M47.06,33.92c-0.31-1.97-0.57-3.64-1.81-5.17c-1.88-2.31-7.05-2.69-7.05-2.69s0.12,4.57-4.08,7.41
			c-4.19-2.84-4.08-7.41-4.08-7.41s-5.17,0.38-7.05,2.69c-1.24,1.53-1.5,3.2-1.82,5.17c-0.49,3.08-0.94,8.58-0.94,8.58H48
			C48,42.5,47.55,37,47.06,33.92z"/>
		<g>
			<path class="st2" d="M27.36,17.26c0,0-1.08-3.16,0.32-5.48c1.39-2.32,3.54-3.08,4.69-3.44c1.15-0.36,3.22-0.57,4.45-0.14
				c1.24,0.44,1.45,0.51,2.06,1.86c0.74,0.18,2.28,1.43,2.34,2.55c0.06,1.13,0.21,2.7-0.3,4.65c0.43-0.2,0.72,0.06,0.77,0.51
				c0.06,0.45,0.14,0.98-0.24,1.61c-0.38,0.63-0.66,1.05-1.56,1.17c0,0-0.43,1.41-1.3,2.62c-0.87,1.21-1.51,1.98-2.6,2.56
				c-1.08,0.59-1.64,0.46-1.96,0.46c-0.57-0.01-1.99-0.35-2.81-1.13c-0.81-0.78-1.5-1.7-1.94-2.52c-0.43-0.82-0.89-2.03-0.89-2.03
				s-0.52,0.24-1.12-0.52c-0.6-0.75-0.82-1.37-0.72-2.23C26.67,16.91,27.36,17.26,27.36,17.26z"/>
			<path class="st11" d="M40.63,17.97c-0.1,0.14,0.09-2.22,0.09-2.74c0-0.51-0.03-1.15-0.12-1.77c-0.09-0.63-0.33-1.65-0.85-1.08
				c-0.28,0.31-0.47,0.49-0.92,0.77c-0.8,0.5-2.19,0.71-4.59,0.94c-2.39,0.23-5.93,0.26-6.11,1c-0.18,0.74-0.25,1.91-0.25,2.46
				c0,0.54-0.14,0.14-0.63-0.52c-0.49-0.66-1.11-2.4-0.8-3.83c0.3-1.43,0.97-3.4,4.27-4.83c3.29-1.43,7.04-0.37,7.93,0
				c0.88,0.37,1.87,1.32,1.92,1.91c0.04,0.42,0.17,0.87,0.55,1.14c0.77,0.57,0.86,1.95,0.64,3.37
				C41.51,16.35,40.98,17.49,40.63,17.97z"/>
		</g>
		<g>
			<path class="st12" d="M41.49,29.85l0,0.1l1.05,0.03l0-0.1c0.02-0.53,0.06-1.75-0.45-3.04c-0.46-0.15-0.93-0.28-1.36-0.37
				C41.55,27.78,41.51,29.23,41.49,29.85z"/>
			<g>
				<path class="st13" d="M43.09,31.04c-0.03-0.03-0.06-0.08-0.06-0.13c-0.02-0.47-0.03-0.85-0.37-1.34
					c-0.29-0.42-0.88-0.55-1.3-0.11c-0.27,0.29-0.52,0.64-0.68,1.03c-0.02,0.05-0.08,0.1-0.13,0.12c-0.24,0.13-0.49,0.22-0.71,0.36
					c-0.81,0.51-1.4,1.24-1.92,2.02c-0.81,1.21-1.41,2.54-1.9,3.91c-0.2,0.55-0.16,1.06,0.21,1.51c0.21,0.26,0.46,0.49,0.69,0.73
					c0.05,0.06,0.11,0.12,0.13,0.19c0.21,0.48,0.73,0.75,1.24,0.63c0.49-0.12,0.85-0.59,0.83-1.09c-0.04-0.8-0.87-1.27-1.58-0.91
					C37.51,38,37.46,38.02,37.43,38c-0.23-0.12-0.36-0.46-0.27-0.71c0.03-0.09,0.06-0.17,0.09-0.26c0.51-1.38,1.14-2.7,2.03-3.88
					c0.39-0.51,0.82-0.98,1.4-1.29c0.5-0.27,1.01-0.3,1.51,0c0.29,0.18,0.51,0.43,0.69,0.71c0.51,0.79,0.75,1.67,0.93,2.57
					c0.22,1.05,0.29,2.12,0.32,3.19c0.01,0.32-0.09,0.55-0.39,0.67c-0.01,0-0.02,0.01-0.03,0.01c-0.08,0.05-0.13,0.05-0.2-0.03
					c-0.41-0.45-1.1-0.45-1.54-0.02c-0.42,0.41-0.41,1.12,0.02,1.54c0.43,0.42,1.13,0.39,1.54-0.05c0.05-0.06,0.13-0.11,0.2-0.14
					c0.61-0.26,1.21-0.54,1.51-1.19c0.02-0.13,0.04-0.26,0.06-0.39c-0.01-0.38-0.01-0.75-0.03-1.13c-0.08-1.62-0.3-3.22-0.92-4.73
					C44.08,32.17,43.69,31.53,43.09,31.04z"/>
				<path class="st14" d="M41.6,39.53c0.1-0.61,0.68-1.01,1.29-0.91c0.61,0.1,1.02,0.68,0.92,1.29c-0.1,0.6-0.68,1.02-1.29,0.91
					C41.9,40.72,41.49,40.14,41.6,39.53z"/>
				<path class="st14" d="M37.01,38.75c0.1-0.61,0.68-1.01,1.29-0.91c0.61,0.1,1.02,0.68,0.91,1.29c-0.1,0.61-0.68,1.01-1.29,0.91
					C37.32,39.93,36.91,39.36,37.01,38.75z"/>
			</g>
		</g>
		<g>
			<path class="st12" d="M29.33,37.46c-1.19-1.85-2.79-5.73-0.57-11.25c-0.36,0.06-0.78,0.14-1.23,0.24
				c-2.1,5.86-0.1,10.01,0.91,11.58L29.33,37.46z"/>
			<g>
				<path class="st15" d="M30.4,37.75c0,0.84-0.68,1.52-1.52,1.52s-1.52-0.68-1.52-1.52c0-0.84,0.68-1.53,1.52-1.53
					S30.4,36.91,30.4,37.75z"/>
				<g>
					<path class="st14" d="M29.53,37.75c0,0.35-0.29,0.65-0.65,0.65c-0.35,0-0.64-0.3-0.64-0.66c0-0.35,0.29-0.64,0.63-0.64
						C29.23,37.1,29.53,37.4,29.53,37.75z"/>
					<path class="st13" d="M28.89,35.16c-1.42,0-2.58,1.16-2.58,2.59c0,1.43,1.15,2.59,2.58,2.59c1.42,0,2.57-1.16,2.57-2.59
						C31.46,36.32,30.31,35.16,28.89,35.16z M28.89,39.03c-0.71,0-1.28-0.57-1.28-1.28c0-0.71,0.57-1.28,1.28-1.28
						c0.7,0,1.27,0.57,1.27,1.28C30.16,38.46,29.59,39.03,28.89,39.03z"/>
				</g>
			</g>
		</g>
		<path class="st16" d="M30.43,25.23c0,0,0.97,2,3.69,2.57c-0.74,0.8-1.03,1.46-0.99,1.94c-1.42-0.56-3.07-2.12-3.17-3.69
			C30.13,25.39,30.43,25.23,30.43,25.23z"/>
		<path class="st16" d="M37.8,25.23c0,0-0.97,2-3.69,2.57c0.74,0.8,1.03,1.46,0.99,1.94c1.41-0.56,3.07-2.12,3.17-3.69
			C38.1,25.39,37.8,25.23,37.8,25.23z"/>
	</g>
</g>
</svg>
