<?xml version="1.0" encoding="utf-8"?>
<!-- Generator: Adobe Illustrator 27.2.0, SVG Export Plug-In . SVG Version: 6.00 Build 0)  -->
<svg version="1.1" id="Calque_1" xmlns="http://www.w3.org/2000/svg" xmlns:xlink="http://www.w3.org/1999/xlink" x="0px" y="0px"
	 viewBox="0 0 48 48" style="enable-background:new 0 0 48 48;" xml:space="preserve">
<style type="text/css">
	.st0{fill:#FFFFFF;}
</style>
<g>
	<path class="st0" d="M47.26,22.54L35.65,11.02c-0.5-0.41-1.16-0.61-1.82-0.6H17.89l11.93,12.03c0.98,0.86,0.98,2.26,0,3.12
		L17.89,37.58h15.94c0.66,0.01,1.32-0.19,1.82-0.6l11.61-11.53C48.25,24.66,48.25,23.34,47.26,22.54z"/>
	<path class="st0" d="M22.31,22.54L10.71,11.02c-0.5-0.41-1.16-0.61-1.82-0.6H2.53C1.14,10.42,0,11.34,0,12.48v23.04
		c0,1.13,1.14,2.06,2.53,2.06h6.35c0.66,0.01,1.32-0.19,1.82-0.6l11.61-11.53C23.3,24.66,23.3,23.34,22.31,22.54z"/>
</g>
</svg>
