<?xml version="1.0" encoding="utf-8"?>
<!-- Generator: Adobe Illustrator 27.2.0, SVG Export Plug-In . SVG Version: 6.00 Build 0)  -->
<svg version="1.1" id="Calque_1" xmlns="http://www.w3.org/2000/svg" xmlns:xlink="http://www.w3.org/1999/xlink" x="0px" y="0px"
	 viewBox="0 0 48 48" style="enable-background:new 0 0 48 48;" xml:space="preserve">
<style type="text/css">
	.st0{fill:#808080;}
</style>
<g>
	<g>
		<path class="st0" d="M40.67,28.74v12c0,1.11-0.89,2.01-2,2.01H29c-0.55,0-1-0.45-1-1.01v-9.38c0-0.55-0.45-1.01-1-1.01h-6
			c-0.55,0-1,0.45-1,1.01v9.38c0,0.55-0.45,1.01-1,1.01H9.33c-1.11,0-2-0.9-2-2.01v-12c0-0.3,0.13-0.59,0.37-0.78l15.67-12.97
			c0.37-0.3,0.9-0.3,1.28,0l15.67,12.97C40.53,28.15,40.67,28.43,40.67,28.74L40.67,28.74z M47.63,23.63l-6.97-5.77V6.26
			c0-0.55-0.45-1.01-1-1.01H35c-0.55,0-1,0.45-1,1.01v6.08l-7.46-6.17c-1.48-1.22-3.61-1.22-5.08,0L0.36,23.63
			c-0.43,0.35-0.48,0.99-0.13,1.42l2.13,2.6c0.35,0.43,0.98,0.49,1.41,0.13l19.6-16.23c0.37-0.3,0.9-0.3,1.28,0l19.6,16.23
			c0.43,0.35,1.06,0.29,1.41-0.13l2.13-2.6C48.12,24.61,48.06,23.99,47.63,23.63z"/>
	</g>
</g>
</svg>
