<?xml version="1.0" encoding="utf-8"?>
<!-- Generator: Adobe Illustrator 27.2.0, SVG Export Plug-In . SVG Version: 6.00 Build 0)  -->
<svg version="1.1" id="Calque_1" xmlns="http://www.w3.org/2000/svg" xmlns:xlink="http://www.w3.org/1999/xlink" x="0px" y="0px"
	 viewBox="0 0 48 48" style="enable-background:new 0 0 48 48;" xml:space="preserve">
<style type="text/css">
	.st0{fill:#808080;}
</style>
<path class="st0" d="M42.87,26.75c-0.28-7.05-4.37-13.1-10.28-16.13c0.01-0.16,0.02-0.31,0.02-0.47c0-4.77-3.85-8.65-8.61-8.65
	s-8.61,3.87-8.61,8.65c0,0.16,0.02,0.31,0.02,0.47C9.49,13.66,5.39,19.75,5.14,26.84C2.11,28.18,0,31.21,0,34.74
	c0,4.77,3.85,8.65,8.61,8.65c1.37,0,2.66-0.33,3.81-0.9c3.2,2.5,7.22,4.01,11.59,4.01c4.4,0,8.45-1.53,11.66-4.06
	c1.13,0.55,2.39,0.86,3.72,0.86c4.75,0,8.61-3.87,8.61-8.65C48,31.12,45.89,28.09,42.87,26.75z M24.04,6.14
	c2.2,0,3.99,1.79,3.99,4.01c0,2.21-1.79,4.01-3.99,4.01s-3.99-1.79-3.99-4.01C20.05,7.93,21.83,6.14,24.04,6.14z M8.61,38.75
	c-2.2,0-3.99-1.79-3.99-4.01c0-2.21,1.79-4.01,3.99-4.01c2.2,0,3.99,1.79,3.99,4.01C12.6,36.96,10.81,38.75,8.61,38.75z
	 M32.18,39.36c-2.32,1.62-5.13,2.57-8.17,2.57c-3.03,0-5.83-0.95-8.14-2.55c0.85-1.34,1.35-2.93,1.35-4.64
	c0-4.39-3.27-8.01-7.49-8.56c0.44-4.79,3.21-8.9,7.17-11.17c1.55,2.28,4.16,3.78,7.11,3.78s5.57-1.5,7.11-3.78
	c3.93,2.26,6.7,6.33,7.16,11.08c-4.23,0.55-7.5,4.17-7.5,8.57C30.78,36.39,31.3,38,32.18,39.36z M39.39,38.7
	c-2.2,0-3.99-1.79-3.99-4.01c0-2.21,1.79-4.01,3.99-4.01c2.2,0,3.99,1.79,3.99,4.01C43.38,36.9,41.6,38.7,39.39,38.7z"/>
</svg>
