<?xml version="1.0" encoding="utf-8"?>
<!-- Generator: Adobe Illustrator 27.2.0, SVG Export Plug-In . SVG Version: 6.00 Build 0)  -->
<svg version="1.1" id="Calque_1" xmlns="http://www.w3.org/2000/svg" xmlns:xlink="http://www.w3.org/1999/xlink" x="0px" y="0px"
	 viewBox="0 0 48 48" style="enable-background:new 0 0 48 48;" xml:space="preserve">
<style type="text/css">
	.st0{fill:#808080;}
</style>
<path class="st0" d="M24.43,0.03c-0.13,0.05-0.22,0.19-0.22,0.33l0.03,6.48l-0.35,0c-5.35,0.07-10.58,2.27-14.35,6.02l-0.12,0.12
	c-7.94,8.06-7.89,21.09,0.11,29.05c7.64,7.5,19.97,7.98,28.09,1.1c6.45-5.24,8.45-13.09,5.63-22.14l-6.46,2.37
	c1.65,4.78,0.59,10.03-2.8,13.78c-5.41,5.32-14.15,5.37-19.51,0.12c-5.4-5.38-5.46-14.11-0.13-19.47c2.63-2.62,5.94-4.03,9.58-4.09
	l0.36-0.01l0.02,6.47c-0.03,0.14,0,0.27,0.09,0.36c0.15,0.15,0.39,0.15,0.53,0.01l9.72-9.67L24.83,0.08
	C24.74,0,24.57-0.03,24.43,0.03z"/>
</svg>
