<?xml version="1.0" encoding="utf-8"?>
<!-- Generator: Adobe Illustrator 25.3.1, SVG Export Plug-In . SVG Version: 6.00 Build 0)  -->
<svg version="1.1" id="Calque_1" xmlns="http://www.w3.org/2000/svg" xmlns:xlink="http://www.w3.org/1999/xlink" x="0px" y="0px"
	 viewBox="0 0 48 48" style="enable-background:new 0 0 48 48;" xml:space="preserve">
<style type="text/css">
	.st0{fill:#FF00F3;}
	.st1{fill:#FDFF73;}
</style>
<polygon class="st0" points="24,0 30.2,5 38.1,4.6 40.2,12.2 46.8,16.6 44,24 46.8,31.4 40.2,35.8 38.1,43.4 30.2,43 24,48 17.8,43 
	9.9,43.4 7.8,35.8 1.2,31.4 4,24 1.2,16.6 7.8,12.2 9.9,4.6 17.8,5 "/>
<g>
	<path class="st1" d="M26.8,20c-0.3,0-0.5-0.3-0.8-1c-0.2-0.4-0.3-0.9-0.5-1.4c-0.3,0-0.7,0.1-1.3,0.1c-0.5,0-1,0.1-1.3,0.1
		c-0.2,0.4-0.4,1-0.8,1.7C22,19.9,21.8,20,21.5,20c-0.2,0-0.4-0.1-0.5-0.2c-0.2-0.1-0.2-0.3-0.2-0.5c0-0.2,0.3-0.8,0.8-1.8
		c0-0.1-0.1-0.2-0.1-0.3c0-0.2,0.2-0.3,0.5-0.4c0.5-0.9,1-1.7,1.6-2.7c0.9-1.3,1.4-2,1.6-2c0.4,0,0.6,0.2,0.8,0.7
		c0.1,0.4,0.2,0.9,0.3,1.7c0.2,1,0.5,2.1,0.8,3.4c0,0.1,0.1,0.3,0.3,0.7c0.1,0.3,0.2,0.5,0.2,0.7c0,0.2-0.1,0.4-0.2,0.5
		C27.2,20,27,20,26.8,20z M25.5,11.4c-0.2,0-0.4-0.1-0.5-0.3c-0.2-0.2-0.3-0.4-0.5-0.6c-0.2-0.2-0.4-0.4-0.6-0.6
		c-0.2-0.1-0.3-0.3-0.3-0.5c0-0.2,0.1-0.3,0.2-0.4c0.1-0.1,0.3-0.2,0.5-0.2c0.3,0,0.7,0.3,1.2,0.8c0.5,0.5,0.8,0.9,0.8,1.1
		c0,0.2-0.1,0.3-0.2,0.4C25.9,11.3,25.7,11.4,25.5,11.4z M24.9,14.7c-0.3,0.5-0.6,1.1-1.1,1.9c0.2,0,0.4-0.1,0.7-0.1
		c0.4,0,0.6,0,0.7-0.1C25.1,16,25,15.4,24.9,14.7z"/>
	<path class="st1" d="M12.9,26.8c-0.3,0-0.5-0.2-0.7-0.5C12.2,26.1,12.1,26,12,26c-0.1,0-0.2,0-0.4,0c-0.4,0-0.9,0.3-1.5,1
		c-0.8,1-1.2,1.8-1.2,2.7c0,0.4,0.1,0.7,0.4,1S9.9,31,10.2,31c0.3,0,0.7-0.1,1-0.3c0.1-0.1,0.4-0.2,0.8-0.5c0.3-0.2,0.5-0.3,0.6-0.3
		c0.2,0,0.4,0.1,0.5,0.2c0.1,0.1,0.2,0.3,0.2,0.5c0,0.2-0.1,0.4-0.3,0.5c-1,0.8-1.9,1.2-2.9,1.2c-0.8,0-1.4-0.3-2-0.9
		c-0.5-0.5-0.8-1.2-0.8-1.9c0-1.2,0.5-2.3,1.5-3.6c0.9-1,1.7-1.5,2.6-1.5c0.2,0,0.3,0,0.4,0s0.2,0,0.3,0c0.2-0.1,0.3-0.2,0.6-0.2
		c0.4,0,0.6,0.2,0.7,0.6c0.1,0.3,0.1,0.6,0.1,1c0,0.2-0.1,0.3-0.2,0.5C13.4,26.7,13.2,26.8,12.9,26.8z"/>
	<path class="st1" d="M19.7,32.4c-0.2,0-0.4-0.1-0.5-0.2c-1.1-1-2.2-1.7-3.5-2.1c0,1,0.1,1.6,0.1,1.7c0,0.2-0.1,0.4-0.2,0.5
		c-0.1,0.1-0.3,0.2-0.5,0.2c-0.2,0-0.4-0.1-0.5-0.2c-0.1-0.1-0.2-0.3-0.2-0.5c0-0.3,0-0.6,0-1.2c0-0.5,0-0.9,0-1.2l0-4.2
		c0-0.2,0.1-0.4,0.2-0.6c0.2-0.2,0.4-0.3,0.7-0.3c0.8,0.1,1.3,0.1,1.3,0.1c0.5,0.1,0.9,0.2,1.2,0.3c1.5,0.7,2.2,1.7,2.2,2.8
		c0,0.5-0.2,0.9-0.5,1.2c-0.3,0.3-0.8,0.6-1.4,0.9c0.9,0.5,1.6,1,2.1,1.6c0.1,0.1,0.2,0.3,0.2,0.5c0,0.2-0.1,0.4-0.2,0.5
		C20,32.3,19.9,32.4,19.7,32.4z M16.3,25.8c0,0-0.2,0-0.6,0v2.8c0.1,0,0.2,0,0.2,0c0.9,0,1.5-0.1,1.9-0.3c0.2-0.1,0.3-0.2,0.5-0.4
		c0.1-0.1,0.2-0.3,0.2-0.3c0-0.4-0.2-0.8-0.7-1.1C17.3,26.1,16.8,25.9,16.3,25.8z"/>
	<path class="st1" d="M26.4,25.6c-0.1,0-0.1,0-0.2,0c-0.6-0.2-1.1-0.2-1.6-0.2c-0.3,0-0.5,0-0.8,0.1s-0.6,0.1-1,0.2
		c0,0.5,0,1.1,0,2.1c0.2,0,0.9-0.1,2-0.2c0.7-0.1,1.1-0.1,1.3-0.1c0.2,0,0.4,0.1,0.5,0.2c0.1,0.1,0.2,0.3,0.2,0.5
		c0,0.4-0.2,0.6-0.7,0.7c-0.3,0-0.7,0.1-1.2,0.1c-0.5,0.1-1.2,0.1-2.2,0.2c0,0.4,0,0.8,0,1.1c0,0.7,0,1.1,0.1,1.2
		c0,0,0.3,0.1,0.7,0.1c0.2,0,0.5,0,1,0c0.4,0,0.8,0,1,0c0.1,0,0.2,0,0.3,0c0.1,0,0.2,0,0.3,0c0.2,0,0.4,0.1,0.5,0.2
		c0.2,0.1,0.2,0.3,0.2,0.5c0,0.4-0.2,0.6-0.6,0.7c-0.3,0.1-1.1,0.1-2.2,0.1c-1.1,0-1.9-0.2-2.2-0.5c-0.4-0.3-0.6-1.1-0.6-2.2
		c0-0.5,0-1.2,0.1-2.1c0.1-0.9,0.1-1.6,0.1-2.1c0-0.1,0-0.3-0.1-0.5c0-0.2-0.1-0.4-0.1-0.5c0-0.5,0.2-0.8,0.7-0.8
		c0.2,0,0.3,0,0.4,0.1c0.4-0.1,0.8-0.2,1.1-0.2s0.7-0.1,1-0.1c0.9,0,1.6,0.1,2.1,0.3c0.3,0.1,0.5,0.3,0.5,0.7c0,0.2-0.1,0.3-0.2,0.5
		C26.8,25.6,26.6,25.6,26.4,25.6z M25.9,21.7c-0.2,0.1-0.4,0.3-0.7,0.6c-0.3,0.3-0.5,0.5-0.7,0.7c-0.1,0.1-0.3,0.2-0.4,0.2
		c-0.2,0-0.3-0.1-0.5-0.2c-0.1-0.1-0.2-0.3-0.2-0.4c0-0.1,0.1-0.3,0.2-0.4c0.1-0.1,0.3-0.2,0.4-0.4c0.4-0.4,0.6-0.6,0.7-0.7
		c0.3-0.3,0.6-0.4,0.8-0.4c0.2,0,0.3,0.1,0.5,0.2s0.2,0.3,0.2,0.4C26.1,21.4,26,21.6,25.9,21.7z"/>
	<path class="st1" d="M33.1,25.6c-0.1,0-0.1,0-0.2,0c-0.6-0.2-1.1-0.2-1.6-0.2c-0.3,0-0.5,0-0.8,0.1s-0.6,0.1-1,0.2
		c0,0.5,0,1.1,0,2.1c0.2,0,0.9-0.1,2-0.2c0.7-0.1,1.1-0.1,1.3-0.1c0.2,0,0.4,0.1,0.5,0.2c0.1,0.1,0.2,0.3,0.2,0.5
		c0,0.4-0.2,0.6-0.7,0.7c-0.3,0-0.7,0.1-1.2,0.1C31,29,30.3,29,29.3,29.1c0,0.4,0,0.8,0,1.1c0,0.7,0,1.1,0.1,1.2
		c0,0,0.3,0.1,0.7,0.1c0.2,0,0.5,0,1,0c0.4,0,0.8,0,1,0c0.1,0,0.2,0,0.3,0c0.1,0,0.2,0,0.3,0c0.2,0,0.4,0.1,0.5,0.2
		c0.2,0.1,0.2,0.3,0.2,0.5c0,0.4-0.2,0.6-0.6,0.7c-0.3,0.1-1.1,0.1-2.2,0.1c-1.1,0-1.9-0.2-2.2-0.5c-0.4-0.3-0.6-1.1-0.6-2.2
		c0-0.5,0-1.2,0.1-2.1c0.1-0.9,0.1-1.6,0.1-2.1c0-0.1,0-0.3-0.1-0.5c0-0.2-0.1-0.4-0.1-0.5c0-0.5,0.2-0.8,0.7-0.8
		c0.2,0,0.3,0,0.4,0.1c0.4-0.1,0.8-0.2,1.1-0.2c0.4-0.1,0.7-0.1,1-0.1c0.9,0,1.6,0.1,2.1,0.3c0.3,0.1,0.5,0.3,0.5,0.7
		c0,0.2-0.1,0.3-0.2,0.5C33.4,25.6,33.3,25.6,33.1,25.6z"/>
	<path class="st1" d="M39.8,32.4c-0.2,0-0.4-0.1-0.5-0.2c-1.1-1-2.2-1.7-3.5-2.1c0,1,0.1,1.6,0.1,1.7c0,0.2-0.1,0.4-0.2,0.5
		s-0.3,0.2-0.5,0.2s-0.4-0.1-0.5-0.2s-0.2-0.3-0.2-0.5c0-0.3,0-0.6,0-1.2c0-0.5,0-0.9,0-1.2l0-4.2c0-0.2,0.1-0.4,0.2-0.6
		c0.2-0.2,0.4-0.3,0.7-0.3c0.8,0.1,1.3,0.1,1.3,0.1c0.5,0.1,0.9,0.2,1.2,0.3c1.5,0.7,2.2,1.7,2.2,2.8c0,0.5-0.2,0.9-0.5,1.2
		s-0.8,0.6-1.4,0.9c0.9,0.5,1.6,1,2.1,1.6c0.1,0.1,0.2,0.3,0.2,0.5c0,0.2-0.1,0.4-0.2,0.5C40.2,32.3,40,32.4,39.8,32.4z M36.5,25.8
		c0,0-0.2,0-0.6,0v2.8c0.1,0,0.2,0,0.2,0c0.9,0,1.5-0.1,1.9-0.3c0.2-0.1,0.3-0.2,0.5-0.4c0.1-0.1,0.2-0.3,0.2-0.3
		c0-0.4-0.2-0.8-0.7-1.1C37.5,26.1,37,25.9,36.5,25.8z"/>
	<path class="st1" d="M13.4,38.2c0,0,0,0.1-0.1,0.1s-0.1,0-0.1,0c-0.1,0-0.2-0.1-0.2-0.2c-0.1-0.3-0.3-0.7-0.5-1.2c0,0,0-0.1,0-0.1
		c0-0.1,0-0.1,0.1-0.1c0,0,0.1-0.1,0.1-0.1c0.1,0,0.1,0,0.2,0.1c0.1,0.1,0.2,0.4,0.3,0.8c0.1-0.1,0.1-0.3,0.2-0.5
		c0-0.1,0.1-0.2,0.1-0.3c0-0.1,0.1-0.1,0.2-0.1c0.1,0,0.1,0,0.1,0.1c0,0,0.1,0.1,0.1,0.1c0,0-0.1,0.2-0.2,0.6
		C13.6,37.8,13.5,38.1,13.4,38.2z"/>
	<path class="st1" d="M14.5,37.6c0,0.1,0,0.1,0,0.3c0,0.1,0,0.2,0,0.3s0,0.1-0.1,0.1c0,0-0.1,0.1-0.1,0.1s-0.1,0-0.1-0.1
		c0,0-0.1-0.1-0.1-0.1s0-0.1,0-0.3c0-0.1,0-0.2,0-0.3c0-0.1,0-0.2,0-0.3s0-0.2,0-0.3c0-0.1,0-0.1,0.1-0.1c0,0,0.1-0.1,0.1-0.1
		s0.1,0,0.1,0.1c0,0,0.1,0.1,0.1,0.1c0,0.1,0,0.2,0,0.3S14.5,37.6,14.5,37.6z M14.4,36.6c-0.1,0-0.1,0-0.2-0.1c0,0-0.1-0.1-0.1-0.2
		s0-0.1,0.1-0.2s0.1-0.1,0.2-0.1s0.1,0,0.2,0.1c0,0,0.1,0.1,0.1,0.2s0,0.1-0.1,0.2C14.5,36.5,14.5,36.6,14.4,36.6z"/>
	<path class="st1" d="M15.7,38.2c0,0,0,0.1-0.1,0.1s-0.1,0-0.1,0c-0.1,0-0.2-0.1-0.2-0.2C15.2,38,15,37.6,14.8,37c0,0,0-0.1,0-0.1
		c0-0.1,0-0.1,0.1-0.1c0,0,0.1-0.1,0.1-0.1c0.1,0,0.1,0,0.2,0.1c0.1,0.1,0.2,0.4,0.3,0.8c0.1-0.1,0.1-0.3,0.2-0.5
		c0-0.1,0.1-0.2,0.1-0.3c0-0.1,0.1-0.1,0.2-0.1c0.1,0,0.1,0,0.1,0.1c0,0,0.1,0.1,0.1,0.1c0,0-0.1,0.2-0.2,0.6
		C15.9,37.8,15.8,38.1,15.7,38.2z"/>
	<path class="st1" d="M17.1,38.4c-0.2,0-0.4-0.1-0.6-0.2c-0.2-0.1-0.2-0.3-0.2-0.5c0-0.2,0.1-0.5,0.2-0.6c0.1-0.2,0.3-0.3,0.6-0.3
		c0.2,0,0.3,0,0.4,0.1c0.1,0.1,0.2,0.2,0.2,0.3c0,0.1-0.1,0.2-0.2,0.3c-0.1,0-0.2,0.1-0.3,0.2l-0.5,0.2c0,0.1,0.1,0.1,0.2,0.1
		s0.1,0,0.2,0c0.1,0,0.2,0,0.3-0.1c0.1,0,0.1-0.1,0.2-0.1c0.1,0,0.2,0,0.2,0.1c0,0.1-0.1,0.2-0.2,0.3C17.4,38.4,17.2,38.4,17.1,38.4
		z M17.1,37.1c-0.1,0-0.2,0-0.2,0.1c-0.1,0.1-0.1,0.2-0.2,0.3c0.1,0,0.2-0.1,0.3-0.1c0.1-0.1,0.2-0.1,0.3-0.2
		C17.2,37.2,17.2,37.1,17.1,37.1z"/>
	<path class="st1" d="M19.8,38.1c0,0.2-0.1,0.3-0.2,0.3c-0.1,0-0.1,0-0.1-0.1c0,0-0.1-0.1-0.1-0.1v-2c0-0.1,0-0.1,0.1-0.1
		c0,0,0.1-0.1,0.1-0.1s0.1,0,0.1,0.1c0,0,0.1,0.1,0.1,0.1V38.1z"/>
	<path class="st1" d="M20.9,38.4c-0.2,0-0.4-0.1-0.6-0.2c-0.2-0.1-0.2-0.3-0.2-0.5c0-0.2,0.1-0.5,0.2-0.6c0.1-0.2,0.3-0.3,0.6-0.3
		c0.2,0,0.3,0,0.4,0.1c0.1,0.1,0.2,0.2,0.2,0.3c0,0.1-0.1,0.2-0.2,0.3c-0.1,0-0.2,0.1-0.3,0.2l-0.5,0.2c0,0.1,0.1,0.1,0.2,0.1
		s0.1,0,0.2,0c0.1,0,0.2,0,0.3-0.1c0.1,0,0.1-0.1,0.2-0.1c0.1,0,0.2,0,0.2,0.1c0,0.1-0.1,0.2-0.2,0.3C21.2,38.4,21,38.4,20.9,38.4z
		 M20.9,37.1c-0.1,0-0.2,0-0.2,0.1c-0.1,0.1-0.1,0.2-0.2,0.3c0.1,0,0.2-0.1,0.3-0.1c0.1-0.1,0.2-0.1,0.3-0.2
		C21,37.2,21,37.1,20.9,37.1z"/>
	<path class="st1" d="M24.5,37.5c0,0.2-0.1,0.5-0.1,0.7c0,0.3-0.1,0.5-0.2,0.7c-0.1,0.2-0.4,0.3-0.7,0.3c-0.4,0-0.6-0.1-0.6-0.2
		c0-0.1,0-0.1,0.1-0.1c0,0,0.1-0.1,0.1-0.1c0,0,0.1,0,0.2,0s0.2,0,0.2,0c0.1,0,0.3,0,0.3-0.1c0.1-0.1,0.1-0.2,0.1-0.4
		c0,0.1-0.1,0.1-0.2,0.1c-0.1,0-0.1,0-0.2,0c-0.2,0-0.4-0.1-0.5-0.2c-0.1-0.1-0.2-0.3-0.2-0.5c0-0.3,0.1-0.5,0.2-0.6
		c0.2-0.2,0.4-0.3,0.7-0.3c0.1,0,0.2,0,0.2,0c0.1,0,0.1,0.1,0.2,0.1c0.1,0,0.2,0.1,0.2,0.2C24.5,37.2,24.5,37.3,24.5,37.5z
		 M23.9,37.2c-0.2,0-0.3,0.1-0.4,0.2c-0.1,0.1-0.1,0.2-0.1,0.4c0,0.1,0,0.2,0.1,0.3s0.1,0.1,0.2,0.1c0.1,0,0.2,0,0.2-0.1
		c0.1-0.1,0.1-0.2,0.1-0.3c0-0.1,0-0.2,0.1-0.4C24.1,37.2,24,37.2,23.9,37.2C24,37.2,24,37.2,23.9,37.2z"/>
	<path class="st1" d="M26,37.3c0,0.2-0.1,0.2-0.2,0.2c-0.1,0-0.2-0.1-0.2-0.2l0-0.1c-0.2,0-0.4,0.1-0.5,0.3l0,0.7
		c0,0.1,0,0.1-0.1,0.1c0,0-0.1,0.1-0.1,0.1c-0.1,0-0.1,0-0.1-0.1c0,0,0-0.1,0-0.1v-1c0,0,0-0.1,0-0.1c0-0.1,0-0.1,0-0.1
		c0-0.1,0-0.1,0-0.1c0,0,0.1-0.1,0.1-0.1c0.1,0,0.2,0.1,0.2,0.2c0.2-0.1,0.4-0.2,0.6-0.2C25.9,36.8,26,36.9,26,37.3
		C26,37.2,26,37.3,26,37.3z"/>
	<path class="st1" d="M27.4,38.4c0,0-0.1,0-0.2-0.1c-0.1,0-0.2,0.1-0.2,0.1c-0.1,0-0.1,0-0.2,0c-0.2,0-0.4-0.1-0.5-0.2
		c-0.1-0.1-0.2-0.3-0.2-0.6c0-0.2,0.1-0.4,0.3-0.6c0.2-0.2,0.4-0.3,0.6-0.3c0.1,0,0.2,0,0.3,0.1c0.1,0.1,0.2,0.1,0.2,0.2
		c0,0,0,0.1,0,0.1c0,0,0,0.1,0,0.1c0,0.1,0,0.1,0,0.2c0,0.2,0,0.3,0,0.4c0,0,0,0.1,0.1,0.2c0,0.1,0.1,0.1,0.1,0.1
		c0,0.1,0,0.1-0.1,0.1C27.5,38.4,27.5,38.4,27.4,38.4z M27.1,37.4c0,0,0-0.1,0-0.1c0,0,0-0.1,0-0.1c0,0,0,0-0.1,0c0,0,0,0,0,0
		c-0.1,0-0.2,0.1-0.3,0.2c-0.1,0.1-0.1,0.2-0.1,0.4c0,0.1,0,0.2,0.1,0.3c0,0.1,0.1,0.1,0.2,0.1c0.1,0,0.1,0,0.2,0
		c0.1,0,0.1,0,0.2-0.1C27.1,37.7,27.1,37.5,27.1,37.4z"/>
	<path class="st1" d="M28.5,36.8c0.1,0,0.2,0,0.3,0c0.2,0,0.3,0.1,0.3,0.2c0,0.1-0.1,0.2-0.3,0.2c-0.1,0-0.2,0-0.3,0
		c0,0.1,0,0.2,0,0.4c0,0.2,0,0.4,0,0.4c0,0.2,0,0.3,0,0.4c0,0.1-0.1,0.2-0.2,0.2c-0.1,0-0.1,0-0.1-0.1c0,0-0.1-0.1-0.1-0.1
		c0,0,0,0,0,0c0-0.1,0-0.3,0-0.4v-0.7c0,0,0,0-0.1,0c0,0-0.1,0-0.1,0c-0.1,0-0.1,0-0.1-0.1c0,0-0.1-0.1-0.1-0.1c0-0.1,0-0.2,0.1-0.2
		c0,0,0.1,0,0.3,0c0,0,0-0.1,0-0.2c0-0.2,0.1-0.4,0.2-0.5c0.1-0.1,0.3-0.2,0.5-0.2c0.2,0,0.3,0.1,0.3,0.2c0,0.1-0.1,0.2-0.2,0.2
		c-0.1,0-0.2,0-0.3,0.1C28.6,36.6,28.5,36.6,28.5,36.8L28.5,36.8z"/>
	<path class="st1" d="M29.8,37.6c0,0.1,0,0.1,0,0.3c0,0.1,0,0.2,0,0.3s0,0.1-0.1,0.1c0,0-0.1,0.1-0.1,0.1s-0.1,0-0.1-0.1
		c0,0-0.1-0.1-0.1-0.1s0-0.1,0-0.3c0-0.1,0-0.2,0-0.3c0-0.1,0-0.2,0-0.3c0-0.1,0-0.2,0-0.3c0-0.1,0-0.1,0.1-0.1c0,0,0.1-0.1,0.1-0.1
		s0.1,0,0.1,0.1c0,0,0.1,0.1,0.1,0.1c0,0.1,0,0.2,0,0.3C29.8,37.4,29.8,37.6,29.8,37.6z M29.7,36.6c-0.1,0-0.1,0-0.2-0.1
		c0,0-0.1-0.1-0.1-0.2s0-0.1,0.1-0.2s0.1-0.1,0.2-0.1s0.1,0,0.2,0.1c0,0,0.1,0.1,0.1,0.2s0,0.1-0.1,0.2
		C29.8,36.5,29.8,36.6,29.7,36.6z"/>
	<path class="st1" d="M30.6,37c0.1-0.2,0.3-0.3,0.4-0.3c0.2,0,0.3,0.1,0.3,0.2c0.1-0.1,0.1-0.1,0.2-0.1s0.2,0,0.2,0
		c0.2,0,0.3,0.1,0.4,0.3c0,0,0,0.2,0.1,0.4c0,0.2,0.1,0.4,0.1,0.8c0,0.1,0,0.1-0.1,0.1c0,0-0.1,0.1-0.1,0.1c-0.1,0-0.2-0.1-0.2-0.2
		c0-0.1,0-0.2-0.1-0.4c0-0.2,0-0.3,0-0.4c0-0.2-0.1-0.3-0.1-0.3c0,0-0.1,0-0.2,0.1s-0.1,0.1-0.2,0.1c0,0.1,0,0.3,0,0.5
		c0,0.2,0,0.4,0,0.5c0,0.1,0,0.1-0.1,0.1s-0.1,0.1-0.1,0.1s-0.1,0-0.1-0.1s-0.1-0.1-0.1-0.1c0-0.1,0-0.3,0-0.5c0-0.2,0-0.4,0-0.5
		c0-0.1,0-0.1,0-0.1c-0.1,0.1-0.2,0.2-0.3,0.3c0,0,0,0,0,0c0,0.2,0,0.4,0,0.5c0,0,0,0.1,0,0.1c0,0,0,0.1,0,0.1c0,0.1,0,0.1-0.1,0.1
		c0,0-0.1,0-0.1,0c-0.1,0-0.1,0-0.2-0.1c0,0,0-0.1,0-0.2v-0.5c0,0,0-0.1,0-0.2c0-0.1,0-0.2,0-0.2c0-0.1,0-0.2,0-0.2
		c0-0.1,0.1-0.1,0.2-0.1c0.1,0,0.1,0,0.1,0.1c0,0,0.1,0.1,0.1,0.1C30.6,36.9,30.6,36.9,30.6,37z"/>
	<path class="st1" d="M33.6,37.3c-0.1,0-0.2,0-0.2-0.1c0,0-0.1,0-0.1,0c-0.2,0-0.4,0-0.4,0.1c0,0,0.1,0.1,0.2,0.2
		c0.2,0.1,0.3,0.2,0.4,0.2c0.1,0.1,0.2,0.2,0.2,0.3c0,0.2-0.1,0.3-0.2,0.4c-0.1,0.1-0.3,0.1-0.5,0.1c-0.1,0-0.2,0-0.4-0.1
		c-0.1-0.1-0.2-0.1-0.2-0.2c0-0.1,0.1-0.1,0.2-0.1c0,0,0.1,0,0.2,0c0.1,0,0.2,0,0.2,0c0.2,0,0.3,0,0.3-0.1c0,0-0.1-0.1-0.2-0.2
		c-0.2-0.1-0.3-0.2-0.4-0.2c-0.1-0.1-0.2-0.2-0.2-0.4c0-0.2,0.1-0.3,0.3-0.4c0.1,0,0.3-0.1,0.6-0.1c0.1,0,0.2,0,0.2,0
		c0.1,0,0.1,0.1,0.1,0.2C33.7,37.2,33.7,37.3,33.6,37.3z"/>
	<path class="st1" d="M34.7,38.4c-0.2,0-0.4-0.1-0.6-0.2c-0.2-0.1-0.2-0.3-0.2-0.5c0-0.2,0.1-0.5,0.2-0.6c0.1-0.2,0.3-0.3,0.6-0.3
		c0.2,0,0.3,0,0.4,0.1c0.1,0.1,0.2,0.2,0.2,0.3c0,0.1-0.1,0.2-0.2,0.3c-0.1,0-0.2,0.1-0.3,0.2l-0.5,0.2c0,0.1,0.1,0.1,0.2,0.1
		s0.1,0,0.2,0c0.1,0,0.2,0,0.3-0.1c0.1,0,0.1-0.1,0.2-0.1c0.1,0,0.2,0,0.2,0.1c0,0.1-0.1,0.2-0.2,0.3C35,38.4,34.9,38.4,34.7,38.4z
		 M34.7,37.1c-0.1,0-0.2,0-0.2,0.1c-0.1,0.1-0.1,0.2-0.2,0.3c0.1,0,0.2-0.1,0.3-0.1c0.1-0.1,0.2-0.1,0.3-0.2
		C34.9,37.2,34.8,37.1,34.7,37.1z"/>
</g>
</svg>
