<?xml version="1.0" encoding="utf-8"?>
<!-- Generator: Adobe Illustrator 25.3.1, SVG Export Plug-In . SVG Version: 6.00 Build 0)  -->
<svg version="1.1" id="Calque_1" xmlns="http://www.w3.org/2000/svg" xmlns:xlink="http://www.w3.org/1999/xlink" x="0px" y="0px"
	 viewBox="0 0 48 48" style="enable-background:new 0 0 48 48;" xml:space="preserve">
<style type="text/css">
	.st0{fill:#A7A6A7;}
	.st1{fill:#EF8208;}
	.st2{fill:#575656;}
</style>
<path id="fond" class="st0" d="M46,39H2c-1.1,0-2-0.9-2-2V11c0-1.1,0.9-2,2-2h44c1.1,0,2,0.9,2,2v26C48,38.1,47.1,39,46,39z"/>
<path id="puce" class="st1" d="M11.1,23.7H5.8c-0.3,0-0.6-0.3-0.6-0.6v-3.3c0-0.3,0.3-0.6,0.6-0.6h5.3c0.3,0,0.6,0.3,0.6,0.6v3.3
	C11.7,23.4,11.4,23.7,11.1,23.7z"/>
<path id="trait1" class="st2" d="M43.3,20.8h-27c-0.3,0-0.5-0.2-0.5-0.5l0,0c0-0.3,0.2-0.5,0.5-0.5h27.1c0.3,0,0.5,0.2,0.5,0.5l0,0
	C43.8,20.6,43.6,20.8,43.3,20.8z"/>
<path id="trait2" class="st2" d="M36.8,23H16.3c-0.3,0-0.5-0.2-0.5-0.5l0,0c0-0.3,0.2-0.5,0.5-0.5h20.6c0.3,0,0.5,0.2,0.5,0.5l0,0
	C37.3,22.8,37.1,23,36.8,23z"/>
<path id="trait3" class="st2" d="M39.4,28.7H17.1c-0.7,0-1.3-0.6-1.3-1.3l0,0c0-0.7,0.6-1.3,1.3-1.3h22.3c0.7,0,1.3,0.6,1.3,1.3l0,0
	C40.8,28.1,40.2,28.7,39.4,28.7z"/>
</svg>
