<?xml version="1.0" encoding="utf-8"?>
<!-- Generator: Adobe Illustrator 27.2.0, SVG Export Plug-In . SVG Version: 6.00 Build 0)  -->
<svg version="1.1" id="Calque_1" xmlns="http://www.w3.org/2000/svg" xmlns:xlink="http://www.w3.org/1999/xlink" x="0px" y="0px"
	 viewBox="0 0 48 48" style="enable-background:new 0 0 48 48;" xml:space="preserve">
<style type="text/css">
	.st0{fill:#FFEC00;}
	.st1{fill:#1C1C20;}
</style>
<g>
	<g>
		<path class="st0" d="M48,24c0,13.25-10.75,24-24,24C10.74,48,0,37.25,0,24C0,10.74,10.74,0,24,0C37.25,0,48,10.74,48,24z"/>
	</g>
	<g>
		<path class="st1" d="M28.54,21.91l-9.66,13.67c-0.16,0.23-0.34,0.44-0.54,0.64c-1.68,1.68-3.61,1.42-5.79-0.77
			c-2.19-2.19-2.45-4.11-0.78-5.78c0.23-0.23,0.45-0.41,0.65-0.55l13.67-9.66L28.54,21.91z M29.71,18.29
			c-1.91-1.91-1.91-3.83,0-5.74c1.91-1.91,3.83-1.91,5.74,0c1.91,1.92,1.91,3.83,0,5.74C33.54,20.2,31.63,20.2,29.71,18.29z"/>
	</g>
</g>
</svg>
