<?xml version="1.0" encoding="utf-8"?>
<!-- Generator: Adobe Illustrator 27.2.0, SVG Export Plug-In . SVG Version: 6.00 Build 0)  -->
<svg version="1.1" id="Calque_1" xmlns="http://www.w3.org/2000/svg" xmlns:xlink="http://www.w3.org/1999/xlink" x="0px" y="0px"
	 viewBox="0 0 48 48" style="enable-background:new 0 0 48 48;" xml:space="preserve">
<style type="text/css">
	.st0{fill:#1E1F1C;}
	.st1{fill:#9B9A9A;}
	.st2{fill:#EE7A11;}
	.st3{fill:#914B15;}
	.st4{fill:#FFFFFF;}
</style>
<g>
	<g id="Groupe_2641_00000124855192243722026560000017418177700908278149_" transform="translate(0 0)">
		<path id="Tracé_258_00000115512131774174473310000010916119494332751242_" class="st0" d="M18.18,27.41c0,0-0.55-0.24-1.18-0.47
			c0.08-0.55-0.31-1.03-0.78-1.11l-5.96-1.03c-0.55-0.08-1.02,0.24-1.1,0.79l0,0l-0.24,1.26c-0.08,0.55,0.24,1.03,0.78,1.11l0,0
			l5.96,1.03c0.47,0.08,0.86-0.16,1.02-0.55c0.31,0.08,0.71,0.16,1.1,0.16C17.94,28.2,18.1,27.81,18.18,27.41z"/>
		<path id="Tracé_259_00000104677291831030997840000005846970426922777996_" class="st0" d="M23.04,31.84
			c-1.73-0.16-3.45-0.32-5.1-0.32c-0.63,0-1.26,0-1.88,0.08c-0.08,0.08-0.24,0.08-0.31,0.16l0,0C11.66,32.31,8.06,34.6,5.78,38
			h26.44c-2.12-3.24-5.49-5.37-9.26-6.08L23.04,31.84L23.04,31.84z"/>
		<path id="Tracé_260_00000047051590945722013950000007415047758830389635_" class="st1" d="M9.08,21.25
			c1.02,0.47,8.55,3.79,8.55,3.79s1.26,0.55,0.55,2.29c-0.55,1.66-0.55,1.66-1.02,2.77c-0.39,0.79-0.63,1.19-1.1,1.42
			c0.63,0,1.26-0.08,1.88-0.08c1.73,0,3.45,0.08,5.1,0.32c3.84-2.53,6.2-6.72,6.43-11.38c-0.08-4.5-2.43-8.69-6.35-10.98l-2.04,4.98
			c3.53,2.84,4.16,7.98,1.33,11.53c-0.31,0.4-0.63,0.71-1.02,1.03c-0.16,0.24-1.33,0-1.33-1.34s1.26-1.5,0.24-1.98
			c-1.02-0.55-9.18-4.11-10.12-4.5c-0.94-0.4-0.86-0.32-1.33,0.55C8.45,20.54,8.21,20.86,9.08,21.25z"/>
		<path id="Tracé_261_00000043455442016867341350000018251809838079110311_" class="st1" d="M20.45,34.21
			c0,0.87-0.71,1.58-1.57,1.58s-1.57-0.71-1.57-1.58s0.71-1.58,1.57-1.58S20.45,33.34,20.45,34.21L20.45,34.21z"/>
		<path id="Tracé_262_00000171701045771743713310000008957994710577085568_" class="st0" d="M15.2,15.56l4,1.74
			c0.24,0.08,0.55,0,0.63-0.24l4.86-11.3c0.08-0.24,0-0.55-0.24-0.63l0,0l-0.86-0.4l1.1-2.61l0.55,0.24c0.16,0.08,0.24,0.08,0.31,0
			l0.24-0.63c0-0.08-0.08-0.16-0.16-0.24L22.26,0c-0.16,0-0.31,0-0.31,0.08l-0.24,0.63c0,0.08,0.08,0.16,0.16,0.24l0.47,0.16
			l-1.1,2.61L20.53,3.4c-0.24-0.08-0.55,0-0.63,0.24l-4.86,11.3C14.88,15.17,14.96,15.48,15.2,15.56z"/>
	</g>
</g>
<g>
	<g>
		<path id="path1650_00000134240678287198875170000002909283775444809349_" class="st2" d="M48,36c0,6.63-5.37,12-12,12
			s-12-5.37-12-12c0-6.63,5.37-12,12-12S48,29.37,48,36z"/>
		<path id="path1650_00000155145654983686960960000009156386845448833437_" class="st3" d="M36,24.98c6.08,0,11.03,4.95,11.03,11.03
			c0,6.08-4.94,11.02-11.03,11.02c-6.08,0-11.03-4.95-11.03-11.02C24.97,29.92,29.92,24.98,36,24.98 M36,24c-6.63,0-12,5.37-12,12
			c0,6.63,5.37,12,12,12s12-5.37,12-12C48,29.37,42.63,24,36,24L36,24z"/>
	</g>
	<g>
		<path class="st4" d="M35.29,37.91l-1.16-6.74c-0.02-0.11-0.03-0.23-0.03-0.34c0-0.97,0.63-1.45,1.89-1.45
			c1.26,0,1.9,0.48,1.9,1.44c0,0.13-0.01,0.25-0.03,0.35l-1.16,6.74H35.29z M36,39.3c1.11,0,1.66,0.55,1.66,1.66
			c0,1.11-0.55,1.66-1.66,1.66c-1.11,0-1.66-0.55-1.66-1.66C34.34,39.85,34.89,39.3,36,39.3z"/>
	</g>
</g>
</svg>
