<?xml version="1.0" encoding="utf-8"?>
<!-- Generator: Adobe Illustrator 27.2.0, SVG Export Plug-In . SVG Version: 6.00 Build 0)  -->
<svg version="1.1" id="Calque_1" xmlns="http://www.w3.org/2000/svg" xmlns:xlink="http://www.w3.org/1999/xlink" x="0px" y="0px"
	 viewBox="0 0 48 48" style="enable-background:new 0 0 48 48;" xml:space="preserve">
<style type="text/css">
	.st0{fill:#CB6F17;}
	.st1{fill:#FFFFFF;}
	.st2{fill:#585856;}
	.st3{fill:#1B80AA;}
	.st4{fill:url(#SVGID_1_);}
	.st5{fill:url(#SVGID_00000177447600931049731920000002514735825507876765_);}
	.st6{fill:url(#SVGID_00000072241298402744477420000005915702125256543135_);}
</style>
<path class="st0" d="M46.12,28.25c-0.76-0.47-1.34-0.24-2.14-0.04l-1.04,0.25c-1.04-2-2.61-3.76-4.68-5.03
	c-7.84-4.81-15.59,0.71-16.73,2.57c-0.7,1.14-0.19,2.18,0.55,2.63c0.96,0.59,1.83,0.19,2.43-0.42c2.14-2.21,6.98-4.62,11.83-1.65
	c1.19,0.73,2.15,1.69,2.87,2.78l-1.34,0.32c-0.9,0.19-1.46,0.31-1.89,1.01c-0.5,0.82-0.28,1.99,0.61,2.54l4.72,2.89
	c0.96,0.58,2.05,0.19,2.54-0.6l2.9-4.71C47.25,29.92,47.02,28.8,46.12,28.25z"/>
<g>
	<path class="st1" d="M2.79,39.43C2.35,39.43,2,39.11,2,38.71v-37C2,1.32,2.35,1,2.79,1h27.25c0.44,0,0.79,0.32,0.79,0.71v37
		c0,0.39-0.35,0.71-0.79,0.71L2.79,39.43L2.79,39.43z"/>
	<path class="st2" d="M29.83,2v36.43H3V2H29.83 M30.04,0H2.79C1.8,0,1,0.77,1,1.71v37c0,0.95,0.8,1.72,1.79,1.72h27.26
		c0.99,0,1.79-0.77,1.79-1.72v-37C31.83,0.77,31.03,0,30.04,0L30.04,0z"/>
</g>
<path class="st3" d="M27.41,8.06c0,1-0.81,1.81-1.81,1.81h-9.27c-1,0-1.81-0.81-1.81-1.81l0,0c0-1,0.81-1.81,1.81-1.81h9.27
	C26.6,6.25,27.41,7.06,27.41,8.06L27.41,8.06z"/>
<path class="st3" d="M27.41,16.17c0,1-0.81,1.81-1.81,1.81h-9.27c-1,0-1.81-0.81-1.81-1.81l0,0c0-1,0.81-1.81,1.81-1.81h9.27
	C26.6,14.36,27.41,15.17,27.41,16.17L27.41,16.17z"/>
<path class="st3" d="M27.41,24.54c0,1-0.81,1.81-1.81,1.81h-9.27c-1,0-1.81-0.81-1.81-1.81l0,0c0-1,0.81-1.81,1.81-1.81h9.27
	C26.6,22.73,27.41,23.54,27.41,24.54L27.41,24.54z"/>
<path class="st0" d="M40.66,42.82c-0.8-0.78-1.74-0.59-2.46-0.12c-2.58,1.69-7.82,2.98-11.91-0.99c-1-0.97-1.73-2.12-2.19-3.34
	l1.37-0.01c0.92,0.01,1.49,0.02,2.06-0.57c0.67-0.69,0.7-1.88-0.04-2.6l-3.96-3.85c-0.81-0.79-1.96-0.64-2.61,0.03l-3.86,3.96
	c-0.7,0.71-0.72,1.87,0.04,2.61c0.64,0.62,1.26,0.52,2.09,0.5l1.06-0.01c0.57,2.18,1.72,4.24,3.46,5.93
	c6.6,6.41,15.37,2.72,16.9,1.15C41.55,44.54,41.28,43.42,40.66,42.82z"/>
<g>
	<linearGradient id="SVGID_1_" gradientUnits="userSpaceOnUse" x1="8.0424" y1="6.3793" x2="10.0537" y2="8.3905">
		<stop  offset="0" style="stop-color:#009D00"/>
		<stop  offset="0.3012" style="stop-color:#009700"/>
		<stop  offset="0.7063" style="stop-color:#008600"/>
		<stop  offset="1" style="stop-color:#007500"/>
	</linearGradient>
	<path class="st4" d="M11.35,6.39L11.35,6.39c0.19,0.19,0.19,0.5,0,0.7L8.7,9.75c-0.16,0.16-0.42,0.16-0.58,0L6.74,8.37
		c-0.19-0.19-0.19-0.5,0-0.7l0,0c0.19-0.19,0.5-0.19,0.7,0l0.97,0.97l2.25-2.25C10.85,6.2,11.16,6.2,11.35,6.39z"/>
</g>
<g>
	
		<linearGradient id="SVGID_00000021119975533417796150000009837670662092848291_" gradientUnits="userSpaceOnUse" x1="8.0424" y1="14.4829" x2="10.0537" y2="16.4942">
		<stop  offset="0" style="stop-color:#009D00"/>
		<stop  offset="0.3012" style="stop-color:#009700"/>
		<stop  offset="0.7063" style="stop-color:#008600"/>
		<stop  offset="1" style="stop-color:#007500"/>
	</linearGradient>
	<path style="fill:url(#SVGID_00000021119975533417796150000009837670662092848291_);" d="M11.35,14.5L11.35,14.5
		c0.19,0.19,0.19,0.5,0,0.7L8.7,17.85c-0.16,0.16-0.42,0.16-0.58,0l-1.37-1.37c-0.19-0.19-0.19-0.5,0-0.7l0,0
		c0.19-0.19,0.5-0.19,0.7,0l0.97,0.97l2.25-2.25C10.85,14.3,11.16,14.3,11.35,14.5z"/>
</g>
<g>
	
		<linearGradient id="SVGID_00000148622334136687238930000000208825337899261863_" gradientUnits="userSpaceOnUse" x1="8.0424" y1="22.8515" x2="10.0537" y2="24.8628">
		<stop  offset="0" style="stop-color:#009D00"/>
		<stop  offset="0.3012" style="stop-color:#009700"/>
		<stop  offset="0.7063" style="stop-color:#008600"/>
		<stop  offset="1" style="stop-color:#007500"/>
	</linearGradient>
	<path style="fill:url(#SVGID_00000148622334136687238930000000208825337899261863_);" d="M11.35,22.87L11.35,22.87
		c0.19,0.19,0.19,0.5,0,0.7L8.7,26.22c-0.16,0.16-0.42,0.16-0.58,0l-1.37-1.37c-0.19-0.19-0.19-0.5,0-0.7l0,0
		c0.19-0.19,0.5-0.19,0.7,0l0.97,0.97l2.25-2.25C10.85,22.67,11.16,22.67,11.35,22.87z"/>
</g>
</svg>
