<?xml version="1.0" encoding="utf-8"?>
<!-- Generator: Adobe Illustrator 27.3.1, SVG Export Plug-In . SVG Version: 6.00 Build 0)  -->
<svg version="1.1" id="Calque_1" xmlns="http://www.w3.org/2000/svg" xmlns:xlink="http://www.w3.org/1999/xlink" x="0px" y="0px"
	 viewBox="0 0 48 48" style="enable-background:new 0 0 48 48;" xml:space="preserve">
<style type="text/css">
	.st0{fill:#1C779C;}
</style>
<path class="st0" d="M10.1,47.5L10.1,47.5c0.4,0.3,0.8,0.5,1.3,0.5c0.5,0,0.9-0.2,1.2-0.5l25.3-22.4c0.7-0.6,0.7-1.6,0-2.2L12.6,0.5
	C12.3,0.1,11.8,0,11.4,0c-0.5,0-0.9,0.1-1.2,0.5l0,0C9.8,0.8,9.6,1.2,9.6,1.6v10.9c0,0.4,0.2,0.8,0.5,1.1L21.8,24L10.1,34.4
	c-0.3,0.3-0.5,0.7-0.5,1.1v10.9C9.6,46.8,9.8,47.2,10.1,47.5z"/>
</svg>
