<?xml version="1.0" encoding="utf-8"?>
<!-- Generator: Adobe Illustrator 27.2.0, SVG Export Plug-In . SVG Version: 6.00 Build 0)  -->
<svg version="1.1" id="Calque_1" xmlns="http://www.w3.org/2000/svg" xmlns:xlink="http://www.w3.org/1999/xlink" x="0px" y="0px"
	 viewBox="0 0 48 48" style="enable-background:new 0 0 48 48;" xml:space="preserve">
<style type="text/css">
	.st0{fill:#1C779C;}
</style>
<g>
	<path class="st0" d="M45.25,3.92c0,2.17-1.75,3.92-3.9,3.92H6.65c-2.15,0-3.9-1.75-3.9-3.92l0,0C2.75,1.76,4.5,0,6.65,0h34.71
		C43.5,0,45.25,1.76,45.25,3.92L45.25,3.92z"/>
	<path class="st0" d="M45.25,17.31c0,2.16-1.75,3.92-3.9,3.92H6.65c-2.15,0-3.9-1.75-3.9-3.92l0,0c0-2.16,1.75-3.92,3.9-3.92h34.71
		C43.5,13.39,45.25,15.14,45.25,17.31L45.25,17.31z"/>
	<path class="st0" d="M45.25,30.69c0,2.17-1.75,3.92-3.9,3.92H6.65c-2.15,0-3.9-1.75-3.9-3.92l0,0c0-2.16,1.75-3.92,3.9-3.92h34.71
		C43.5,26.78,45.25,28.53,45.25,30.69L45.25,30.69z"/>
	<path class="st0" d="M45.25,44.08c0,2.16-1.75,3.92-3.9,3.92H6.65c-2.15,0-3.9-1.75-3.9-3.92l0,0c0-2.16,1.75-3.92,3.9-3.92h34.71
		C43.5,40.16,45.25,41.92,45.25,44.08L45.25,44.08z"/>
</g>
</svg>
