<?xml version="1.0" encoding="utf-8"?>
<!-- Generator: Adobe Illustrator 27.2.0, SVG Export Plug-In . SVG Version: 6.00 Build 0)  -->
<svg version="1.1" id="Calque_1" xmlns="http://www.w3.org/2000/svg" xmlns:xlink="http://www.w3.org/1999/xlink" x="0px" y="0px"
	 viewBox="0 0 48 48" style="enable-background:new 0 0 48 48;" xml:space="preserve">
<style type="text/css">
	.st0{fill:#1E789D;}
	.st1{fill:#A9A9AA;}
</style>
<g>
	<rect x="0.39" class="st0" width="37.22" height="8.23"/>
	<g>
		<rect x="0.39" y="12.05" class="st1" width="9.7" height="25.95"/>
	</g>
	<g>
		<rect x="14.2" y="12.05" class="st1" width="9.7" height="25.95"/>
	</g>
	<g>
		<rect x="27.91" y="12.05" class="st1" width="9.7" height="25.95"/>
	</g>
</g>
<path class="st0" d="M29.84,40.72c0.33,0.45,0.77,0.9,1.32,1.34c-0.44,2.58-0.55,4.03-0.44,4.48c0,0.11,0.11,0.11,0.22,0.22
	c2.75,0.78,4.18,1.23,4.18,1.23c0.11,0,0.44-0.67,0.99-1.79c0.55-1.12,0.88-1.91,0.99-2.47c0.44,0,0.66-0.11,0.88-0.11
	c0.22,0,0.44-0.11,0.88-0.34c0.33,0.34,1.1,0.9,2.09,1.68c0.99,0.78,1.54,1.12,1.76,1.01c0,0,1.1-1.01,3.08-3.03
	c0.11-0.11,0.11-0.11,0.11-0.22c-0.11-0.56-0.99-1.79-2.53-3.81c0.22-0.56,0.44-1.23,0.44-1.79c2.86-1.01,4.29-1.79,4.18-2.02
	l-1.1-4.15c-0.11-0.34-1.65-0.22-4.62,0.22l0,0c-0.44-0.56-0.88-1.01-1.32-1.34c0.44-2.47,0.55-4.03,0.44-4.48
	c0-0.11-0.11-0.11-0.22-0.22c-2.75-0.78-4.07-1.23-4.18-1.12l-0.11,0c-0.66,1.01-1.21,2.35-1.87,4.03
	c-0.44,0.11-0.66,0.11-0.88,0.22c-0.22,0-0.44,0.11-0.88,0.34c-0.33-0.34-1.1-0.9-1.98-1.68c-0.99-0.78-1.54-1.12-1.76-1.01
	c0,0-0.33,0.22-0.77,0.67c-0.44,0.45-0.99,0.9-1.54,1.46c-0.55,0.56-0.77,0.78-0.88,0.9c-0.11,0.11-0.11,0.11-0.11,0.22
	c0.11,0.45,0.99,1.79,2.53,3.81c-0.22,0.56-0.33,1.12-0.55,1.79c-2.86,1.01-4.29,1.79-4.18,2.02l1.1,4.26
	C25.33,41.28,26.87,41.16,29.84,40.72z M32.7,33.88c0.55-1.01,1.32-1.57,2.42-1.79c0.99-0.22,1.98-0.11,2.97,0.45
	c0.99,0.56,1.54,1.34,1.76,2.47c0.22,1.12,0.11,2.02-0.44,3.03c-0.55,0.9-1.32,1.57-2.42,1.79c-1.1,0.22-1.98,0.11-2.97-0.45
	c-0.88-0.56-1.54-1.34-1.76-2.47C32.04,35.9,32.15,34.89,32.7,33.88z"/>
</svg>
