<?xml version="1.0" encoding="utf-8"?>
<!-- Generator: Adobe Illustrator 27.2.0, SVG Export Plug-In . SVG Version: 6.00 Build 0)  -->
<svg version="1.1" id="Calque_1" xmlns="http://www.w3.org/2000/svg" xmlns:xlink="http://www.w3.org/1999/xlink" x="0px" y="0px"
	 viewBox="0 0 48 48" style="enable-background:new 0 0 48 48;" xml:space="preserve">
<style type="text/css">
	.st0{fill:#AA1917;}
	.st1{fill:#FFFFFF;}
	.st2{fill:#E42529;}
</style>
<g>
	<g>
		<path class="st0" d="M38,19c0,10.51-8.49,19-19,19S0,29.51,0,19S8.49,0,19,0S38,8.49,38,19z"/>
		<path class="st1" d="M26.9,25.39c0,0.84-0.67,1.51-1.51,1.51H12.61c-0.84,0-1.51-0.67-1.51-1.51V12.61c0-0.84,0.67-1.51,1.51-1.51
			h12.78c0.84,0,1.51,0.67,1.51,1.51V25.39z"/>
	</g>
</g>
<g>
	<g>
		<path class="st2" d="M26,46.5h20c0.85,0,1.53-0.26,1.79-0.77c0.34-0.51,0.26-1.19-0.17-1.96L37.57,26.61
			c-0.43-0.68-1.02-1.11-1.62-1.11s-1.19,0.43-1.62,1.19l-9.96,17c-0.43,0.77-0.51,1.45-0.17,1.96C24.47,46.16,25.06,46.5,26,46.5z"
			/>
	</g>
	<g>
		<path class="st1" d="M35.36,39.87l-1.02-5.7c0-0.09,0-0.17,0-0.26c0-0.85,0.51-1.28,1.62-1.28s1.62,0.43,1.62,1.19
			c0,0.09,0,0.17,0,0.26l-1.02,5.7h-1.19V39.87z M35.96,41.06c0.94,0,1.45,0.51,1.45,1.45s-0.51,1.45-1.45,1.45
			c-0.94,0-1.45-0.51-1.45-1.45C34.6,41.48,35.02,41.06,35.96,41.06z"/>
	</g>
</g>
</svg>
