<?xml version="1.0" encoding="utf-8"?>
<!-- Generator: Adobe Illustrator 27.2.0, SVG Export Plug-In . SVG Version: 6.00 Build 0)  -->
<svg version="1.1" id="Calque_1" xmlns="http://www.w3.org/2000/svg" xmlns:xlink="http://www.w3.org/1999/xlink" x="0px" y="0px"
	 viewBox="0 0 48 48" style="enable-background:new 0 0 48 48;" xml:space="preserve">
<style type="text/css">
	.st0{fill:#AB1919;}
	.st1{fill:#FFFFFF;}
	.st2{fill:#EE810B;}
	.st3{fill-rule:evenodd;clip-rule:evenodd;fill:#1E1E1C;}
</style>
<g>
	<path class="st0" d="M38,19c0,10.48-8.52,19-19,19C8.52,38.1,0,29.58,0,19C0,8.52,8.52,0,19,0S38,8.52,38,19z"/>
	<path class="st1" d="M26.93,25.46c0,0.88-0.69,1.47-1.47,1.47H12.63c-0.78,0-1.47-0.69-1.47-1.47V12.63c0-0.78,0.69-1.47,1.47-1.47
		h12.83c0.88,0,1.47,0.69,1.47,1.47V25.46z"/>
</g>
<g>
	<path class="st2" d="M48,36c0,6.67-5.42,12-12,12c-6.67,0-12-5.42-12-12c0-6.67,5.42-12,12-12S48,29.42,48,36z"/>
	<path class="st3" d="M38.4,35.64h-6.49V24.71c-0.8,0.27-1.6,0.71-2.31,1.16v9.78v2.31h2.31h6.49v3.73l6.04-4.89l-6.04-4.89V35.64z"
		/>
</g>
</svg>
