<?xml version="1.0" encoding="utf-8"?>
<!-- Generator: Adobe Illustrator 25.3.1, SVG Export Plug-In . SVG Version: 6.00 Build 0)  -->
<svg version="1.1" id="Calque_1" xmlns="http://www.w3.org/2000/svg" xmlns:xlink="http://www.w3.org/1999/xlink" x="0px" y="0px"
	 viewBox="0 0 48 48" style="enable-background:new 0 0 48 48;" xml:space="preserve">
<style type="text/css">
	.st0{fill:#1C789D;}
	.st1{fill:#FFFFFF;}
</style>
<g>
	<path class="st0" d="M48,24c0,13.3-10.7,24-24,24S0,37.3,0,24C0,10.8,10.7,0,24,0S48,10.8,48,24z"/>
	<g>
		<path class="st1" d="M21.7,31.5c0,1.5-1.2,2.7-2.7,2.7h-2.4c-1.5,0-2.7-1.2-2.7-2.7V16.5c0-1.5,1.2-2.7,2.7-2.7h2.4
			c1.5,0,2.7,1.2,2.7,2.7V31.5z"/>
		<path class="st1" d="M34,31.5c0,1.5-1.2,2.7-2.7,2.7h-2.4c-1.5,0-2.7-1.2-2.7-2.7V16.5c0-1.5,1.2-2.7,2.7-2.7h2.4
			c1.5,0,2.7,1.2,2.7,2.7V31.5z"/>
	</g>
</g>
</svg>
