<?xml version="1.0" encoding="utf-8"?>
<!-- Generator: Adobe Illustrator 25.3.1, SVG Export Plug-In . SVG Version: 6.00 Build 0)  -->
<svg version="1.1" id="Calque_1" xmlns="http://www.w3.org/2000/svg" xmlns:xlink="http://www.w3.org/1999/xlink" x="0px" y="0px"
	 viewBox="0 0 48 48" style="enable-background:new 0 0 48 48;" xml:space="preserve">
<style type="text/css">
	.st0{fill:#9C9B9B;}
	.st1{fill:#FFFFFF;}
</style>
<g>
	<g>
		<path class="st0" d="M4,45H44c1.7,0,3-0.6,3.6-1.6c0.6-1,0.4-2.4-0.4-3.9l-20-34.2C26.4,3.8,25.2,3,24,3c-1.2,0-2.4,0.8-3.2,2.3
			l-20,34.2c-0.9,1.5-1,2.9-0.4,3.9C1,44.4,2.2,45,4,45z"/>
	</g>
	<g>
		<path class="st1" d="M22.8,31.8l-2-11.5c0-0.2,0-0.4,0-0.6c0-1.7,1.1-2.5,3.2-2.5c2.1,0,3.2,0.8,3.2,2.5c0,0.2,0,0.4-0.1,0.6
			l-2,11.5H22.8z M24,34.1c1.9,0,2.8,0.9,2.8,2.8c0,1.9-0.9,2.8-2.8,2.8c-1.9,0-2.8-0.9-2.8-2.8C21.2,35.1,22.1,34.1,24,34.1z"/>
	</g>
</g>
</svg>
