<?xml version="1.0" encoding="utf-8"?>
<!-- Generator: Adobe Illustrator 25.4.1, SVG Export Plug-In . SVG Version: 6.00 Build 0)  -->
<svg version="1.1" id="Calque_1" xmlns="http://www.w3.org/2000/svg" xmlns:xlink="http://www.w3.org/1999/xlink" x="0px" y="0px"
	 viewBox="0 0 48 48" style="enable-background:new 0 0 48 48;" xml:space="preserve">
<g>
	<path d="M48,6.6c0,2.9-2.3,5.2-5.2,5.2H21.6c-2.9,0-5.2-2.3-5.2-5.2l0,0c0-2.9,2.3-5.2,5.2-5.2h21.2C45.7,1.4,48,3.7,48,6.6L48,6.6
		z"/>
	<path d="M48,24c0,2.9-2.3,5.2-5.2,5.2H21.6c-2.9,0-5.2-2.3-5.2-5.2l0,0c0-2.9,2.3-5.2,5.2-5.2h21.2C45.7,18.8,48,21.1,48,24L48,24z
		"/>
	<path d="M48,41.4c0,2.9-2.3,5.2-5.2,5.2H21.6c-2.9,0-5.2-2.3-5.2-5.2l0,0c0-2.9,2.3-5.2,5.2-5.2h21.2C45.7,36.2,48,38.5,48,41.4
		L48,41.4z"/>
	<path d="M10.4,6.6c0,2.9-2.3,5.2-5.2,5.2C2.3,11.8,0,9.5,0,6.6c0-2.9,2.3-5.2,5.2-5.2C8.1,1.4,10.4,3.7,10.4,6.6z"/>
	<path d="M10.4,24c0,2.9-2.3,5.2-5.2,5.2C2.3,29.2,0,26.9,0,24c0-2.9,2.3-5.2,5.2-5.2C8.1,18.8,10.4,21.1,10.4,24z"/>
	<path d="M10.4,41.4c0,2.9-2.3,5.2-5.2,5.2c-2.9,0-5.2-2.3-5.2-5.2c0-2.9,2.3-5.2,5.2-5.2C8.1,36.2,10.4,38.5,10.4,41.4z"/>
</g>
</svg>
