<?xml version="1.0" encoding="utf-8"?>
<!-- Generator: Adobe Illustrator 27.2.0, SVG Export Plug-In . SVG Version: 6.00 Build 0)  -->
<svg version="1.1" id="Calque_1" xmlns="http://www.w3.org/2000/svg" xmlns:xlink="http://www.w3.org/1999/xlink" x="0px" y="0px"
	 viewBox="0 0 48 48" style="enable-background:new 0 0 48 48;" xml:space="preserve">
<style type="text/css">
	.st0{fill:#FFFFFF;}
	.st1{fill:#C6C6C6;}
	.st2{fill:#1C779C;}
	.st3{fill:#926036;}
	.st4{fill:url(#SVGID_1_);}
	.st5{fill:url(#SVGID_00000078723413425293127710000016804456607402101155_);}
	.st6{fill:url(#SVGID_00000083059990093124207350000000200013436808089016_);}
</style>
<rect x="10.2" y="9.8" class="st0" width="27.6" height="36.5"/>
<path class="st1" d="M35.8,11.5v-1c0-1.1-1-2-2.3-2h-5.1v-4C28.5,2,26.5,0,24,0s-4.5,2-4.5,4.5v4h-5.1c-1.2,0-2.3,0.9-2.3,2v1H35.8z
	 M24,2c1,0,1.8,0.8,1.8,1.8S25,5.6,24,5.6s-1.8-0.8-1.8-1.8S23,2,24,2z"/>
<path class="st2" d="M34.8,20.2c0,1.1-0.9,2-2,2h-9.6c-1.1,0-2-0.9-2-2l0,0c0-1.1,0.9-2,2-2h9.6C33.9,18.1,34.8,19,34.8,20.2
	L34.8,20.2z"/>
<path class="st2" d="M34.8,29.8c0,1.1-0.9,2-2,2h-9.6c-1.1,0-2-0.9-2-2l0,0c0-1.1,0.9-2,2-2h9.6C33.9,27.8,34.8,28.7,34.8,29.8
	L34.8,29.8z"/>
<path class="st2" d="M34.8,39.2c0,1.1-0.9,2-2,2h-9.6c-1.1,0-2-0.9-2-2l0,0c0-1.1,0.9-2,2-2h9.6C33.9,37.1,34.8,38,34.8,39.2
	L34.8,39.2z"/>
<path class="st3" d="M37.6,9.8V12v16.1v17.6H10.4V28.2V12V9.8C9.1,9.8,8,10.8,8,12v33.8C8,47,9.1,48,10.4,48h27.2
	c1.4,0,2.4-1,2.4-2.2V12C40,10.8,38.9,9.8,37.6,9.8z"/>
<linearGradient id="SVGID_1_" gradientUnits="userSpaceOnUse" x1="14.9892" y1="18.3403" x2="17.2119" y2="20.563">
	<stop  offset="0" style="stop-color:#009D00"/>
	<stop  offset="0.3012" style="stop-color:#009700"/>
	<stop  offset="0.7063" style="stop-color:#008600"/>
	<stop  offset="1" style="stop-color:#007500"/>
</linearGradient>
<path class="st4" d="M18.65,18.36L18.65,18.36c0.21,0.21,0.21,0.56,0,0.77l-2.93,2.94c-0.18,0.18-0.46,0.18-0.64,0l-1.52-1.52
	c-0.21-0.21-0.21-0.56,0-0.77l0,0c0.21-0.21,0.56-0.21,0.77,0l1.07,1.07l2.49-2.49C18.09,18.14,18.43,18.14,18.65,18.36z"/>
<linearGradient id="SVGID_00000090975570114454404290000017789570592091290549_" gradientUnits="userSpaceOnUse" x1="14.9892" y1="27.9565" x2="17.2119" y2="30.1793">
	<stop  offset="0" style="stop-color:#009D00"/>
	<stop  offset="0.3012" style="stop-color:#009700"/>
	<stop  offset="0.7063" style="stop-color:#008600"/>
	<stop  offset="1" style="stop-color:#007500"/>
</linearGradient>
<path style="fill:url(#SVGID_00000090975570114454404290000017789570592091290549_);" d="M18.65,27.97L18.65,27.97
	c0.21,0.21,0.21,0.56,0,0.77l-2.93,2.94c-0.18,0.18-0.46,0.18-0.64,0l-1.52-1.52c-0.21-0.21-0.21-0.56,0-0.77l0,0
	c0.21-0.21,0.56-0.21,0.77,0l1.07,1.07l2.49-2.49C18.09,27.76,18.43,27.76,18.65,27.97z"/>
<linearGradient id="SVGID_00000084530726557584799730000003173652825400299678_" gradientUnits="userSpaceOnUse" x1="14.9892" y1="37.3411" x2="17.2119" y2="39.5639">
	<stop  offset="0" style="stop-color:#009D00"/>
	<stop  offset="0.3012" style="stop-color:#009700"/>
	<stop  offset="0.7063" style="stop-color:#008600"/>
	<stop  offset="1" style="stop-color:#007500"/>
</linearGradient>
<path style="fill:url(#SVGID_00000084530726557584799730000003173652825400299678_);" d="M18.65,37.36L18.65,37.36
	c0.21,0.21,0.21,0.56,0,0.77l-2.93,2.94c-0.18,0.18-0.46,0.18-0.64,0l-1.52-1.52c-0.21-0.21-0.21-0.56,0-0.77v0
	c0.21-0.21,0.56-0.21,0.77,0l1.07,1.07l2.49-2.49C18.09,37.14,18.43,37.14,18.65,37.36z"/>
</svg>
