<?xml version="1.0" encoding="utf-8"?>
<!-- Generator: Adobe Illustrator 27.2.0, SVG Export Plug-In . SVG Version: 6.00 Build 0)  -->
<svg version="1.1" id="Calque_1" xmlns="http://www.w3.org/2000/svg" xmlns:xlink="http://www.w3.org/1999/xlink" x="0px" y="0px"
	 viewBox="0 0 48 48" style="enable-background:new 0 0 48 48;" xml:space="preserve">
<style type="text/css">
	.st0{fill:#1C779C;}
	.st1{fill-rule:evenodd;clip-rule:evenodd;fill:#3EAB47;}
</style>
<g>
	<g>
		<path class="st0" d="M35.92,3.12c0,1.7-1.42,3.12-3.12,3.12H5.2c-1.7,0-3.12-1.42-3.12-3.12l0,0C2.08,1.42,3.5,0,5.2,0h27.6
			C34.5,0,35.92,1.42,35.92,3.12L35.92,3.12z"/>
		<path class="st0" d="M35.92,13.71c0,1.7-1.42,3.12-3.12,3.12H5.2c-1.7,0-3.12-1.42-3.12-3.12l0,0c0-1.7,1.42-3.12,3.12-3.12h27.6
			C34.5,10.59,35.92,12,35.92,13.71L35.92,13.71z"/>
		<path class="st0" d="M35.92,24.29c0,1.7-1.42,3.12-3.12,3.12H5.2c-1.7,0-3.12-1.42-3.12-3.12l0,0c0-1.7,1.42-3.12,3.12-3.12h27.6
			C34.5,21.17,35.92,22.59,35.92,24.29L35.92,24.29z"/>
		<path class="st0" d="M35.92,34.88c0,1.7-1.42,3.12-3.12,3.12H5.2c-1.7,0-3.12-1.42-3.12-3.12l0,0c0-1.7,1.42-3.12,3.12-3.12h27.6
			C34.5,31.76,35.92,33.18,35.92,34.88L35.92,34.88z"/>
	</g>
</g>
<polygon class="st1" points="36.01,48 45.97,34.93 38.54,34.93 38.54,24 33.4,24 33.4,34.93 25.97,34.93 "/>
</svg>
