<?xml version="1.0" encoding="utf-8"?>
<!-- Generator: Adobe Illustrator 25.4.1, SVG Export Plug-In . SVG Version: 6.00 Build 0)  -->
<svg version="1.1" id="Calque_1" xmlns="http://www.w3.org/2000/svg" xmlns:xlink="http://www.w3.org/1999/xlink" x="0px" y="0px"
	 viewBox="0 0 48 48" style="enable-background:new 0 0 48 48;" xml:space="preserve">
<style type="text/css">
	.st0{fill:#1C779C;}
</style>
<g>
	<path class="st0" d="M45.4,3.9c0,2.2-1.8,3.9-3.9,3.9H6.6c-2.2,0-3.9-1.8-3.9-3.9l0,0C2.6,1.8,4.4,0,6.6,0h34.9
		C43.6,0,45.4,1.8,45.4,3.9L45.4,3.9z"/>
	<path class="st0" d="M45.4,17.3c0,2.2-1.8,3.9-3.9,3.9H6.6c-2.2,0-3.9-1.8-3.9-3.9l0,0c0-2.2,1.8-3.9,3.9-3.9h34.9
		C43.6,13.4,45.4,15.1,45.4,17.3L45.4,17.3z"/>
	<path class="st0" d="M45.4,30.7c0,2.2-1.8,3.9-3.9,3.9H6.6c-2.2,0-3.9-1.8-3.9-3.9l0,0c0-2.2,1.8-3.9,3.9-3.9h34.9
		C43.6,26.8,45.4,28.5,45.4,30.7L45.4,30.7z"/>
	<path class="st0" d="M45.4,44.1c0,2.2-1.8,3.9-3.9,3.9H6.6c-2.2,0-3.9-1.8-3.9-3.9l0,0c0-2.2,1.8-3.9,3.9-3.9h34.9
		C43.6,40.2,45.4,41.9,45.4,44.1L45.4,44.1z"/>
</g>
</svg>
