<?xml version="1.0" encoding="utf-8"?>
<!-- Generator: Adobe Illustrator 25.3.1, SVG Export Plug-In . SVG Version: 6.00 Build 0)  -->
<svg version="1.1" id="Calque_1" xmlns="http://www.w3.org/2000/svg" xmlns:xlink="http://www.w3.org/1999/xlink" x="0px" y="0px"
	 viewBox="0 0 48 48" style="enable-background:new 0 0 48 48;" xml:space="preserve">
<style type="text/css">
	.st0{fill:#2372B8;}
	.st1{fill:#FFFFFF;}
</style>
<g>
	<path class="st0" d="M48,24c0,13.3-10.7,24-24,24S0,37.3,0,24C0,10.8,10.7,0,24,0S48,10.8,48,24z"/>
	<g>
		<path class="st1" d="M20.7,31.4c-0.1-0.4-0.3-0.8-0.3-1.2c-0.1-0.5-0.1-0.9-0.1-1.3c0-0.7,0.1-1.2,0.2-1.8
			c0.1-0.5,0.3-1.1,0.6-1.5c0.3-0.5,0.6-0.9,1-1.4c0.4-0.4,0.8-0.9,1.3-1.3c0.5-0.5,1-0.9,1.4-1.3c0.4-0.4,0.7-0.8,1-1.2
			c0.3-0.4,0.5-0.8,0.6-1.2s0.2-0.9,0.2-1.4c0-0.4-0.1-0.9-0.2-1.2c-0.2-0.4-0.4-0.7-0.7-1c-0.3-0.3-0.6-0.5-1.1-0.6
			c-0.4-0.2-0.9-0.2-1.4-0.2c-1.1,0-2.3,0.2-3.5,0.7c-1.2,0.5-2.3,1.2-3.4,2.1v-6.4c1.1-0.7,2.3-1.1,3.6-1.5c1.3-0.3,2.6-0.5,4-0.5
			c1.3,0,2.6,0.1,3.7,0.4c1.1,0.3,2.1,0.8,3,1.4c0.8,0.6,1.5,1.4,2,2.4c0.5,1,0.7,2.1,0.7,3.5c0,0.9-0.1,1.7-0.3,2.4
			c-0.2,0.7-0.5,1.4-0.9,2c-0.4,0.6-0.9,1.2-1.4,1.8c-0.6,0.6-1.2,1.2-2,1.8c-0.5,0.4-0.9,0.8-1.3,1.2c-0.4,0.4-0.7,0.7-0.9,1.1
			c-0.2,0.4-0.4,0.7-0.6,1.1c-0.1,0.4-0.2,0.8-0.2,1.3c0,0.3,0,0.7,0.1,1c0.1,0.4,0.2,0.7,0.4,0.9H20.7z M23.9,40.7
			c-1.1,0-2.1-0.3-2.8-1c-0.8-0.7-1.1-1.5-1.1-2.5c0-1,0.4-1.8,1.1-2.5c0.8-0.7,1.7-1,2.8-1c1.1,0,2.1,0.3,2.8,1
			c0.7,0.6,1.1,1.5,1.1,2.5c0,1-0.4,1.9-1.1,2.5C25.9,40.4,25,40.7,23.9,40.7z"/>
	</g>
</g>
</svg>
