<?xml version="1.0" encoding="utf-8"?>
<!-- Generator: Adobe Illustrator 27.2.0, SVG Export Plug-In . SVG Version: 6.00 Build 0)  -->
<svg version="1.1" id="Calque_1" xmlns="http://www.w3.org/2000/svg" xmlns:xlink="http://www.w3.org/1999/xlink" x="0px" y="0px"
	 viewBox="0 0 48 48" style="enable-background:new 0 0 48 48;" xml:space="preserve">
<style type="text/css">
	.st0{fill:#1E799D;}
	.st1{fill:#40AB48;}
</style>
<path class="st0" d="M13.29,15.5C12.18,16.01,4.01,19.46,3,29.18c-0.1,2.94,1.61,3.55,1.61,3.55l0,0c0,0,0.71,0.61,1.81,0.91
	c0.2,0.71,0.6,1.32,1.11,1.72l0,0c0,0,0.81,2.13,8.77,2.53c0.1,0,0.2,0,0.3,0.1h2.02c0.2,0,0.5,0,0.81,0h2.32c0.2,0,0.4-0.1,0.6-0.1
	c8.27-0.51,9.07-3.14,9.07-3.14l0,0c0.2-0.3,0.4-0.71,0.5-1.11c3.73-0.71,3.43-5.27,2.32-8.61c-1.51-4.76-5.55-8.11-9.68-9.53
	c2.02-1.62,3.23-4.05,3.23-6.79c0-4.86-3.93-8.71-8.87-8.71c-4.84,0-8.87,3.85-8.87,8.71C10.06,11.45,11.27,13.88,13.29,15.5"/>
<polygon class="st1" points="32.82,24 39.18,24 39.18,35.08 46,35.08 36,48 26,35.08 32.82,35.08 "/>
</svg>
