<?xml version="1.0" encoding="utf-8"?>
<!-- Generator: Adobe Illustrator 27.2.0, SVG Export Plug-In . SVG Version: 6.00 Build 0)  -->
<svg version="1.1" id="Calque_1" xmlns="http://www.w3.org/2000/svg" xmlns:xlink="http://www.w3.org/1999/xlink" x="0px" y="0px"
	 viewBox="0 0 48 48" style="enable-background:new 0 0 48 48;" xml:space="preserve">
<style type="text/css">
	.st0{fill:#194092;}
	.st1{fill:#FFFFFF;}
	.st2{fill:#E20613;}
</style>
<g>
	<rect y="8.25" class="st0" width="48" height="31.5"/>
	<path class="st1" d="M48,8.25h-6.01l-12.51,8.2c0-3.46,0-8.2,0-8.2H18.48c0,0,0,5.05,0,8.53L5.26,8.25H0v4.26l9.48,6.15
		c-4.77,0-9.48,0-9.48,0v10.91c0,0,4.66,0,9.4,0L0,35.76v3.99h6.22l12.26-8.06c0,3.41,0,8.06,0,8.06h11.01c0,0,0-4.79,0-8.2
		l12.66,8.2H48v-3.94l-9.63-6.24c4.82,0,9.63,0,9.63,0V18.66c0,0-4.78,0-9.59,0l9.59-6.3V8.25z"/>
	<g>
		<path class="st2" d="M15.45,18.66L0,8.25V11l11.54,7.66C12.94,18.66,14.29,18.66,15.45,18.66z"/>
		<path class="st2" d="M32.57,29.57L48,39.75l0,0v-2.56l-11.52-7.62C35.08,29.57,33.74,29.57,32.57,29.57z"/>
		<path class="st2" d="M18.48,29.57c-0.71,0-1.83,0-3.18,0L0,39.75l0,0h3.66l14.81-9.68C18.48,29.89,18.48,29.73,18.48,29.57z"/>
		<path class="st2" d="M29.49,18.66c0.67,0,1.71,0,2.96,0L48,8.5V8.25h-3.5l-15.01,9.77C29.49,18.24,29.49,18.46,29.49,18.66z"/>
	</g>
	<polygon class="st2" points="48,20.97 27.13,20.97 27.13,8.25 20.84,8.25 20.84,20.97 0,20.97 0,27.25 20.84,27.25 20.84,39.75 
		27.13,39.75 27.13,27.25 48,27.25 	"/>
</g>
</svg>
