<?xml version="1.0" encoding="utf-8"?>
<!-- Generator: Adobe Illustrator 27.2.0, SVG Export Plug-In . SVG Version: 6.00 Build 0)  -->
<svg version="1.1" id="Calque_1" xmlns="http://www.w3.org/2000/svg" xmlns:xlink="http://www.w3.org/1999/xlink" x="0px" y="0px"
	 viewBox="0 0 48 48" style="enable-background:new 0 0 48 48;" xml:space="preserve">
<style type="text/css">
	.st0{fill:#C51620;}
	.st1{fill:#FCC207;}
	.st2{fill:#AD191B;}
	.st3{fill:#C7B000;}
	.st4{fill:none;}
	.st5{fill:#008D6E;}
	.st6{fill:#FFFFFF;}
	.st7{fill:#225CA7;}
	.st8{fill:#CCCBCB;}
	.st9{fill:#FDD591;}
	.st10{fill:#2C509E;}
	.st11{fill:#DB4446;}
	.st12{fill:#EB73A8;}
</style>
<g>
	<rect y="8" class="st0" width="48" height="32"/>
	<rect y="16" class="st1" width="48" height="16"/>
	<g id="coa_00000169530424804316354770000004364772301512995231_">
		<g id="supporters_00000137849808460300749200000001518057913788468636_">
			<g id="crown_left_00000046338217549758679570000009870381992831916440_">
				<path class="st2" d="M10.75,22.22c0,0-0.03,0-0.05-0.01c-0.02-0.01-0.07-0.06-0.07-0.06l-0.04-0.03l-0.04-0.05
					c0,0-0.05-0.08-0.03-0.13c0.02-0.06,0.06-0.08,0.09-0.1c0.03-0.02,0.1-0.04,0.1-0.04s0.05-0.02,0.07-0.03
					c0.02,0,0.08-0.02,0.08-0.02s0.02-0.01,0.04-0.02c0.02-0.01,0.04-0.01,0.06-0.01c0.01,0,0.05-0.02,0.07-0.02
					c0.03,0,0.09,0.01,0.1,0.01c0.02,0,0.08,0,0.1,0c0.02,0,0.12-0.01,0.14-0.01c0.02,0,0.04,0,0.07,0c0.03,0,0.08,0.02,0.09,0.03
					c0.01,0.01,0.1,0.04,0.13,0.05c0.03,0.01,0.11,0.02,0.15,0.04c0.04,0.02,0.06,0.05,0.08,0.07c0.02,0.02,0.02,0.05,0.03,0.07
					c0.01,0.02,0.01,0.05,0,0.07c-0.01,0.02-0.03,0.05-0.03,0.05l-0.04,0.07l-0.05,0.04c0,0-0.04,0.03-0.07,0.03
					c-0.03,0-0.32-0.06-0.51-0.06C11.05,22.17,10.75,22.22,10.75,22.22L10.75,22.22L10.75,22.22z"/>
				<g>
					<ellipse class="st3" cx="11.24" cy="21.8" rx="0.09" ry="0.16"/>
					<ellipse class="st3" cx="11.24" cy="21.8" rx="0.04" ry="0.15"/>
					<ellipse class="st3" cx="11.24" cy="21.63" rx="0.06" ry="0.06"/>
					<path class="st3" d="M11.33,21.62v0.04h-0.16v-0.04h0.06v-0.08h-0.04v-0.04h0.04v-0.04h0.04v0.04h0.04v0.04h-0.04v0.08H11.33"
						/>
					<path class="st4" d="M11.26,21.58c0.03,0.01,0.05,0.04,0.04,0.07c-0.01,0.03-0.04,0.05-0.07,0.04s-0.05-0.04-0.04-0.07
						c0.01-0.02,0.02-0.03,0.04-0.04"/>
					<path class="st3" d="M11.24,22.21h-0.31l-0.01-0.08l-0.01-0.08l-0.01-0.1c-0.09-0.11-0.16-0.19-0.19-0.17
						c0.01-0.02,0.01-0.04,0.03-0.05c0.08-0.04,0.23,0.06,0.35,0.24c0.01,0.02,0.02,0.03,0.03,0.05h0.25
						c0.01-0.02,0.02-0.03,0.03-0.05c0.12-0.18,0.27-0.28,0.35-0.24c0.02,0.01,0.02,0.02,0.03,0.05c-0.03-0.02-0.1,0.06-0.19,0.17
						l-0.01,0.1l-0.01,0.08l-0.01,0.08H11.24L11.24,22.21z"/>
					<path class="st4" d="M10.72,21.79c0.06-0.03,0.19,0.07,0.3,0.24 M11.77,21.79c-0.06-0.03-0.19,0.07-0.3,0.24"/>
				</g>
				<g id="crown_pt1_00000049224131011703419870000014812859441112188306_">
					<path class="st3" d="M10.79,22.35c-0.01-0.04-0.04-0.07-0.04-0.07c0.12-0.04,0.3-0.06,0.49-0.06c0.19,0,0.37,0.02,0.49,0.06
						c0,0-0.01,0.02-0.03,0.06c-0.01,0.02-0.02,0.05-0.02,0.05c-0.11-0.03-0.26-0.05-0.44-0.05c-0.18,0-0.35,0.02-0.44,0.06
						C10.8,22.4,10.8,22.38,10.79,22.35L10.79,22.35"/>
					<path class="st3" d="M11.24,22.51c0.16,0,0.33-0.02,0.39-0.04c0.04-0.01,0.07-0.03,0.06-0.05c0-0.01-0.01-0.02-0.02-0.02
						c-0.09-0.03-0.26-0.05-0.43-0.05c-0.17,0-0.34,0.02-0.43,0.05c-0.01,0.01-0.02,0.01-0.02,0.02c0,0.02,0.02,0.04,0.06,0.05
						C10.92,22.49,11.09,22.51,11.24,22.51z"/>
					<path class="st3" d="M11.74,22.21l-0.04-0.03c0,0-0.04,0.02-0.08,0.02c-0.04-0.01-0.06-0.06-0.06-0.06s-0.05,0.04-0.09,0.04
						c-0.04,0-0.07-0.04-0.07-0.04s-0.05,0.03-0.09,0.03c-0.04,0-0.08-0.05-0.08-0.05s-0.04,0.05-0.08,0.06
						c-0.04,0-0.07-0.03-0.07-0.03s-0.02,0.04-0.07,0.05c-0.05,0.01-0.09-0.04-0.09-0.04s-0.03,0.05-0.06,0.06
						c-0.03,0.01-0.08-0.02-0.08-0.02s-0.01,0.02-0.01,0.03c-0.01,0.01-0.02,0.01-0.02,0.01l0.01,0.03
						c0.12-0.04,0.29-0.06,0.48-0.06c0.19,0,0.36,0.02,0.49,0.06L11.74,22.21L11.74,22.21L11.74,22.21z"/>
					<path class="st3" d="M11.24,22.05l0.02,0c0,0.01,0,0.02,0,0.02c0,0.04,0.03,0.07,0.07,0.07c0.03,0,0.06-0.02,0.07-0.05
						c0,0,0.01-0.02,0.01-0.02c0,0,0,0.03,0,0.03c0,0.03,0.04,0.06,0.07,0.06c0.04,0,0.07-0.03,0.07-0.07c0,0,0-0.01,0-0.01
						l0.02-0.02l0.01,0.03c0,0.01-0.01,0.02-0.01,0.03c0,0.04,0.03,0.06,0.07,0.06c0.02,0,0.04-0.01,0.06-0.03l0.01-0.02v0.02
						c0,0.02,0.01,0.04,0.03,0.05c0,0,0.02,0,0.06-0.02c0.03-0.03,0.05-0.05,0.05-0.05l0,0.03c0,0-0.03,0.05-0.06,0.07
						c-0.02,0.01-0.04,0.02-0.06,0.02c-0.02,0-0.04-0.02-0.04-0.04c-0.01,0.01-0.03,0.01-0.05,0.01c-0.04,0-0.08-0.02-0.09-0.06
						c-0.02,0.02-0.04,0.03-0.07,0.03c-0.03,0-0.06-0.01-0.08-0.04c-0.02,0.02-0.04,0.03-0.07,0.03c-0.04,0-0.07-0.02-0.09-0.04
						c-0.02,0.03-0.05,0.04-0.09,0.04c-0.03,0-0.05-0.01-0.07-0.03c-0.02,0.02-0.05,0.04-0.08,0.04c-0.03,0-0.06-0.01-0.07-0.03
						c-0.01,0.03-0.05,0.06-0.09,0.06c-0.02,0-0.04-0.01-0.05-0.01c-0.01,0.02-0.02,0.04-0.04,0.04c-0.02,0-0.04-0.01-0.06-0.02
						c-0.03-0.02-0.07-0.07-0.07-0.07l0-0.03c0,0,0.02,0.02,0.05,0.05c0.03,0.03,0.06,0.02,0.06,0.02c0.02,0,0.03-0.02,0.03-0.05
						v-0.02l0.01,0.02c0.01,0.02,0.03,0.03,0.06,0.03c0.04,0,0.07-0.03,0.07-0.06c0-0.01,0-0.02-0.01-0.03l0.01-0.03l0.02,0.02
						c0,0,0,0.01,0,0.01c0,0.04,0.03,0.07,0.07,0.07c0.04,0,0.07-0.02,0.07-0.06c0,0,0-0.03,0-0.03c0,0,0.01,0.02,0.01,0.02
						c0.01,0.03,0.04,0.05,0.07,0.05c0.04,0,0.07-0.03,0.07-0.07c0-0.01,0-0.02,0-0.02L11.24,22.05L11.24,22.05L11.24,22.05z"/>
					<path class="st3" d="M11.24,22.22c-0.19,0-0.37,0.02-0.49,0.06c-0.01,0-0.02,0-0.02-0.01c0-0.01,0-0.02,0.01-0.02
						c0.12-0.04,0.3-0.06,0.5-0.06s0.38,0.02,0.5,0.06c0.01,0,0.01,0.01,0.01,0.02c0,0.01-0.01,0.01-0.02,0.01
						C11.61,22.25,11.44,22.22,11.24,22.22z"/>
					<path class="st3" d="M10.59,22.14c0,0-0.02-0.03-0.04-0.05c-0.01-0.01-0.04-0.02-0.04-0.02c0-0.01,0.02-0.02,0.04-0.02
						c0.01,0,0.02,0,0.03,0.01l0-0.01c0,0,0.02,0,0.02,0.02c0.01,0.02,0,0.05,0,0.05S10.59,22.14,10.59,22.14L10.59,22.14z"/>
					<path class="st3" d="M10.71,22.09l-0.01,0.04l-0.09,0.01l-0.01-0.01l0-0.01l0.07-0.06L10.71,22.09"/>
					<path class="st3" d="M10.59,22.13c0.01-0.01,0.02-0.01,0.03,0c0.01,0.01,0.02,0.02,0.01,0.03c-0.01,0.01-0.02,0.01-0.03,0
						C10.58,22.15,10.58,22.14,10.59,22.13z"/>
					<path class="st3" d="M10.75,22.14c0-0.01,0-0.02,0.01-0.03c0.01,0,0.02,0.01,0.02,0.02c0,0.01,0,0.02-0.01,0.03
						C10.77,22.16,10.76,22.15,10.75,22.14z"/>
					<path class="st3" d="M10.79,22.08l0.03,0.03l0.08-0.04l0.01-0.01l-0.01-0.01l-0.09-0.01L10.79,22.08"/>
					<path class="st3" d="M10.89,21.94l-0.04,0.04l0.06,0.07l0.01,0.01l0.01-0.01l0.02-0.09L10.89,21.94"/>
					<path class="st3" d="M11.03,22.04l-0.02,0.04l-0.09-0.01l-0.01-0.01l0.01-0.01L11,22L11.03,22.04"/>
					<ellipse class="st3" cx="10.91" cy="22.06" rx="0.03" ry="0.03"/>
					<path class="st3" d="M11.06,22.08c0-0.01,0-0.02,0.01-0.02c0.01,0,0.02,0.01,0.02,0.02c0,0.01,0,0.02-0.01,0.02
						C11.07,22.1,11.06,22.09,11.06,22.08z"/>
					<path class="st3" d="M11.12,22.03l0.03,0.04l0.09-0.03l0.01-0.01l-0.01-0.01l-0.09-0.02L11.12,22.03"/>
					<path class="st3" d="M11.24,21.9l-0.06,0.03l0.04,0.09l0.01,0.01l0.01-0.01l0.04-0.09L11.24,21.9"/>
					<path class="st3" d="M11.36,22.03l-0.02,0.04l-0.09-0.03l-0.01-0.01l0.01-0.01l0.09-0.02L11.36,22.03"/>
					<ellipse class="st3" cx="11.24" cy="22.03" rx="0.03" ry="0.03"/>
					<path class="st3" d="M11.42,22.08c0-0.01-0.01-0.02-0.01-0.02s-0.02,0.01-0.02,0.02c0,0.01,0,0.02,0.01,0.02
						C11.41,22.1,11.42,22.09,11.42,22.08z"/>
					<path class="st3" d="M11.46,22.04l0.02,0.04l0.09-0.01l0.01-0.01l-0.01-0.01L11.49,22L11.46,22.04"/>
					<path class="st3" d="M11.6,21.94l0.04,0.04l-0.06,0.07l-0.01,0.01l-0.01-0.01l-0.02-0.09L11.6,21.94"/>
					<path class="st3" d="M11.69,22.08l-0.03,0.03l-0.08-0.04l-0.01-0.01l0.01-0.01l0.09-0.01L11.69,22.08"/>
					<ellipse class="st3" cx="11.57" cy="22.06" rx="0.03" ry="0.03"/>
					<path class="st3" d="M11.73,22.14c0-0.01,0-0.02-0.01-0.03c-0.01,0-0.02,0.01-0.02,0.02c0,0.01,0,0.02,0.01,0.03
						C11.72,22.16,11.73,22.15,11.73,22.14z"/>
					<path class="st3" d="M11.89,22.14c0,0,0.02-0.03,0.04-0.05c0.01-0.01,0.04-0.02,0.04-0.02c0-0.01-0.02-0.02-0.04-0.02
						c-0.01,0-0.02,0-0.03,0.01l0-0.01c0,0-0.02,0-0.02,0.02c-0.01,0.02,0,0.05,0,0.05S11.88,22.14,11.89,22.14L11.89,22.14z"/>
					<path class="st3" d="M11.77,22.09l0.01,0.04l0.09,0.01l0.01-0.01l0-0.01l-0.07-0.06L11.77,22.09"/>
					<path class="st3" d="M11.89,22.13c-0.01-0.01-0.02-0.01-0.03,0s-0.02,0.02-0.01,0.03c0.01,0.01,0.02,0.01,0.03,0
						C11.89,22.15,11.9,22.14,11.89,22.13z"/>
				</g>
				<g id="crown_pt2_00000001631445394739689770000001729847095384909990_">
					<path class="st2" d="M10.76,22.36l0.02-0.03l0.04,0.01l-0.02,0.04L10.76,22.36"/>
					<path class="st5" d="M10.93,22.32l-0.04,0.01c-0.01,0-0.02-0.01-0.02-0.02c0-0.01,0.01-0.02,0.02-0.02l0.04-0.01l0.05-0.01
						c0.01,0,0.02,0.01,0.02,0.02c0,0.01-0.01,0.02-0.02,0.02L10.93,22.32"/>
					<ellipse class="st6" cx="11.08" cy="22.29" rx="0.03" ry="0.03"/>
					<path class="st2" d="M11.24,22.3h-0.06c-0.01,0-0.02-0.01-0.02-0.02c0-0.01,0.01-0.02,0.02-0.02h0.13
						c0.01,0,0.02,0.01,0.02,0.02c0,0.01-0.01,0.02-0.02,0.02H11.24"/>
					<ellipse class="st6" cx="11.4" cy="22.29" rx="0.03" ry="0.03"/>
					<path class="st5" d="M11.55,22.32l0.04,0.01c0.01,0,0.02-0.01,0.02-0.02c0-0.01-0.01-0.02-0.02-0.02l-0.04-0.01l-0.05-0.01
						c-0.01,0-0.02,0.01-0.02,0.02c0,0.01,0.01,0.02,0.02,0.02L11.55,22.32"/>
					<path class="st2" d="M11.73,22.36l-0.02-0.03l-0.04,0l0.02,0.04L11.73,22.36"/>
					<path class="st2" d="M11.24,22.47c-0.16,0-0.3-0.01-0.4-0.04c0.11-0.03,0.25-0.04,0.4-0.04c0.16,0,0.3,0.02,0.41,0.04
						C11.54,22.46,11.4,22.47,11.24,22.47z"/>
					<path class="st4" d="M11.32,22.47v-0.07 M11.28,22.47l0-0.08 M11.25,22.47v-0.08"/>
					<path class="st4" d="M11.23,22.47v-0.08"/>
					<path class="st4" d="M11.21,22.47v-0.08"/>
					<path class="st4" d="M11.19,22.47v-0.08"/>
					<path class="st4" d="M11.16,22.47v-0.08"/>
					<path class="st4" d="M11.15,22.47v-0.08"/>
					<path class="st4" d="M11.11,22.47l0-0.07 M11.13,22.47v-0.08"/>
					<path class="st4" d="M11.08,22.47V22.4 M11.1,22.47l0-0.07"/>
					<path class="st4" d="M11.03,22.46V22.4 M11.05,22.46V22.4 M11.06,22.47V22.4"/>
					<path class="st4" d="M11.02,22.46V22.4"/>
					<path class="st4" d="M11.01,22.46V22.4"/>
					<path class="st4" d="M10.99,22.46v-0.05"/>
					<path class="st4" d="M10.96,22.45l0-0.04 M10.98,22.46v-0.04"/>
					<path class="st4" d="M10.94,22.45v-0.04"/>
					<path class="st4" d="M10.93,22.45v-0.03"/>
					<path class="st4" d="M10.91,22.44v-0.02"/>
					<path class="st4" d="M10.9,22.44v-0.02"/>
					<path class="st4" d="M10.88,22.44L10.88,22.44"/>
				</g>
			</g>
			<g id="pillar_left_00000067936414092774741830000017891431798112136895_">
				<g>
					<path class="st7" d="M12.24,29.16c-0.1,0-0.19-0.02-0.25-0.06c-0.06-0.03-0.15-0.05-0.25-0.05c-0.1,0-0.19,0.02-0.25,0.05
						c-0.06,0.03-0.15,0.06-0.25,0.06c-0.1,0-0.19-0.02-0.25-0.06c-0.06-0.03-0.15-0.05-0.24-0.05c-0.1,0-0.18,0.02-0.25,0.05
						c-0.07,0.03-0.15,0.06-0.25,0.06v0.15c0.1,0,0.19-0.02,0.25-0.06c0.06-0.03,0.15-0.05,0.25-0.05c0.09,0,0.18,0.02,0.24,0.05
						c0.06,0.03,0.15,0.06,0.25,0.06c0.1,0,0.19-0.02,0.25-0.06c0.06-0.03,0.15-0.05,0.25-0.05c0.1,0,0.18,0.02,0.25,0.05
						c0.07,0.03,0.15,0.06,0.25,0.06L12.24,29.16L12.24,29.16z"/>
					<path class="st8" d="M12.24,29.32c-0.1,0-0.19-0.02-0.25-0.06c-0.06-0.03-0.15-0.05-0.25-0.05c-0.1,0-0.19,0.02-0.25,0.05
						c-0.06,0.03-0.15,0.06-0.25,0.06c-0.1,0-0.19-0.02-0.25-0.06c-0.06-0.03-0.15-0.05-0.24-0.05c-0.1,0-0.18,0.02-0.25,0.05
						c-0.07,0.03-0.15,0.06-0.25,0.06v0.15c0.1,0,0.19-0.02,0.25-0.06c0.06-0.03,0.15-0.05,0.25-0.05c0.09,0,0.18,0.02,0.24,0.05
						c0.06,0.03,0.15,0.06,0.25,0.06c0.1,0,0.19-0.02,0.25-0.06s0.15-0.05,0.25-0.05c0.1,0,0.18,0.02,0.25,0.05
						c0.07,0.03,0.15,0.06,0.25,0.06L12.24,29.32"/>
					<path class="st7" d="M12.24,29.47c-0.1,0-0.19-0.02-0.25-0.06c-0.06-0.03-0.15-0.05-0.25-0.05c-0.1,0-0.19,0.02-0.25,0.05
						s-0.15,0.06-0.25,0.06c-0.1,0-0.19-0.02-0.25-0.06c-0.06-0.03-0.15-0.05-0.24-0.05c-0.1,0-0.18,0.02-0.25,0.05
						c-0.07,0.03-0.15,0.06-0.25,0.06v0.15c0.1,0,0.19-0.02,0.25-0.06c0.06-0.03,0.15-0.05,0.25-0.05c0.09,0,0.18,0.02,0.24,0.05
						c0.06,0.03,0.15,0.06,0.25,0.06c0.1,0,0.19-0.02,0.25-0.05c0.06-0.03,0.15-0.05,0.25-0.05c0.1,0,0.18,0.02,0.25,0.05
						c0.07,0.04,0.15,0.06,0.25,0.06L12.24,29.47"/>
					<path class="st8" d="M12.24,29.78c-0.1,0-0.18-0.02-0.25-0.06c-0.06-0.03-0.15-0.05-0.25-0.05c-0.1,0-0.19,0.02-0.25,0.05
						s-0.15,0.06-0.25,0.06c-0.1,0-0.19-0.02-0.25-0.06c-0.06-0.03-0.15-0.05-0.24-0.05c-0.1,0-0.18,0.02-0.25,0.05
						c-0.07,0.03-0.15,0.06-0.25,0.06v-0.15c0.1,0,0.19-0.02,0.25-0.06c0.06-0.03,0.15-0.05,0.25-0.05c0.09,0,0.18,0.02,0.24,0.05
						c0.06,0.03,0.15,0.06,0.25,0.06c0.1,0,0.19-0.02,0.25-0.05c0.06-0.03,0.15-0.05,0.25-0.05c0.1,0,0.18,0.02,0.25,0.05
						c0.07,0.04,0.15,0.06,0.25,0.06L12.24,29.78"/>
					<path class="st7" d="M12.24,29.93c-0.1,0-0.18-0.02-0.25-0.06c-0.06-0.03-0.15-0.05-0.25-0.05c-0.1,0-0.19,0.02-0.25,0.05
						c-0.06,0.03-0.15,0.06-0.25,0.06c-0.1,0-0.19-0.02-0.25-0.06c-0.06-0.03-0.15-0.05-0.24-0.05c-0.1,0-0.18,0.02-0.25,0.05
						c-0.07,0.03-0.15,0.06-0.25,0.06v-0.15c0.1,0,0.19-0.02,0.25-0.06c0.06-0.03,0.15-0.05,0.25-0.05c0.09,0,0.18,0.02,0.24,0.05
						c0.06,0.03,0.15,0.06,0.25,0.06c0.1,0,0.19-0.02,0.25-0.06c0.06-0.03,0.15-0.05,0.25-0.05c0.1,0,0.18,0.02,0.25,0.05
						c0.07,0.03,0.15,0.06,0.25,0.06L12.24,29.93L12.24,29.93z"/>
				</g>
				<g>
					<path class="st3" d="M10.68,28.53c0,0.01,0.01,0.03,0.01,0.04c0,0.09-0.08,0.17-0.18,0.17h1.47c-0.1,0-0.18-0.07-0.18-0.17
						c0-0.01,0-0.03,0.01-0.04c-0.01,0-0.02,0-0.03,0h-1.07C10.7,28.53,10.69,28.53,10.68,28.53z"/>
					<path class="st3" d="M10.71,28.43h1.07c0.04,0,0.07,0.02,0.07,0.05c0,0.03-0.03,0.05-0.07,0.05h-1.07
						c-0.04,0-0.07-0.02-0.07-0.05C10.64,28.46,10.67,28.43,10.71,28.43z"/>
					<path class="st3" d="M10.51,29.11h1.46v-0.37h-1.46V29.11z"/>
				</g>
				<path class="st8" d="M10.72,28.37h1.04v-5.1h-1.04V28.37z"/>
				<path class="st4" d="M11.46,23.28v5.09 M11.58,23.28v5.09"/>
				<g>
					<path class="st3" d="M10.53,22.87h1.43V22.5h-1.43L10.53,22.87L10.53,22.87z"/>
					<path class="st3" d="M10.68,23.12c0.01,0,0.02,0,0.03,0h1.07c0.01,0,0.02,0,0.03,0.01c-0.04-0.01-0.06-0.05-0.06-0.08
						s0.03-0.07,0.07-0.09c-0.01,0-0.02,0.01-0.03,0.01h-1.07c-0.01,0-0.02,0-0.03,0l0.01,0c0.04,0.01,0.06,0.05,0.06,0.08
						C10.74,23.07,10.72,23.11,10.68,23.12L10.68,23.12z"/>
					<path class="st3" d="M10.71,23.12h1.07c0.04,0,0.07,0.02,0.07,0.05c0,0.03-0.03,0.05-0.07,0.05h-1.07
						c-0.04,0-0.07-0.02-0.07-0.05C10.64,23.14,10.67,23.12,10.71,23.12z"/>
					<path class="st3" d="M10.71,22.87h1.07c0.04,0,0.07,0.02,0.07,0.04c0,0.02-0.03,0.04-0.07,0.04h-1.07
						c-0.04,0-0.07-0.02-0.07-0.04C10.64,22.89,10.67,22.87,10.71,22.87z"/>
				</g>
			</g>
			<g id="ribbon_left_00000134956940225597782530000017228534229073443202_">
				<path class="st2" d="M10.4,27.11c-0.14,0.08-0.24,0.17-0.23,0.21c0.01,0.04,0.05,0.07,0.12,0.11c0.1,0.07,0.17,0.2,0.12,0.26
					c0.09-0.07,0.14-0.17,0.14-0.29C10.55,27.29,10.49,27.18,10.4,27.11z"/>
				<path class="st2" d="M12.83,25.18c-0.23-0.09-0.61-0.16-1.06-0.18c-0.15,0-0.32,0.02-0.5,0.04c-0.62,0.1-1.1,0.35-1.06,0.55
					c0,0,0,0.01,0,0.02c0,0-0.23-0.53-0.24-0.55c-0.04-0.22,0.48-0.5,1.17-0.62c0.22-0.04,0.43-0.05,0.61-0.05
					c0.44,0,0.83,0.06,1.06,0.14L12.83,25.18"/>
				<path class="st2" d="M10.72,25.82c-0.29-0.02-0.49-0.1-0.51-0.22c-0.02-0.1,0.08-0.2,0.25-0.3c0.08,0.01,0.17,0.02,0.26,0.02
					L10.72,25.82"/>
				<path class="st2" d="M11.77,25.43c0.18,0.03,0.32,0.07,0.38,0.13l0.01,0.01c0.03,0.07-0.13,0.21-0.39,0.36L11.77,25.43"/>
				<path class="st2" d="M10.07,26.81c-0.03-0.08,0.25-0.25,0.65-0.39c0.18-0.06,0.33-0.13,0.52-0.21c0.55-0.24,0.96-0.52,0.91-0.63
					l-0.01-0.01c0.03,0.02,0.08,0.53,0.08,0.53c0.05,0.09-0.32,0.37-0.83,0.61c-0.16,0.08-0.51,0.2-0.67,0.26
					c-0.29,0.1-0.58,0.29-0.55,0.36L10.07,26.81L10.07,26.81L10.07,26.81z"/>
			</g>
			<g id="crown_right_00000080208868123288490580000007370460863939004563_">
				<path class="st2" d="M20.79,22.11c0,0-0.05,0.05-0.08,0.06c-0.03,0.01-0.08-0.03-0.08-0.03s-0.03,0.03-0.07,0.04
					c-0.04,0.01-0.09-0.04-0.09-0.04s-0.04,0.05-0.07,0.06c-0.03,0.01-0.07-0.02-0.07-0.02s-0.01,0.02-0.04,0.04
					c-0.01,0.01-0.03,0-0.03,0l-0.04-0.02l-0.04-0.05l-0.04-0.02c0,0-0.02-0.06-0.02-0.07c0-0.01-0.01-0.04-0.01-0.04
					c-0.01-0.04,0.06-0.09,0.15-0.11c0.05-0.01,0.1-0.01,0.13,0c0.04-0.03,0.11-0.05,0.2-0.05c0.08,0,0.15,0.02,0.19,0.04
					c0.04-0.03,0.11-0.04,0.19-0.04c0.09,0,0.17,0.02,0.2,0.05c0.03-0.01,0.08-0.01,0.13,0c0.09,0.02,0.16,0.07,0.15,0.11
					c0,0,0,0.03-0.01,0.04c0,0.01-0.02,0.07-0.02,0.07l-0.04,0.02l-0.04,0.05l-0.04,0.02c0,0-0.02,0.01-0.03,0
					c-0.03-0.01-0.04-0.04-0.04-0.04s-0.04,0.03-0.07,0.02c-0.03-0.01-0.07-0.06-0.07-0.06s-0.05,0.05-0.09,0.04
					c-0.04-0.01-0.07-0.04-0.07-0.04s-0.04,0.04-0.08,0.03C20.84,22.16,20.79,22.11,20.79,22.11L20.79,22.11z"/>
				<g>
					<ellipse class="st3" cx="20.79" cy="21.84" rx="0.09" ry="0.13"/>
					<ellipse class="st3" cx="20.79" cy="21.84" rx="0.04" ry="0.12"/>
					<ellipse class="st3" cx="20.79" cy="21.69" rx="0.06" ry="0.06"/>
					<path class="st3" d="M20.87,21.67v0.04h-0.16v-0.04h0.06v-0.08h-0.04v-0.04h0.04v-0.04h0.04v0.04h0.04v0.04h-0.04v0.08H20.87"
						/>
					<path class="st4" d="M20.81,21.64c0.03,0.01,0.05,0.04,0.04,0.07c-0.01,0.03-0.04,0.05-0.07,0.04
						c-0.03-0.01-0.05-0.04-0.04-0.07c0.01-0.02,0.02-0.03,0.04-0.04"/>
				</g>
				<g>
					<path class="st4" d="M20.12,22.08c-0.01-0.02-0.01-0.04-0.01-0.07c0-0.1,0.08-0.18,0.18-0.18c0.03,0,0.06,0.01,0.09,0.02"/>
					<path class="st4" d="M20.45,21.95c-0.01-0.02-0.02-0.03-0.02-0.05c0-0.07,0.08-0.13,0.17-0.13c0.04,0,0.08,0.01,0.11,0.03"/>
					<path class="st4" d="M21.13,21.95c0.01-0.02,0.02-0.04,0.02-0.06c0-0.07-0.08-0.13-0.17-0.13c-0.04,0-0.08,0.01-0.1,0.03"/>
					<path class="st4" d="M21.45,22.08c0.01-0.02,0.01-0.04,0.01-0.07c0-0.1-0.08-0.18-0.18-0.18c-0.03,0-0.06,0.01-0.09,0.02"/>
					<ellipse class="st4" cx="20.07" cy="22" rx="0.03" ry="0.03"/>
					<ellipse class="st4" cx="20.08" cy="21.89" rx="0.03" ry="0.03"/>
					<ellipse class="st4" cx="20.14" cy="21.82" rx="0.03" ry="0.03"/>
					<ellipse class="st4" cx="20.23" cy="21.78" rx="0.03" ry="0.03"/>
					<ellipse class="st4" cx="20.32" cy="21.78" rx="0.03" ry="0.03"/>
					<ellipse class="st6" cx="20.38" cy="21.89" rx="0.03" ry="0.03"/>
					<ellipse class="st4" cx="20.4" cy="21.8" rx="0.03" ry="0.03"/>
					<ellipse class="st4" cx="20.47" cy="21.74" rx="0.03" ry="0.03"/>
					<ellipse class="st4" cx="20.56" cy="21.71" rx="0.03" ry="0.03"/>
					<ellipse class="st4" cx="20.65" cy="21.71" rx="0.03" ry="0.03"/>
					<ellipse class="st4" cx="20.92" cy="21.71" rx="0.03" ry="0.03"/>
					<ellipse class="st4" cx="21.02" cy="21.71" rx="0.03" ry="0.03"/>
					<ellipse class="st4" cx="21.11" cy="21.74" rx="0.03" ry="0.03"/>
					<ellipse class="st4" cx="21.18" cy="21.8" rx="0.03" ry="0.03"/>
					<ellipse class="st6" cx="21.2" cy="21.89" rx="0.03" ry="0.03"/>
					<ellipse class="st4" cx="21.25" cy="21.78" rx="0.03" ry="0.03"/>
					<ellipse class="st4" cx="21.34" cy="21.78" rx="0.03" ry="0.03"/>
					<ellipse class="st4" cx="21.43" cy="21.82" rx="0.03" ry="0.03"/>
					<ellipse class="st4" cx="21.5" cy="21.89" rx="0.03" ry="0.03"/>
					<ellipse class="st4" cx="21.51" cy="22" rx="0.03" ry="0.03"/>
				</g>
				<g>
					<g id="crown_pt1_00000114768999307861679100000016509824947741846192_">
						<path class="st3" d="M20.34,22.35c-0.01-0.04-0.04-0.07-0.04-0.07c0.12-0.04,0.3-0.06,0.49-0.06c0.19,0,0.37,0.02,0.49,0.06
							c0,0-0.01,0.02-0.03,0.06c-0.01,0.02-0.02,0.05-0.02,0.05c-0.11-0.03-0.26-0.05-0.44-0.05c-0.18,0-0.35,0.02-0.44,0.06
							C20.35,22.4,20.34,22.38,20.34,22.35L20.34,22.35"/>
						<path class="st3" d="M20.79,22.51c0.16,0,0.33-0.02,0.39-0.04c0.04-0.01,0.07-0.03,0.06-0.05c0-0.01-0.01-0.02-0.02-0.02
							c-0.09-0.03-0.26-0.05-0.43-0.05c-0.17,0-0.34,0.02-0.43,0.05c-0.01,0.01-0.02,0.01-0.02,0.02c0,0.02,0.02,0.04,0.06,0.05
							C20.46,22.49,20.63,22.51,20.79,22.51z"/>
						<path class="st3" d="M21.29,22.21l-0.04-0.03c0,0-0.04,0.02-0.08,0.02c-0.04-0.01-0.06-0.06-0.06-0.06s-0.05,0.04-0.09,0.04
							c-0.04,0-0.07-0.04-0.07-0.04s-0.05,0.03-0.09,0.03c-0.04,0-0.08-0.05-0.08-0.05s-0.04,0.05-0.08,0.06
							c-0.04,0-0.07-0.03-0.07-0.03s-0.02,0.04-0.07,0.05s-0.09-0.04-0.09-0.04s-0.03,0.05-0.06,0.06
							c-0.03,0.01-0.08-0.02-0.08-0.02s-0.01,0.02-0.01,0.03c-0.01,0.01-0.02,0.01-0.02,0.01l0.01,0.03
							c0.12-0.04,0.29-0.06,0.48-0.06s0.36,0.02,0.49,0.06L21.29,22.21L21.29,22.21L21.29,22.21z"/>
						<path class="st3" d="M20.79,22.05l0.02,0c0,0.01,0,0.02,0,0.02c0,0.04,0.03,0.07,0.07,0.07c0.03,0,0.06-0.02,0.07-0.05
							c0,0,0.01-0.02,0.01-0.02c0,0,0,0.03,0,0.03c0,0.03,0.04,0.06,0.07,0.06c0.04,0,0.07-0.03,0.07-0.07c0,0,0-0.01,0-0.01
							l0.02-0.02l0.01,0.03c0,0.01-0.01,0.02-0.01,0.03c0,0.04,0.03,0.06,0.07,0.06c0.02,0,0.04-0.01,0.06-0.03l0.01-0.02v0.02
							c0,0.02,0.01,0.04,0.03,0.05c0,0,0.02,0,0.06-0.02c0.03-0.03,0.05-0.05,0.05-0.05l0,0.03c0,0-0.03,0.05-0.06,0.07
							c-0.02,0.01-0.04,0.02-0.06,0.02c-0.02,0-0.04-0.02-0.04-0.04c-0.01,0.01-0.03,0.01-0.05,0.01c-0.04,0-0.08-0.02-0.09-0.06
							c-0.02,0.02-0.04,0.03-0.07,0.03c-0.03,0-0.06-0.01-0.08-0.04c-0.02,0.02-0.04,0.03-0.07,0.03c-0.04,0-0.07-0.02-0.09-0.04
							c-0.02,0.03-0.05,0.04-0.09,0.04c-0.03,0-0.05-0.01-0.07-0.03c-0.02,0.02-0.05,0.04-0.08,0.04c-0.03,0-0.06-0.01-0.07-0.03
							c-0.01,0.03-0.05,0.06-0.09,0.06c-0.02,0-0.04-0.01-0.05-0.01c-0.01,0.02-0.02,0.04-0.04,0.04c-0.02,0-0.04-0.01-0.06-0.02
							c-0.03-0.02-0.07-0.07-0.07-0.07l0-0.03c0,0,0.02,0.02,0.05,0.05c0.03,0.03,0.06,0.02,0.06,0.02c0.02,0,0.03-0.02,0.03-0.05
							v-0.02l0.01,0.02c0.01,0.02,0.03,0.03,0.06,0.03c0.04,0,0.07-0.03,0.07-0.06c0-0.01,0-0.02-0.01-0.03l0.01-0.03l0.02,0.02
							c0,0,0,0.01,0,0.01c0,0.04,0.03,0.07,0.07,0.07c0.04,0,0.07-0.02,0.07-0.06c0,0,0-0.03,0-0.03c0,0,0.01,0.02,0.01,0.02
							c0.01,0.03,0.04,0.05,0.07,0.05c0.04,0,0.07-0.03,0.07-0.07c0-0.01,0-0.02,0-0.02L20.79,22.05L20.79,22.05L20.79,22.05z"/>
						<path class="st3" d="M20.79,22.22c-0.19,0-0.37,0.02-0.49,0.06c-0.01,0-0.02,0-0.02-0.01c0-0.01,0-0.02,0.01-0.02
							c0.12-0.04,0.3-0.06,0.5-0.06c0.2,0,0.38,0.02,0.5,0.06c0.01,0,0.01,0.01,0.01,0.02c0,0.01-0.01,0.01-0.02,0.01
							C21.16,22.25,20.98,22.22,20.79,22.22z"/>
						<path class="st3" d="M20.13,22.14c0,0-0.02-0.03-0.04-0.05c-0.01-0.01-0.04-0.02-0.04-0.02c0-0.01,0.02-0.02,0.04-0.02
							c0.01,0,0.02,0,0.03,0.01l0-0.01c0,0,0.02,0,0.02,0.02c0.01,0.02,0,0.05,0,0.05S20.14,22.14,20.13,22.14L20.13,22.14z"/>
						<path class="st3" d="M20.26,22.09l-0.01,0.04l-0.09,0.01l-0.01-0.01l0-0.01l0.07-0.06L20.26,22.09"/>
						<path class="st3" d="M20.14,22.13c0.01-0.01,0.02-0.01,0.03,0c0.01,0.01,0.02,0.02,0.01,0.03c-0.01,0.01-0.02,0.01-0.03,0
							C20.13,22.15,20.13,22.14,20.14,22.13z"/>
						<path class="st3" d="M20.3,22.14c0-0.01,0-0.02,0.01-0.03c0.01,0,0.02,0.01,0.02,0.02c0,0.01,0,0.02-0.01,0.03
							C20.31,22.16,20.3,22.15,20.3,22.14z"/>
						<path class="st3" d="M20.34,22.08l0.03,0.03l0.08-0.04l0.01-0.01l-0.01-0.01l-0.09-0.01L20.34,22.08"/>
						<path class="st3" d="M20.43,21.94l-0.04,0.04l0.06,0.07l0.01,0.01l0.01-0.01l0.02-0.09L20.43,21.94"/>
						<path class="st3" d="M20.58,22.04l-0.02,0.04l-0.09-0.01l-0.01-0.01l0.01-0.01L20.54,22L20.58,22.04"/>
						<ellipse class="st3" cx="20.46" cy="22.06" rx="0.03" ry="0.03"/>
						<path class="st3" d="M20.61,22.08c0-0.01,0-0.02,0.01-0.02c0.01,0,0.02,0.01,0.02,0.02c0,0.01,0,0.02-0.01,0.02
							C20.62,22.1,20.61,22.09,20.61,22.08z"/>
						<path class="st3" d="M20.67,22.03l0.03,0.04l0.09-0.03l0.01-0.01l-0.01-0.01l-0.09-0.02L20.67,22.03"/>
						<path class="st3" d="M20.79,21.9l-0.06,0.03l0.04,0.09l0.01,0.01l0.01-0.01l0.04-0.09L20.79,21.9"/>
						<path class="st3" d="M20.91,22.03l-0.02,0.04l-0.09-0.03l-0.01-0.01l0.01-0.01l0.09-0.02L20.91,22.03"/>
						<ellipse class="st3" cx="20.79" cy="22.03" rx="0.03" ry="0.03"/>
						<path class="st3" d="M20.97,22.08c0-0.01-0.01-0.02-0.01-0.02c-0.01,0-0.02,0.01-0.02,0.02c0,0.01,0,0.02,0.01,0.02
							C20.96,22.1,20.97,22.09,20.97,22.08z"/>
						<path class="st3" d="M21,22.04l0.02,0.04l0.09-0.01l0.01-0.01l-0.01-0.01L21.04,22L21,22.04"/>
						<path class="st3" d="M21.15,21.94l0.04,0.04l-0.06,0.07l-0.01,0.01l-0.01-0.01l-0.02-0.09L21.15,21.94"/>
						<path class="st3" d="M21.24,22.08l-0.03,0.03l-0.08-0.04l-0.01-0.01l0.01-0.01l0.09-0.01L21.24,22.08"/>
						<ellipse class="st3" cx="21.12" cy="22.06" rx="0.03" ry="0.03"/>
						<path class="st3" d="M21.28,22.14c0-0.01,0-0.02-0.01-0.03c-0.01,0-0.02,0.01-0.02,0.02c0,0.01,0,0.02,0.01,0.03
							C21.27,22.16,21.28,22.15,21.28,22.14z"/>
						<path class="st3" d="M21.43,22.14c0,0,0.02-0.03,0.04-0.05c0.01-0.01,0.04-0.02,0.04-0.02c0-0.01-0.02-0.02-0.04-0.02
							c-0.01,0-0.02,0-0.03,0.01l0-0.01c0,0-0.02,0-0.02,0.02c-0.01,0.02,0,0.05,0,0.05S21.43,22.14,21.43,22.14L21.43,22.14z"/>
						<path class="st3" d="M21.31,22.09l0.01,0.04l0.09,0.01l0.01-0.01l0-0.01l-0.07-0.06L21.31,22.09"/>
						<path class="st3" d="M21.43,22.13c-0.01-0.01-0.02-0.01-0.03,0c-0.01,0.01-0.02,0.02-0.01,0.03c0.01,0.01,0.02,0.01,0.03,0
							C21.44,22.15,21.44,22.14,21.43,22.13z"/>
					</g>
				</g>
				<g>
					<g id="crown_pt2_00000159458616311667661920000007493007353724666035_">
						<path class="st2" d="M20.3,22.36l0.02-0.03l0.04,0.01l-0.02,0.04L20.3,22.36"/>
						<path class="st5" d="M20.48,22.32l-0.04,0.01c-0.01,0-0.02-0.01-0.02-0.02c0-0.01,0.01-0.02,0.02-0.02l0.04-0.01l0.05-0.01
							c0.01,0,0.02,0.01,0.02,0.02c0,0.01-0.01,0.02-0.02,0.02L20.48,22.32"/>
						<ellipse class="st6" cx="20.63" cy="22.29" rx="0.03" ry="0.03"/>
						<path class="st2" d="M20.79,22.3h-0.06c-0.01,0-0.02-0.01-0.02-0.02c0-0.01,0.01-0.02,0.02-0.02h0.13
							c0.01,0,0.02,0.01,0.02,0.02c0,0.01-0.01,0.02-0.02,0.02H20.79"/>
						<ellipse class="st6" cx="20.95" cy="22.29" rx="0.03" ry="0.03"/>
						<path class="st5" d="M21.1,22.32l0.04,0.01c0.01,0,0.02-0.01,0.02-0.02c0-0.01-0.01-0.02-0.02-0.02l-0.04-0.01l-0.05-0.01
							c-0.01,0-0.02,0.01-0.02,0.02c0,0.01,0.01,0.02,0.02,0.02L21.1,22.32"/>
						<path class="st2" d="M21.27,22.36l-0.02-0.03l-0.04,0l0.02,0.04L21.27,22.36"/>
						<path class="st2" d="M20.79,22.47c-0.16,0-0.3-0.01-0.4-0.04c0.11-0.03,0.25-0.04,0.4-0.04c0.16,0,0.3,0.02,0.41,0.04
							C21.09,22.46,20.95,22.47,20.79,22.47z"/>
						<path class="st4" d="M20.86,22.47v-0.07 M20.82,22.47l0-0.08 M20.8,22.47v-0.08"/>
						<path class="st4" d="M20.78,22.47v-0.08"/>
						<path class="st4" d="M20.75,22.47v-0.08"/>
						<path class="st4" d="M20.73,22.47v-0.08"/>
						<path class="st4" d="M20.71,22.47v-0.08"/>
						<path class="st4" d="M20.69,22.47v-0.08"/>
						<path class="st4" d="M20.66,22.47l0-0.07 M20.67,22.47v-0.08"/>
						<path class="st4" d="M20.63,22.47V22.4 M20.64,22.47l0-0.07"/>
						<path class="st4" d="M20.58,22.46V22.4 M20.6,22.46V22.4 M20.61,22.47V22.4"/>
						<path class="st4" d="M20.57,22.46V22.4"/>
						<path class="st4" d="M20.55,22.46V22.4"/>
						<path class="st4" d="M20.54,22.46v-0.05"/>
						<path class="st4" d="M20.51,22.45l0-0.04 M20.52,22.46v-0.04"/>
						<path class="st4" d="M20.49,22.45v-0.04"/>
						<path class="st4" d="M20.48,22.45v-0.03"/>
						<path class="st4" d="M20.46,22.44v-0.02"/>
						<path class="st4" d="M20.44,22.44v-0.02"/>
						<path class="st4" d="M20.43,22.44L20.43,22.44"/>
					</g>
				</g>
			</g>
			<g id="pillar_right_00000004534834819658241900000005545565071209506721_">
				<g id="pillar_left_00000110445428356256518490000015450886112740387722_">
					<g>
						<path class="st7" d="M21.79,29.16c-0.1,0-0.19-0.02-0.25-0.06c-0.06-0.03-0.15-0.05-0.25-0.05c-0.1,0-0.19,0.02-0.25,0.05
							c-0.06,0.03-0.15,0.06-0.25,0.06c-0.1,0-0.19-0.02-0.25-0.06c-0.06-0.03-0.15-0.05-0.24-0.05c-0.1,0-0.18,0.02-0.25,0.05
							c-0.07,0.03-0.15,0.06-0.25,0.06v0.15c0.1,0,0.19-0.02,0.25-0.06c0.06-0.03,0.15-0.05,0.25-0.05c0.09,0,0.18,0.02,0.24,0.05
							c0.06,0.03,0.15,0.06,0.25,0.06c0.1,0,0.19-0.02,0.25-0.06c0.06-0.03,0.15-0.05,0.25-0.05c0.1,0,0.18,0.02,0.25,0.05
							c0.07,0.03,0.15,0.06,0.25,0.06L21.79,29.16L21.79,29.16z"/>
						<path class="st8" d="M21.79,29.32c-0.1,0-0.19-0.02-0.25-0.06c-0.06-0.03-0.15-0.05-0.25-0.05c-0.1,0-0.19,0.02-0.25,0.05
							c-0.06,0.03-0.15,0.06-0.25,0.06c-0.1,0-0.19-0.02-0.25-0.06c-0.06-0.03-0.15-0.05-0.24-0.05c-0.1,0-0.18,0.02-0.25,0.05
							c-0.07,0.03-0.15,0.06-0.25,0.06v0.15c0.1,0,0.19-0.02,0.25-0.06c0.06-0.03,0.15-0.05,0.25-0.05c0.09,0,0.18,0.02,0.24,0.05
							c0.06,0.03,0.15,0.06,0.25,0.06c0.1,0,0.19-0.02,0.25-0.06c0.06-0.03,0.15-0.05,0.25-0.05c0.1,0,0.18,0.02,0.25,0.05
							c0.07,0.03,0.15,0.06,0.25,0.06L21.79,29.32"/>
						<path class="st7" d="M21.79,29.47c-0.1,0-0.19-0.02-0.25-0.06c-0.06-0.03-0.15-0.05-0.25-0.05c-0.1,0-0.19,0.02-0.25,0.05
							c-0.06,0.03-0.15,0.06-0.25,0.06c-0.1,0-0.19-0.02-0.25-0.06c-0.06-0.03-0.15-0.05-0.24-0.05c-0.1,0-0.18,0.02-0.25,0.05
							c-0.07,0.03-0.15,0.06-0.25,0.06v0.15c0.1,0,0.19-0.02,0.25-0.06c0.06-0.03,0.15-0.05,0.25-0.05c0.09,0,0.18,0.02,0.24,0.05
							c0.06,0.03,0.15,0.06,0.25,0.06c0.1,0,0.19-0.02,0.25-0.05c0.06-0.03,0.15-0.05,0.25-0.05c0.1,0,0.18,0.02,0.25,0.05
							c0.07,0.04,0.15,0.06,0.25,0.06L21.79,29.47"/>
						<path class="st8" d="M21.79,29.78c-0.1,0-0.18-0.02-0.25-0.06c-0.06-0.03-0.15-0.05-0.25-0.05c-0.1,0-0.19,0.02-0.25,0.05
							s-0.15,0.06-0.25,0.06c-0.1,0-0.19-0.02-0.25-0.06c-0.06-0.03-0.15-0.05-0.24-0.05c-0.1,0-0.18,0.02-0.25,0.05
							c-0.07,0.03-0.15,0.06-0.25,0.06v-0.15c0.1,0,0.19-0.02,0.25-0.06c0.06-0.03,0.15-0.05,0.25-0.05c0.09,0,0.18,0.02,0.24,0.05
							c0.06,0.03,0.15,0.06,0.25,0.06c0.1,0,0.19-0.02,0.25-0.05c0.06-0.03,0.15-0.05,0.25-0.05c0.1,0,0.18,0.02,0.25,0.05
							c0.07,0.04,0.15,0.06,0.25,0.06L21.79,29.78"/>
						<path class="st7" d="M21.79,29.93c-0.1,0-0.18-0.02-0.25-0.06c-0.06-0.03-0.15-0.05-0.25-0.05c-0.1,0-0.19,0.02-0.25,0.05
							c-0.06,0.03-0.15,0.06-0.25,0.06c-0.1,0-0.19-0.02-0.25-0.06c-0.06-0.03-0.15-0.05-0.24-0.05c-0.1,0-0.18,0.02-0.25,0.05
							c-0.07,0.03-0.15,0.06-0.25,0.06v-0.15c0.1,0,0.19-0.02,0.25-0.06c0.06-0.03,0.15-0.05,0.25-0.05c0.09,0,0.18,0.02,0.24,0.05
							c0.06,0.03,0.15,0.06,0.25,0.06c0.1,0,0.19-0.02,0.25-0.06s0.15-0.05,0.25-0.05c0.1,0,0.18,0.02,0.25,0.05
							c0.07,0.03,0.15,0.06,0.25,0.06L21.79,29.93L21.79,29.93z"/>
					</g>
					<g>
						<path class="st3" d="M20.23,28.53c0,0.01,0.01,0.03,0.01,0.04c0,0.09-0.08,0.17-0.18,0.17h1.47c-0.1,0-0.18-0.07-0.18-0.17
							c0-0.01,0-0.03,0.01-0.04c-0.01,0-0.02,0-0.03,0h-1.07C20.25,28.53,20.24,28.53,20.23,28.53z"/>
						<path class="st3" d="M20.26,28.43h1.07c0.04,0,0.07,0.02,0.07,0.05c0,0.03-0.03,0.05-0.07,0.05h-1.07
							c-0.04,0-0.07-0.02-0.07-0.05C20.19,28.46,20.22,28.43,20.26,28.43z"/>
						<path class="st3" d="M20.06,29.11h1.46v-0.37h-1.46V29.11z"/>
					</g>
					<path class="st8" d="M20.27,28.37h1.04v-5.1h-1.04V28.37z"/>
					<path class="st4" d="M21.01,23.28v5.09 M21.13,23.28v5.09"/>
					<g>
						<path class="st3" d="M20.08,22.87h1.43V22.5h-1.43V22.87L20.08,22.87z"/>
						<path class="st3" d="M20.23,23.12c0.01,0,0.02,0,0.03,0h1.07c0.01,0,0.02,0,0.03,0.01c-0.04-0.01-0.06-0.05-0.06-0.08
							s0.03-0.07,0.07-0.09c-0.01,0-0.02,0.01-0.03,0.01h-1.07c-0.01,0-0.02,0-0.03,0l0.01,0c0.04,0.01,0.06,0.05,0.06,0.08
							C20.29,23.07,20.27,23.11,20.23,23.12L20.23,23.12z"/>
						<path class="st3" d="M20.26,23.12h1.07c0.04,0,0.07,0.02,0.07,0.05c0,0.03-0.03,0.05-0.07,0.05h-1.07
							c-0.04,0-0.07-0.02-0.07-0.05C20.19,23.14,20.22,23.12,20.26,23.12z"/>
						<path class="st3" d="M20.26,22.87h1.07c0.04,0,0.07,0.02,0.07,0.04c0,0.02-0.03,0.04-0.07,0.04h-1.07
							c-0.04,0-0.07-0.02-0.07-0.04C20.19,22.89,20.22,22.87,20.26,22.87z"/>
					</g>
				</g>
			</g>
			<g id="ribbon_right_00000047764352251534250030000000009158143409569199_" transform="matrix(-1,0,0,1,500.57,0)">
				<g id="ribbon_left_00000025440863785257573730000016192389071177629115_">
					<path class="st2" d="M21.64,27.11c0.14,0.08,0.24,0.17,0.23,0.21c-0.01,0.04-0.05,0.07-0.12,0.11c-0.1,0.07-0.17,0.2-0.12,0.26
						c-0.09-0.07-0.14-0.17-0.14-0.29C21.49,27.29,21.55,27.18,21.64,27.11z"/>
					<path class="st2" d="M19.21,25.18c0.23-0.09,0.61-0.16,1.06-0.18c0.15,0,0.32,0.02,0.5,0.04c0.62,0.1,1.1,0.35,1.06,0.55
						c0,0,0,0.01,0,0.02c0,0,0.23-0.53,0.24-0.55c0.04-0.22-0.48-0.5-1.17-0.62c-0.22-0.04-0.43-0.05-0.61-0.05
						c-0.44,0-0.83,0.06-1.06,0.14L19.21,25.18"/>
					<path class="st2" d="M21.32,25.82c0.29-0.02,0.49-0.1,0.51-0.22c0.02-0.1-0.08-0.2-0.25-0.3c-0.08,0.01-0.17,0.02-0.26,0.02
						L21.32,25.82"/>
					<path class="st2" d="M20.27,25.43c-0.18,0.03-0.32,0.07-0.38,0.13l-0.01,0.01c-0.03,0.07,0.13,0.21,0.39,0.36L20.27,25.43"/>
					<path class="st2" d="M21.96,26.81c0.03-0.08-0.25-0.25-0.65-0.39c-0.18-0.06-0.33-0.13-0.52-0.21
						c-0.55-0.24-0.96-0.52-0.91-0.63l0.01-0.01c-0.03,0.02-0.08,0.53-0.08,0.53c-0.05,0.09,0.32,0.37,0.83,0.61
						c0.16,0.08,0.51,0.2,0.67,0.26c0.29,0.1,0.58,0.29,0.55,0.36L21.96,26.81L21.96,26.81L21.96,26.81z"/>
				</g>
			</g>
			<g id="plus_ultra_00000112616717775796898850000001793387364020182407_">
				<path class="st3" d="M10.65,24.94c0.13-0.05,0.21-0.1,0.17-0.2c-0.03-0.06-0.09-0.08-0.19-0.04l-0.17,0.06l0.16,0.39
					c0.02-0.01,0.03-0.02,0.05-0.02c0.02-0.01,0.04-0.01,0.05-0.02L10.65,24.94L10.65,24.94L10.65,24.94z M10.58,24.75l0.04-0.02
					c0.04-0.01,0.08,0.01,0.1,0.05c0.01,0.03,0.01,0.07-0.03,0.1c-0.01,0.01-0.03,0.01-0.04,0.02L10.58,24.75"/>
				<path class="st3" d="M11.06,24.59C11.04,24.6,11.02,24.6,11,24.6c-0.02,0-0.04,0.01-0.06,0.01l0.09,0.4l0.28-0.06
					c0-0.01-0.01-0.02-0.01-0.02c0-0.01,0-0.02,0-0.03c-0.05,0.01-0.1,0.03-0.17,0.04L11.06,24.59"/>
				<path class="st3" d="M11.62,24.94c0.05-0.15,0.12-0.29,0.18-0.43c-0.01,0-0.02,0-0.03,0c-0.01,0-0.02,0-0.03,0
					c-0.03,0.1-0.08,0.21-0.12,0.31c-0.05-0.1-0.11-0.19-0.16-0.29c-0.02,0-0.04,0.01-0.07,0.01c-0.02,0-0.04,0-0.07,0
					c0.08,0.13,0.16,0.26,0.23,0.4c0.01,0,0.02,0,0.03-0.01C11.6,24.93,11.61,24.94,11.62,24.94"/>
				<path class="st3" d="M12.21,24.63c0.01-0.02,0.02-0.04,0.03-0.06c-0.02-0.01-0.06-0.04-0.12-0.04
					c-0.11-0.01-0.18,0.04-0.19,0.11c-0.02,0.14,0.21,0.13,0.2,0.23c0,0.04-0.05,0.06-0.09,0.05c-0.05-0.01-0.09-0.03-0.1-0.08
					l-0.01,0c-0.01,0.02-0.02,0.05-0.03,0.07c0.03,0.02,0.08,0.03,0.12,0.04c0.12,0.01,0.21-0.03,0.21-0.11
					c0.01-0.14-0.22-0.15-0.21-0.23c0-0.03,0.03-0.06,0.09-0.05c0.04,0,0.07,0.03,0.08,0.06L12.21,24.63"/>
				<path class="st3" d="M19.86,24.96c0.04-0.15,0.09-0.29,0.14-0.44c-0.01,0-0.02,0.01-0.03,0.01c-0.01,0-0.02,0-0.03,0
					c-0.02,0.1-0.06,0.21-0.09,0.32c-0.06-0.09-0.13-0.18-0.18-0.28c-0.02,0-0.04,0.01-0.07,0.01c-0.02,0-0.04,0-0.07,0.01
					c0.09,0.12,0.18,0.25,0.27,0.38c0.01,0,0.02-0.01,0.03-0.01C19.84,24.96,19.85,24.96,19.86,24.96"/>
				<path class="st3" d="M20.25,24.52c-0.02,0-0.04,0-0.06,0c-0.02,0-0.04,0-0.06,0l-0.01,0.41l0.29,0.01c0-0.01,0-0.02,0-0.03
					s0-0.02,0-0.03c-0.05,0-0.11,0.01-0.17,0.01L20.25,24.52"/>
				<path class="st3" d="M20.71,24.59c0.05,0,0.09,0.01,0.13,0.02c0-0.01,0-0.02,0-0.03c0-0.01,0-0.02,0.01-0.02l-0.39-0.03
					c0,0.01,0,0.02,0,0.03c0,0.01,0,0.02-0.01,0.03c0.04,0,0.09,0,0.14,0l-0.03,0.37c0.02,0,0.04,0,0.06,0c0.02,0,0.04,0,0.06,0.01
					L20.71,24.59"/>
				<path class="st3" d="M20.86,24.99C20.88,25,20.9,25,20.92,25c0.02,0,0.04,0.01,0.05,0.01l0.05-0.19l0.01,0
					c0.01,0.03,0.02,0.06,0.03,0.08l0.06,0.14c0.02,0,0.05,0.01,0.07,0.01c0.02,0.01,0.04,0.01,0.07,0.02l-0.02-0.04
					c-0.03-0.06-0.06-0.13-0.09-0.19c0.07,0,0.13-0.02,0.14-0.08c0.01-0.04-0.01-0.07-0.04-0.1c-0.03-0.02-0.08-0.03-0.12-0.04
					l-0.16-0.03L20.86,24.99 M21.07,24.65c0.05,0.01,0.1,0.02,0.1,0.07c0,0.01,0,0.02,0,0.03c-0.01,0.06-0.06,0.08-0.14,0.06
					L21.07,24.65"/>
				<path class="st3" d="M21.6,25.12c0,0.04-0.01,0.09-0.02,0.13c0.02,0.01,0.04,0.02,0.06,0.03c0.02,0.01,0.04,0.02,0.06,0.03
					l0.04-0.46c-0.01,0-0.02-0.01-0.03-0.01c-0.01,0-0.02-0.01-0.02-0.02l-0.41,0.26c0.01,0.01,0.02,0.01,0.03,0.02
					c0.01,0.01,0.02,0.01,0.03,0.02c0.03-0.03,0.07-0.05,0.11-0.08L21.6,25.12L21.6,25.12z M21.49,25.01l0.14-0.09l-0.02,0.15
					L21.49,25.01"/>
			</g>
		</g>
		<g id="crown_crest_00000052811947248458135340000016648852848352753281_">
			<path class="st2" d="M15.98,19.69c0.42,0,0.8,0.06,1.05,0.16c0.14,0.06,0.33,0.11,0.54,0.14c0.16,0.02,0.31,0.02,0.44,0.02
				c0.17,0,0.43,0.05,0.68,0.16c0.21,0.09,0.38,0.21,0.5,0.31l-0.1,0.09l-0.03,0.25l-0.28,0.31l-0.14,0.12l-0.33,0.26l-0.17,0.01
				l-0.05,0.14l-2.11-0.25l-2.11,0.25l-0.05-0.14l-0.17-0.01l-0.33-0.26l-0.14-0.12l-0.28-0.31l-0.03-0.25l-0.1-0.09
				c0.12-0.11,0.29-0.22,0.5-0.31c0.25-0.11,0.5-0.16,0.68-0.16c0.13,0.01,0.28,0.01,0.44-0.02c0.21-0.03,0.4-0.07,0.54-0.14
				C15.2,19.76,15.55,19.69,15.98,19.69L15.98,19.69z"/>
			<g>
				<path class="st3" d="M14.42,20.25l0.09,0.07l0.13-0.22c-0.14-0.09-0.24-0.24-0.24-0.42c0-0.02,0-0.04,0-0.06
					c0.01-0.28,0.35-0.51,0.78-0.51c0.22,0,0.42,0.06,0.57,0.16c0-0.04,0.01-0.08,0.01-0.12c-0.16-0.09-0.36-0.15-0.58-0.15
					c-0.49,0-0.88,0.28-0.9,0.61c0,0.02,0,0.04,0,0.06c0,0.18,0.08,0.34,0.21,0.45L14.42,20.25"/>
				<path class="st3" d="M14.43,20.25c-0.17-0.13-0.27-0.3-0.27-0.49c0-0.22,0.14-0.41,0.36-0.54c-0.13,0.11-0.21,0.25-0.22,0.4
					c0,0.02,0,0.04,0,0.06c0,0.18,0.08,0.34,0.21,0.45L14.43,20.25"/>
				<path class="st3" d="M12.94,20.47c-0.09-0.11-0.15-0.24-0.15-0.39c0-0.09,0.02-0.18,0.06-0.25c0.14-0.28,0.56-0.48,1.07-0.48
					c0.14,0,0.27,0.01,0.39,0.04c-0.03,0.03-0.05,0.06-0.07,0.09c-0.1-0.02-0.21-0.03-0.32-0.03c-0.47,0-0.86,0.18-0.97,0.43
					c-0.03,0.06-0.05,0.13-0.05,0.2c0,0.15,0.07,0.28,0.18,0.37l-0.17,0.28l-0.09-0.07L12.94,20.47L12.94,20.47z"/>
				<path class="st3" d="M13.11,19.55c-0.12,0.08-0.22,0.17-0.27,0.28c-0.04,0.08-0.06,0.16-0.06,0.25c0,0.15,0.06,0.29,0.15,0.39
					l-0.1,0.17c-0.1-0.13-0.15-0.27-0.15-0.43C12.68,19.94,12.86,19.71,13.11,19.55L13.11,19.55z"/>
				<path class="st3" d="M16,18.96c0.11,0,0.21,0.07,0.23,0.17c0.01,0.09,0.02,0.19,0.03,0.3c0,0.01,0,0.02,0,0.03
					c0,0.01,0,0.03,0,0.04c0,0.23,0.04,0.42,0.08,0.55L16,20.38l-0.35-0.33c0.05-0.12,0.08-0.32,0.08-0.55c0-0.01,0-0.03,0-0.04
					c0-0.01,0-0.02,0-0.03c0-0.11,0.01-0.21,0.03-0.3C15.79,19.04,15.89,18.96,16,18.96L16,18.96z"/>
				<path class="st3" d="M16,19.07c0.06,0,0.11,0.04,0.12,0.09c0.01,0.08,0.02,0.18,0.03,0.28c0,0.01,0,0.02,0,0.03
					c0,0.01,0,0.02,0,0.04c0,0.21,0.03,0.4,0.08,0.52L16,20.24l-0.23-0.21c0.04-0.12,0.07-0.3,0.08-0.52c0-0.01,0-0.02,0-0.04
					c0-0.01,0-0.02,0-0.03c0-0.1,0.01-0.2,0.03-0.28C15.89,19.11,15.94,19.07,16,19.07z"/>
				<path class="st3" d="M17.58,20.25l-0.09,0.07l-0.13-0.22c0.14-0.09,0.24-0.24,0.24-0.42c0-0.02,0-0.04,0-0.06
					c-0.01-0.28-0.35-0.51-0.78-0.51c-0.22,0-0.42,0.06-0.57,0.16c0-0.04-0.01-0.08-0.01-0.12c0.16-0.09,0.36-0.15,0.58-0.15
					c0.49,0,0.88,0.28,0.9,0.61c0,0.02,0,0.04,0,0.06c0,0.18-0.08,0.34-0.21,0.45L17.58,20.25"/>
				<path class="st3" d="M17.58,20.25c0.17-0.13,0.27-0.3,0.27-0.49c0-0.22-0.14-0.41-0.36-0.54c0.13,0.11,0.21,0.25,0.22,0.4
					c0,0.02,0,0.04,0,0.06c0,0.18-0.08,0.34-0.21,0.45L17.58,20.25"/>
				<path class="st3" d="M19.06,20.47c0.09-0.11,0.15-0.24,0.15-0.39c0-0.09-0.02-0.18-0.06-0.25c-0.14-0.28-0.56-0.48-1.07-0.48
					c-0.14,0-0.27,0.01-0.39,0.04c0.03,0.03,0.05,0.06,0.07,0.09c0.1-0.02,0.21-0.03,0.32-0.03c0.47,0,0.85,0.18,0.97,0.43
					c0.03,0.06,0.05,0.13,0.05,0.2c0,0.15-0.07,0.28-0.18,0.37l0.17,0.28l0.09-0.07L19.06,20.47z"/>
				<path class="st3" d="M18.89,19.55c0.12,0.08,0.22,0.17,0.27,0.28c0.04,0.08,0.06,0.16,0.06,0.25c0,0.15-0.06,0.29-0.15,0.39
					l0.1,0.17c0.1-0.13,0.15-0.27,0.15-0.43C19.32,19.94,19.15,19.71,18.89,19.55L18.89,19.55z"/>
				<ellipse class="st7" cx="16" cy="18.71" rx="0.28" ry="0.27"/>
				<path class="st3" d="M15.93,17.95v0.14h-0.15v0.15h0.15v0.2v0.22h-0.2c0,0.01-0.01,0.02-0.01,0.04c0,0.04,0.01,0.07,0.02,0.1
					c0,0,0,0,0,0h0.52c0,0,0,0,0,0c0.01-0.03,0.02-0.07,0.02-0.1c0-0.01-0.01-0.02-0.01-0.04h-0.19v-0.22v-0.2h0.15V18.1h-0.15
					v-0.14L15.93,17.95L15.93,17.95z"/>
			</g>
			<g>
				<ellipse class="st6" cx="16" cy="20.09" rx="0.12" ry="0.12"/>
				<ellipse class="st6" cx="16" cy="19.87" rx="0.12" ry="0.12"/>
				<ellipse class="st6" cx="16" cy="19.62" rx="0.1" ry="0.09"/>
				<ellipse class="st6" cx="16" cy="19.4" rx="0.07" ry="0.07"/>
				<ellipse class="st6" cx="16" cy="19.21" rx="0.06" ry="0.05"/>
				<ellipse class="st6" cx="12.73" cy="20.71" rx="0.07" ry="0.07"/>
				<ellipse class="st6" cx="12.64" cy="20.55" rx="0.07" ry="0.07"/>
				<ellipse class="st6" cx="12.57" cy="20.35" rx="0.07" ry="0.07"/>
				<ellipse class="st6" cx="12.56" cy="20.14" rx="0.07" ry="0.07"/>
				<ellipse class="st6" cx="12.62" cy="19.93" rx="0.07" ry="0.07"/>
				<ellipse class="st6" cx="12.72" cy="19.74" rx="0.07" ry="0.07"/>
				<ellipse class="st6" cx="12.87" cy="19.59" rx="0.07" ry="0.07"/>
				<ellipse class="st6" cx="13.04" cy="19.46" rx="0.07" ry="0.07"/>
				<ellipse class="st6" cx="13.24" cy="19.35" rx="0.07" ry="0.07"/>
				<ellipse class="st6" cx="13.44" cy="19.28" rx="0.07" ry="0.07"/>
				<ellipse class="st6" cx="13.67" cy="19.23" rx="0.07" ry="0.07"/>
				<ellipse class="st6" cx="13.89" cy="19.22" rx="0.07" ry="0.07"/>
				<ellipse class="st6" cx="14.11" cy="19.23" rx="0.07" ry="0.07"/>
				<ellipse class="st6" cx="14.35" cy="20.18" rx="0.07" ry="0.07"/>
				<ellipse class="st6" cx="14.23" cy="20.01" rx="0.07" ry="0.07"/>
				<ellipse class="st6" cx="14.17" cy="19.82" rx="0.07" ry="0.07"/>
				<ellipse class="st6" cx="14.17" cy="19.62" rx="0.07" ry="0.07"/>
				<ellipse class="st6" cx="14.22" cy="19.42" rx="0.07" ry="0.07"/>
				<ellipse class="st6" cx="14.33" cy="19.23" rx="0.07" ry="0.07"/>
				<ellipse class="st6" cx="14.49" cy="19.1" rx="0.07" ry="0.07"/>
				<ellipse class="st6" cx="14.68" cy="19" rx="0.07" ry="0.07"/>
				<ellipse class="st6" cx="14.89" cy="18.93" rx="0.07" ry="0.07"/>
				<ellipse class="st6" cx="15.11" cy="18.89" rx="0.07" ry="0.07"/>
				<ellipse class="st6" cx="15.33" cy="18.9" rx="0.07" ry="0.07"/>
				<ellipse class="st6" cx="15.55" cy="18.94" rx="0.07" ry="0.07"/>
				<ellipse class="st6" cx="15.76" cy="19.01" rx="0.07" ry="0.07"/>
				<ellipse class="st6" cx="16.24" cy="19.01" rx="0.07" ry="0.07"/>
				<ellipse class="st6" cx="16.45" cy="18.94" rx="0.07" ry="0.07"/>
				<ellipse class="st6" cx="16.67" cy="18.9" rx="0.07" ry="0.07"/>
				<ellipse class="st6" cx="16.89" cy="18.89" rx="0.07" ry="0.07"/>
				<ellipse class="st6" cx="17.11" cy="18.93" rx="0.07" ry="0.07"/>
				<ellipse class="st6" cx="17.32" cy="19" rx="0.07" ry="0.07"/>
				<ellipse class="st6" cx="17.51" cy="19.1" rx="0.07" ry="0.07"/>
				<ellipse class="st6" cx="17.68" cy="19.23" rx="0.07" ry="0.07"/>
				<ellipse class="st6" cx="17.78" cy="19.42" rx="0.07" ry="0.07"/>
				<ellipse class="st6" cx="17.83" cy="19.62" rx="0.07" ry="0.07"/>
				<ellipse class="st6" cx="17.84" cy="19.82" rx="0.07" ry="0.07"/>
				<ellipse class="st6" cx="17.77" cy="20.01" rx="0.07" ry="0.07"/>
				<ellipse class="st6" cx="17.65" cy="20.18" rx="0.07" ry="0.07"/>
				<ellipse class="st6" cx="17.89" cy="19.23" rx="0.07" ry="0.07"/>
				<ellipse class="st6" cx="18.11" cy="19.22" rx="0.07" ry="0.07"/>
				<ellipse class="st6" cx="18.33" cy="19.23" rx="0.07" ry="0.07"/>
				<ellipse class="st6" cx="18.56" cy="19.28" rx="0.07" ry="0.07"/>
				<ellipse class="st6" cx="18.77" cy="19.35" rx="0.07" ry="0.07"/>
				<ellipse class="st6" cx="18.97" cy="19.46" rx="0.07" ry="0.07"/>
				<ellipse class="st6" cx="19.13" cy="19.59" rx="0.07" ry="0.07"/>
				<ellipse class="st6" cx="19.28" cy="19.74" rx="0.07" ry="0.07"/>
				<ellipse class="st6" cx="19.39" cy="19.93" rx="0.07" ry="0.07"/>
				<ellipse class="st6" cx="19.44" cy="20.14" rx="0.07" ry="0.07"/>
				<ellipse class="st6" cx="19.43" cy="20.35" rx="0.07" ry="0.07"/>
				<ellipse class="st6" cx="19.37" cy="20.55" rx="0.07" ry="0.07"/>
				<ellipse class="st6" cx="19.27" cy="20.71" rx="0.07" ry="0.07"/>
			</g>
			<g>
				<path class="st3" d="M16.01,22.48c-0.78,0-1.49-0.09-1.99-0.25c-0.04-0.01-0.06-0.04-0.05-0.08c0-0.03,0.02-0.06,0.05-0.07
					c0.5-0.15,1.21-0.24,1.99-0.25c0.79,0,1.49,0.09,1.99,0.25c0.04,0.01,0.05,0.04,0.05,0.07c0,0.04-0.02,0.07-0.05,0.08
					C17.5,22.38,16.79,22.47,16.01,22.48"/>
				<path class="st3" d="M16,21.83c-0.79,0-1.51,0.1-2.01,0.26c0.04-0.02,0.04-0.07-0.01-0.2c-0.06-0.16-0.16-0.15-0.16-0.15
					c0.55-0.16,1.33-0.27,2.19-0.27c0.86,0,1.64,0.1,2.19,0.27c0,0-0.1-0.01-0.16,0.15c-0.05,0.13-0.06,0.18-0.01,0.2
					C17.53,21.93,16.8,21.83,16,21.83"/>
				<path class="st3" d="M16.01,21.46c-0.86,0-1.63,0.1-2.19,0.27c-0.04,0.01-0.08,0-0.09-0.04s0.01-0.08,0.04-0.09
					c0.56-0.17,1.35-0.28,2.23-0.28c0.88,0,1.68,0.11,2.23,0.28c0.04,0.01,0.06,0.05,0.04,0.09c-0.01,0.04-0.05,0.05-0.09,0.04
					C17.64,21.56,16.87,21.46,16.01,21.46"/>
				<path class="st3" d="M16.01,20.79l0.08,0.01c-0.01,0.03-0.02,0.07-0.02,0.1c0,0.16,0.14,0.3,0.31,0.3c0.14,0,0.26-0.09,0.3-0.21
					c0.01,0,0.03-0.11,0.04-0.11c0.01,0,0.01,0.12,0.01,0.11c0.02,0.15,0.16,0.25,0.31,0.25c0.17,0,0.31-0.13,0.31-0.3
					c0-0.01,0-0.02,0-0.04l0.1-0.1l0.05,0.12c-0.02,0.04-0.03,0.08-0.03,0.13c0,0.16,0.13,0.28,0.3,0.28c0.1,0,0.2-0.05,0.25-0.13
					l0.06-0.08l0,0.1c0,0.1,0.04,0.19,0.14,0.2c0,0,0.11,0.01,0.26-0.11c0.15-0.12,0.23-0.21,0.23-0.21l0.01,0.12
					c0,0-0.12,0.19-0.25,0.27c-0.07,0.04-0.18,0.09-0.27,0.07c-0.09-0.02-0.16-0.09-0.19-0.18c-0.07,0.04-0.14,0.06-0.23,0.06
					c-0.18,0-0.34-0.1-0.4-0.25c-0.08,0.09-0.2,0.14-0.33,0.14c-0.14,0-0.27-0.06-0.36-0.16c-0.08,0.07-0.19,0.12-0.31,0.12
					c-0.16,0-0.3-0.08-0.38-0.2c-0.08,0.12-0.22,0.2-0.38,0.2c-0.12,0-0.23-0.05-0.31-0.12c-0.08,0.1-0.21,0.16-0.36,0.16
					c-0.14,0-0.25-0.05-0.33-0.14c-0.06,0.15-0.23,0.25-0.4,0.25c-0.08,0-0.16-0.02-0.23-0.06c-0.03,0.09-0.1,0.16-0.19,0.18
					c-0.09,0.01-0.2-0.03-0.27-0.07c-0.13-0.08-0.25-0.27-0.25-0.27l0.01-0.12c0,0,0.08,0.1,0.23,0.21
					c0.15,0.12,0.26,0.11,0.26,0.11c0.1-0.02,0.14-0.1,0.14-0.2l0-0.1l0.06,0.08c0.05,0.08,0.15,0.13,0.25,0.13
					c0.17,0,0.3-0.13,0.3-0.28c0-0.05-0.01-0.09-0.03-0.13l0.05-0.12l0.1,0.1c0,0.01,0,0.02,0,0.04c0,0.16,0.14,0.3,0.31,0.3
					c0.15,0,0.29-0.1,0.31-0.25c0,0,0-0.11,0.01-0.11c0.01,0,0.04,0.11,0.04,0.11c0.04,0.12,0.16,0.21,0.3,0.21
					c0.17,0,0.31-0.13,0.31-0.3c0-0.04,0-0.07-0.02-0.1L16.01,20.79"/>
				<path class="st3" d="M13.34,21.2c-0.01-0.02-0.02-0.05-0.05-0.07c-0.05-0.04-0.12-0.05-0.15-0.02c0,0-0.01,0.01-0.01,0.02
					c0,0-0.07-0.13-0.15-0.18c-0.08-0.04-0.22-0.03-0.22-0.03c0-0.1,0.08-0.18,0.19-0.18c0.06,0,0.12,0.03,0.16,0.07l0.01-0.07
					c0,0,0.09,0.02,0.13,0.12c0.04,0.1,0,0.24,0,0.24s0.02-0.06,0.05-0.1c0.03-0.04,0.12-0.09,0.16-0.11
					c0.04-0.02,0.09-0.05,0.09-0.05s0,0.01,0,0.04c0,0.03,0,0.05,0,0.05c0.08-0.01,0.17,0,0.25,0.03c-0.03,0.06-0.09,0.12-0.17,0.15
					c0,0,0.03,0.02,0.05,0.05c0.02,0.02,0.03,0.03,0.03,0.03s-0.05,0.01-0.08,0.01c-0.03,0-0.12,0.02-0.17,0.01
					C13.41,21.22,13.36,21.21,13.34,21.2"/>
				<path class="st2" d="M13.14,21.12c0.03-0.03,0.1-0.03,0.15,0.02c0.05,0.04,0.07,0.11,0.03,0.14c-0.03,0.03-0.1,0.03-0.15-0.02
					C13.12,21.22,13.11,21.15,13.14,21.12"/>
				<path class="st6" d="M13.85,21.18c-0.02-0.05,0-0.11,0.04-0.12c0.04-0.01,0.08,0.02,0.1,0.07c0.02,0.05,0,0.11-0.04,0.12
					C13.91,21.26,13.87,21.23,13.85,21.18"/>
				<path class="st3" d="M14.47,20.92c-0.02-0.02-0.04-0.04-0.04-0.07s0-0.06,0.01-0.08c0,0-0.06-0.03-0.12-0.04
					c-0.05-0.01-0.13-0.01-0.15-0.01c-0.02,0-0.07,0-0.07,0s0,0.01,0.02,0.04c0.02,0.03,0.03,0.05,0.03,0.05
					c-0.08,0.02-0.15,0.07-0.19,0.13c0.06,0.04,0.15,0.07,0.23,0.06c0,0-0.01,0.02-0.01,0.06c0,0.03,0,0.04,0,0.04
					s0.05-0.02,0.07-0.02c0.02-0.01,0.1-0.04,0.14-0.06C14.43,20.96,14.47,20.92,14.47,20.92"/>
				<path class="st3" d="M14.44,20.27c0.07,0.04,0.13,0.11,0.15,0.19c0,0,0.01-0.02,0.05-0.04c0.04-0.02,0.07-0.02,0.07-0.02
					s-0.01,0.06-0.02,0.08c-0.01,0.02-0.01,0.09-0.02,0.15c-0.01,0.06-0.04,0.11-0.04,0.11c-0.03-0.02-0.06-0.03-0.1-0.03
					c-0.04,0.01-0.07,0.03-0.08,0.06c0,0-0.04-0.04-0.08-0.09c-0.04-0.05-0.06-0.11-0.07-0.13c-0.01-0.02-0.05-0.07-0.05-0.07
					s0.03-0.01,0.07,0c0.04,0.01,0.06,0.02,0.06,0.02C14.37,20.41,14.39,20.33,14.44,20.27"/>
				<path class="st3" d="M14.65,20.89c0.01-0.02,0.02-0.05,0.02-0.08s-0.02-0.05-0.04-0.07c0,0,0.04-0.05,0.09-0.08
					c0.04-0.03,0.12-0.05,0.14-0.06c0.02-0.01,0.07-0.03,0.07-0.03s0,0.01,0,0.04c-0.01,0.03-0.01,0.06-0.01,0.06
					c0.08-0.01,0.17,0.02,0.23,0.06c-0.04,0.06-0.11,0.11-0.19,0.13c0,0,0.01,0.02,0.03,0.05c0.01,0.02,0.02,0.04,0.02,0.04
					s-0.05,0-0.07,0c-0.02,0-0.11,0-0.15-0.01C14.71,20.92,14.65,20.89,14.65,20.89"/>
				<ellipse class="st2" cx="14.55" cy="20.83" rx="0.14" ry="0.13"/>
				<path class="st6" d="M15.22,20.91c-0.01-0.06,0.02-0.1,0.06-0.11c0.04,0,0.08,0.04,0.09,0.09c0.01,0.06-0.02,0.1-0.06,0.11
					C15.26,21.01,15.22,20.97,15.22,20.91"/>
				<path class="st3" d="M15.9,20.79c-0.02-0.02-0.03-0.05-0.03-0.09c0-0.03,0.01-0.06,0.03-0.08c0,0-0.06-0.04-0.12-0.07
					c-0.05-0.02-0.14-0.04-0.17-0.04c-0.03-0.01-0.08-0.02-0.08-0.02s0,0.01,0.01,0.04c0.01,0.04,0.03,0.06,0.03,0.06
					c-0.09,0.01-0.18,0.05-0.24,0.11c0.06,0.06,0.15,0.11,0.24,0.11c0,0-0.01,0.02-0.03,0.06c-0.01,0.03-0.01,0.04-0.01,0.04
					s0.05-0.01,0.08-0.02c0.03-0.01,0.12-0.02,0.17-0.04C15.85,20.83,15.9,20.79,15.9,20.79"/>
				<path class="st3" d="M16.01,20.06c0.07,0.06,0.12,0.15,0.12,0.24c0,0,0.01-0.02,0.06-0.03c0.05-0.02,0.08-0.01,0.08-0.01
					s-0.02,0.07-0.04,0.09c-0.01,0.02-0.02,0.1-0.05,0.16c-0.03,0.06-0.07,0.11-0.07,0.11c-0.03-0.03-0.06-0.05-0.11-0.05
					c-0.04,0-0.08,0.02-0.11,0.05c0,0-0.04-0.05-0.07-0.11c-0.03-0.06-0.04-0.14-0.05-0.16c-0.01-0.02-0.04-0.09-0.04-0.09
					s0.04-0.01,0.08,0.01c0.05,0.02,0.06,0.03,0.06,0.03C15.89,20.21,15.94,20.12,16.01,20.06"/>
				<path class="st3" d="M16.11,20.79c0.02-0.02,0.03-0.05,0.03-0.09c0-0.03-0.01-0.06-0.03-0.08c0,0,0.06-0.04,0.12-0.07
					c0.05-0.02,0.14-0.04,0.17-0.04c0.03-0.01,0.08-0.02,0.08-0.02s0,0.01-0.01,0.04c-0.01,0.04-0.03,0.06-0.03,0.06
					c0.09,0.01,0.18,0.05,0.24,0.11c-0.06,0.06-0.15,0.11-0.24,0.11c0,0,0.01,0.02,0.03,0.06c0.01,0.03,0.01,0.04,0.01,0.04
					L16.4,20.9c-0.03-0.01-0.12-0.02-0.17-0.04C16.17,20.83,16.11,20.79,16.11,20.79"/>
				<ellipse class="st2" cx="16.01" cy="20.7" rx="0.14" ry="0.13"/>
				<path class="st6" d="M16.81,20.91c0.01-0.06-0.02-0.1-0.06-0.11c-0.04,0-0.08,0.04-0.09,0.09c-0.01,0.06,0.02,0.1,0.06,0.11
					C16.76,21.01,16.8,20.97,16.81,20.91"/>
				<path class="st3" d="M17.37,20.89c-0.01-0.02-0.02-0.05-0.02-0.08c0.01-0.03,0.02-0.05,0.04-0.07c0,0-0.04-0.05-0.09-0.08
					c-0.04-0.03-0.12-0.05-0.14-0.06c-0.02-0.01-0.07-0.03-0.07-0.03s0,0.01,0,0.04c0.01,0.03,0.01,0.06,0.01,0.06
					c-0.08-0.01-0.17,0.02-0.23,0.06c0.04,0.06,0.11,0.11,0.19,0.13c0,0-0.01,0.02-0.03,0.05c-0.01,0.02-0.02,0.04-0.02,0.04l0.07,0
					c0.02,0,0.11,0,0.15-0.01C17.31,20.92,17.37,20.89,17.37,20.89"/>
				<path class="st3" d="M17.58,20.27c-0.07,0.04-0.13,0.11-0.15,0.19c0,0-0.01-0.02-0.05-0.04c-0.04-0.02-0.07-0.02-0.07-0.02
					s0.01,0.06,0.02,0.08c0.01,0.02,0.01,0.09,0.02,0.15c0.01,0.06,0.04,0.11,0.04,0.11c0.03-0.02,0.06-0.03,0.1-0.03
					c0.04,0.01,0.07,0.03,0.09,0.06c0,0,0.04-0.04,0.08-0.09c0.03-0.05,0.06-0.11,0.07-0.13c0.01-0.02,0.05-0.07,0.05-0.07
					s-0.03-0.01-0.07,0c-0.04,0.01-0.06,0.02-0.06,0.02C17.65,20.41,17.63,20.33,17.58,20.27"/>
				<path class="st3" d="M17.55,20.92c0.02-0.02,0.04-0.04,0.04-0.07c0.01-0.03,0-0.06-0.01-0.08c0,0,0.06-0.03,0.12-0.04
					c0.05-0.01,0.13-0.01,0.15-0.01c0.02,0,0.07,0,0.07,0s0,0.01-0.02,0.04c-0.02,0.03-0.03,0.05-0.03,0.05
					c0.08,0.02,0.15,0.07,0.19,0.13C18,20.97,17.92,21,17.83,20.99c0,0,0.01,0.02,0.01,0.06c0,0.03,0,0.04,0,0.04
					s-0.05-0.02-0.07-0.02c-0.02-0.01-0.1-0.04-0.14-0.06C17.59,20.96,17.55,20.92,17.55,20.92"/>
				<ellipse class="st2" cx="17.47" cy="20.83" rx="0.14" ry="0.13"/>
				<path class="st6" d="M18.17,21.18c0.02-0.05,0-0.11-0.04-0.12c-0.04-0.01-0.08,0.02-0.1,0.07c-0.02,0.05,0,0.11,0.04,0.12
					C18.11,21.26,18.15,21.23,18.17,21.18"/>
				<path class="st3" d="M18.69,21.2c0.01-0.02,0.02-0.05,0.05-0.07c0.05-0.04,0.12-0.05,0.15-0.02c0,0,0.01,0.01,0.01,0.02
					c0,0,0.07-0.13,0.15-0.18c0.08-0.04,0.22-0.03,0.22-0.03c0-0.1-0.08-0.18-0.19-0.18c-0.06,0-0.12,0.03-0.16,0.07l-0.01-0.07
					c0,0-0.09,0.02-0.13,0.12c-0.04,0.1,0,0.24,0,0.24s-0.02-0.06-0.05-0.1c-0.03-0.04-0.12-0.09-0.16-0.11
					c-0.04-0.02-0.09-0.05-0.09-0.05s0,0.01,0,0.04c0,0.03,0,0.05,0,0.05c-0.08-0.01-0.17,0-0.25,0.03
					c0.03,0.06,0.09,0.12,0.17,0.15c0,0-0.03,0.02-0.05,0.05c-0.02,0.02-0.03,0.03-0.03,0.03s0.05,0.01,0.08,0.01
					c0.03,0,0.12,0.02,0.17,0.01C18.62,21.22,18.66,21.21,18.69,21.2"/>
				<path class="st2" d="M18.88,21.12c-0.03-0.03-0.1-0.03-0.15,0.02c-0.05,0.04-0.07,0.11-0.03,0.14c0.03,0.03,0.1,0.03,0.15-0.02
					C18.9,21.22,18.92,21.15,18.88,21.12"/>
			</g>
			<g>
				<path class="st2" d="M16.01,22.37c-0.71,0-1.35-0.08-1.84-0.21c0.49-0.13,1.13-0.2,1.84-0.2c0.71,0,1.35,0.08,1.84,0.2
					C17.36,22.29,16.72,22.37,16.01,22.37L16.01,22.37z"/>
				<path class="st4" d="M16.51,22.35v-0.38 M16.32,22.37l0-0.41 M16.18,22.37v-0.42"/>
				<path class="st4" d="M16.06,22.38v-0.42"/>
				<path class="st4" d="M15.95,22.38v-0.42"/>
				<path class="st4" d="M15.84,22.38v-0.42"/>
				<path class="st4" d="M15.73,22.38v-0.42"/>
				<path class="st4" d="M15.64,22.38v-0.42"/>
				<path class="st4" d="M15.45,22.35l0-0.38 M15.54,22.36v-0.4"/>
				<path class="st4" d="M15.29,22.34v-0.35 M15.37,22.35l0-0.38"/>
				<path class="st4" d="M15.06,22.32v-0.31 M15.14,22.32V22 M15.21,22.33v-0.34"/>
				<path class="st4" d="M14.98,22.31v-0.3"/>
				<path class="st4" d="M14.91,22.3v-0.28"/>
				<path class="st4" d="M14.83,22.29v-0.26"/>
				<path class="st4" d="M14.67,22.27l0-0.21 M14.75,22.28v-0.23"/>
				<path class="st4" d="M14.59,22.25v-0.18"/>
				<path class="st4" d="M14.51,22.24v-0.15"/>
				<path class="st4" d="M14.43,22.22V22.1"/>
				<path class="st4" d="M14.34,22.21v-0.09"/>
				<path class="st4" d="M14.25,22.19v-0.04"/>
				<path class="st4" d="M14.09,22.19c0.5-0.14,1.17-0.23,1.92-0.23c0.75,0,1.43,0.09,1.92,0.23"/>
				<path class="st2" d="M13.87,21.9l0.08-0.1l0.22,0.03l-0.17,0.13L13.87,21.9"/>
				<path class="st6" d="M14.34,21.78c0-0.04,0.03-0.07,0.07-0.07c0.04,0,0.07,0.03,0.07,0.07c0,0.04-0.03,0.07-0.07,0.07
					C14.37,21.84,14.34,21.81,14.34,21.78"/>
				<path class="st5" d="M14.95,21.76l-0.15,0.02c-0.04,0-0.07-0.02-0.08-0.06c-0.01-0.04,0.02-0.07,0.06-0.07l0.15-0.02l0.15-0.02
					c0.04,0,0.07,0.02,0.08,0.06c0,0.04-0.02,0.07-0.06,0.07L14.95,21.76"/>
				<path class="st6" d="M15.39,21.65c0-0.04,0.03-0.07,0.07-0.07c0.04,0,0.07,0.03,0.07,0.07c0,0.04-0.03,0.07-0.07,0.07
					C15.43,21.72,15.39,21.69,15.39,21.65"/>
				<path class="st2" d="M16.01,21.71H15.8c-0.04,0-0.07-0.03-0.07-0.07c0-0.04,0.03-0.07,0.07-0.07h0.42
					c0.04,0,0.07,0.03,0.07,0.07c0,0.04-0.03,0.07-0.07,0.07H16.01"/>
				<path class="st6" d="M16.48,21.65c0-0.04,0.03-0.07,0.07-0.07c0.04,0,0.07,0.03,0.07,0.07c0,0.04-0.03,0.07-0.07,0.07
					C16.52,21.72,16.48,21.69,16.48,21.65"/>
				<path class="st5" d="M17.07,21.76l0.15,0.02c0.04,0,0.07-0.02,0.08-0.06s-0.02-0.07-0.06-0.07l-0.15-0.02l-0.15-0.02
					c-0.04,0-0.07,0.02-0.08,0.06c-0.01,0.04,0.02,0.07,0.06,0.07L17.07,21.76"/>
				<path class="st6" d="M17.54,21.78c0-0.04,0.03-0.07,0.07-0.07c0.04,0,0.07,0.03,0.07,0.07c0,0.04-0.03,0.07-0.07,0.07
					C17.57,21.84,17.54,21.81,17.54,21.78"/>
				<path class="st2" d="M18.15,21.9l-0.08-0.1l-0.22,0.03l0.17,0.13L18.15,21.9"/>
			</g>
		</g>
		<g id="shield_00000011032162464215536950000018088031545864905653_">
			<g id="Granada_00000021084579273272386480000002820391885502261132_">
				<path class="st8" d="M16.03,30.04c-0.84,0-1.67-0.2-2.36-0.55c-0.51-0.25-0.86-0.77-0.86-1.36V26h6.43v2.13
					c0,0.59-0.34,1.1-0.86,1.36C17.69,29.83,16.87,30.04,16.03,30.04L16.03,30.04z"/>
				<path class="st9" d="M16.19,29.09c0.13,0.04,0.2,0.14,0.2,0.26c0,0.15-0.15,0.27-0.34,0.27c-0.19,0-0.35-0.12-0.35-0.27
					c0-0.11,0.06-0.24,0.2-0.25c0,0,0-0.01-0.02-0.03c-0.01-0.01-0.04-0.04-0.04-0.04s0.05-0.01,0.08,0
					c0.03,0.01,0.05,0.03,0.05,0.03s0.01-0.03,0.03-0.05c0.02-0.02,0.04-0.03,0.04-0.03s0.03,0.02,0.04,0.04
					c0.01,0.02,0.02,0.04,0.02,0.04s0.03-0.02,0.05-0.03c0.02-0.01,0.05-0.02,0.05-0.02s-0.01,0.03-0.01,0.04
					C16.19,29.06,16.19,29.09,16.19,29.09"/>
				<path class="st5" d="M16.02,29.78c0,0-0.25-0.17-0.36-0.19c-0.14-0.03-0.3-0.01-0.37-0.01c0,0,0.08,0.06,0.12,0.09
					c0.04,0.04,0.15,0.11,0.22,0.12C15.83,29.85,16.02,29.78,16.02,29.78"/>
				<path class="st5" d="M16.09,29.8c0,0,0.16-0.17,0.33-0.19c0.2-0.03,0.33,0.02,0.41,0.04c0,0-0.06,0.03-0.1,0.06
					c-0.04,0.02-0.13,0.1-0.26,0.1c-0.14,0-0.29-0.01-0.32-0.01C16.13,29.79,16.09,29.8,16.09,29.8"/>
				<path class="st2" d="M16.04,29.59c-0.06-0.06-0.1-0.14-0.1-0.24c0-0.09,0.04-0.18,0.1-0.24c0.06,0.06,0.1,0.14,0.1,0.24
					C16.15,29.44,16.11,29.53,16.04,29.59"/>
				<path class="st5" d="M15.98,29.93c0,0,0.04-0.1,0.04-0.18c0-0.07-0.01-0.14-0.01-0.14h0.03h0.02c0,0,0.02,0.07,0.02,0.14
					c0,0.07-0.01,0.15-0.01,0.15s-0.04,0.01-0.05,0.01C16.02,29.92,15.98,29.93,15.98,29.93"/>
			</g>
			<g id="Aragon_00000000916783137358086580000011083548753690393999_">
				<path class="st2" d="M16.02,28.13c0,0.84-0.71,1.52-1.6,1.52s-1.61-0.68-1.61-1.52V26h3.21V28.13"/>
				<path class="st3" d="M12.8,28.1c0.01,0.45,0.19,0.78,0.37,1v-3.17h-0.36L12.8,28.1L12.8,28.1z"/>
				<path class="st3" d="M13.51,29.39c0.1,0.05,0.24,0.14,0.39,0.18l-0.01-3.65h-0.38V29.39z"/>
				<path class="st3" d="M14.23,29.65c0.15,0.01,0.26,0.01,0.38,0v-3.73h-0.38V29.65z"/>
				<path class="st3" d="M14.93,29.57c0.15-0.03,0.31-0.12,0.39-0.17v-3.48h-0.38L14.93,29.57L14.93,29.57z"/>
				<path class="st3" d="M15.67,29.07c0.16-0.14,0.3-0.46,0.36-0.82l0.01-2.33h-0.38L15.67,29.07z"/>
			</g>
			<g id="Navarre_00000179614276807065816010000006095206755674135969_">
				<path class="st2" d="M19.24,26v2.13c0,0.84-0.72,1.52-1.61,1.52c-0.89,0-1.61-0.68-1.61-1.52V26H19.24"/>
				<path id="chains_half_00000110460113393187668000000014899684893136008094_" class="st3" d="M17.45,27.59
					c0-0.01,0.01-0.02,0.01-0.03l-0.27-0.3l-0.11,0.05l-0.2-0.22L16.95,27l-0.34-0.38c0,0-0.01,0-0.02,0l0,0.26l0.11,0.03v0.29
					l-0.11,0.03l0,0.26c0.05,0.02,0.09,0.06,0.11,0.11l0.21,0l0.03-0.11h0.3l0.03,0.11L17.45,27.59z M17.01,26.41v0.1h0.18v-0.1
					H17.01z M16.54,27.71c0.04,0,0.07-0.03,0.07-0.07s-0.03-0.07-0.07-0.07c-0.04,0-0.07,0.03-0.07,0.07S16.5,27.71,16.54,27.71z
					 M17.56,27.09l-0.11-0.03v-0.29l0.11-0.03l0-0.12c-0.05-0.02-0.1-0.06-0.11-0.11h-0.17l-0.03,0.11h-0.3l-0.03-0.11h-0.2
					c-0.01,0.01-0.01,0.03-0.02,0.04l0.34,0.38l0.11-0.05l0.2,0.22l-0.06,0.09l0.27,0.3c0.01,0,0.01-0.01,0.02-0.01L17.56,27.09z
					 M17.1,27l-0.08,0.07l0.11,0.13l0.08-0.07L17.1,27z M17.61,29.32c-0.08,0-0.14-0.06-0.16-0.13c-0.11-0.01-0.21-0.04-0.3-0.08
					l0.05-0.09c0.08,0.04,0.17,0.06,0.26,0.07c0.02-0.04,0.06-0.07,0.1-0.09l0-0.36l-0.11-0.03v-0.29l0.11-0.03V27.8
					c0,0-0.01,0-0.01-0.01l-0.25,0.28l0.06,0.09l-0.2,0.22l-0.11-0.05l-0.21,0.23c0.04,0.06,0.04,0.13-0.01,0.18
					c0.06,0.07,0.13,0.13,0.21,0.18l-0.05,0.09c-0.09-0.06-0.17-0.13-0.24-0.21c-0.06,0.02-0.12,0.01-0.17-0.03
					c-0.07-0.06-0.08-0.16-0.02-0.23l0.01-0.01c-0.04-0.1-0.07-0.21-0.08-0.32l0.11,0c0.01,0.1,0.03,0.19,0.07,0.27
					c0.03,0,0.06,0,0.09,0.01l0.21-0.24l-0.06-0.09l0.2-0.22l0.11,0.05l0.26-0.28c-0.01-0.01-0.01-0.02-0.01-0.03l-0.18,0
					l-0.03,0.11h-0.3l-0.03-0.11l-0.21,0c-0.02,0.05-0.06,0.09-0.11,0.1l0,0.26l-0.11,0V27.8c-0.07-0.02-0.12-0.08-0.12-0.16
					c0-0.07,0.05-0.14,0.12-0.16l0-0.26l-0.11-0.03v-0.29l0.11-0.03v-0.26c-0.07-0.02-0.12-0.08-0.12-0.16
					c0-0.09,0.08-0.17,0.17-0.17c0.08,0,0.14,0.05,0.17,0.11h0.2l0.03-0.11h0.3l0.03,0.11h0.17c0.02-0.07,0.09-0.11,0.16-0.11
					l0,0.54h-0.05V27h0.05l0,1.38h-0.05v0.17h0.05L17.61,29.32z M17.23,28.15l-0.08-0.07l-0.11,0.13l0.08,0.07L17.23,28.15z
					 M16.6,26.97h-0.11l0,0.17h0.11V26.97z M17.18,27.7v-0.1H17v0.1H17.18z M16.5,28.32l-0.11-0.02l-0.02-0.28l0.11-0.04v0.16
					C16.49,28.2,16.49,28.26,16.5,28.32L16.5,28.32z M16.6,27.96l0.11,0.03c0,0,0.01,0.18,0,0.14c0-0.05,0.01,0.14,0.01,0.14
					l-0.11,0.04c-0.01-0.06-0.02-0.12-0.02-0.18L16.6,27.96z M17.29,29.05l0.02-0.11c-0.1-0.03-0.19-0.08-0.27-0.13l-0.08,0.07
					C17.06,28.95,17.17,29.01,17.29,29.05L17.29,29.05z M17.23,29.14l-0.08,0.08c-0.09-0.03-0.18-0.08-0.26-0.14l0.02-0.11
					C17.01,29.04,17.12,29.1,17.23,29.14L17.23,29.14z"/>
				<g transform="matrix(-1,0,0,1,550.43,0)">
					<path id="chains_half_00000174579974682707972290000003957946123604761228_" class="st3" d="M17.77,27.59
						c0-0.01-0.01-0.02-0.01-0.03l0.27-0.3l0.11,0.05l0.2-0.22L18.27,27l0.34-0.38c0,0,0.01,0,0.02,0l0,0.26l-0.11,0.03v0.29
						l0.11,0.03l0,0.26c-0.05,0.02-0.09,0.06-0.11,0.11l-0.21,0l-0.03-0.11h-0.3l-0.03,0.11L17.77,27.59z M18.22,26.41v0.1h-0.18
						v-0.1H18.22z M18.69,27.71c-0.04,0-0.07-0.03-0.07-0.07s0.03-0.07,0.07-0.07c0.04,0,0.07,0.03,0.07,0.07
						S18.73,27.71,18.69,27.71z M17.66,27.09l0.11-0.03v-0.29l-0.11-0.03l0-0.12c0.05-0.02,0.1-0.06,0.11-0.11h0.17l0.03,0.11h0.3
						l0.03-0.11h0.2c0.01,0.01,0.01,0.03,0.02,0.04l-0.34,0.38l-0.11-0.05l-0.2,0.22l0.06,0.09l-0.27,0.3
						c-0.01,0-0.01-0.01-0.02-0.01L17.66,27.09z M18.13,27l0.08,0.07l-0.11,0.13l-0.08-0.07L18.13,27z M17.62,29.32
						c0.08,0,0.14-0.06,0.16-0.13c0.11-0.01,0.21-0.04,0.3-0.08l-0.05-0.09c-0.08,0.04-0.17,0.06-0.26,0.07
						c-0.02-0.04-0.06-0.07-0.1-0.09l0-0.36l0.11-0.03v-0.29l-0.11-0.03V27.8c0,0,0.01,0,0.01-0.01l0.25,0.28l-0.06,0.09l0.2,0.22
						l0.11-0.05l0.21,0.23c-0.04,0.06-0.04,0.13,0.01,0.18c-0.06,0.07-0.13,0.13-0.21,0.18l0.05,0.09c0.09-0.06,0.17-0.13,0.24-0.21
						c0.06,0.02,0.12,0.01,0.17-0.03c0.07-0.06,0.08-0.16,0.02-0.23l-0.01-0.01c0.04-0.1,0.07-0.21,0.08-0.32l-0.11,0
						c-0.01,0.1-0.03,0.19-0.07,0.27c-0.03,0-0.06,0-0.09,0.01l-0.21-0.24l0.06-0.09l-0.2-0.22l-0.11,0.05l-0.26-0.28
						c0.01-0.01,0.01-0.02,0.01-0.03l0.18,0l0.03,0.11h0.3l0.03-0.11l0.21,0c0.02,0.05,0.06,0.09,0.11,0.1l0,0.26l0.11,0V27.8
						c0.07-0.02,0.12-0.08,0.12-0.16c0-0.07-0.05-0.14-0.12-0.16l0-0.26l0.11-0.03v-0.29l-0.11-0.03v-0.26
						c0.07-0.02,0.12-0.08,0.12-0.16c0-0.09-0.08-0.17-0.17-0.17c-0.08,0-0.14,0.05-0.17,0.11h-0.2l-0.03-0.11h-0.3l-0.03,0.11
						h-0.17c-0.02-0.07-0.09-0.11-0.16-0.11l0,0.54h0.05V27h-0.05l0,1.38h0.05v0.17h-0.05L17.62,29.32z M17.99,28.15l0.08-0.07
						l0.11,0.13l-0.08,0.07L17.99,28.15z M18.63,26.97h0.11l0,0.17h-0.11V26.97z M18.05,27.7v-0.1h0.18v0.1H18.05z M18.72,28.32
						l0.11-0.02l0.02-0.28l-0.11-0.04v0.16C18.74,28.2,18.74,28.26,18.72,28.32L18.72,28.32z M18.63,27.96l-0.11,0.03
						c0,0-0.01,0.18,0,0.14c0-0.05-0.01,0.14-0.01,0.14l0.11,0.04c0.01-0.06,0.02-0.12,0.02-0.18L18.63,27.96z M17.94,29.05
						l-0.02-0.11c0.1-0.03,0.19-0.08,0.27-0.13l0.08,0.07C18.17,28.95,18.06,29.01,17.94,29.05L17.94,29.05z M17.99,29.14l0.08,0.08
						c0.09-0.03,0.18-0.08,0.26-0.14l-0.02-0.11C18.22,29.04,18.11,29.1,17.99,29.14L17.99,29.14z"/>
				</g>
				<path class="st5" d="M17.45,27.64c0-0.09,0.08-0.17,0.18-0.17c0.1,0,0.17,0.07,0.17,0.17c0,0.09-0.08,0.17-0.17,0.17
					C17.52,27.81,17.45,27.74,17.45,27.64"/>
			</g>
			<g id="Castile_00000132061610640901946620000013130647284919927446_">
				<path class="st2" d="M12.81,26h3.21v-3.57h-3.21V26z"/>
				<path class="st3" d="M13.91,23.26h-0.06V23.2h-0.1v0.24h0.1v0.16h-0.22v0.47h0.12v0.95h-0.24v0.49h1.82v-0.49h-0.24v-0.95h0.12
					V23.6h-0.22v-0.16h0.1V23.2h-0.1v0.06h-0.06V23.2h-0.1v0.06h-0.07V23.2h-0.1v0.24h0.1v0.16h-0.22v-0.52h0.12v-0.24h-0.12v0.06
					h-0.06v-0.06h-0.1v0.06h-0.06v-0.06h-0.12v0.24h0.12v0.52h-0.22v-0.16h0.1V23.2h-0.1v0.06h-0.06V23.2h-0.12L13.91,23.26
					L13.91,23.26z M13.51,25.51h1.82 M13.51,25.39h1.82 M13.51,25.27h1.82 M13.51,25.15h1.82 M13.51,25.02h1.82 M13.75,24.91h1.35
					 M13.75,24.8h1.35 M13.75,24.66h1.35 M13.75,24.55h1.35 M13.75,24.43h1.35 M13.75,24.31h1.35 M13.75,24.19h1.35 M13.63,24.07
					h1.58 M13.63,23.95h1.58 M13.63,23.83h1.58 M13.63,23.72h1.58 M13.85,23.6h1.14 M14.31,23.48h0.22 M14.31,23.36h0.22
					 M14.31,23.24h0.22 M14.31,23.13h0.22 M14.19,22.98h0.46 M13.85,23.48h0.24 M13.75,23.33h0.44 M13.75,25.51v-0.12 M13.75,25.27
					v-0.12 M13.63,25.27v0.12 M13.85,25.39v-0.12 M13.97,25.51v-0.12 M13.97,25.27v-0.12 M13.97,25.02v-0.1 M13.97,24.8v-0.13
					 M13.85,25.15v-0.13 M13.63,25.15v-0.13 M14.09,25.02v0.13 M14.19,25.02v-0.1 M13.85,24.8v0.12 M14.09,24.8v0.12 M14.31,24.8
					v0.12 M14.19,24.8v-0.13 M14.31,24.55v0.12 M14.31,24.31v0.12 M14.19,24.19v0.12 M14.31,24.07v0.12 M14.09,24.07v0.12
					 M13.85,24.07v0.12 M13.75,23.95v0.12 M13.97,23.95v0.12 M14.19,23.95v0.12 M14.31,23.83v0.12 M14.09,23.83v0.12 M13.85,23.83
					v0.12 M13.75,23.72v0.12 M14.19,23.72v0.12 M13.97,23.48v0.12 M14.99,23.48h-0.24 M15.09,23.33h-0.44 M15.09,25.51v-0.12
					 M15.09,25.27v-0.12 M15.21,25.27v0.12 M14.99,25.39v-0.12 M14.87,25.51v-0.12 M14.87,25.27v-0.12 M14.87,25.02v-0.1
					 M14.87,24.8v-0.13 M14.99,25.15v-0.13 M15.21,25.15v-0.13 M14.75,25.02v0.13 M14.65,25.02v-0.1 M14.99,24.8v0.12 M14.75,24.8
					v0.12 M14.53,24.8v0.12 M14.65,24.8v-0.13 M14.53,24.55v0.12 M14.53,24.31v0.12 M14.65,24.19v0.12 M14.53,24.07v0.12
					 M14.75,24.07v0.12 M14.99,24.07v0.12 M15.09,23.95v0.12 M14.87,23.95v0.12 M14.65,23.95v0.12 M14.53,23.83v0.12 M14.75,23.83
					v0.12 M14.99,23.83v0.12 M15.09,23.72v0.12 M14.65,23.72v0.12 M14.87,23.48v0.12 M14.41,24.8v-0.13 M14.41,24.31v-0.12
					 M14.41,24.55v-0.12 M14.41,24.07v-0.12 M14.41,23.83v-0.12 M14.41,23.48v-0.12 M14.41,23.24v-0.12 M13.85,23.44h0.24
					 M14.31,23.08h0.22 M14.75,23.44h0.24"/>
				<path class="st3" d="M14.72,25.51V25.2c0-0.06-0.03-0.24-0.31-0.24c-0.27,0-0.3,0.18-0.3,0.24v0.31H14.72z"/>
				<path class="st3" d="M14.22,25.21l-0.15-0.01c0-0.06,0.01-0.15,0.06-0.18l0.13,0.1C14.25,25.14,14.22,25.18,14.22,25.21z"/>
				<path class="st3" d="M14.47,25.06l0.07-0.13c-0.03-0.01-0.09-0.03-0.13-0.03c-0.03,0-0.09,0.01-0.12,0.03l0.07,0.13H14.47
					L14.47,25.06z"/>
				<path class="st3" d="M14.62,25.21l0.15-0.01c0-0.06-0.01-0.15-0.06-0.18l-0.13,0.1C14.59,25.14,14.62,25.18,14.62,25.21z"/>
				<path class="st3" d="M14.19,24.69v-0.33c0-0.09-0.06-0.16-0.16-0.16s-0.16,0.07-0.16,0.16v0.33H14.19L14.19,24.69z"/>
				<path class="st3" d="M14.65,24.69v-0.33c0-0.09,0.06-0.16,0.16-0.16c0.1,0,0.16,0.07,0.16,0.16v0.33H14.65z"/>
				<path class="st3" d="M14.09,23.89l0.01-0.3h-0.28l0.03,0.3H14.09z"/>
				<path class="st3" d="M14.53,23.89l0.03-0.3h-0.28l0.01,0.3H14.53z"/>
				<path class="st3" d="M14.75,23.89l-0.03-0.3h0.3l-0.03,0.3H14.75L14.75,23.89z"/>
				<g>
					<path class="st10" d="M14.62,25.51v-0.27c0-0.04-0.03-0.18-0.21-0.18c-0.16,0-0.19,0.13-0.19,0.18v0.27H14.62L14.62,25.51z"/>
					<path class="st10" d="M14.16,24.66v-0.28c0-0.07-0.04-0.15-0.13-0.15s-0.13,0.07-0.13,0.15v0.28H14.16z"/>
					<path class="st10" d="M14.68,24.66v-0.28c0-0.07,0.04-0.15,0.13-0.15c0.09,0,0.13,0.07,0.13,0.15v0.28H14.68z"/>
				</g>
			</g>
			<g id="Leon_00000006699884399560930270000013735431431966716847_">
				<path class="st8" d="M16.02,26h3.22v-3.57h-3.22V26z"/>
				<path class="st11" d="M17.66,23.31l0-0.04l0.01-0.02c0,0-0.1,0.01-0.16-0.01c-0.05-0.02-0.1-0.04-0.15-0.08
					c-0.05-0.04-0.07-0.07-0.11-0.08c-0.09-0.01-0.15,0.03-0.15,0.03s0.07,0.02,0.11,0.08c0.05,0.06,0.1,0.09,0.12,0.1
					c0.04,0.01,0.17,0,0.21,0C17.58,23.3,17.66,23.31,17.66,23.31L17.66,23.31z"/>
				<g>
					<path class="st12" d="M18.14,23.17c0,0,0,0.05,0.01,0.09c0,0.04-0.01,0.08-0.01,0.1c0.01,0.02,0.01,0.04,0.02,0.06
						c0.01,0.02,0.01,0.06,0.01,0.06s-0.02-0.02-0.05-0.03c-0.02-0.02-0.04-0.03-0.04-0.03s0,0.05,0.01,0.07
						c0,0.02,0.01,0.06,0.03,0.08c0.02,0.02,0.06,0.06,0.07,0.09c0.01,0.03,0.01,0.09,0.01,0.09s-0.03-0.05-0.06-0.06
						c-0.02-0.01-0.08-0.04-0.08-0.04s0.05,0.05,0.05,0.1c0,0.05-0.02,0.1-0.02,0.1s-0.02-0.04-0.05-0.07
						c-0.03-0.03-0.07-0.06-0.07-0.06S18,23.79,18,23.84c0,0.05-0.01,0.16-0.01,0.16s-0.02-0.04-0.05-0.06
						c-0.03-0.02-0.06-0.04-0.07-0.05c-0.01-0.01,0.03,0.04,0.03,0.07c0,0.03,0.02,0.15,0.12,0.3c0.06,0.09,0.15,0.24,0.35,0.19
						c0.2-0.05,0.13-0.32,0.08-0.44c-0.04-0.12-0.06-0.26-0.06-0.31c0-0.05,0.04-0.19,0.03-0.22c0-0.03-0.02-0.13,0.01-0.21
						c0.03-0.09,0.05-0.12,0.06-0.15c0.01-0.04,0.02-0.06,0.03-0.09s0-0.09,0-0.09s0.04,0.07,0.05,0.09c0.01,0.02,0.01,0.1,0.01,0.1
						s0.01-0.07,0.06-0.11s0.12-0.07,0.14-0.09c0.02-0.02,0.02-0.03,0.02-0.03s-0.01,0.12-0.04,0.17c-0.02,0.03-0.11,0.13-0.11,0.13
						s0.05-0.02,0.08-0.02c0.03,0,0.06,0,0.06,0s-0.04,0.03-0.09,0.1c-0.05,0.07-0.03,0.08-0.07,0.14c-0.04,0.06-0.07,0.06-0.11,0.1
						c-0.07,0.06-0.03,0.28-0.02,0.31c0.01,0.03,0.13,0.3,0.13,0.37c0,0.07,0.01,0.21-0.1,0.31c-0.07,0.06-0.2,0.06-0.22,0.08
						c-0.03,0.02-0.08,0.07-0.08,0.19c0,0.11,0.04,0.13,0.07,0.16c0.03,0.03,0.07,0.01,0.08,0.04c0.01,0.02,0.01,0.03,0.03,0.05
						c0.01,0.01,0.02,0.03,0.02,0.05c-0.01,0.02-0.06,0.08-0.08,0.12c-0.02,0.04-0.06,0.14-0.06,0.16c0,0.02,0,0.06,0.01,0.09
						c0,0,0.06,0.07,0.02,0.08c-0.03,0.01-0.05-0.02-0.06-0.01c-0.03,0.01-0.05,0.03-0.06,0.03c-0.02,0-0.02-0.02-0.03-0.05
						c0-0.03,0-0.05-0.01-0.05c-0.01,0-0.02,0.01-0.02,0.03c0,0.02,0,0.06-0.02,0.06c-0.02,0-0.04-0.03-0.05-0.04
						s-0.05-0.01-0.06-0.03c0-0.02,0.02-0.05,0.05-0.06c0.03-0.01,0.05-0.02,0.03-0.03c-0.02-0.01-0.03-0.01-0.05,0
						c-0.02,0.01-0.05,0-0.05-0.02c0-0.02,0.01-0.04,0-0.06c0-0.01-0.03-0.03,0.01-0.05c0.04-0.02,0.05,0.02,0.09,0.01
						c0.04-0.01,0.06-0.02,0.07-0.04c0.01-0.02,0.01-0.07-0.01-0.1c-0.02-0.03-0.05-0.03-0.06-0.05c-0.01-0.02-0.02-0.06-0.02-0.06
						s0.01,0.08,0,0.09c0,0.01,0,0.06,0,0.06s-0.02-0.03-0.05-0.05c-0.02-0.02-0.04-0.09-0.04-0.09s0,0.06,0,0.09
						c0,0.02,0.03,0.05,0.02,0.06c-0.01,0.01-0.05-0.05-0.07-0.06c-0.01-0.01-0.05-0.04-0.06-0.07c-0.02-0.03-0.03-0.07-0.03-0.09
						c0-0.02-0.01-0.08,0-0.1c0.01-0.03,0.03-0.07,0.03-0.07h-0.09c-0.05,0-0.08-0.01-0.1,0.02s-0.01,0.1,0.01,0.18
						c0.02,0.09,0.04,0.13,0.03,0.14c-0.01,0.02-0.04,0.05-0.05,0.06c-0.01,0.01-0.04,0-0.06,0c-0.01-0.01-0.04-0.02-0.08-0.02
						c-0.04,0-0.07,0-0.09,0c-0.02,0-0.06-0.02-0.07-0.02s-0.05,0.02-0.04,0.05c0.01,0.04-0.01,0.05-0.03,0.05
						c-0.02,0-0.03-0.01-0.06-0.02c-0.02-0.01-0.06,0-0.05-0.03c0-0.03,0.01-0.03,0.03-0.05c0.01-0.02,0.02-0.03,0-0.03
						c-0.02,0-0.03,0-0.04,0.01c-0.01,0.01-0.03,0.03-0.05,0.02c-0.02-0.01-0.03-0.03-0.03-0.07c0-0.04-0.04-0.08,0-0.07
						c0.04,0,0.09,0.03,0.1,0.01c0.01-0.02,0-0.03-0.02-0.05c-0.02-0.02-0.05-0.03-0.02-0.05c0.03-0.02,0.04-0.02,0.05-0.03
						c0.01-0.01,0.03-0.05,0.05-0.04c0.04,0.02,0,0.05,0.04,0.09c0.04,0.04,0.06,0.06,0.13,0.05c0.07-0.01,0.09-0.02,0.09-0.03
						c0-0.02-0.01-0.05-0.01-0.07c0-0.01,0.01-0.06,0.01-0.06s-0.03,0.02-0.04,0.04c-0.01,0.02-0.03,0.05-0.03,0.05
						s-0.01-0.04-0.01-0.07c0-0.02,0.01-0.05,0.01-0.06c0-0.02-0.01-0.06-0.01-0.06s-0.01,0.05-0.02,0.06
						c-0.01,0.01-0.01,0.07-0.01,0.07s-0.04-0.04-0.03-0.1c0.01-0.05-0.01-0.11,0.01-0.13c0.01-0.02,0.05-0.1,0.13-0.11
						c0.08,0,0.15,0,0.18,0c0.03,0,0.13-0.02,0.13-0.02s-0.19-0.1-0.23-0.13c-0.04-0.03-0.11-0.1-0.13-0.14
						c-0.02-0.03-0.04-0.1-0.04-0.1s-0.03,0-0.07,0.02c-0.03,0.02-0.06,0.04-0.08,0.06c-0.02,0.02-0.05,0.07-0.05,0.07
						s0.01-0.06,0.01-0.08c0-0.02,0-0.06,0-0.06s-0.02,0.08-0.06,0.11c-0.04,0.03-0.09,0.07-0.09,0.07s0.01-0.05,0.01-0.06
						c0-0.01,0.01-0.06,0.01-0.06s-0.03,0.05-0.08,0.06c-0.05,0.01-0.12,0.01-0.12,0.04c-0.01,0.03,0.01,0.07,0,0.09
						s-0.03,0.03-0.03,0.03s-0.03-0.02-0.05-0.02c-0.02,0-0.05,0.01-0.05,0.01s-0.02-0.03-0.01-0.04c0.01-0.02,0.04-0.04,0.03-0.05
						c-0.01-0.01-0.04,0-0.06,0.01c-0.02,0.01-0.06,0.02-0.05-0.01c0-0.03,0.01-0.05,0-0.07c-0.01-0.02,0-0.03,0.01-0.04
						c0.01-0.01,0.07,0,0.08-0.01c0.01-0.01-0.01-0.03-0.05-0.04c-0.04-0.01-0.06-0.03-0.04-0.05c0.02-0.02,0.03-0.02,0.03-0.04
						c0.01-0.02,0.01-0.05,0.05-0.03c0.03,0.02,0.03,0.05,0.06,0.06c0.04,0.01,0.12-0.01,0.14-0.02s0.08-0.05,0.1-0.06
						c0.02-0.01,0.1-0.07,0.1-0.07s-0.05-0.03-0.07-0.05c-0.02-0.02-0.05-0.06-0.07-0.07c-0.02-0.01-0.1-0.04-0.12-0.04
						c-0.03,0-0.11-0.03-0.11-0.03s0.04-0.01,0.05-0.02c0.01-0.01,0.04-0.04,0.06-0.03c0.01,0,0.02,0,0.02,0s-0.08,0-0.09-0.01
						c-0.02-0.01-0.06-0.03-0.08-0.03s-0.05,0.01-0.05,0.01s0.05-0.03,0.09-0.04c0.04-0.01,0.07-0.01,0.07-0.01
						s-0.06-0.02-0.08-0.04c-0.01-0.02-0.03-0.05-0.04-0.07c-0.01-0.01-0.02-0.04-0.04-0.04c-0.02,0-0.05,0.02-0.07,0.02
						c-0.02,0-0.03-0.01-0.04-0.04c0-0.03,0-0.02-0.01-0.03c-0.01-0.02-0.04-0.05-0.01-0.06c0.03-0.01,0.09,0.01,0.09-0.01
						c0.01-0.01-0.03-0.04-0.05-0.05c-0.02-0.01-0.06-0.03-0.04-0.05c0.02-0.02,0.04-0.02,0.05-0.04c0.01-0.02,0.02-0.06,0.05-0.04
						c0.02,0.01,0.06,0.08,0.07,0.08c0.02-0.01,0.02-0.05,0.02-0.07c0-0.02,0-0.06,0.02-0.05c0.02,0,0.03,0.03,0.06,0.03
						c0.03,0,0.07-0.01,0.07,0.01c0,0.02-0.02,0.05-0.04,0.07c-0.02,0.02-0.03,0.07-0.02,0.1c0.01,0.03,0.05,0.08,0.07,0.09
						c0.03,0.02,0.08,0.03,0.12,0.05c0.03,0.02,0.11,0.09,0.14,0.09c0.03,0.01,0.05,0.02,0.05,0.02s0.03-0.01,0.07-0.01
						s0.14,0.01,0.17-0.01s0.08-0.04,0.07-0.07c-0.01-0.03-0.09-0.06-0.09-0.09c0.01-0.03,0.04-0.03,0.09-0.03
						c0.05,0,0.12,0.01,0.13-0.06c0.01-0.07,0.02-0.11-0.05-0.12c-0.07-0.02-0.12-0.02-0.13-0.07c-0.01-0.05-0.02-0.06-0.01-0.08
						c0.01-0.01,0.04-0.02,0.09-0.02c0.05,0,0.11,0,0.13-0.02c0.02-0.01,0.02-0.04,0.04-0.06c0.02-0.01,0.1-0.03,0.1-0.03
						s0.09,0.05,0.18,0.11C18.07,23.08,18.14,23.17,18.14,23.17"/>
					<path class="st4" d="M17.22,23.58c0,0-0.05,0.01-0.07,0.04c-0.02,0.03-0.02,0.07-0.02,0.07s0.04-0.04,0.1-0.02
						c0.06,0.02,0.06,0.02,0.09,0.02c0.02,0,0.08-0.02,0.08-0.02s-0.05,0.06-0.04,0.09c0.01,0.04,0.01,0.05,0.01,0.07
						c0,0.05-0.04,0.1-0.04,0.1s0.02-0.01,0.07-0.02c0.05-0.01,0.09-0.03,0.11-0.05c0.02-0.02,0.06-0.07,0.06-0.07
						s-0.01,0.06,0,0.09c0.01,0.03,0.01,0.11,0.01,0.11s0.03-0.03,0.05-0.04c0.01-0.01,0.04-0.02,0.06-0.04
						c0.01-0.01,0.02-0.07,0.02-0.07s0.01,0.06,0.02,0.09c0.02,0.03,0.04,0.11,0.04,0.11s0.02-0.06,0.04-0.08
						c0.02-0.02,0.04-0.05,0.04-0.07c0-0.02-0.01-0.05-0.01-0.05l0.02,0.05 M17.15,23.93c0,0,0.03-0.05,0.06-0.07
						c0.03-0.02,0.07-0.05,0.08-0.05c0.01,0,0.06-0.03,0.06-0.03 M17.41,24.11c0,0,0.07-0.04,0.09-0.05
						c0.04-0.03,0.07-0.07,0.07-0.07"/>
					<path class="st4" d="M18.08,23.42c0,0-0.02-0.03-0.03-0.04c-0.01-0.01-0.01-0.03-0.01-0.03"/>
					<path class="st4" d="M17.81,24.47c0,0,0.13,0.08,0.13,0.15c0,0.07-0.07,0.15-0.07,0.15"/>
				</g>
				<path d="M17.48,23.12c0,0-0.01-0.03-0.01-0.04c0-0.01-0.01-0.02-0.01-0.02s0.06,0,0.05,0.02c0,0.02-0.02,0.02-0.02,0.02
					C17.48,23.11,17.48,23.12,17.48,23.12L17.48,23.12z"/>
				<path d="M17.73,23.03l0-0.03c0,0,0.05,0,0.07,0.02c0.04,0.03,0.06,0.07,0.06,0.07c-0.01,0.01-0.03-0.02-0.05-0.02
					c0,0-0.01,0-0.03,0c-0.01,0-0.02-0.01-0.02-0.01c0-0.01,0-0.02,0-0.02L17.73,23.03z"/>
				<g>
					<path d="M17.48,23.37l0.02-0.03l0.02,0.03L17.48,23.37"/>
					<path d="M17.53,23.37l0.03-0.03l0.03,0.03L17.53,23.37"/>
					<path d="M17.51,23.16l0.05,0.02l-0.05,0.02L17.51,23.16"/>
					<path d="M17.57,23.17l0.05,0.01l-0.04,0.03L17.57,23.17"/>
				</g>
				<g>
					<path class="st11" d="M16.76,23.11c0,0,0.03,0.02,0.05,0.03c0.02,0,0.05,0,0.05,0c0,0,0.01-0.03,0.01-0.06
						c-0.01-0.08-0.08-0.09-0.08-0.09s0.02,0.05,0.01,0.07C16.79,23.08,16.76,23.11,16.76,23.11L16.76,23.11z"/>
					<path class="st11" d="M16.61,23.18c0,0-0.03-0.05-0.09-0.04c-0.06,0.01-0.1,0.05-0.1,0.05s0.06,0,0.08,0.01
						c0.02,0.02,0.03,0.06,0.03,0.06s0.03-0.02,0.05-0.03C16.6,23.2,16.61,23.18,16.61,23.18L16.61,23.18z"/>
					<path class="st11" d="M16.54,23.38c0,0-0.05,0.01-0.08,0.04c-0.03,0.03-0.02,0.09-0.02,0.09s0.03-0.03,0.06-0.03
						c0.03,0,0.07,0.01,0.07,0.01s-0.01-0.04-0.01-0.05C16.57,23.41,16.54,23.38,16.54,23.38L16.54,23.38z"/>
					<path class="st11" d="M16.71,24.02c0,0-0.03-0.03-0.07-0.02c-0.05,0.01-0.08,0.06-0.08,0.06s0.04-0.01,0.06-0.01
						c0.02,0.01,0.04,0.03,0.04,0.03s0.02-0.02,0.03-0.03C16.7,24.05,16.71,24.02,16.71,24.02L16.71,24.02z"/>
					<path class="st11" d="M16.65,24.21c0,0-0.04-0.01-0.07,0.02c-0.03,0.03-0.04,0.08-0.04,0.08s0.03-0.03,0.06-0.02
						c0.02,0,0.06,0.02,0.06,0.02s0.01-0.03,0.01-0.04C16.67,24.24,16.65,24.21,16.65,24.21L16.65,24.21z"/>
					<path class="st11" d="M16.75,24.39c0,0,0,0.05,0.02,0.08c0.03,0.03,0.07,0.04,0.07,0.04s-0.02-0.03-0.02-0.05
						c0-0.03,0.02-0.05,0.02-0.05s-0.02-0.02-0.05-0.02C16.77,24.39,16.75,24.39,16.75,24.39L16.75,24.39z"/>
					<path class="st11" d="M17.22,24.84c0,0-0.03-0.04-0.08-0.04c-0.05,0-0.09,0.04-0.09,0.04s0.06,0,0.07,0.01
						c0.01,0.02,0.03,0.04,0.03,0.04s0.03-0.01,0.04-0.02C17.19,24.87,17.22,24.84,17.22,24.84L17.22,24.84z"/>
					<path class="st11" d="M17.08,25.02c0,0-0.06-0.01-0.09,0.02c-0.03,0.03-0.03,0.09-0.03,0.09s0.04-0.04,0.07-0.04
						c0.03,0,0.07,0.02,0.07,0.02s-0.01-0.03-0.01-0.05C17.09,25.05,17.08,25.02,17.08,25.02L17.08,25.02z"/>
					<path class="st11" d="M17.21,25.21c0,0-0.03,0.04-0.01,0.07s0.07,0.05,0.07,0.05s-0.02-0.02-0.01-0.05
						c0.01-0.02,0.04-0.05,0.04-0.05L17.21,25.21L17.21,25.21z"/>
					<path class="st11" d="M18,25.29c0,0-0.05-0.01-0.08,0.01c-0.03,0.02-0.05,0.09-0.05,0.09s0.05-0.04,0.08-0.03
						c0.03,0.01,0.06,0.02,0.06,0.02s0.01-0.03,0-0.05C18.01,25.3,18,25.29,18,25.29L18,25.29z"/>
					<path class="st11" d="M18.02,25.48c0,0-0.04,0.04-0.03,0.08c0.01,0.03,0.04,0.07,0.04,0.07s0-0.05,0.01-0.07
						c0.02-0.02,0.07-0.02,0.07-0.02s-0.03-0.03-0.05-0.03C18.06,25.5,18.02,25.48,18.02,25.48z"/>
					<path class="st11" d="M18.22,25.54c0,0-0.02,0.05,0.02,0.08c0.04,0.03,0.07,0.04,0.07,0.04s-0.03-0.05-0.02-0.08
						c0.01-0.03,0.03-0.05,0.03-0.05s-0.05-0.02-0.05-0.01C18.27,25.52,18.22,25.54,18.22,25.54L18.22,25.54z"/>
				</g>
				<g>
					<path class="st3" d="M18.1,22.89l-0.02,0c0,0-0.01,0.02-0.02,0.02c-0.02,0.02-0.04,0.02-0.06,0c-0.01-0.01-0.01-0.02-0.01-0.03
						c-0.01,0.01-0.02,0.01-0.03,0c-0.02-0.01-0.02-0.03-0.01-0.05c0,0,0-0.01,0.01-0.01l0-0.02l-0.02,0.01l-0.01,0.01
						c-0.01,0.02-0.03,0.02-0.04,0.01c-0.01,0-0.01-0.02-0.01-0.02c0,0-0.01,0.01-0.01,0.01c-0.03,0.01-0.05-0.07-0.05-0.09
						l-0.01,0.02c0,0,0.01,0.04,0.01,0.08c-0.01,0.04-0.02,0.08-0.02,0.08c0.05,0.01,0.12,0.05,0.19,0.11s0.13,0.11,0.15,0.15
						c0,0,0.04-0.02,0.08-0.03s0.09-0.01,0.09-0.01l0.01-0.01c-0.02,0-0.1,0.01-0.1-0.03c0-0.01,0-0.01,0.01-0.01c0,0-0.01,0-0.02,0
						c-0.01-0.01-0.01-0.03,0-0.04l0.01-0.01l0-0.02l-0.02,0c0,0-0.01,0.01-0.01,0.01c-0.02,0.01-0.04,0.02-0.06,0
						c-0.01-0.01-0.01-0.02-0.01-0.03c-0.01,0-0.02,0-0.03,0c-0.02-0.01-0.02-0.03-0.01-0.05c0.01-0.01,0.02-0.02,0.02-0.02
						L18.1,22.89L18.1,22.89L18.1,22.89z"/>
					<g>
						<path d="M17.96,22.94c0,0,0.01,0,0.01,0s0.01,0.01,0,0.01c0,0-0.01,0-0.02,0C17.96,22.95,17.96,22.94,17.96,22.94L17.96,22.94
							z"/>
						<path d="M18.02,22.99L18,22.97c0,0,0-0.01,0-0.01c0,0,0.01,0,0.01,0L18.02,22.99l0.03,0.01c0,0,0.01,0.01,0,0.01
							c0,0-0.01,0-0.01,0L18.02,22.99"/>
						<path d="M17.91,22.91l-0.02-0.01c0,0-0.01-0.01,0-0.01c0,0,0.01,0,0.01,0l0.02,0.01l0.02,0.01c0,0,0.01,0.01,0,0.01
							c0,0-0.01,0-0.01,0L17.91,22.91"/>
						<path d="M17.84,22.87c0,0,0.01,0,0.02,0c0.01,0,0.01,0.01,0,0.01c0,0-0.01,0-0.01,0C17.84,22.88,17.84,22.87,17.84,22.87
							L17.84,22.87z"/>
						<path d="M18.09,23.03c0,0,0-0.01,0-0.01c-0.01,0-0.01,0-0.02,0c0,0,0,0.01,0,0.01C18.08,23.04,18.09,23.04,18.09,23.03
							L18.09,23.03z"/>
						<path d="M18.12,23.08l0.01,0.01c0,0,0.01,0,0.01,0c0,0,0-0.01,0-0.01l-0.01-0.01l-0.01-0.01c0,0-0.01,0-0.01,0
							c0,0,0,0.01,0,0.01L18.12,23.08"/>
						<path d="M18.19,23.13c0,0,0-0.01,0-0.01c-0.01,0-0.01,0-0.01,0c0,0,0,0.01,0,0.01C18.18,23.13,18.18,23.13,18.19,23.13z"/>
					</g>
					<path class="st3" d="M18.01,22.74l-0.04,0l-0.01,0.06l0,0.01l0.01,0l0.05-0.03L18.01,22.74"/>
					<path class="st3" d="M18.01,22.74l-0.04,0l-0.01,0.06l0,0.01l0.01,0l0.05-0.03L18.01,22.74"/>
					<path class="st3" d="M17.91,22.77l0,0.03l0.06,0.01l0.01,0l0-0.01l-0.03-0.05L17.91,22.77"/>
					<path class="st3" d="M18.03,22.84L18,22.86l-0.03-0.05l0-0.01l0.01,0l0.06,0.01L18.03,22.84"/>
					<path class="st3" d="M17.95,22.8c0.01-0.01,0.02-0.01,0.02-0.01c0.01,0,0.01,0.02,0.01,0.02c-0.01,0.01-0.02,0.01-0.02,0.01
						C17.95,22.82,17.95,22.81,17.95,22.8z"/>
					<path class="st3" d="M17.82,22.74c0,0-0.01-0.03-0.02-0.05c-0.01-0.01-0.02-0.03-0.02-0.03c0,0,0.03-0.01,0.06,0.01
						c0.02,0.02,0,0.06,0,0.06S17.82,22.74,17.82,22.74L17.82,22.74z"/>
					<path class="st3" d="M17.88,22.76l-0.03,0.02l-0.04-0.04l0-0.01l0-0.01l0.06,0L17.88,22.76"/>
					<path class="st3" d="M17.81,22.74c0-0.01,0.01-0.01,0.02-0.01c0.01,0,0.01,0.01,0.01,0.02c0,0.01-0.01,0.01-0.02,0.01
						C17.81,22.76,17.8,22.75,17.81,22.74z"/>
					<path class="st3" d="M18.15,22.83l-0.04,0l-0.02,0.05l0,0.01l0.01,0l0.05-0.03L18.15,22.83"/>
					<path class="st3" d="M18.05,22.85l-0.01,0.03l0.06,0.01l0.01,0l0-0.01l-0.03-0.05L18.05,22.85"/>
					<path class="st3" d="M18.16,22.94l-0.03,0.01L18.1,22.9l0-0.01l0.01,0l0.06,0.01L18.16,22.94"/>
					<path class="st3" d="M18.09,22.88c0.01-0.01,0.02-0.01,0.03,0c0.01,0.01,0.01,0.02,0,0.02s-0.02,0.01-0.03,0
						C18.08,22.9,18.08,22.89,18.09,22.88L18.09,22.88z"/>
					<path class="st3" d="M18.28,22.95l0.01,0.04l-0.06,0.02l-0.01,0l0-0.01l0.02-0.05L18.28,22.95"/>
					<path class="st3" d="M18.27,23.05l-0.04,0.01l-0.02-0.05l0-0.01l0.01,0l0.05,0.02L18.27,23.05"/>
					<path class="st3" d="M18.17,22.95l-0.01,0.03l0.05,0.02l0.01,0l0-0.01l-0.02-0.05L18.17,22.95"/>
					<path class="st3" d="M18.23,23.02c0.01-0.01,0.01-0.02,0-0.02c-0.01-0.01-0.02-0.01-0.03,0c-0.01,0.01-0.01,0.02,0,0.02
						C18.22,23.02,18.23,23.02,18.23,23.02L18.23,23.02z"/>
					<path class="st3" d="M18.32,23.13c0,0,0.03,0,0.05,0.01c0.01,0,0.03,0.02,0.03,0.02c0,0,0.01-0.03-0.02-0.05
						c-0.02-0.02-0.06,0.01-0.06,0.01S18.32,23.13,18.32,23.13L18.32,23.13z"/>
					<path class="st3" d="M18.29,23.07l-0.02,0.03l0.05,0.03l0.01-0.01l0.01,0l-0.01-0.06L18.29,23.07"/>
					<path class="st3" d="M18.33,23.14c0.01,0,0.01-0.01,0.01-0.02c0-0.01-0.01-0.01-0.02,0c-0.01,0.01-0.01,0.01-0.01,0.02
						C18.31,23.14,18.32,23.14,18.33,23.14z"/>
				</g>
			</g>
			<g id="inescutcheon_00000139270213675818498650000005953031999136285342_">
				<ellipse class="st2" cx="16.03" cy="25.98" rx="1.04" ry="1.17"/>
				<ellipse class="st7" cx="16.03" cy="25.98" rx="0.73" ry="0.86"/>
				<g id="fdl_00000014616282852074445130000002805925883305374136_">
					<path class="st3" d="M15.68,25.39c0,0-0.09,0.09-0.09,0.18c0,0.09,0.04,0.16,0.04,0.16c-0.01-0.04-0.05-0.06-0.09-0.06
						c-0.05,0-0.1,0.04-0.1,0.09c0,0.01,0.01,0.04,0.02,0.05l0.03,0.06c0.01-0.02,0.03-0.04,0.06-0.04c0.04,0,0.07,0.03,0.07,0.06
						c0,0.01,0,0.01,0,0.02l-0.08,0v0.07h0.07l-0.05,0.1l0.07-0.03l0.05,0.06l0.05-0.06l0.07,0.03l-0.05-0.1h0.07v-0.07l-0.08,0
						c0-0.01,0-0.01,0-0.02c0-0.04,0.03-0.06,0.07-0.06c0.03,0,0.05,0.01,0.06,0.04l0.03-0.06c0.01-0.01,0.02-0.04,0.02-0.05
						c0-0.05-0.04-0.09-0.1-0.09c-0.04,0-0.08,0.02-0.09,0.06c0,0,0.04-0.07,0.04-0.16C15.77,25.49,15.68,25.39,15.68,25.39
						L15.68,25.39z"/>
					<path class="st3" d="M15.54,25.99h0.28v-0.07h-0.28V25.99z"/>
				</g>
				<g>
					<g id="fdl_00000152968571720605344530000006469589370381731738_">
						<path class="st3" d="M16.36,25.39c0,0-0.09,0.09-0.09,0.18c0,0.09,0.04,0.16,0.04,0.16c-0.01-0.04-0.05-0.06-0.09-0.06
							c-0.05,0-0.1,0.04-0.1,0.09c0,0.01,0.01,0.04,0.02,0.05l0.03,0.06c0.01-0.02,0.03-0.04,0.06-0.04c0.04,0,0.07,0.03,0.07,0.06
							c0,0.01,0,0.01,0,0.02l-0.08,0v0.07h0.07l-0.05,0.1l0.07-0.03l0.05,0.06l0.05-0.06l0.07,0.03l-0.05-0.1h0.07v-0.07l-0.08,0
							c0-0.01,0-0.01,0-0.02c0-0.04,0.03-0.06,0.07-0.06c0.03,0,0.05,0.01,0.06,0.04l0.03-0.06c0.01-0.01,0.02-0.04,0.02-0.05
							c0-0.05-0.04-0.09-0.1-0.09c-0.04,0-0.08,0.02-0.09,0.06c0,0,0.04-0.07,0.04-0.16C16.45,25.49,16.36,25.39,16.36,25.39
							L16.36,25.39z"/>
						<path class="st3" d="M16.22,25.99h0.28v-0.07h-0.28V25.99z"/>
					</g>
				</g>
				<g>
					<g id="fdl_00000161598066119714511520000016889866056600421816_">
						<path class="st3" d="M16.02,25.98c0,0-0.09,0.09-0.09,0.18c0,0.09,0.04,0.16,0.04,0.16c-0.01-0.04-0.05-0.06-0.09-0.06
							c-0.05,0-0.1,0.04-0.1,0.09c0,0.01,0.01,0.04,0.02,0.05l0.03,0.06c0.01-0.02,0.03-0.04,0.06-0.04c0.04,0,0.07,0.03,0.07,0.06
							c0,0.01,0,0.01,0,0.02l-0.08,0v0.07h0.07l-0.05,0.1l0.07-0.03l0.05,0.06l0.05-0.06l0.07,0.03l-0.05-0.1h0.07v-0.07l-0.08,0
							c0-0.01,0-0.01,0-0.02c0-0.04,0.03-0.06,0.07-0.06c0.03,0,0.05,0.01,0.06,0.04l0.03-0.06c0.01-0.01,0.02-0.04,0.02-0.05
							c0-0.05-0.04-0.09-0.1-0.09c-0.04,0-0.08,0.02-0.09,0.06c0,0,0.04-0.07,0.04-0.16C16.11,26.07,16.02,25.98,16.02,25.98
							L16.02,25.98z"/>
						<path class="st3" d="M15.88,26.58h0.28v-0.07h-0.28V26.58z"/>
					</g>
				</g>
			</g>
		</g>
	</g>
</g>
</svg>
