<?xml version="1.0" encoding="utf-8"?>
<!-- Generator: Adobe Illustrator 27.8.1, SVG Export Plug-In . SVG Version: 6.00 Build 0)  -->
<svg version="1.1" id="Calque_1" xmlns="http://www.w3.org/2000/svg" xmlns:xlink="http://www.w3.org/1999/xlink" x="0px" y="0px"
	 viewBox="0 0 48 48" style="enable-background:new 0 0 48 48;" xml:space="preserve">
<style type="text/css">
	.st0{fill:#1C779C;}
	.st1{fill:#F5F5F5;}
</style>
<path class="st0" d="M45.4,11.8H18.2L16,6.2H2.6C1.2,6.2,0,7.4,0,8.9v30.3c0,1.5,1.2,2.6,2.6,2.6h42.7c1.5,0,2.6-1.2,2.6-2.6V14.4
	C48,13,46.8,11.8,45.4,11.8z"/>
<g>
	<path class="st1" d="M27.4,26.2c-1-3.4-4.5-5.3-7.8-4.4l-3.4,0.9l-1,0.3L11.8,24c-3.4,0.9-5.4,4.5-4.4,7.8c0.9,3.4,4.5,5.4,7.8,4.4
		l6.7-1.9l-2.5-2.6l-5,1.4c-1.7,0.5-3.4-0.5-3.9-2.2C10,29.3,11,27.5,12.7,27l3.4-0.9l1-0.3l3.4-0.9c1.7-0.5,3.5,0.5,3.9,2.2l0,0
		c0,0,0,0,0,0c0.2,0.8,1.1,1.3,2,1.1C27.2,28,27.6,27.1,27.4,26.2C27.4,26.2,27.4,26.2,27.4,26.2z"/>
	<path class="st1" d="M20.6,28.2c1,3.4,4.5,5.3,7.8,4.4l3.4-0.9l1-0.3l3.4-0.9c3.4-0.9,5.4-4.5,4.4-7.8c-0.9-3.4-4.5-5.4-7.8-4.4
		L26.1,20l2.5,2.6l5-1.4c1.7-0.5,3.4,0.5,3.9,2.2c0.5,1.7-0.5,3.5-2.2,3.9L32,28.3l-1,0.3l-3.4,0.9c-1.7,0.5-3.5-0.5-3.9-2.2l0,0
		c0,0,0,0,0,0c-0.2-0.8-1.1-1.3-2-1.1C20.8,26.4,20.3,27.3,20.6,28.2C20.6,28.1,20.6,28.1,20.6,28.2z"/>
</g>
</svg>
